<svg width="24" height="24" viewBox="0 0 24 24" fill="none" xmlns="http://www.w3.org/2000/svg">
<g clip-path="url(#clip0_464_1583)">
<path d="M2.625 17.625V7.875C2.625 7.77554 2.58549 7.68016 2.51516 7.60983C2.44484 7.53951 2.34946 7.5 2.25 7.5C2.15054 7.5 2.05516 7.53951 1.98484 7.60983C1.91451 7.68016 1.875 7.77554 1.875 7.875V17.625C1.875 17.7245 1.91451 17.8198 1.98484 17.8902C2.05516 17.9605 2.15054 18 2.25 18C2.34946 18 2.44484 17.9605 2.51516 17.8902C2.58549 17.8198 2.625 17.7245 2.625 17.625Z" fill="#4890B2"/>
<path d="M22.7653 16.3165C22.9112 16.0802 22.9637 15.7979 22.9125 15.525C22.8564 15.2321 22.6864 14.9734 22.4399 14.8056C22.1933 14.6378 21.8903 14.5746 21.5973 14.6298L19.7552 14.9799C19.5777 15.0122 19.4106 15.0871 19.2683 15.1981C19.126 15.3091 19.0127 15.453 18.9383 15.6174C18.8638 15.7818 18.8303 15.9619 18.8406 16.142C18.851 16.3222 18.9049 16.4972 18.9977 16.652L17.8249 16.8745L17.4049 14.6631L18.8787 14.3831C18.9764 14.3646 19.0627 14.308 19.1187 14.2257C19.1747 14.1435 19.1957 14.0425 19.1771 13.9447C19.1586 13.847 19.102 13.7607 19.0198 13.7047C18.9375 13.6487 18.8365 13.6277 18.7388 13.6463L15.33 14.294L14.5453 12.3309C14.4614 12.1223 14.317 11.9436 14.1308 11.8178C13.9445 11.692 13.7248 11.6249 13.5 11.625H11.625V6.74999H12.375C12.4503 6.74997 12.5238 6.72731 12.586 6.68495C12.6482 6.64259 12.6962 6.58249 12.7238 6.51247C12.7514 6.44246 12.7573 6.36576 12.7407 6.29235C12.7241 6.21894 12.6858 6.15222 12.6308 6.10087L7.00579 0.850869C6.93636 0.786107 6.84495 0.750092 6.75 0.750092C6.65506 0.750092 6.56365 0.786107 6.49422 0.850869L0.869215 6.10087C0.814202 6.15222 0.775913 6.21894 0.759327 6.29235C0.742741 6.36576 0.748626 6.44246 0.776217 6.51247C0.803807 6.58249 0.851827 6.64259 0.914031 6.68495C0.976235 6.72731 1.04975 6.74997 1.125 6.74999H10.875V16.5C10.875 16.5995 10.9145 16.6948 10.9848 16.7652C11.0552 16.8355 11.1505 16.875 11.25 16.875C11.3495 16.875 11.4448 16.8355 11.5152 16.7652C11.5855 16.6948 11.625 16.5995 11.625 16.5V13.875H12.4838C12.559 13.8751 12.6324 13.8978 12.6946 13.9399C12.7569 13.9821 12.8051 14.0419 12.8331 14.1117L14.2128 17.5596L13.3703 17.7194C13.1194 17.525 12.83 17.3861 12.5213 17.3119C12.2126 17.2378 11.8916 17.2301 11.5797 17.2894C11.2678 17.3487 10.9721 17.4736 10.7121 17.6558C10.4522 17.838 10.2339 18.0734 10.0718 18.3464L6.77213 18.9727L6.35213 16.7631L7.82588 16.4831C7.92333 16.4643 8.00935 16.4076 8.06509 16.3255C8.12082 16.2433 8.14172 16.1425 8.12321 16.0449C8.1047 15.9474 8.04829 15.8612 7.96633 15.8052C7.88438 15.7493 7.78357 15.728 7.686 15.7462L4.00193 16.4463C3.9102 16.4636 3.82826 16.5146 3.77213 16.5892C3.716 16.6638 3.68971 16.7567 3.69841 16.8496C3.7071 16.9426 3.75016 17.0289 3.81916 17.0918C3.88816 17.1547 3.97813 17.1896 4.07149 17.1897C4.09508 17.1897 4.11863 17.1875 4.1418 17.1831L5.61555 16.9031L6.03533 19.1125L4.86342 19.3348C4.89127 19.1572 4.87599 18.9755 4.81887 18.805C4.76175 18.6345 4.66446 18.4802 4.53521 18.3552C4.40595 18.2302 4.24853 18.1381 4.07622 18.0867C3.9039 18.0353 3.72176 18.0261 3.54514 18.0598L1.7031 18.4099C1.4893 18.4498 1.2917 18.5509 1.13437 18.7011C0.977036 18.8512 0.866764 19.0439 0.816986 19.2556C0.767207 19.4673 0.78007 19.6889 0.854008 19.8934C0.927946 20.098 1.05977 20.2766 1.23342 20.4075C1.12632 20.5825 1.06936 20.7836 1.06875 20.9887C1.06891 21.0589 1.07491 21.129 1.08668 21.1982C1.11385 21.3436 1.16952 21.4821 1.25049 21.6059C1.33145 21.7296 1.43611 21.8361 1.55843 21.9192C1.68074 22.0023 1.8183 22.0603 1.96316 22.09C2.10803 22.1197 2.25734 22.1204 2.40248 22.0921L9.75 20.6985V22.875C9.75 22.9745 9.78951 23.0698 9.85984 23.1402C9.93016 23.2105 10.0255 23.25 10.125 23.25H13.875C13.9745 23.25 14.0698 23.2105 14.1402 23.1402C14.2105 23.0698 14.25 22.9745 14.25 22.875V19.8405L15.0627 19.6861L16.2054 22.5443C16.2892 22.7527 16.4335 22.9313 16.6197 23.057C16.8058 23.1828 17.0253 23.25 17.25 23.25H19.125C19.4229 23.2486 19.7083 23.1296 19.919 22.919C20.1296 22.7083 20.2486 22.4229 20.25 22.125C20.2497 21.8267 20.131 21.5408 19.9201 21.3299C19.7092 21.119 19.4233 21.0003 19.125 21H18.2663C18.191 20.9998 18.1176 20.9772 18.0553 20.935C17.993 20.8928 17.9448 20.8329 17.9169 20.7631L17.3138 19.2585L22.2955 18.3124C22.5525 18.2646 22.7849 18.1286 22.9523 17.9278C23.1197 17.7269 23.2118 17.474 23.2125 17.2125C23.211 17.142 23.2039 17.0718 23.1913 17.0025C23.1407 16.7284 22.9886 16.4834 22.7653 16.3165ZM6.75 1.63788L11.4236 5.99999H2.07642L6.75 1.63788ZM19.6551 15.874C19.6827 15.8332 19.7181 15.7982 19.7593 15.7712C19.8005 15.7442 19.8467 15.7257 19.8951 15.7167L21.7371 15.3666C21.7603 15.3622 21.7837 15.36 21.8073 15.36C21.9006 15.36 21.9906 15.3949 22.0597 15.4577C22.1287 15.5206 22.1718 15.6069 22.1805 15.6999C22.1893 15.7928 22.1631 15.8857 22.107 15.9603C22.0509 16.0349 21.969 16.086 21.8772 16.1034L20.0352 16.4535C19.9623 16.4673 19.887 16.4593 19.8187 16.4303C19.7504 16.4013 19.6922 16.3527 19.6516 16.2907C19.6109 16.2287 19.5895 16.156 19.5902 16.0818C19.5908 16.0076 19.6133 15.9353 19.6551 15.874ZM16.6677 14.8029L17.0877 17.0142L16.4639 17.1325L15.6126 15.0033L16.6677 14.8029ZM13.53 13.8347C13.446 13.6258 13.3016 13.4466 13.1152 13.3202C12.9288 13.1938 12.709 13.1258 12.4838 13.125H11.625V12.375H13.5C13.5751 12.3753 13.6485 12.3979 13.7107 12.44C13.7729 12.4822 13.8211 12.5419 13.8492 12.6116L15.7131 17.275L14.9636 17.4172L13.53 13.8347ZM1.6029 19.3039C1.63051 19.2631 1.66594 19.2282 1.70714 19.2012C1.74833 19.1742 1.79448 19.1556 1.8429 19.1466L3.68498 18.7965C3.70827 18.7921 3.73192 18.7898 3.75563 18.7897C3.84836 18.7895 3.93786 18.8237 4.0068 18.8857C4.07574 18.9478 4.1192 19.0332 4.12875 19.1254C4.13831 19.2176 4.11328 19.3101 4.05852 19.385C4.00375 19.4598 3.92316 19.5116 3.83235 19.5304L1.97862 19.8821L1.97457 19.8833C1.90221 19.8957 1.82782 19.8864 1.76067 19.8568C1.69353 19.8272 1.63659 19.7784 1.59695 19.7166C1.55732 19.6549 1.53675 19.5828 1.5378 19.5094C1.53885 19.436 1.56152 19.3645 1.6029 19.3039ZM2.26099 21.3558C2.16479 21.3739 2.06532 21.3537 1.98383 21.2994C1.90233 21.2452 1.84527 21.1613 1.82483 21.0655C1.82072 21.0402 1.81868 21.0145 1.81875 20.9887C1.81898 20.903 1.84839 20.8198 1.90214 20.753C1.95589 20.6861 2.03079 20.6396 2.11452 20.6209L2.12288 20.6202L3.96492 20.2701C3.9702 20.269 3.97493 20.2667 3.98018 20.2656L6.53393 19.781C6.53715 19.7805 6.54034 19.7807 6.5436 19.7801L6.54784 19.7783L9.77742 19.1655C9.75996 19.2762 9.7508 19.388 9.75 19.5V19.935L2.26099 21.3558ZM13.5 22.5H10.5V19.5C10.5 19.1022 10.658 18.7206 10.9393 18.4393C11.2206 18.158 11.6022 18 12 18C12.3978 18 12.7794 18.158 13.0607 18.4393C13.342 18.7206 13.5 19.1022 13.5 19.5V22.5ZM17.22 21.0403C17.304 21.2492 17.4484 21.4284 17.6348 21.5548C17.8212 21.6812 18.041 21.7492 18.2663 21.75H19.125C19.2244 21.7501 19.3197 21.7897 19.39 21.86C19.4603 21.9303 19.4999 22.0256 19.5 22.125C19.5001 22.175 19.49 22.2244 19.4703 22.2703C19.4506 22.3163 19.4217 22.3576 19.3854 22.392C19.3515 22.4266 19.311 22.454 19.2662 22.4725C19.2215 22.4911 19.1734 22.5004 19.125 22.5H17.25C17.1749 22.4997 17.1015 22.4771 17.0393 22.4349C16.9771 22.3928 16.9289 22.3331 16.9008 22.2634L15.8135 19.5435L16.563 19.401L17.22 21.0403ZM22.1564 17.5753L14.2101 19.0846C14.163 18.8343 14.0733 18.5938 13.9451 18.3737L22.0204 16.8417C22.0682 16.8325 22.1174 16.8328 22.1652 16.8426C22.2129 16.8524 22.2582 16.8716 22.2984 16.8991C22.3387 16.9265 22.3731 16.9617 22.3997 17.0025C22.4263 17.0433 22.4446 17.089 22.4535 17.1369C22.4585 17.1618 22.4615 17.1871 22.4625 17.2125C22.4618 17.2992 22.4308 17.3829 22.3749 17.4492C22.319 17.5155 22.2417 17.56 22.1564 17.5753Z" fill="#4890B2"/>
<path d="M12 18.5625C11.8146 18.5625 11.6333 18.6175 11.4792 18.7205C11.325 18.8235 11.2048 18.9699 11.1339 19.1412C11.0629 19.3125 11.0443 19.501 11.0805 19.6829C11.1167 19.8648 11.206 20.0318 11.3371 20.1629C11.4682 20.294 11.6352 20.3833 11.8171 20.4195C11.999 20.4557 12.1875 20.4371 12.3588 20.3661C12.5301 20.2952 12.6765 20.175 12.7795 20.0208C12.8825 19.8667 12.9375 19.6854 12.9375 19.5C12.9372 19.2515 12.8383 19.0132 12.6626 18.8374C12.4868 18.6617 12.2485 18.5628 12 18.5625ZM12 19.6875C11.9629 19.6875 11.9267 19.6765 11.8958 19.6559C11.865 19.6353 11.841 19.606 11.8268 19.5718C11.8126 19.5375 11.8089 19.4998 11.8161 19.4634C11.8233 19.427 11.8412 19.3936 11.8674 19.3674C11.8936 19.3412 11.927 19.3233 11.9634 19.3161C11.9998 19.3089 12.0375 19.3126 12.0718 19.3268C12.106 19.341 12.1353 19.365 12.1559 19.3958C12.1765 19.4267 12.1875 19.4629 12.1875 19.5C12.1875 19.5497 12.1677 19.5974 12.1326 19.6326C12.0974 19.6677 12.0497 19.6875 12 19.6875Z" fill="#4890B2"/>
<path d="M6.75 14.25C7.34334 14.25 7.92336 14.0741 8.41671 13.7444C8.91006 13.4148 9.29458 12.9462 9.52164 12.3981C9.7487 11.8499 9.80811 11.2467 9.69236 10.6647C9.5766 10.0828 9.29088 9.54824 8.87132 9.12868C8.45176 8.70912 7.91721 8.4234 7.33527 8.30765C6.75333 8.19189 6.15013 8.2513 5.60195 8.47836C5.05377 8.70543 4.58524 9.08994 4.25559 9.58329C3.92595 10.0766 3.75 10.6567 3.75 11.25C3.75091 12.0454 4.06728 12.8079 4.62969 13.3703C5.1921 13.9327 5.95463 14.2491 6.75 14.25ZM6.75 9C7.19501 9 7.63002 9.13196 8.00003 9.3792C8.37004 9.62643 8.65843 9.97783 8.82873 10.389C8.99903 10.8001 9.04358 11.2525 8.95677 11.689C8.86995 12.1254 8.65566 12.5263 8.34099 12.841C8.02632 13.1557 7.62541 13.37 7.18895 13.4568C6.7525 13.5436 6.3001 13.499 5.88896 13.3287C5.47783 13.1584 5.12643 12.87 4.87919 12.5C4.63196 12.13 4.5 11.695 4.5 11.25C4.50066 10.6535 4.73792 10.0815 5.15973 9.65973C5.58155 9.23792 6.15346 9.00066 6.75 9Z" fill="#4890B2"/>
<path d="M19.125 6.75C19.4958 6.75 19.8584 6.64003 20.1667 6.43401C20.475 6.22798 20.7154 5.93514 20.8573 5.59253C20.9992 5.24992 21.0363 4.87292 20.964 4.50921C20.8916 4.14549 20.713 3.8114 20.4508 3.54918C20.1886 3.28695 19.8545 3.10838 19.4908 3.03603C19.1271 2.96368 18.7501 3.00081 18.4075 3.14273C18.0649 3.28464 17.772 3.52496 17.566 3.83331C17.36 4.14165 17.25 4.50416 17.25 4.875C17.2506 5.3721 17.4483 5.84868 17.7998 6.20018C18.1513 6.55168 18.6279 6.74942 19.125 6.75ZM19.125 3.75C19.3475 3.75 19.565 3.81598 19.75 3.9396C19.935 4.06321 20.0792 4.23892 20.1644 4.44448C20.2495 4.65005 20.2718 4.87625 20.2284 5.09448C20.185 5.31271 20.0778 5.51316 19.9205 5.6705C19.7632 5.82783 19.5627 5.93498 19.3445 5.97838C19.1262 6.02179 18.9 5.99951 18.6945 5.91437C18.4889 5.82922 18.3132 5.68502 18.1896 5.50002C18.066 5.31501 18 5.09751 18 4.875C18.0003 4.57673 18.119 4.29078 18.3299 4.07987C18.5408 3.86896 18.8267 3.75033 19.125 3.75Z" fill="#4890B2"/>
<path d="M19.125 2.25C19.2245 2.25 19.3198 2.21049 19.3902 2.14016C19.4605 2.06984 19.5 1.97446 19.5 1.875V1.125C19.5 1.02554 19.4605 0.930161 19.3902 0.859835C19.3198 0.789509 19.2245 0.75 19.125 0.75C19.0255 0.75 18.9302 0.789509 18.8598 0.859835C18.7895 0.930161 18.75 1.02554 18.75 1.125V1.875C18.75 1.97446 18.7895 2.06984 18.8598 2.14016C18.9302 2.21049 19.0255 2.25 19.125 2.25Z" fill="#4890B2"/>
<path d="M16.7386 3.01875C16.8094 3.08628 16.9039 3.12341 17.0018 3.12223C17.0997 3.12104 17.1932 3.08164 17.2624 3.01242C17.3316 2.9432 17.371 2.84967 17.3722 2.75179C17.3734 2.65391 17.3363 2.55945 17.2688 2.48858L16.7384 1.95814C16.6677 1.88983 16.5729 1.85203 16.4746 1.85289C16.3763 1.85374 16.2822 1.89318 16.2127 1.96271C16.1432 2.03224 16.1037 2.12629 16.1029 2.22462C16.102 2.32294 16.1398 2.41767 16.2081 2.48839L16.7386 3.01875Z" fill="#4890B2"/>
<path d="M15.375 5.25H16.125C16.2245 5.25 16.3198 5.21049 16.3902 5.14016C16.4605 5.06984 16.5 4.97446 16.5 4.875C16.5 4.77554 16.4605 4.68016 16.3902 4.60984C16.3198 4.53951 16.2245 4.5 16.125 4.5H15.375C15.2755 4.5 15.1802 4.53951 15.1098 4.60984C15.0395 4.68016 15 4.77554 15 4.875C15 4.97446 15.0395 5.06984 15.1098 5.14016C15.1802 5.21049 15.2755 5.25 15.375 5.25Z" fill="#4890B2"/>
<path d="M16.7386 6.73125L16.2081 7.26172C16.1723 7.29631 16.1438 7.33769 16.1241 7.38345C16.1044 7.4292 16.0941 7.4784 16.0937 7.5282C16.0932 7.57799 16.1027 7.62737 16.1216 7.67346C16.1404 7.71954 16.1683 7.76141 16.2035 7.79662C16.2387 7.83183 16.2806 7.85967 16.3267 7.87853C16.3727 7.89739 16.4221 7.90687 16.4719 7.90644C16.5217 7.90601 16.5709 7.89566 16.6167 7.87601C16.6624 7.85636 16.7038 7.82779 16.7384 7.79197L17.2688 7.26142C17.3363 7.19055 17.3734 7.09609 17.3722 6.99821C17.371 6.90033 17.3316 6.8068 17.2624 6.73758C17.1932 6.66837 17.0997 6.62896 17.0018 6.62777C16.9039 6.62659 16.8094 6.66373 16.7386 6.73125Z" fill="#4890B2"/>
<path d="M18.75 7.875V8.625C18.75 8.72446 18.7895 8.81984 18.8598 8.89017C18.9302 8.96049 19.0255 9 19.125 9C19.2245 9 19.3198 8.96049 19.3902 8.89017C19.4605 8.81984 19.5 8.72446 19.5 8.625V7.875C19.5 7.77554 19.4605 7.68016 19.3902 7.60983C19.3198 7.53951 19.2245 7.5 19.125 7.5C19.0255 7.5 18.9302 7.53951 18.8598 7.60983C18.7895 7.68016 18.75 7.77554 18.75 7.875Z" fill="#4890B2"/>
<path d="M21.5114 6.73125C21.4406 6.66373 21.3461 6.62659 21.2482 6.62777C21.1503 6.62896 21.0568 6.66837 20.9876 6.73758C20.9184 6.8068 20.879 6.90033 20.8778 6.99821C20.8766 7.09609 20.9137 7.19055 20.9812 7.26142L21.5117 7.79186C21.5824 7.86017 21.6772 7.89797 21.7755 7.89711C21.8738 7.89626 21.9679 7.85682 22.0374 7.78729C22.1069 7.71776 22.1464 7.62371 22.1472 7.52539C22.1481 7.42706 22.1103 7.33234 22.042 7.26161L21.5114 6.73125Z" fill="#4890B2"/>
<path d="M21.75 4.875C21.75 4.97446 21.7895 5.06984 21.8598 5.14016C21.9302 5.21049 22.0255 5.25 22.125 5.25H22.875C22.9745 5.25 23.0698 5.21049 23.1402 5.14016C23.2105 5.06984 23.25 4.97446 23.25 4.875C23.25 4.77554 23.2105 4.68016 23.1402 4.60984C23.0698 4.53951 22.9745 4.5 22.875 4.5H22.125C22.0255 4.5 21.9302 4.53951 21.8598 4.60984C21.7895 4.68016 21.75 4.77554 21.75 4.875Z" fill="#4890B2"/>
<path d="M21.2463 3.12874C21.2955 3.1288 21.3443 3.11912 21.3898 3.10027C21.4353 3.08141 21.4766 3.05375 21.5114 3.01887L22.0419 2.48839C22.0777 2.4538 22.1062 2.41242 22.1259 2.36667C22.1456 2.32092 22.1559 2.27171 22.1563 2.22192C22.1568 2.17212 22.1473 2.12274 22.1284 2.07666C22.1096 2.03057 22.0817 1.9887 22.0465 1.95349C22.0113 1.91828 21.9694 1.89044 21.9233 1.87158C21.8773 1.85273 21.8279 1.84324 21.7781 1.84367C21.7283 1.84411 21.6791 1.85445 21.6333 1.8741C21.5876 1.89376 21.5462 1.92233 21.5116 1.95814L20.9812 2.48858C20.9288 2.54102 20.8931 2.60784 20.8786 2.68057C20.8642 2.75331 20.8716 2.82871 20.9 2.89723C20.9283 2.96575 20.9764 3.02432 21.0381 3.06553C21.0997 3.10673 21.1721 3.12873 21.2463 3.12874Z" fill="#4890B2"/>
</g>
<defs>
<clipPath id="clip0_464_1583">
<rect width="24" height="24" fill="white"/>
</clipPath>
</defs>
</svg>
