<svg width="24" height="24" viewBox="0 0 24 24" fill="none" xmlns="http://www.w3.org/2000/svg">
<g clip-path="url(#clip0_440_1593)">
<path d="M21.6559 4.48617C21.5369 4.33275 21.3161 4.30481 21.1627 4.42383C21.0092 4.54284 20.9814 4.76367 21.1003 4.91709C22.1805 6.30965 22.802 8.01551 22.874 9.76418L18.1533 8.49926C18.3504 7.24827 18.428 5.97754 18.3835 4.71698C18.3578 3.98733 18.2903 3.25383 18.1834 2.5283C18.8466 2.85722 19.4676 3.27403 20.0234 3.76678C20.1687 3.89559 20.3908 3.88219 20.5196 3.73697C20.6485 3.59166 20.6351 3.36947 20.4898 3.24071C19.5714 2.42649 18.4968 1.81285 17.3377 1.42168L17.6774 0.469888C17.7427 0.28703 17.6473 0.0858899 17.4645 0.0206401C17.2816 -0.0446096 17.0805 0.0506868 17.0152 0.233546L16.6615 1.22462C12.6819 0.237155 8.51148 2.04662 6.49634 5.64402C6.4692 5.69441 6.44379 5.75877 6.44923 5.84502L6.57382 7.67769C6.59763 8.02756 6.84119 8.32362 7.17996 8.41442L10.6517 9.34465C10.9851 9.43409 11.3486 9.3027 11.5449 9.00968L11.9963 8.33783L12.0511 9.14534C12.075 9.49521 12.3185 9.79127 12.6573 9.88207L14.0534 10.2562L12.0874 17.5934L8.79887 17.5838H8.79784C8.60416 17.5838 8.44689 17.7406 8.44628 17.9344C8.44572 18.1286 8.60266 18.2864 8.79686 18.287L15.6818 18.3069H15.6852C16.0295 18.3069 16.3649 18.166 16.6059 17.9201L19.0838 15.3917C19.5951 14.8699 20.3732 14.682 21.0662 14.9131L21.8198 15.1643L17.1212 19.8953C16.9246 20.0933 16.6519 20.2068 16.3729 20.2068H2.76393C2.72835 19.6725 2.87633 19.1525 3.26085 18.7693C3.57993 18.4513 4.00325 18.2764 4.45339 18.2764H4.4592L7.15591 18.2862H7.15722C7.35077 18.2862 7.50803 18.1296 7.50878 17.9359C7.50949 17.7418 7.35264 17.5838 7.15849 17.5831L4.46164 17.5732C3.8196 17.5708 3.21829 17.819 2.76449 18.2713C2.19285 18.8411 2.06081 19.6227 2.06081 20.4177C2.06081 20.6892 2.28159 20.9099 2.55299 20.9099H3.39847L2.67121 22.5082C2.5536 22.7667 2.54962 23.0483 2.63769 23.2969H0.767389C0.573234 23.2969 0.415828 23.4543 0.415828 23.6485C0.415828 23.8427 0.573234 24 0.767389 24H22.4012C22.5954 24 22.7528 23.8427 22.7528 23.6485C22.7528 23.4543 22.5954 23.2969 22.4012 23.2969H19.1007C19.1888 23.0483 19.1848 22.7667 19.0672 22.5082L17.9518 20.0568L22.5583 15.4184C22.8132 15.1656 22.7022 14.7141 22.3646 14.6047L21.2885 14.246C20.3422 13.9306 19.2797 14.1871 18.5816 14.8995L16.1037 17.4278C15.9942 17.5396 15.8417 17.6037 15.6853 17.6037H15.6837L12.8147 17.5954L14.7325 10.4381L16.1289 10.8122C16.4622 10.9017 16.8259 10.7702 17.0222 10.4772L17.4735 9.80538L17.5284 10.6129C17.5522 10.9628 17.7958 11.2588 18.1346 11.3496L21.6062 12.2799C21.9396 12.3693 22.3032 12.238 22.4995 11.9449L23.5238 10.4201C23.554 10.3712 23.5835 10.3088 23.5835 10.2226C23.61 8.15998 22.9256 6.12299 21.6559 4.48617ZM3.63107 23.2969C3.58072 23.2969 3.53178 23.2862 3.48557 23.2652C3.30913 23.1849 3.2309 22.9759 3.31124 22.7994L4.17102 20.9099H4.94398L3.95141 23.0908C3.89445 23.216 3.76874 23.2969 3.63107 23.2969ZM10.5594 23.2969H4.63011L5.71643 20.9099H11.1989L10.5594 23.2969ZM11.2873 23.2969L11.9268 20.9099H16.0221L17.1084 23.2969H11.2873ZM18.4272 22.7994C18.5075 22.976 18.4294 23.185 18.2522 23.2655C18.2067 23.2863 18.1582 23.2969 18.1079 23.2969C17.9702 23.2969 17.8442 23.2158 17.7871 23.0908L16.773 20.8626C17.003 20.8084 17.2213 20.7084 17.4124 20.5689L18.4272 22.7994ZM10.9612 8.61753C10.9333 8.65911 10.882 8.67832 10.8336 8.66539L7.36188 7.73516C7.3135 7.72222 7.27872 7.67989 7.2753 7.62992L7.18408 6.28799L11.7112 7.50102L10.9612 8.61753ZM12.0564 6.86558L7.33938 5.60165C9.04206 2.90583 12.1048 1.41521 15.2195 1.69304C14.6729 2.28943 14.1709 2.92768 13.7234 3.59841C13.0439 4.61676 12.4842 5.71457 12.0564 6.86558ZM16.4385 10.0852C16.4106 10.1268 16.3593 10.146 16.3109 10.133L12.8392 9.20281C12.7908 9.18987 12.756 9.14754 12.7526 9.09757L12.6614 7.75564L17.1885 8.96867L16.4385 10.0852ZM17.4701 8.31617L12.7388 7.04844C13.1446 5.97116 13.6713 4.94334 14.3083 3.98869C14.8259 3.21296 15.4198 2.48269 16.0737 1.81407C16.5305 1.90276 16.982 2.03119 17.4182 2.19591C17.5621 3.03657 17.6509 3.89189 17.6809 4.74182C17.7229 5.93277 17.6518 7.13328 17.4701 8.31617ZM21.9158 11.5528C21.8879 11.5944 21.8366 11.6137 21.7882 11.6007L18.3165 10.6705C18.2681 10.6575 18.2333 10.6152 18.2299 10.5652L18.1387 9.22334L22.6658 10.4364L21.9158 11.5528Z" fill="#4890B2"/>
</g>
<defs>
<clipPath id="clip0_440_1593">
<rect width="24" height="24" fill="white"/>
</clipPath>
</defs>
</svg>
