<svg width="24" height="24" viewBox="0 0 24 24" fill="none" xmlns="http://www.w3.org/2000/svg">
<g clip-path="url(#clip0_464_1553)">
<path d="M18.8977 3.70629V11.8556C18.8977 12.1173 19.1098 12.3294 19.3715 12.3294H20.3192V3.23248H19.3715C19.1099 3.23248 18.8977 3.44459 18.8977 3.70629Z" stroke="#4890B2" stroke-miterlimit="10" stroke-linecap="round" stroke-linejoin="round"/>
<path d="M23.6484 6.49309V12.756C23.6484 13.0176 23.4361 13.2294 23.1745 13.2294H20.7928C20.5313 13.2294 20.3194 13.0176 20.3194 12.756V2.80593C20.3194 2.54437 20.5313 2.33203 20.7928 2.33203H23.1745C23.4361 2.33203 23.6484 2.54437 23.6484 2.80593V4.85248" stroke="#4890B2" stroke-miterlimit="10" stroke-linecap="round" stroke-linejoin="round"/>
<path d="M6.51094 10.8519V12.2098C6.51094 12.6249 6.32949 13.0191 6.01439 13.2892L4.85265 14.2851H2.00985L0.682263 13.1475C0.472358 12.9674 0.351562 12.7044 0.351562 12.4277V8.12564C0.351562 7.72716 0.597936 7.38605 0.946636 7.2458C1.05562 7.20221 1.17454 7.17807 1.29913 7.17807H3.6378H5.56332C6.08686 7.17807 6.51094 7.60261 6.51094 8.12569V8.48292M4.43097 9.03487H2.67317C2.28088 9.03487 1.96246 9.35324 1.96246 9.74558C1.96246 10.1383 2.28083 10.4563 2.67317 10.4563H4.54895" stroke="#4890B2" stroke-miterlimit="10" stroke-linecap="round" stroke-linejoin="round"/>
<path d="M2.0097 18.5572V21.2342C2.0097 21.3364 2.04299 21.4363 2.10486 21.5183L2.60689 22.1881C2.67861 22.2833 2.79064 22.3395 2.91017 22.3395H3.95266C4.07172 22.3395 4.18422 22.2833 4.25594 22.1881L4.75796 21.5183C4.81937 21.4363 4.85265 21.3364 4.85265 21.2342V14.2851H2.0097V16.9166" stroke="#4890B2" stroke-miterlimit="10" stroke-linecap="round" stroke-linejoin="round"/>
<path d="M18.8979 11.3257H16.5669L13.943 12.2004C13.798 12.2487 13.6459 12.2733 13.4933 12.2733H11.6905C11.4698 12.2733 11.2523 12.2222 11.0547 12.1232L8.85907 11.0254C8.6307 10.9112 8.37913 10.852 8.12422 10.852H6.51094H5.43259C4.77826 10.852 4.24811 10.3218 4.24811 9.66749C4.24811 9.01321 4.77831 8.48302 5.43259 8.48302H6.51094H8.51225L10.8467 7.21796L8.49233 4.66892C8.25828 4.41542 7.92899 4.27142 7.58451 4.27142C7.29642 4.27142 7.0169 4.37234 6.79514 4.55666L3.63776 7.17817" stroke="#4890B2" stroke-miterlimit="10" stroke-linecap="round" stroke-linejoin="round"/>
<path d="M13.9609 3.40265L16.5671 4.23609H18.8982" stroke="#4890B2" stroke-miterlimit="10" stroke-linecap="round" stroke-linejoin="round"/>
<path d="M0.946586 7.24589C0.786743 6.78558 0.90768 6.25121 1.30096 5.90809L5.63358 2.12718C5.97858 1.82578 6.42154 1.66031 6.87951 1.66031H7.96512C8.32747 1.66031 8.68793 1.71656 9.03293 1.82718L12.3985 2.90342" stroke="#4890B2" stroke-miterlimit="10" stroke-linecap="round" stroke-linejoin="round"/>
<path d="M3.43127 14.2851V22.3397" stroke="#4890B2" stroke-miterlimit="10" stroke-linecap="round" stroke-linejoin="round"/>
<path d="M2.72055 11.8777H4.14199" stroke="#4890B2" stroke-miterlimit="10" stroke-linecap="round" stroke-linejoin="round"/>
</g>
<defs>
<clipPath id="clip0_464_1553">
<rect width="24" height="24" fill="white"/>
</clipPath>
</defs>
</svg>
