<svg width="24" height="24" viewBox="0 0 24 24" fill="none" xmlns="http://www.w3.org/2000/svg">
<g clip-path="url(#clip0_605_1637)">
<path d="M22.4516 23.2258H1.54836V22.4516H0.77417V24H23.2258V22.4516H22.4516V23.2258Z" fill="#4890B2"/>
<path d="M24 20.9032H0V21.6774H24V20.9032Z" fill="#4890B2"/>
<path d="M5.41934 7.74194C5.41934 6.03445 6.80863 4.64516 8.51611 4.64516C10.2236 4.64516 11.6129 6.03445 11.6129 7.74194V12H12.3871V7.74194C12.3871 6.03445 13.7764 4.64516 15.4839 4.64516C17.1913 4.64516 18.5806 6.03445 18.5806 7.74194V8.12903H19.3548V7.74194C19.3548 5.60748 17.6183 3.87097 15.4839 3.87097C14.2169 3.87097 13.0935 4.48568 12.3871 5.42903V2.32258C12.3871 1.46865 13.0815 0.774194 13.9355 0.774194C14.7894 0.774194 15.4839 1.46865 15.4839 2.32258H16.258C16.258 1.04168 15.2164 0 13.9355 0C13.128 0 12.4165 0.414581 12 1.04129C11.5835 0.414581 10.872 0 10.0645 0C8.78359 0 7.74192 1.04168 7.74192 2.32258H8.51611C8.51611 1.46865 9.21056 0.774194 10.0645 0.774194C10.9184 0.774194 11.6129 1.46865 11.6129 2.32258V5.42903C10.9064 4.48568 9.78308 3.87097 8.51611 3.87097C6.38166 3.87097 4.64514 5.60748 4.64514 7.74194V8.12903H5.41934V7.74194Z" fill="#4890B2"/>
<path d="M5.41934 8.90323H4.64514V9.67742H5.41934V8.90323Z" fill="#4890B2"/>
<path d="M5.41934 10.4516H4.64514V11.2258H5.41934V10.4516Z" fill="#4890B2"/>
<path d="M19.3548 8.90323H18.5806V9.67742H19.3548V8.90323Z" fill="#4890B2"/>
<path d="M19.3548 10.4516H18.5806V11.2258H19.3548V10.4516Z" fill="#4890B2"/>
<path d="M6.58064 17.4194H9.29031V20.129H10.0645V17.4194H10.8387V20.129H11.6129V17.4194H12.3871V20.129H13.1613V17.4194H13.9355V20.129H14.7097V17.4194H17.4193C18.7815 17.4194 19.9092 16.4079 20.0981 15.0968H21.6774V14.7097C21.6774 13.6425 20.8092 12.7742 19.7419 12.7742H4.25805C3.19083 12.7742 2.32257 13.6425 2.32257 14.7097V15.0968H3.90193C4.09083 16.4079 5.21844 17.4194 6.58064 17.4194ZM17.4193 16.6452H6.58064C5.64618 16.6452 4.86425 15.979 4.68425 15.0968H19.3157C19.1357 15.979 18.3538 16.6452 17.4193 16.6452ZM4.25805 13.5484H19.7419C20.2467 13.5484 20.6772 13.872 20.837 14.3226H3.16296C3.32283 13.872 3.75328 13.5484 4.25805 13.5484Z" fill="#4890B2"/>
<path d="M17.8065 7.35483H17.0323V8.12902H17.8065V7.35483Z" fill="#4890B2"/>
<path d="M17.8065 8.90323H17.0323V10.4516H17.8065V8.90323Z" fill="#4890B2"/>
<path d="M6.96774 8.90323H6.19354V9.67742H6.96774V8.90323Z" fill="#4890B2"/>
<path d="M6.96774 7.35483H6.19354V8.12902H6.96774V7.35483Z" fill="#4890B2"/>
<path d="M21.6774 15.871H20.9032V16.6452H21.6774V15.871Z" fill="#4890B2"/>
<path d="M21.6774 17.4193H20.9032V18.1935H21.6774V17.4193Z" fill="#4890B2"/>
<path d="M3.09676 15.871H2.32257V16.6452H3.09676V15.871Z" fill="#4890B2"/>
<path d="M3.09676 17.4193H2.32257V18.1935H3.09676V17.4193Z" fill="#4890B2"/>
</g>
<defs>
<clipPath id="clip0_605_1637">
<rect width="24" height="24" fill="white"/>
</clipPath>
</defs>
</svg>
