<svg width="24" height="24" viewBox="0 0 24 24" fill="none" xmlns="http://www.w3.org/2000/svg">
<path d="M23.5933 20.6732H18.4734V18.2454C19.5915 18.0951 20.5824 17.3968 21.1585 16.3382C21.9241 16.1633 22.6195 15.7201 23.1339 15.0751C23.6924 14.3749 24 13.4801 24 12.5554C24 11.1487 23.2797 9.84678 22.1464 9.17051C22.0283 6.82475 20.2201 4.95435 18.0177 4.95435C17.3245 4.95435 16.6386 5.14302 16.0342 5.49997C15.8461 5.61102 15.7837 5.85346 15.8947 6.04147C16.0058 6.22958 16.2483 6.29197 16.4363 6.18093C16.919 5.89583 17.4658 5.74518 18.0177 5.74518C19.8582 5.74518 21.3583 7.38828 21.3617 9.40794C21.362 9.55676 21.4458 9.69284 21.5786 9.76006C22.5691 10.2614 23.2091 11.3586 23.2091 12.5554C23.2091 14.0658 22.1863 15.3735 20.8298 15.5972C20.7028 15.6182 20.5939 15.6996 20.538 15.8156C20.1138 16.6954 19.3473 17.2901 18.4734 17.4449V13.9459L20.4195 12.1564C20.5802 12.0086 20.5907 11.7584 20.4429 11.5977C20.295 11.437 20.0449 11.4264 19.8842 11.5743L18.4734 12.8716V10.2319C18.4734 10.0136 18.2964 9.83651 18.078 9.83651C17.8596 9.83651 17.6826 10.0136 17.6826 10.2319V15.0179L16.2718 13.7206C16.1111 13.5727 15.8609 13.5833 15.7131 13.744C15.5653 13.9047 15.5758 14.1549 15.7365 14.3027L17.6826 16.0923V17.4634C16.7502 17.3433 15.9279 16.7263 15.4866 15.7928C15.4339 15.6812 15.332 15.6006 15.2113 15.575C13.8992 15.2962 12.9469 14.0263 12.9469 12.5554C12.9469 11.3955 13.5318 10.3457 14.4733 9.81589C14.5993 9.74497 14.6766 9.61095 14.6748 9.46644C14.6747 9.45547 14.6743 9.44459 14.674 9.43376C14.6737 9.42748 14.6735 9.42125 14.6735 9.41501C14.6735 8.59128 14.9166 7.81297 15.3765 7.16432C15.5028 6.98614 15.4608 6.7393 15.2826 6.61307C15.1045 6.48669 14.8576 6.52883 14.7314 6.70691C14.2075 7.44585 13.9166 8.32123 13.8855 9.24809C12.8131 9.94742 12.1561 11.193 12.1561 12.5554C12.1561 14.3275 13.2811 15.871 14.8579 16.3027C15.4514 17.4204 16.5011 18.1437 17.6827 18.2595V20.6732H17.4323C17.374 19.6383 16.6666 18.7381 15.6815 18.4341C15.3724 17.7765 14.7721 17.2997 14.0661 17.1451C13.8346 16.093 12.8875 15.3084 11.7838 15.3084C10.9328 15.3084 10.1611 15.7658 9.7497 16.4939C8.93956 16.5247 8.21117 16.9575 7.79277 17.628C7.532 16.9106 6.86403 16.3883 6.08197 16.3321V15.2925C7.14945 15.1441 8.09469 14.4764 8.64697 13.4663C9.38061 13.2968 10.0469 12.8712 10.5402 12.2528C11.0772 11.5796 11.373 10.7191 11.373 9.82995C11.373 8.48052 10.6835 7.23116 9.59797 6.57946C9.48017 4.32895 7.74341 2.53598 5.62869 2.53598C4.81752 2.53598 4.03729 2.79759 3.37227 3.29263C3.19715 3.42299 3.16082 3.67077 3.29118 3.84595C3.42154 4.02107 3.66927 4.0574 3.84449 3.92704C4.37193 3.53432 4.9889 3.32681 5.62869 3.32681C7.38139 3.32681 8.81005 4.89234 8.81337 6.81664C8.81365 6.96547 8.89742 7.10155 9.03022 7.16877C9.97297 7.64591 10.5821 8.69052 10.5821 9.82995C10.5821 11.2678 9.60884 12.5127 8.31823 12.7256C8.19125 12.7466 8.08236 12.828 8.02644 12.944C7.62589 13.7746 6.905 14.3384 6.08188 14.4912V11.1687L7.93963 9.46048C8.10036 9.31264 8.11081 9.06251 7.96302 8.90178C7.81522 8.741 7.56505 8.7305 7.40431 8.87839L6.08188 10.0944V7.60564C6.08188 7.38725 5.90483 7.21021 5.68644 7.21021C5.46805 7.21021 5.29101 7.38725 5.29101 7.60564V12.1493L3.96862 10.9332C3.80784 10.7854 3.55771 10.7959 3.40992 10.9566C3.26207 11.1174 3.27257 11.3675 3.43331 11.5153L5.29096 13.2236V14.5098C4.41177 14.3895 3.63759 13.8044 3.22063 12.9223C3.1679 12.8107 3.06604 12.7301 2.94534 12.7046C1.69692 12.4392 0.79078 11.2303 0.79078 9.82995C0.79078 8.72553 1.34742 7.72616 2.24353 7.22188C2.36943 7.151 2.44668 7.01722 2.445 6.87275C2.4449 6.86207 2.44457 6.85138 2.4442 6.84074C2.44406 6.83497 2.44378 6.82925 2.44378 6.82339C2.44378 6.3343 2.53392 5.86133 2.71167 5.41766C2.76454 5.28585 2.82543 5.15638 2.89279 5.03273C2.99723 4.84091 2.92645 4.60082 2.73464 4.49638C2.54282 4.39185 2.30268 4.46268 2.19829 4.65449C2.11621 4.80524 2.04196 4.96302 1.97765 5.12352C1.78284 5.60966 1.67489 6.12379 1.656 6.65422C0.628921 7.32767 0 8.52298 0 9.82995C0 11.5314 1.07897 13.014 2.592 13.4318C3.16096 14.4985 4.16263 15.1905 5.29101 15.3063V16.4374C4.85826 16.5886 4.4879 16.8876 4.24963 17.2892C3.28935 17.3438 2.51343 18.053 2.36306 18.9883C1.65482 19.3029 1.12828 19.9267 0.934404 20.6731H0.395437C0.177047 20.6731 0 20.8501 0 21.0685C0 21.2869 0.177047 21.464 0.395437 21.464H1.26169H10.1883H17.0247H23.5933C23.8117 21.464 23.9887 21.2869 23.9887 21.0685C23.9887 20.8501 23.8116 20.6732 23.5933 20.6732ZM1.76376 20.6732C1.95239 20.1925 2.34918 19.8096 2.85468 19.6458C3.01373 19.5943 3.12318 19.4484 3.1281 19.2813C3.14803 18.6058 3.69313 18.0767 4.36912 18.0767C4.39621 18.0767 4.42584 18.0779 4.46226 18.0806C4.63166 18.0928 4.79015 17.9961 4.85591 17.8394C5.04022 17.401 5.46655 17.1176 5.94205 17.1176C6.55264 17.1176 7.06808 17.5939 7.11552 18.202C7.13071 18.3962 7.28488 18.5504 7.47903 18.5656C7.58684 18.5739 7.69109 18.5976 7.78981 18.6337C7.79024 18.6339 7.79061 18.6341 7.79103 18.6342C7.80936 18.641 7.82741 18.6482 7.84531 18.6558C7.84916 18.6575 7.85305 18.6591 7.85689 18.6608C7.87363 18.6681 7.89017 18.6757 7.90644 18.6837C7.91197 18.6865 7.91741 18.6894 7.92289 18.6922C7.94544 18.7037 7.96752 18.716 7.98917 18.7289C8.00098 18.7359 8.01289 18.7428 8.02442 18.7503C8.03319 18.7559 8.04163 18.762 8.05016 18.7677C8.06314 18.7766 8.07603 18.7856 8.08869 18.795C8.09586 18.8003 8.10294 18.8057 8.10992 18.8111C8.1252 18.823 8.1403 18.8353 8.15497 18.848C8.15905 18.8515 8.16313 18.8548 8.16716 18.8583C8.20611 18.8928 8.24281 18.93 8.27698 18.9695C8.28013 18.9731 8.28322 18.9768 8.28631 18.9805C8.3007 18.9975 8.31458 19.015 8.32803 19.0329C8.33061 19.0363 8.33328 19.0397 8.33581 19.0431C8.36651 19.0849 8.3945 19.129 8.41962 19.175C8.42295 19.1811 8.42609 19.1873 8.42937 19.1935C8.43828 19.2105 8.44677 19.2279 8.45487 19.2454C8.45811 19.2524 8.46134 19.2593 8.46444 19.2663C8.47442 19.2891 8.48389 19.3122 8.49247 19.3357C8.4928 19.3365 8.49308 19.3373 8.49341 19.3381C8.53976 19.4662 8.6488 19.5614 8.78192 19.5901C8.81726 19.5977 8.8519 19.6069 8.88598 19.6174C8.89709 19.6208 8.90787 19.625 8.91889 19.6287C8.94158 19.6363 8.96417 19.644 8.98625 19.6528C8.999 19.6579 9.01142 19.6637 9.02394 19.6692C9.04367 19.6778 9.06331 19.6866 9.08253 19.6961C9.09547 19.7026 9.10803 19.7095 9.12069 19.7163C9.13887 19.7261 9.15687 19.7363 9.17445 19.7469C9.18697 19.7544 9.19929 19.7623 9.21153 19.7702C9.22859 19.7814 9.24542 19.7929 9.26192 19.8048C9.27369 19.8133 9.28531 19.8218 9.29675 19.8307C9.31311 19.8433 9.32895 19.8565 9.34465 19.8699C9.35529 19.8789 9.36608 19.8879 9.37644 19.8973C9.39251 19.9119 9.40789 19.9271 9.42322 19.9425C9.43226 19.9515 9.44164 19.9604 9.4504 19.9697C9.46765 19.9881 9.48397 20.0072 9.50014 20.0264C9.50614 20.0336 9.51251 20.0403 9.51837 20.0476C9.53994 20.0745 9.56051 20.1022 9.57992 20.1307C9.584 20.1367 9.58751 20.143 9.59145 20.149C9.6064 20.1718 9.62098 20.1948 9.63453 20.2185C9.64062 20.2292 9.64611 20.2404 9.65192 20.2513C9.66242 20.2709 9.67273 20.2906 9.68225 20.3107C9.68815 20.3232 9.6934 20.336 9.69889 20.3486C9.70723 20.3679 9.71529 20.3872 9.7227 20.4069C9.72776 20.4204 9.7324 20.434 9.73704 20.4477C9.74365 20.4672 9.74984 20.4868 9.75556 20.5067C9.75959 20.5208 9.76334 20.5349 9.76695 20.5491C9.77197 20.5693 9.77637 20.5896 9.78045 20.61C9.78331 20.6243 9.78608 20.6385 9.78847 20.6529C9.78959 20.6596 9.79015 20.6664 9.79114 20.6732H1.76376ZM10.5885 20.6732V20.6732C10.5882 20.6694 10.5874 20.6657 10.5871 20.662C10.5825 20.6148 10.5767 20.5679 10.5689 20.5216C10.5685 20.5188 10.5679 20.5161 10.5674 20.5134C10.5593 20.4661 10.5497 20.4193 10.5385 20.373C10.538 20.3709 10.5376 20.3689 10.5371 20.367C10.5258 20.3211 10.5127 20.2759 10.4985 20.2312C10.4969 20.2264 10.4955 20.2215 10.4939 20.2167C10.4799 20.1736 10.4642 20.1313 10.4474 20.0894C10.4449 20.0833 10.4426 20.0772 10.4401 20.0712C10.4232 20.0302 10.405 19.9899 10.3856 19.9502C10.3826 19.9439 10.3795 19.9377 10.3764 19.9314C10.3566 19.892 10.3357 19.8532 10.3136 19.8151C10.3102 19.8093 10.3068 19.8037 10.3034 19.7979C10.2806 19.7595 10.2567 19.7218 10.2316 19.685C10.2285 19.6805 10.2253 19.6762 10.2222 19.6718C10.196 19.634 10.1688 19.5969 10.1402 19.5609C10.1384 19.5587 10.1365 19.5565 10.1347 19.5542C10.1048 19.5169 10.0737 19.4806 10.0414 19.4454C10.041 19.445 10.0407 19.4446 10.0403 19.4442C10.0083 19.4094 9.97484 19.3758 9.94048 19.3432C9.93748 19.3403 9.93457 19.3374 9.93157 19.3345C9.89853 19.3036 9.86431 19.2737 9.82925 19.2449C9.82456 19.241 9.81992 19.2371 9.81518 19.2332C9.78068 19.2053 9.74525 19.1785 9.70892 19.1528C9.70329 19.1488 9.69767 19.1448 9.69204 19.1409C9.65576 19.1157 9.61859 19.0916 9.58062 19.0687C9.57467 19.0651 9.56867 19.0615 9.56272 19.058C9.52423 19.0353 9.48504 19.0137 9.44506 18.9934C9.43958 18.9906 9.434 18.988 9.42847 18.9853C9.38722 18.9649 9.34531 18.9455 9.30251 18.9278C9.29872 18.9262 9.29487 18.9249 9.29108 18.9233C9.24622 18.9051 9.2007 18.8881 9.1543 18.8729C9.15415 18.8729 9.15397 18.8728 9.15378 18.8727C9.15176 18.8686 9.14947 18.8648 9.14745 18.8608C9.13147 18.8288 9.11473 18.7973 9.09711 18.7664C9.08811 18.7506 9.0785 18.7352 9.06912 18.7196C9.05773 18.7009 9.04625 18.6822 9.0343 18.6639C9.02281 18.6462 9.011 18.6289 8.9989 18.6116C8.9884 18.5967 8.97762 18.582 8.96675 18.5673C8.95306 18.5488 8.93933 18.5304 8.92498 18.5124C8.91655 18.5018 8.90769 18.4917 8.89906 18.4814C8.86573 18.4413 8.8309 18.4026 8.79448 18.3653C8.7882 18.3589 8.7822 18.3522 8.77587 18.3459C8.75778 18.3279 8.73908 18.3107 8.72033 18.2934C8.7095 18.2834 8.69872 18.2734 8.68766 18.2637C8.66975 18.2479 8.65156 18.2325 8.633 18.2173C8.6195 18.2062 8.60577 18.1956 8.59198 18.1848C8.57478 18.1716 8.55772 18.1582 8.54005 18.1454C8.5152 18.1274 8.4898 18.1103 8.46411 18.0934C8.45726 18.0889 8.45075 18.084 8.44381 18.0796C8.732 17.5927 9.25953 17.2832 9.84237 17.2832C9.87804 17.2832 9.91676 17.2848 9.9642 17.2883C10.1334 17.3009 10.292 17.2037 10.3578 17.0471C10.5997 16.4714 11.1595 16.0994 11.7838 16.0994C12.5855 16.0994 13.2623 16.7249 13.3245 17.5234C13.3397 17.7175 13.4939 17.8717 13.688 17.8869C14.2912 17.9339 14.814 18.3321 15.0201 18.9014C15.0664 19.0294 15.1755 19.1246 15.3086 19.1533C16.0382 19.3105 16.5794 19.9379 16.6402 20.6734H10.5885V20.6732Z" fill="#4890B2"/>
</svg>
