<svg width="24" height="24" viewBox="0 0 24 24" fill="none" xmlns="http://www.w3.org/2000/svg">
<path d="M13.8361 7.37824C13.7576 7.29982 13.7145 7.19552 13.7145 7.08457C13.7145 6.97361 13.7576 6.86932 13.8361 6.7909C13.9734 6.6536 13.9734 6.43099 13.8361 6.2937C13.6988 6.1564 13.4762 6.15645 13.3389 6.29365C13.1276 6.50491 13.0113 6.78579 13.0113 7.08457C13.0113 7.38335 13.1276 7.66422 13.3389 7.87544C13.5008 8.03739 13.5008 8.30092 13.3389 8.46287C13.2016 8.60012 13.2016 8.82273 13.3389 8.96003C13.4076 9.02865 13.4976 9.06301 13.5875 9.06301C13.6775 9.06301 13.7675 9.0287 13.8361 8.96003C14.2722 8.52395 14.2722 7.81436 13.8361 7.37824Z" fill="#4890B2"/>
<path d="M17.2975 7.37825C17.2191 7.29978 17.1758 7.19549 17.1758 7.08453C17.1758 6.97358 17.2191 6.86928 17.2975 6.79082C17.4348 6.65352 17.4348 6.43091 17.2975 6.29362C17.1602 6.15632 16.9376 6.15632 16.8003 6.29362C16.3642 6.72969 16.3642 7.43928 16.8003 7.87536C16.8787 7.95387 16.922 8.05817 16.922 8.16912C16.922 8.28008 16.8787 8.38437 16.8003 8.46279C16.663 8.60009 16.663 8.8227 16.8003 8.96C16.8689 9.02862 16.9589 9.06298 17.0489 9.06298C17.1389 9.06298 17.2289 9.02867 17.2975 8.96004C17.5087 8.74878 17.6251 8.4679 17.6251 8.16917C17.6251 7.87044 17.5087 7.58952 17.2975 7.37825Z" fill="#4890B2"/>
<path d="M19.3126 11.2278H18.8533C18.8561 11.2005 18.8577 11.1729 18.8577 11.145V10.4983C18.8577 10.0649 18.5051 9.71232 18.0718 9.71232H17.5362C17.3421 9.71232 17.1847 9.86973 17.1847 10.0639C17.1847 10.258 17.3421 10.4154 17.5362 10.4154H18.0718C18.1174 10.4154 18.1546 10.4526 18.1546 10.4983V11.145C18.1546 11.1906 18.1174 11.2278 18.0718 11.2278H11.4857C11.44 11.2278 11.4028 11.1907 11.4028 11.145V10.4983C11.4028 10.4526 11.44 10.4154 11.4857 10.4154H15.8771C16.0713 10.4154 16.2287 10.258 16.2287 10.0639C16.2287 9.86973 16.0713 9.71232 15.8771 9.71232H11.4857C11.0523 9.71232 10.6997 10.0649 10.6997 10.4983V11.145C10.6997 11.1729 10.7013 11.2005 10.7042 11.2278H7.66444C7.64255 11.1573 7.61409 11.0897 7.58011 11.0254L15.817 2.78858C16.1161 2.48943 16.1161 2.00273 15.817 1.70357L15.4391 1.32571C14.5842 0.470811 13.4476 0 12.2385 0C11.0295 0 9.89282 0.470811 9.03792 1.32576L8.59275 1.77093L8.3324 1.51059C8.00662 1.18481 7.49738 1.16395 7.1971 1.46418L5.74716 2.91411C5.44693 3.21435 5.46774 3.72364 5.79357 4.04942L6.05391 4.30976L5.60869 4.75498C3.88811 6.47562 3.84583 9.2477 5.48021 11.021C5.39115 11.1876 5.34052 11.3776 5.34052 11.5793C5.34052 12.1139 5.69527 12.567 6.18165 12.716C6.18413 12.777 6.18769 12.8378 6.19261 12.8982H4.90328C4.36112 12.8982 3.91998 13.3393 3.91998 13.8815C3.91998 14.4236 4.36107 14.8647 4.90328 14.8647H6.82786C7.41347 15.833 8.35143 16.5654 9.46284 16.8827L8.38842 21.0428C8.33986 21.2308 8.45292 21.4225 8.64089 21.4711C8.67037 21.4787 8.69995 21.4823 8.72906 21.4823C8.88548 21.4823 9.02826 21.3771 9.06918 21.2186L10.153 17.0221C10.3336 17.0442 10.5174 17.0557 10.7038 17.0557H10.9334L9.39552 23.0101C9.35193 23.1789 9.20006 23.2968 9.02615 23.2968C8.99404 23.2968 8.96174 23.2927 8.93015 23.2845C8.83139 23.259 8.74842 23.1965 8.69662 23.1086C8.64482 23.0207 8.63029 22.9179 8.65584 22.8191L8.79393 22.2844C8.84249 22.0964 8.72943 21.9046 8.54146 21.8561C8.35331 21.8075 8.16168 21.9205 8.11317 22.1086L7.97508 22.6433C7.90261 22.9239 7.94372 23.216 8.09095 23.4657C8.23814 23.7154 8.47373 23.8928 8.75428 23.9653C8.84324 23.9883 8.93474 24 9.0262 24C9.52073 24 9.95258 23.6652 10.0764 23.186L10.5952 21.1772H15.6669L15.8238 21.783C15.7111 21.9942 15.6469 22.2352 15.6469 22.491C15.6469 23.323 16.3239 24 17.1559 24C17.9881 24 18.665 23.323 18.665 22.491C18.665 21.9338 18.3612 21.4464 17.9108 21.1851L16.7962 16.8824C17.9649 16.5483 18.9417 15.7549 19.5184 14.711C19.5318 14.6914 19.5431 14.6704 19.5524 14.6482C19.8889 14.0157 20.0799 13.2945 20.0799 12.5295V11.9951C20.0798 11.5719 19.7356 11.2278 19.3126 11.2278ZM6.24432 3.41127L7.6942 1.96138C7.70873 1.94695 7.77694 1.94948 7.8352 2.00774L8.09554 2.26808L6.55107 3.81256L6.29072 3.55222C6.24629 3.50778 6.23865 3.46358 6.23738 3.44666C6.23621 3.43053 6.23893 3.41666 6.24432 3.41127ZM6.10585 5.25214L9.53507 1.82291C10.2572 1.10081 11.2173 0.703122 12.2385 0.703122C13.2597 0.703122 14.2198 1.10081 14.9419 1.82291L15.3198 2.20077C15.3448 2.22576 15.3448 2.26644 15.3198 2.29143L7.08295 10.5283C6.91744 10.4407 6.72896 10.3908 6.52904 10.3908C6.3308 10.3908 6.14396 10.4399 5.97947 10.526C4.61673 9.02743 4.65868 6.6993 6.10585 5.25214ZM4.90323 14.1616C4.74878 14.1616 4.62306 14.0359 4.62306 13.8815C4.62306 13.727 4.74873 13.6013 4.90323 13.6013H6.30605C6.35283 13.7931 6.41171 13.9802 6.48211 14.1616H4.90323ZM6.52904 12.0647C6.26138 12.0647 6.04365 11.847 6.04365 11.5793C6.04365 11.3117 6.26143 11.094 6.52904 11.094C6.79669 11.094 7.01442 11.3117 7.01442 11.5793C7.01447 11.847 6.79669 12.0647 6.52904 12.0647ZM10.7767 20.474L10.9741 19.71H15.2867L15.4847 20.474H10.7767ZM11.1557 19.0069L11.6596 17.0557H14.5991L15.1046 19.0069H11.1557ZM17.9618 22.4909C17.9618 22.9352 17.6003 23.2968 17.1559 23.2968C16.7115 23.2968 16.35 22.9352 16.35 22.4909C16.35 22.0464 16.7115 21.6849 17.1559 21.6849C17.6003 21.6849 17.9618 22.0464 17.9618 22.4909ZM17.1319 20.9824C16.8639 20.9866 16.6127 21.0609 16.3959 21.1879L15.3254 17.0557H15.5535C15.7405 17.0557 15.9248 17.0441 16.1059 17.022L17.1319 20.9824ZM15.5535 16.3526H10.7038C9.47465 16.3526 8.37979 15.7688 7.67995 14.8647H18.5774C17.8775 15.7688 16.7827 16.3526 15.5535 16.3526ZM19.0099 14.1616H7.24739C7.03735 13.7186 6.9098 13.2292 6.88524 12.7132C7.25616 12.5965 7.54917 12.3024 7.66444 11.9309H19.3126C19.3479 11.9309 19.3767 11.9596 19.3767 11.9949V12.5294C19.3767 13.113 19.2448 13.6663 19.0099 14.1616Z" fill="#4890B2"/>
<path d="M15.5668 7.37828C15.4884 7.29981 15.4452 7.19552 15.4452 7.08456C15.4452 6.97361 15.4884 6.86932 15.5668 6.79085C15.7041 6.65355 15.7041 6.43094 15.5668 6.29365C15.4295 6.15635 15.2069 6.15635 15.0697 6.29365C14.6336 6.72972 14.6336 7.43931 15.0697 7.87539C15.1481 7.95386 15.1914 8.05815 15.1914 8.16911C15.1914 8.28006 15.1481 8.38436 15.0697 8.46278C14.9324 8.60012 14.9324 8.82268 15.0696 8.96003C15.1383 9.02865 15.2283 9.06301 15.3182 9.06301C15.4082 9.06301 15.4982 9.0287 15.5668 8.96007C15.7781 8.74881 15.8944 8.46793 15.8944 8.1692C15.8944 7.87047 15.7781 7.58955 15.5668 7.37828Z" fill="#4890B2"/>
</svg>
