<svg width="24" height="24" viewBox="0 0 24 24" fill="none" xmlns="http://www.w3.org/2000/svg">
<path d="M20.2098 8.20981C20.2098 3.67566 16.5341 0 12 0C7.46585 0 3.79019 3.67566 3.79019 8.20981C2.61801 8.35576 1.50969 9.12201 1.50969 10.9008V15.1881C1.50969 17.195 2.91448 17.9247 4.24629 17.9247H5.56898C5.82086 17.9247 6.02508 17.7205 6.02508 17.4686V8.63854C6.02508 8.38666 5.82086 8.18244 5.56898 8.18244H4.70239C4.70239 4.15211 7.96967 0.884835 12 0.884835C16.0303 0.884835 19.2976 4.15211 19.2976 8.18244H18.431C18.1791 8.18244 17.9749 8.38666 17.9749 8.63854V17.455C17.9749 17.7068 18.1791 17.9111 18.431 17.9111H19.2976C19.1699 21.0445 17.6648 21.7788 14.6591 21.9111V21.6055C14.6591 21.1017 14.2507 20.6933 13.7469 20.6933H10.878C10.3742 20.6933 9.96579 21.1017 9.96579 21.6055V23.0878C9.96579 23.5916 10.3742 24 10.878 24H13.756C14.2598 24 14.6682 23.5916 14.6682 23.0878V22.8233C17.5599 22.691 20.0593 22.0935 20.2098 17.8837C21.382 17.7377 22.4903 16.9715 22.4903 15.1927V10.9054C22.4903 9.11745 21.3865 8.35576 20.2098 8.20981ZM5.11288 9.06271V16.9989H4.22349C3.54846 16.9989 2.39909 16.7617 2.39909 15.1745V10.8871C2.39909 9.31357 3.53477 9.06271 4.22349 9.06271H5.11288ZM13.756 22.3991V23.0924H10.878V21.61H13.756V22.3991ZM21.5781 15.1881C21.5781 16.7617 20.4424 17.0125 19.7537 17.0125H18.8871V9.09464H19.7765C20.4515 9.09464 21.6009 9.33181 21.6009 10.919L21.5781 15.1881Z" fill="#4890B2"/>
</svg>
