<svg width="24" height="24" viewBox="0 0 24 24" fill="none" xmlns="http://www.w3.org/2000/svg">
<path d="M22.059 5.09606V3.70964H16.945L18.7299 1.52991L17.6419 0.639L15.1275 3.70964H11.1284C10.6961 1.59544 8.82169 0 6.58163 0C4.02277 0 1.941 2.08177 1.941 4.64062C1.941 7.19948 4.02277 9.28125 6.58163 9.28125C7.37761 9.28125 8.12738 9.07969 8.78274 8.72513L13.2379 14.1878V22.5938H10.441V24H17.441V22.5938H14.6441V14.1878L22.059 5.09606ZM7.65384 5.11589H11.9593C11.6541 5.58052 11.4787 6.10463 11.459 6.62466C11.4325 7.32173 11.6958 7.95567 12.1814 8.36391C12.5456 8.67 13.0131 8.8312 13.5119 8.8312C13.6784 8.8312 13.8483 8.81325 14.019 8.77673C14.6464 8.64253 15.2393 8.27433 15.6885 7.73991C16.1378 7.20548 16.3987 6.55809 16.4231 5.91689C16.4338 5.63597 16.3966 5.36569 16.3176 5.11589H20.2282L13.941 12.825L7.65384 5.11589ZM15.0179 5.86345C15.0055 6.18891 14.8576 6.543 14.6122 6.83498C14.3668 7.12692 14.0433 7.33345 13.7248 7.40156C13.5752 7.43358 13.2932 7.46128 13.0863 7.28742C12.7288 6.98686 12.8145 6.24811 13.2698 5.70652C13.5837 5.33316 14.02 5.11673 14.378 5.11673C14.5393 5.11673 14.6847 5.1607 14.7957 5.25403C15.0025 5.42794 15.0237 5.7105 15.0179 5.86345ZM6.58163 7.875C4.79817 7.875 3.34725 6.42408 3.34725 4.64062C3.34725 2.85717 4.79817 1.40625 6.58163 1.40625C8.0415 1.40625 9.27797 2.37867 9.6788 3.70964H5.82305V5.09606L7.87036 7.60641C7.47525 7.77877 7.03955 7.875 6.58163 7.875Z" fill="#4890B2"/>
</svg>
