<svg width="24" height="24" viewBox="0 0 24 24" fill="none" xmlns="http://www.w3.org/2000/svg">
<path d="M23.5434 5.89203C23.5088 5.90665 19.9853 7.36578 12 7.36578C4.03837 7.36578 0.491062 5.90665 0.456562 5.89203C0.406671 5.8708 0.352297 5.86228 0.298304 5.8672C0.24431 5.87213 0.192379 5.89036 0.147153 5.92026C0.101927 5.95017 0.0648154 5.99081 0.0391364 6.03856C0.0134575 6.08631 1.13037e-05 6.13968 0 6.1939L0 20.7597C1.13037e-05 20.8139 0.0134575 20.8672 0.0391364 20.915C0.0648154 20.9627 0.101927 21.0034 0.147153 21.0333C0.192379 21.0632 0.24431 21.0814 0.298304 21.0864C0.352297 21.0913 0.406671 21.0827 0.456562 21.0615C0.49125 21.0469 4.01475 19.5878 12 19.5878C19.9616 19.5878 23.5089 21.0469 23.5434 21.0615C23.5934 21.0822 23.6476 21.0902 23.7013 21.0851C23.7551 21.0799 23.8068 21.0616 23.8519 21.0318C23.8969 21.002 23.934 20.9616 23.9598 20.9142C23.9856 20.8667 23.9994 20.8137 24 20.7597V6.1939C24 6.13968 23.9865 6.08631 23.9609 6.03856C23.9352 5.99081 23.8981 5.95017 23.8528 5.92026C23.8076 5.89036 23.7557 5.87213 23.7017 5.8672C23.6477 5.86228 23.5933 5.8708 23.5434 5.89203ZM0.65625 6.66284C1.851 7.06034 5.42044 8.02203 12 8.02203C18.5796 8.02203 22.1492 7.06034 23.3438 6.66284V17.1816L16.9086 12.7611C16.8532 12.7242 16.7881 12.7046 16.7215 12.7048C16.655 12.705 16.59 12.725 16.5349 12.7622L12 15.9244L7.46494 12.7622C7.41022 12.7241 7.34516 12.7035 7.27846 12.7033C7.21175 12.7031 7.14657 12.7233 7.09162 12.7611L0.65625 17.1816V6.66284ZM12 18.9315C5.42044 18.9315 1.851 19.8932 0.65625 20.2907V17.9777L7.27594 13.4305L11.8125 16.5938C11.8675 16.6321 11.9329 16.6527 12 16.6527C12.0671 16.6527 12.1325 16.6321 12.1875 16.5938L16.725 13.4305L23.3438 17.9777V20.2907C22.1492 19.8938 18.5796 18.9315 12 18.9315Z" fill="#4890B2"/>
<path d="M12 13.2776C12.3964 13.2776 12.7838 13.1601 13.1134 12.9399C13.4429 12.7197 13.6998 12.4067 13.8515 12.0405C14.0031 11.6743 14.0428 11.2714 13.9655 10.8827C13.8882 10.4939 13.6973 10.1368 13.417 9.85658C13.1368 9.57632 12.7797 9.38545 12.391 9.30813C12.0022 9.23081 11.5993 9.27049 11.2331 9.42217C10.8669 9.57385 10.5539 9.8307 10.3337 10.1603C10.1135 10.4898 9.996 10.8773 9.996 11.2736C9.9966 11.8049 10.2079 12.3143 10.5836 12.69C10.9593 13.0657 11.4687 13.277 12 13.2776ZM12 9.92606C12.2666 9.92606 12.5272 10.0051 12.7488 10.1532C12.9704 10.3013 13.1432 10.5118 13.2452 10.7581C13.3472 11.0044 13.3739 11.2754 13.3218 11.5368C13.2698 11.7983 13.1414 12.0384 12.9529 12.2269C12.7644 12.4154 12.5243 12.5437 12.2628 12.5957C12.0014 12.6477 11.7304 12.621 11.4841 12.5189C11.2378 12.4169 11.0274 12.2441 10.8793 12.0224C10.7312 11.8008 10.6522 11.5402 10.6523 11.2736C10.6529 10.9164 10.7951 10.574 11.0477 10.3214C11.3003 10.0688 11.6428 9.92666 12 9.92606Z" fill="#4890B2"/>
<path d="M5.69362 5.7707C5.72504 5.80016 5.76196 5.82315 5.80226 5.83834C5.84256 5.85354 5.88546 5.86065 5.92851 5.85926C5.97156 5.85788 6.01391 5.84803 6.05315 5.83027C6.0924 5.81252 6.12776 5.78721 6.15722 5.75579C6.18668 5.72438 6.20966 5.68746 6.22486 5.64716C6.24005 5.60686 6.24716 5.56396 6.24578 5.52091C6.24439 5.47786 6.23455 5.43551 6.21679 5.39627C6.19904 5.35702 6.17373 5.32166 6.14231 5.2922L5.45381 4.64664C7.62608 4.90619 9.8123 5.03143 12 5.02164C14.1877 5.03152 16.3739 4.90628 18.5462 4.64664L17.8575 5.2922C17.8261 5.32175 17.8008 5.35719 17.7831 5.39652C17.7653 5.43584 17.7555 5.47826 17.7542 5.52137C17.7529 5.56448 17.7601 5.60743 17.7754 5.64777C17.7906 5.6881 17.8137 5.72503 17.8432 5.75645C17.8728 5.78787 17.9082 5.81316 17.9476 5.83088C17.9869 5.8486 18.0293 5.8584 18.0724 5.85973C18.1155 5.86105 18.1585 5.85387 18.1988 5.83859C18.2391 5.82332 18.2761 5.80025 18.3075 5.7707L19.6727 4.49083C19.7098 4.45607 19.7384 4.41315 19.7561 4.36547C19.7738 4.31779 19.7802 4.26664 19.7747 4.21607C19.7692 4.1655 19.7521 4.11689 19.7246 4.07408C19.6972 4.03127 19.6601 3.99543 19.6164 3.96939L17.9115 2.9582C17.8367 2.9141 17.7474 2.90146 17.6633 2.92306C17.5792 2.94466 17.507 2.99874 17.4627 3.07344C17.4184 3.14814 17.4055 3.23736 17.4268 3.32155C17.4482 3.40575 17.5021 3.47804 17.5766 3.52258L18.3904 4.00501C16.2695 4.25477 14.1355 4.37524 12 4.36576C9.8651 4.37515 7.7316 4.25474 5.61131 4.0052L6.42525 3.52258C6.49982 3.47804 6.55369 3.40575 6.57504 3.32155C6.5964 3.23736 6.5835 3.14814 6.53918 3.07344C6.49486 2.99874 6.42272 2.94466 6.33859 2.92306C6.25446 2.90146 6.1652 2.9141 6.09037 2.9582L4.38544 3.96939C4.34168 3.99537 4.30458 4.03119 4.27706 4.074C4.24955 4.11681 4.23239 4.16544 4.22693 4.21604C4.22147 4.26664 4.22787 4.31781 4.24562 4.36551C4.26337 4.4132 4.29198 4.45611 4.32919 4.49083L5.69362 5.7707Z" fill="#4890B2"/>
</svg>
