<svg width="24" height="24" viewBox="0 0 24 24" fill="none" xmlns="http://www.w3.org/2000/svg">
<path d="M12 2.625C8.48486 2.625 5.625 5.48486 5.625 9C5.625 12.5151 8.48486 15.375 12 15.375C15.5151 15.375 18.375 12.5151 18.375 9C18.375 5.48486 15.5151 2.625 12 2.625ZM12 14.625C8.89844 14.625 6.375 12.1016 6.375 9C6.375 5.89844 8.89844 3.375 12 3.375C15.1016 3.375 17.625 5.89844 17.625 9C17.625 12.1016 15.1016 14.625 12 14.625Z" fill="#4890B2"/>
<path d="M12.75 6.625H11.5C11.293 6.625 11.125 6.79297 11.125 7V8.5C11.125 8.70703 11.293 8.875 11.5 8.875H12.75C13.3704 8.875 13.875 8.37036 13.875 7.75C13.875 7.12964 13.3704 6.625 12.75 6.625ZM12.75 8.125H11.875V7.375H12.75C12.9568 7.375 13.125 7.54322 13.125 7.75C13.125 7.95678 12.9568 8.125 12.75 8.125Z" fill="#4890B2"/>
<path d="M12.75 5.125H10.75C10.1296 5.125 9.625 5.62964 9.625 6.25V11.75C9.625 12.3704 10.1296 12.875 10.75 12.875C11.3704 12.875 11.875 12.3704 11.875 11.75V10.375H12.75C14.1975 10.375 15.375 9.19751 15.375 7.75C15.375 6.30249 14.1975 5.125 12.75 5.125ZM12.75 9.625H11.5C11.293 9.625 11.125 9.79297 11.125 10V11.75C11.125 11.9568 10.9568 12.125 10.75 12.125C10.5432 12.125 10.375 11.9568 10.375 11.75V6.25C10.375 6.04322 10.5432 5.875 10.75 5.875H12.75C13.7839 5.875 14.625 6.71607 14.625 7.75C14.625 8.78394 13.7839 9.625 12.75 9.625Z" fill="#4890B2"/>
<path d="M12 0.625C7.38208 0.625 3.625 4.38208 3.625 9C3.625 11.3337 4.60816 13.5403 6.39306 15.2131C8.12582 16.8426 9.41187 18.2772 10.4475 19.7411C9.03253 19.9567 7.625 20.5095 7.625 21.5C7.625 22.731 9.82593 23.375 12 23.375C14.1741 23.375 16.375 22.731 16.375 21.5C16.375 20.5095 14.9675 19.9567 13.5525 19.7411C14.588 18.2772 15.874 16.8427 17.6064 15.2136C19.3918 13.5403 20.375 11.3337 20.375 9C20.375 4.38208 16.6179 0.625 12 0.625ZM15.625 21.5C15.625 21.9587 14.2129 22.625 12 22.625C9.78711 22.625 8.375 21.9587 8.375 21.5C8.375 21.1578 9.26407 20.6193 10.9212 20.44C11.1856 20.8477 11.4381 21.2589 11.6718 21.6813C11.8043 21.9208 12.1859 21.9384 12.3282 21.6814C12.5619 21.2589 12.8145 20.8477 13.0789 20.44C14.7359 20.6193 15.625 21.1578 15.625 21.5ZM17.0933 14.6667C15.5168 16.1492 13.5461 18.156 12 20.7476C10.4539 18.156 8.48316 16.1492 6.90625 14.6663C5.27392 13.1365 4.375 11.124 4.375 9C4.375 4.79565 7.79565 1.375 12 1.375C16.2043 1.375 19.625 4.79565 19.625 9C19.625 11.124 18.7261 13.1365 17.0933 14.6667Z" fill="#4890B2"/>
</svg>
