<svg width="24" height="24" viewBox="0 0 24 24" fill="none" xmlns="http://www.w3.org/2000/svg">
<path d="M22.875 2.625H1.125C1.02554 2.625 0.930161 2.66451 0.859835 2.73484C0.789509 2.80516 0.75 2.90054 0.75 3V19.875C0.75 19.9745 0.789509 20.0698 0.859835 20.1402C0.930161 20.2105 1.02554 20.25 1.125 20.25H13.9441C14.0206 20.4691 14.1633 20.659 14.3524 20.7934C14.5416 20.9278 14.768 21 15 21C15.2321 21 15.4584 20.9278 15.6476 20.7934C15.8368 20.659 15.9795 20.4691 16.0559 20.25H22.875C22.9745 20.25 23.0698 20.2105 23.1402 20.1402C23.2105 20.0698 23.25 19.9745 23.25 19.875V3C23.25 2.90054 23.2105 2.80516 23.1402 2.73484C23.0698 2.66451 22.9745 2.625 22.875 2.625ZM16.125 16.125V15.8574L17.5985 13.5H20.625V16.125H16.125ZM17.625 18.3844C17.302 18.1369 16.9069 18.0019 16.5 18C16.4006 17.9999 16.3053 17.9603 16.235 17.89C16.1647 17.8197 16.1251 17.7244 16.125 17.625V16.875H17.625V18.3844ZM10.125 13.5C10.2245 13.5 10.3198 13.4605 10.3902 13.3902C10.4605 13.3198 10.5 13.2245 10.5 13.125C10.5 13.0255 10.4605 12.9302 10.3902 12.8598C10.3198 12.7895 10.2245 12.75 10.125 12.75H8.25C8.05109 12.75 7.86032 12.671 7.71967 12.5303C7.57902 12.3897 7.5 12.1989 7.5 12C7.5 11.8011 7.57902 11.6103 7.71967 11.4697C7.86032 11.329 8.05109 11.25 8.25 11.25H10.125C10.2245 11.25 10.3198 11.2105 10.3902 11.1402C10.4605 11.0698 10.5 10.9745 10.5 10.875C10.5 10.7755 10.4605 10.6802 10.3902 10.6098C10.3198 10.5395 10.2245 10.5 10.125 10.5C9.92609 10.5 9.73532 10.421 9.59467 10.2803C9.45402 10.1397 9.375 9.94891 9.375 9.75C9.375 9.55109 9.45402 9.36032 9.59467 9.21967C9.73532 9.07902 9.92609 9 10.125 9H14.3168L13.1247 10.8733C13.1242 10.7742 13.0846 10.6793 13.0144 10.6094C12.9442 10.5394 12.8491 10.5001 12.75 10.5H11.625C11.5255 10.5 11.4302 10.5395 11.3598 10.6098C11.2895 10.6802 11.25 10.7755 11.25 10.875C11.25 10.9745 11.2895 11.0698 11.3598 11.1402C11.4302 11.2105 11.5255 11.25 11.625 11.25H12.75C12.8054 11.2493 12.8598 11.236 12.9094 11.2113L12.0586 12.5484C12.0203 12.6087 11.9999 12.6786 12 12.75H11.625C11.5255 12.75 11.4302 12.7895 11.3598 12.8598C11.2895 12.9302 11.25 13.0255 11.25 13.125C11.25 13.2245 11.2895 13.3198 11.3598 13.3902C11.4302 13.4605 11.5255 13.5 11.625 13.5H12.4015L12.8702 14.25H10.125C9.92615 14.2498 9.7355 14.1707 9.59489 14.0301C9.45428 13.8895 9.3752 13.6989 9.375 13.5H10.125ZM1.5 9.375V6.75H2.625V9.375H1.5ZM3.375 6.75H8.625V9.375H3.375V6.75ZM14.625 6.75V8.25H10.125C9.86087 8.2515 9.60194 8.32355 9.375 8.45869V6.75H14.625ZM20.625 6.75V9.375H15.9218L15.375 8.51564V6.75H20.625ZM22.5 6.75V9.375H21.375V6.75H22.5ZM22.5 12.75H18.375V10.125H22.5V12.75ZM14.0664 14.7482L12.8189 12.7511L14.625 9.9127V14.319C14.3977 14.3987 14.2019 14.5491 14.0664 14.7482ZM17.625 12.0516L16.3991 10.125H17.625V12.0516ZM15.9339 14.7488C15.7983 14.5495 15.6025 14.3989 15.375 14.3191V9.91284L17.1823 12.7528L15.9339 14.7488ZM14.625 15.375C14.625 15.2755 14.6645 15.1802 14.7348 15.1098C14.8052 15.0395 14.9005 15 15 15C15.0995 15 15.1948 15.0395 15.2652 15.1098C15.3355 15.1802 15.375 15.2755 15.375 15.375V17.25H14.625V15.375ZM21.375 13.5H22.5V16.125H21.375V13.5ZM22.5 6H18.375V3.375H22.5V6ZM17.625 6H12.375V3.375H17.625V6ZM11.625 6H6.375V3.375H11.625V6ZM1.5 3.375H5.625V6H1.5V3.375ZM1.5 10.125H8.67366C8.70722 10.2564 8.75856 10.3825 8.82623 10.5H8.25C7.85218 10.5 7.47064 10.658 7.18934 10.9393C6.90804 11.2206 6.75 11.6022 6.75 12C6.75 12.3978 6.90804 12.7794 7.18934 13.0607C7.47064 13.342 7.85218 13.5 8.25 13.5H8.625C8.62545 13.8977 8.78363 14.279 9.06483 14.5602C9.34604 14.8414 9.72731 14.9996 10.125 15H13.339L13.875 15.8575V19.5H1.5V10.125ZM15 20.25C14.9006 20.2499 14.8053 20.2103 14.735 20.14C14.6647 20.0697 14.6251 19.9744 14.625 19.875V18H15.375V19.875C15.3749 19.9744 15.3353 20.0697 15.265 20.14C15.1947 20.2103 15.0994 20.2499 15 20.25ZM16.125 19.5V18.6809C16.2451 18.7253 16.3719 18.7487 16.5 18.75C16.7975 18.7501 17.083 18.8676 17.2943 19.077C17.413 19.1968 17.5039 19.3412 17.5605 19.5H16.125ZM22.5 19.5H18.375V16.875H22.5V19.5Z" fill="#4890B2"/>
</svg>
