<svg width="24" height="24" viewBox="0 0 24 24" fill="none" xmlns="http://www.w3.org/2000/svg">
<g clip-path="url(#clip0_440_1553)">
<path d="M22.8 21H14.2708L13.7908 19.8H22.8C23.0209 19.8 23.2 19.6209 23.2 19.4V18.6C23.1984 18.09 22.874 17.637 22.3916 17.4712C22.2131 12.017 17.8529 7.62641 12.4 7.41001V6.60001H13.2C13.8628 6.60001 14.4 6.06276 14.4 5.40001C14.4 4.73726 13.8628 4.20001 13.2 4.20001H10.8C10.1373 4.20001 9.6 4.73726 9.6 5.40001C9.6 6.06276 10.1373 6.60001 10.8 6.60001H11.6V7.41001C6.14715 7.62641 1.78695 12.017 1.6084 17.4712C1.12605 17.637 0.8016 18.09 0.8 18.6V19.4C0.8 19.6209 0.9791 19.8 1.2 19.8H10.2092L9.7292 21H1.2C0.53725 21 0 21.5373 0 22.2V23C0 23.2209 0.1791 23.4 0.4 23.4H23.6C23.8209 23.4 24 23.2209 24 23V22.2C24 21.5373 23.4628 21 22.8 21ZM10.8 5.80001C10.5791 5.80001 10.4 5.62091 10.4 5.40001C10.4 5.17911 10.5791 5.00001 10.8 5.00001H13.2C13.4209 5.00001 13.6 5.17911 13.6 5.40001C13.6 5.62091 13.4209 5.80001 13.2 5.80001H10.8ZM12 8.20001C17.1439 8.20621 21.3711 12.2609 21.5916 17.4H2.4084C2.6289 12.2609 6.85615 8.20621 12 8.20001ZM1.6 19V18.6C1.6 18.3791 1.7791 18.2 2 18.2H22C22.2209 18.2 22.4 18.3791 22.4 18.6V19H1.6ZM13.4092 21H10.5908L11.0708 19.8H12.9292L13.4092 21ZM23.2 22.6H0.8V22.2C0.8 21.9791 0.9791 21.8 1.2 21.8H22.8C23.0209 21.8 23.2 21.9791 23.2 22.2V22.6Z" fill="#4890B2"/>
<path d="M7.8092 10.06C5.8913 11.0977 4.4272 12.8107 3.7008 14.8668L4.4552 15.1332C5.1159 13.264 6.44715 11.7066 8.1908 10.7632L7.8092 10.06Z" fill="#4890B2"/>
<path d="M9.4844 9.36441C9.20065 9.44926 8.9214 9.54831 8.6476 9.66121L8.9524 10.4008C9.20105 10.2983 9.4547 10.2083 9.7124 10.1312L9.4844 9.36441Z" fill="#4890B2"/>
<path d="M12.4 0.600006H11.6V3.00001H12.4V0.600006Z" fill="#4890B2"/>
<path d="M8.8 5H6.4V5.8H8.8V5Z" fill="#4890B2"/>
<path d="M8.1861 1.42007L7.62042 1.98575L9.31746 3.68279L9.88314 3.11711L8.1861 1.42007Z" fill="#4890B2"/>
<path d="M15.8139 1.41926L14.1168 3.1163L14.6825 3.68198L16.3795 1.98494L15.8139 1.41926Z" fill="#4890B2"/>
<path d="M17.6 5H15.2V5.8H17.6V5Z" fill="#4890B2"/>
</g>
<defs>
<clipPath id="clip0_440_1553">
<rect width="24" height="24" fill="white"/>
</clipPath>
</defs>
</svg>
