<svg width="24" height="24" viewBox="0 0 24 24" fill="none" xmlns="http://www.w3.org/2000/svg">
<g clip-path="url(#clip0_453_1601)">
<path d="M1.3638 14.4816C1.20914 14.4816 1.0826 14.6081 1.0826 14.7628C1.0826 14.9174 1.20914 15.044 1.3638 15.044C1.63093 15.044 1.92619 15.1564 2.22144 15.283C2.57294 15.4236 2.92443 15.5642 3.30404 15.5642C3.6696 15.5642 4.02109 15.4236 4.37259 15.283C4.66784 15.1564 4.9631 15.044 5.23023 15.044C5.49737 15.044 5.79262 15.1564 6.08788 15.283C6.43937 15.4236 6.79086 15.5642 7.17048 15.5642C7.53603 15.5642 7.88752 15.4236 8.23902 15.283C8.53427 15.1564 8.82953 15.044 9.09666 15.044C9.3638 15.044 9.65905 15.1564 9.95431 15.283C10.3058 15.4236 10.6573 15.5642 11.0369 15.5642C11.4025 15.5642 11.754 15.4236 12.1055 15.283C12.4007 15.1564 12.696 15.044 12.9631 15.044C13.2302 15.044 13.5255 15.1564 13.8207 15.283C14.1722 15.4236 14.5237 15.5642 14.9033 15.5642C15.2689 15.5642 15.6204 15.4236 15.9719 15.283C16.2671 15.1564 16.5624 15.044 16.8295 15.044C17.0967 15.044 17.3919 15.1564 17.6872 15.283C18.0387 15.4236 18.3902 15.5642 18.7557 15.5642C19.1353 15.5642 19.4868 15.4236 19.8383 15.283C20.1336 15.1564 20.4288 15.044 20.696 15.044C20.9631 15.044 21.2584 15.1564 21.5536 15.283C21.9051 15.4236 22.2566 15.5642 22.6221 15.5642C22.7768 15.5642 22.9033 15.4376 22.9033 15.283C22.9033 15.1283 22.7768 15.0018 22.6221 15.0018C22.355 15.0018 22.0598 14.8893 21.7645 14.7628C21.413 14.6222 21.0756 14.4816 20.696 14.4816C20.3163 14.4816 19.9649 14.6222 19.6274 14.7628C19.3322 14.8893 19.0369 15.0018 18.7557 15.0018C18.4886 15.0018 18.1933 14.8893 17.8981 14.7628C17.5606 14.6222 17.2091 14.4816 16.8295 14.4816C16.4499 14.4816 16.0984 14.6222 15.761 14.7628C15.4657 14.8893 15.1705 15.0018 14.9033 15.0018C14.6221 15.0018 14.3269 14.8893 14.0316 14.7628C13.6942 14.6222 13.3427 14.4816 12.9631 14.4816C12.5835 14.4816 12.246 14.6222 11.8946 14.7628C11.5993 14.8893 11.304 15.0018 11.0369 15.0018C10.7557 15.0018 10.4605 14.8893 10.1652 14.7628C9.82777 14.6222 9.47628 14.4816 9.09666 14.4816C8.71705 14.4816 8.37962 14.6222 8.02812 14.7628C7.73287 14.8893 7.43761 15.0018 7.17048 15.0018C6.90334 15.0018 6.60809 14.8893 6.31283 14.7628C5.96134 14.6222 5.60984 14.4816 5.23023 14.4816C4.85062 14.4816 4.51318 14.6222 4.16169 14.7628C3.86643 14.8893 3.57118 15.0018 3.30404 15.0018C3.03691 15.0018 2.74165 14.8893 2.4464 14.7628C2.09491 14.6222 1.74341 14.4816 1.3638 14.4816Z" fill="#4890B2"/>
<path d="M11.993 9.96838C12.9631 9.96838 13.8348 10.348 14.4675 10.9807C15.0861 11.6134 15.4798 12.4851 15.4798 13.4411C15.4798 13.8067 15.4235 14.1582 15.3251 14.4816C15.2267 14.819 15.0721 15.1424 14.8752 15.4236C14.8049 15.522 14.6784 15.5642 14.5659 15.536C14.3128 15.4798 14.0738 15.3814 13.8207 15.283C13.5255 15.1564 13.2302 15.044 12.9631 15.044C12.696 15.044 12.4007 15.1564 12.1054 15.283C11.754 15.4236 11.4025 15.5642 11.0369 15.5642C10.6573 15.5642 10.3058 15.4236 9.9543 15.283C9.65905 15.1564 9.36379 15.044 9.09666 15.044C9.09666 15.044 9.0826 15.044 9.06854 15.044C8.95606 15.044 8.84358 14.9596 8.8014 14.8471C8.71705 14.6362 8.63269 14.4113 8.59051 14.1723C8.53427 13.9473 8.50615 13.6942 8.50615 13.4411C8.50615 12.4851 8.89982 11.6134 9.53251 10.9807C10.1652 10.348 11.0369 9.96838 11.993 9.96838ZM14.0598 11.3744C13.5395 10.8541 12.8084 10.5308 11.993 10.5308C11.1916 10.5308 10.4605 10.8541 9.92618 11.3744C9.40597 11.9086 9.06854 12.6397 9.06854 13.4411C9.06854 13.6661 9.09666 13.8629 9.13884 14.0598C9.16696 14.2004 9.20914 14.355 9.26538 14.4816C9.57469 14.5237 9.86995 14.6362 10.1652 14.7628C10.4605 14.8893 10.7557 15.0018 11.0369 15.0018C11.304 15.0018 11.5993 14.8893 11.8946 14.7628C12.246 14.6222 12.5835 14.4816 12.9631 14.4816C13.3427 14.4816 13.6942 14.6222 14.0316 14.7628C14.2004 14.8331 14.355 14.8893 14.5097 14.9455C14.6221 14.7487 14.7206 14.5378 14.7909 14.3128C14.8752 14.0457 14.9174 13.7505 14.9174 13.4411C14.9174 12.6397 14.594 11.9086 14.0598 11.3744Z" fill="#4890B2"/>
<path d="M12.2742 6.15815C12.2742 6.00349 12.1476 5.87695 11.993 5.87695C11.8383 5.87695 11.7118 6.00349 11.7118 6.15815V9.08258C11.7118 9.23723 11.8383 9.36377 11.993 9.36377C12.1476 9.36377 12.2742 9.23723 12.2742 9.08258V6.15815Z" fill="#4890B2"/>
<path d="M15.8875 7.28294C15.9578 7.14235 15.9156 6.97363 15.775 6.90333C15.6485 6.81897 15.4798 6.86115 15.3954 7.00175L13.9613 9.49032C13.877 9.61686 13.9332 9.79964 14.0598 9.86994C14.2004 9.9543 14.3691 9.89806 14.4394 9.77152L15.8875 7.28294Z" fill="#4890B2"/>
<path d="M18.4464 10.0527C18.5729 9.96835 18.6292 9.79963 18.5448 9.67309C18.4745 9.5325 18.3058 9.49032 18.1652 9.56062L15.775 10.9385C15.6345 11.0228 15.5923 11.1915 15.6766 11.3321C15.7469 11.4587 15.9156 11.5009 16.0562 11.4306L18.4464 10.0527Z" fill="#4890B2"/>
<path d="M19.2759 13.7223C19.4306 13.7223 19.5571 13.6098 19.5571 13.4411C19.5571 13.2864 19.4306 13.1599 19.2759 13.1599H16.6749C16.5202 13.1599 16.3937 13.2864 16.3937 13.4411C16.3937 13.6098 16.5202 13.7223 16.6749 13.7223H19.2759Z" fill="#4890B2"/>
<path d="M4.71002 13.1599C4.55536 13.1599 4.42883 13.2864 4.42883 13.4411C4.42883 13.6098 4.55536 13.7223 4.71002 13.7223H7.32513C7.47979 13.7223 7.60633 13.6098 7.60633 13.4411C7.60633 13.2864 7.47979 13.1599 7.32513 13.1599H4.71002Z" fill="#4890B2"/>
<path d="M5.8348 9.56062C5.6942 9.49032 5.52548 9.5325 5.44112 9.67309C5.37083 9.79963 5.41301 9.96835 5.5536 10.0527L7.94376 11.4306C8.0703 11.5009 8.25308 11.4587 8.32337 11.3321C8.40773 11.1915 8.35149 11.0228 8.22496 10.9385L5.8348 9.56062Z" fill="#4890B2"/>
<path d="M8.60457 7.00175C8.52021 6.86115 8.35149 6.81897 8.2109 6.90333C8.08436 6.97363 8.04218 7.14235 8.11248 7.28294L9.54657 9.77152C9.63093 9.89806 9.79965 9.9543 9.92619 9.86994C10.0668 9.79964 10.109 9.61686 10.0387 9.49032L8.60457 7.00175Z" fill="#4890B2"/>
<path d="M1.3638 16.4921C1.20914 16.4921 1.0826 16.6187 1.0826 16.7733C1.0826 16.928 1.20914 17.0545 1.3638 17.0545C1.63093 17.0545 1.92619 17.1811 2.22144 17.2935C2.57294 17.4482 2.92443 17.5888 3.30404 17.5888C3.6696 17.5888 4.02109 17.4482 4.37259 17.2935C4.66784 17.1811 4.9631 17.0545 5.23023 17.0545C5.49737 17.0545 5.79262 17.1811 6.08788 17.2935C6.43937 17.4482 6.79086 17.5888 7.17048 17.5888C7.53603 17.5888 7.88752 17.4482 8.23902 17.2935C8.53427 17.1811 8.82953 17.0545 9.09666 17.0545C9.3638 17.0545 9.65905 17.1811 9.95431 17.2935C10.3058 17.4482 10.6573 17.5888 11.0369 17.5888C11.4025 17.5888 11.754 17.4482 12.1055 17.2935C12.4007 17.1811 12.696 17.0545 12.9631 17.0545C13.2302 17.0545 13.5255 17.1811 13.8207 17.2935C14.1722 17.4482 14.5237 17.5888 14.9033 17.5888C15.2689 17.5888 15.6204 17.4482 15.9719 17.2935C16.2671 17.1811 16.5624 17.0545 16.8295 17.0545C17.0967 17.0545 17.3919 17.1811 17.6872 17.2935C18.0387 17.4482 18.3902 17.5888 18.7557 17.5888C19.1353 17.5888 19.4868 17.4482 19.8383 17.2935C20.1336 17.1811 20.4288 17.0545 20.696 17.0545C20.9631 17.0545 21.2584 17.1811 21.5536 17.2935C21.9051 17.4482 22.2566 17.5888 22.6221 17.5888C22.7768 17.5888 22.9033 17.4622 22.9033 17.3076C22.9033 17.1529 22.7768 17.0264 22.6221 17.0264C22.355 17.0264 22.0598 16.8999 21.7645 16.7733C21.413 16.6327 21.0756 16.4921 20.696 16.4921C20.3163 16.4921 19.9649 16.6327 19.6274 16.7733C19.3322 16.8999 19.0369 17.0264 18.7557 17.0264C18.4886 17.0264 18.1933 16.8999 17.8981 16.7733C17.5606 16.6327 17.2091 16.4921 16.8295 16.4921C16.4499 16.4921 16.0984 16.6327 15.761 16.7733C15.4657 16.8999 15.1705 17.0264 14.9033 17.0264C14.6221 17.0264 14.3269 16.8999 14.0316 16.7733C13.6942 16.6327 13.3427 16.4921 12.9631 16.4921C12.5835 16.4921 12.246 16.6327 11.8946 16.7733C11.5993 16.8999 11.304 17.0264 11.0369 17.0264C10.7557 17.0264 10.4605 16.8999 10.1652 16.7733C9.82777 16.6327 9.47628 16.4921 9.09666 16.4921C8.71705 16.4921 8.37962 16.6327 8.02812 16.7733C7.73287 16.8999 7.43761 17.0264 7.17048 17.0264C6.90334 17.0264 6.60809 16.8999 6.31283 16.7733C5.96134 16.6327 5.60984 16.4921 5.23023 16.4921C4.85062 16.4921 4.51318 16.6327 4.16169 16.7733C3.86643 16.8999 3.57118 17.0264 3.30404 17.0264C3.03691 17.0264 2.74165 16.8999 2.4464 16.7733C2.09491 16.6327 1.74341 16.4921 1.3638 16.4921Z" fill="#4890B2"/>
<path d="M1.3638 18.5026C1.20914 18.5026 1.0826 18.6292 1.0826 18.7838C1.0826 18.9385 1.20914 19.065 1.3638 19.065C1.63093 19.065 1.92619 19.1916 2.22144 19.3181C2.57294 19.4587 2.92443 19.5993 3.30404 19.5993C3.6696 19.5993 4.02109 19.4587 4.37259 19.3181C4.66784 19.1916 4.9631 19.065 5.23023 19.065C5.49737 19.065 5.79262 19.1916 6.08788 19.3181C6.43937 19.4587 6.79086 19.5993 7.17048 19.5993C7.53603 19.5993 7.88752 19.4587 8.23902 19.3181C8.53427 19.1916 8.82953 19.065 9.09666 19.065C9.3638 19.065 9.65905 19.1916 9.95431 19.3181C10.3058 19.4587 10.6573 19.5993 11.0369 19.5993C11.4025 19.5993 11.754 19.4587 12.1055 19.3181C12.4007 19.1916 12.696 19.065 12.9631 19.065C13.2302 19.065 13.5255 19.1916 13.8207 19.3181C14.1722 19.4587 14.5237 19.5993 14.9033 19.5993C15.2689 19.5993 15.6204 19.4587 15.9719 19.3181C16.2671 19.1916 16.5624 19.065 16.8295 19.065C17.0967 19.065 17.3919 19.1916 17.6872 19.3181C18.0387 19.4587 18.3902 19.5993 18.7557 19.5993C19.1353 19.5993 19.4868 19.4587 19.8383 19.3181C20.1336 19.1916 20.4288 19.065 20.696 19.065C20.9631 19.065 21.2584 19.1916 21.5536 19.3181C21.9051 19.4587 22.2566 19.5993 22.6221 19.5993C22.7768 19.5993 22.9033 19.4727 22.9033 19.3181C22.9033 19.1634 22.7768 19.0369 22.6221 19.0369C22.355 19.0369 22.0598 18.9104 21.7645 18.7979C21.413 18.6573 21.0756 18.5026 20.696 18.5026C20.3163 18.5026 19.9649 18.6573 19.6274 18.7979C19.3322 18.9104 19.0369 19.0369 18.7557 19.0369C18.4886 19.0369 18.1933 18.9104 17.8981 18.7979C17.5606 18.6573 17.2091 18.5026 16.8295 18.5026C16.4499 18.5026 16.0984 18.6573 15.761 18.7979C15.4657 18.9104 15.1705 19.0369 14.9033 19.0369C14.6221 19.0369 14.3269 18.9104 14.0316 18.7979C13.6942 18.6573 13.3427 18.5026 12.9631 18.5026C12.5835 18.5026 12.246 18.6573 11.8946 18.7979C11.5993 18.9104 11.304 19.0369 11.0369 19.0369C10.7557 19.0369 10.4605 18.9104 10.1652 18.7979C9.82777 18.6573 9.47628 18.5026 9.09666 18.5026C8.71705 18.5026 8.37962 18.6573 8.02812 18.7979C7.73287 18.9104 7.43761 19.0369 7.17048 19.0369C6.90334 19.0369 6.60809 18.9104 6.31283 18.7979C5.96134 18.6573 5.60984 18.5026 5.23023 18.5026C4.85062 18.5026 4.51318 18.6573 4.16169 18.7979C3.86643 18.9104 3.57118 19.0369 3.30404 19.0369C3.03691 19.0369 2.74165 18.9104 2.4464 18.7979C2.09491 18.6573 1.74341 18.5026 1.3638 18.5026Z" fill="#4890B2"/>
<path d="M1.18102 8.57645C0.857645 8.57645 0.56239 8.43586 0.351494 8.22496C0.126538 8 0 7.70475 0 7.38138C0 7.058 0.126538 6.76275 0.351494 6.55185C0.506151 6.39719 0.702988 6.28471 0.927944 6.22848C0.984183 6.00352 1.09666 5.80668 1.25132 5.65203C1.40598 5.48331 1.60281 5.37083 1.82777 5.32865C1.88401 5.1037 1.99649 4.8928 2.15114 4.73814C2.39016 4.49913 2.71353 4.38665 3.05097 4.40071C3.36028 4.41477 3.64148 4.54131 3.85237 4.76626C3.99297 4.90686 4.09139 5.08964 4.14763 5.30053C4.471 5.30053 4.78032 5.42707 5.00527 5.65203C5.15993 5.80668 5.25835 5.98946 5.31459 6.20036C5.93322 6.2566 6.41125 6.76275 6.41125 7.38138C6.41125 8.04218 5.87698 8.57645 5.23023 8.57645H1.18102ZM1.18102 8.01406H5.23023C5.56766 8.01406 5.84886 7.73287 5.84886 7.38138C5.84886 7.04394 5.56766 6.76275 5.23023 6.76275C5.17399 6.76275 5.11775 6.77681 5.06151 6.77681C4.89279 6.77681 4.78032 6.65027 4.78032 6.48155C4.78032 6.31283 4.71002 6.15818 4.6116 6.0457C4.49912 5.93322 4.35852 5.86292 4.18981 5.86292C4.10545 5.86292 4.07733 5.86292 3.99297 5.87698C3.76801 5.96134 3.61336 5.79262 3.61336 5.58173C3.61336 5.41301 3.54306 5.25835 3.44464 5.14587C3.33216 5.0334 3.19156 4.9631 3.02285 4.9631C2.84007 4.94904 2.67135 5.01934 2.54482 5.14587C2.43234 5.25835 2.3761 5.41301 2.3761 5.58173C2.3761 5.73638 2.24956 5.86292 2.0949 5.86292C1.91213 5.86292 1.75747 5.93322 1.64499 6.0457C1.53251 6.15818 1.46221 6.31283 1.46221 6.48155C1.46221 6.63621 1.33568 6.76275 1.18102 6.76275C1.0123 6.76275 0.857645 6.83305 0.745167 6.94552C0.632689 7.058 0.56239 7.21266 0.56239 7.38138C0.56239 7.55009 0.632689 7.70475 0.731107 7.81723C0.871705 7.94377 0.984183 8.01406 1.18102 8.01406Z" fill="#4890B2"/>
<path d="M18.7698 8.57645C18.4464 8.57645 18.1511 8.43586 17.9402 8.22496C17.7153 8 17.5888 7.70475 17.5888 7.38138C17.5888 7.058 17.7153 6.76275 17.9402 6.55185C18.0949 6.39719 18.2917 6.28471 18.5167 6.22848C18.5729 6.00352 18.6854 5.80668 18.8401 5.63797C18.9947 5.48331 19.1916 5.37083 19.4165 5.32865C19.4728 5.1037 19.5852 4.8928 19.7399 4.73814C19.9789 4.49913 20.3023 4.38665 20.6257 4.40071C20.949 4.41477 21.2302 4.54131 21.4411 4.76626C21.5817 4.90686 21.6801 5.08964 21.7223 5.30053C22.0598 5.30053 22.3691 5.41301 22.594 5.65203C22.7346 5.80668 22.8471 5.98946 22.9033 6.20036C23.522 6.2566 24 6.76275 24 7.38138C24 8.04218 23.4657 8.57645 22.8049 8.57645H18.7698ZM18.7698 8.01406H22.8049C23.1564 8.01406 23.4376 7.73287 23.4376 7.38138C23.4376 7.04394 23.1564 6.76275 22.8049 6.76275C22.7487 6.76275 22.7065 6.77681 22.6503 6.77681C22.4815 6.77681 22.3691 6.65027 22.3691 6.48155C22.3691 6.31283 22.2988 6.15818 22.1863 6.0457C22.0879 5.93322 21.9332 5.86292 21.7786 5.86292C21.6942 5.86292 21.652 5.86292 21.5817 5.87698C21.3568 5.96134 21.2021 5.79262 21.2021 5.58173C21.2021 5.41301 21.1318 5.25835 21.0334 5.14587C20.9209 5.0334 20.7663 4.9631 20.6116 4.9631C20.4288 4.94904 20.2601 5.01934 20.1336 5.14587C20.0211 5.25835 19.9508 5.41301 19.9508 5.58173C19.9508 5.73638 19.8243 5.86292 19.6696 5.86292C19.5009 5.86292 19.3462 5.93322 19.2337 6.0457C19.1213 6.15818 19.051 6.31283 19.051 6.48155C19.051 6.63621 18.9244 6.76275 18.7698 6.76275C18.6011 6.76275 18.4464 6.83305 18.3339 6.94552C18.2214 7.058 18.1511 7.21266 18.1511 7.38138C18.1511 7.55009 18.2074 7.70475 18.3199 7.81723C18.4605 7.94377 18.5729 8.01406 18.7698 8.01406Z" fill="#4890B2"/>
</g>
<defs>
<clipPath id="clip0_453_1601">
<rect width="24" height="24" fill="white"/>
</clipPath>
</defs>
</svg>
