<svg width="24" height="24" viewBox="0 0 24 24" fill="none" xmlns="http://www.w3.org/2000/svg">
<path d="M18.1984 14.1463H18.052C17.8945 14.1465 17.7404 14.1002 17.6091 14.0133C17.4778 13.9263 17.3751 13.8026 17.3138 13.6575L15.6276 9.6825C15.6264 9.67987 15.6261 9.67706 15.6249 9.67443C15.6238 9.67181 15.6219 9.66937 15.6208 9.66675L14.9833 8.163C14.9655 8.12093 14.939 8.08306 14.9057 8.05181C14.8724 8.02055 14.8329 7.99661 14.7898 7.9815C14.7466 7.96639 14.7008 7.96045 14.6553 7.96407C14.6098 7.96768 14.5655 7.98077 14.5253 8.0025C14.0071 8.27897 13.4139 8.38218 12.8328 8.29698C12.2517 8.21178 11.7132 7.94265 11.2961 7.52906L10.8786 7.11131C10.7764 7.01375 10.7027 6.89028 10.6654 6.75408C10.628 6.61788 10.6283 6.47408 10.6663 6.33806C10.7776 5.98434 10.7896 5.60687 10.701 5.24681C10.6124 4.88675 10.4267 4.55792 10.164 4.29618C10.1023 4.23545 10.0191 4.20158 9.93259 4.20197C9.84603 4.20236 9.76314 4.23697 9.70201 4.29825L7.62807 6.372H7.62714L5.97357 8.02575L5.50089 8.49825C5.39619 8.60286 5.31313 8.72709 5.25646 8.86382C5.19979 9.00055 5.17062 9.14711 5.17062 9.29512C5.17062 9.44313 5.19979 9.58969 5.25646 9.72642C5.31313 9.86315 5.39619 9.98738 5.50089 10.092L13.7394 18.3307C13.8008 18.3919 13.8649 18.4491 13.9305 18.5038H6.20626C6.11924 18.5038 6.03578 18.5384 5.97424 18.5999C5.91271 18.6614 5.87814 18.7449 5.87814 18.8319C5.87814 18.919 5.91271 19.0024 5.97424 19.064C6.03578 19.1255 6.11924 19.1601 6.20626 19.1601H18.9694C19.445 19.1596 19.901 18.9705 20.2374 18.6344C20.5738 18.2982 20.7632 17.8424 20.7641 17.3668L20.7656 16.7149V16.7137C20.7637 16.0334 20.4926 15.3816 20.0116 14.9005C19.5306 14.4194 18.8787 14.1483 18.1984 14.1463ZM9.90732 5.02068C10.0064 5.18749 10.0694 5.37319 10.0923 5.56582C10.1152 5.75845 10.0974 5.95375 10.0403 6.13912C9.96449 6.38968 9.95928 6.65628 10.0252 6.9096C10.0911 7.16293 10.2256 7.39316 10.4139 7.575L10.8317 7.99274C11.3056 8.4626 11.9068 8.78321 12.5611 8.91488C13.2153 9.04655 13.8938 8.98351 14.5125 8.73356L14.8924 9.62906L14.2804 9.88818C14.2106 9.91767 14.1532 9.9704 14.1178 10.0374C14.0825 10.1044 14.0715 10.1816 14.0866 10.2558C14.1017 10.3301 14.142 10.3968 14.2007 10.4447C14.2594 10.4926 14.3329 10.5187 14.4086 10.5186C14.4525 10.5186 14.496 10.5097 14.5363 10.4925L15.1487 10.2332L15.5406 11.1566L14.9274 11.4163C14.8871 11.4327 14.8505 11.4569 14.8196 11.4876C14.7888 11.5183 14.7643 11.5548 14.7477 11.595C14.7311 11.6352 14.7227 11.6783 14.7229 11.7218C14.7231 11.7653 14.7319 11.8083 14.7489 11.8484C14.7659 11.8884 14.7906 11.9247 14.8218 11.9551C14.8529 11.9855 14.8898 12.0094 14.9302 12.0254C14.9707 12.0414 15.0139 12.0492 15.0574 12.0484C15.1009 12.0475 15.1438 12.038 15.1836 12.0204L15.7969 11.7607L16.1886 12.6842L15.5747 12.9441C15.505 12.9736 15.4477 13.0263 15.4125 13.0933C15.3773 13.1602 15.3662 13.2373 15.3813 13.3115C15.3964 13.3856 15.4366 13.4523 15.4952 13.5002C15.5538 13.5481 15.6271 13.5742 15.7028 13.5742C15.7467 13.5744 15.7902 13.5656 15.8306 13.5484L16.4438 13.2883L16.7091 13.9136C16.8206 14.1774 17.0074 14.4025 17.2462 14.5606C17.485 14.7187 17.7652 14.8029 18.0516 14.8026H18.1976C18.7041 14.804 19.1895 15.0058 19.5477 15.3639C19.9059 15.722 20.1078 16.2073 20.1094 16.7137V17.0377H16.35C16.0643 17.0384 15.7813 16.9823 15.5174 16.8729C15.2535 16.7635 15.0139 16.6028 14.8125 16.4002L9.01089 10.5996L9.04445 10.566C9.47344 10.136 9.71436 9.55346 9.71436 8.94609C9.71436 8.33872 9.47344 7.75615 9.04445 7.32618L8.32314 6.60487L9.90732 5.02068ZM7.85926 7.06875L8.58057 7.79006C8.88666 8.09685 9.05856 8.51253 9.05856 8.9459C9.05856 9.37927 8.88666 9.79495 8.58057 10.1017L8.54682 10.1355L6.66957 8.25843L7.85926 7.06875ZM18.9694 18.5044H15.7416C15.4559 18.505 15.1729 18.449 14.909 18.3396C14.6451 18.2302 14.4055 18.0695 14.2041 17.8669L5.96532 9.62812C5.92163 9.58445 5.88696 9.5326 5.86331 9.47552C5.83966 9.41845 5.82748 9.35728 5.82748 9.2955C5.82748 9.23372 5.83966 9.17254 5.86331 9.11547C5.88696 9.05839 5.92163 9.00654 5.96532 8.96287L6.20626 8.7225L8.31489 10.8317L14.3477 16.8645C14.61 17.1283 14.922 17.3375 15.2657 17.4799C15.6094 17.6223 15.978 17.695 16.35 17.694H20.0593C19.9886 17.9281 19.8444 18.1333 19.6482 18.2792C19.4519 18.4251 19.2139 18.504 18.9694 18.5044Z" fill="#4890B2"/>
<path d="M3.88126 5.74199H6.14813C6.23516 5.74199 6.31861 5.70742 6.38015 5.64588C6.44169 5.58435 6.47626 5.50089 6.47626 5.41386C6.47626 5.32684 6.44169 5.24338 6.38015 5.18184C6.31861 5.12031 6.23516 5.08574 6.14813 5.08574H3.88126C3.79423 5.08574 3.71077 5.12031 3.64924 5.18184C3.5877 5.24338 3.55313 5.32684 3.55313 5.41386C3.55313 5.50089 3.5877 5.58435 3.64924 5.64588C3.71077 5.70742 3.79423 5.74199 3.88126 5.74199Z" fill="#4890B2"/>
<path d="M9.67257 15.5715C9.67259 15.5284 9.66412 15.4857 9.64764 15.4459C9.63116 15.4061 9.60699 15.3699 9.57652 15.3394C9.54604 15.309 9.50986 15.2848 9.47004 15.2683C9.43022 15.2518 9.38754 15.2434 9.34444 15.2434H5.52451C5.43748 15.2434 5.35402 15.2779 5.29249 15.3395C5.23095 15.401 5.19638 15.4845 5.19638 15.5715C5.19638 15.6585 5.23095 15.742 5.29249 15.8035C5.35402 15.8651 5.43748 15.8996 5.52451 15.8996H9.34444C9.38754 15.8997 9.43022 15.8912 9.47004 15.8747C9.50986 15.8582 9.54604 15.8341 9.57652 15.8036C9.60699 15.7731 9.63116 15.7369 9.64764 15.6971C9.66412 15.6573 9.67259 15.6146 9.67257 15.5715Z" fill="#4890B2"/>
<path d="M5.889 11.5245C5.88902 11.4814 5.88055 11.4387 5.86407 11.3989C5.84759 11.3591 5.82342 11.3229 5.79295 11.2924C5.76248 11.2619 5.72629 11.2378 5.68647 11.2213C5.64665 11.2048 5.60397 11.1963 5.56088 11.1964H3.5625C3.47548 11.1964 3.39202 11.2309 3.33048 11.2925C3.26895 11.354 3.23438 11.4375 3.23438 11.5245C3.23438 11.6115 3.26895 11.695 3.33048 11.7565C3.39202 11.818 3.47548 11.8526 3.5625 11.8526H5.56088C5.60397 11.8526 5.64665 11.8442 5.68647 11.8277C5.72629 11.8112 5.76248 11.787 5.79295 11.7566C5.82342 11.7261 5.84759 11.6899 5.86407 11.6501C5.88055 11.6103 5.88902 11.5676 5.889 11.5245Z" fill="#4890B2"/>
</svg>
