<svg width="24" height="24" viewBox="0 0 24 24" fill="none" xmlns="http://www.w3.org/2000/svg">
<path d="M9.75 11.625C9.65054 11.625 9.55516 11.5855 9.48483 11.5151C9.41451 11.4448 9.375 11.3494 9.375 11.25C9.39394 10.331 9.6348 9.43033 10.077 8.6246C10.1229 8.53631 10.2019 8.46985 10.2968 8.43984C10.3916 8.40983 10.4945 8.41872 10.5828 8.46457C10.6711 8.51041 10.7375 8.58945 10.7675 8.6843C10.7976 8.77914 10.7887 8.88202 10.7428 8.97031C10.3563 9.66938 10.1444 10.4514 10.125 11.25C10.125 11.3494 10.0855 11.4448 10.0152 11.5151C9.94484 11.5855 9.84946 11.625 9.75 11.625Z" fill="#4890B2"/>
<path d="M6.37537 13.2242C6.30718 13.2243 6.24026 13.2058 6.18179 13.1707C6.12333 13.1356 6.07554 13.0852 6.04357 13.025C5.64502 12.253 5.35306 11.4305 5.17567 10.58C5.16378 10.5314 5.16173 10.481 5.16964 10.4316C5.17754 10.3822 5.19525 10.3349 5.22171 10.2924C5.24818 10.25 5.28286 10.2133 5.32373 10.1844C5.3646 10.1556 5.41083 10.1352 5.45968 10.1245C5.50854 10.1138 5.55905 10.113 5.60823 10.1221C5.65741 10.1312 5.70427 10.1501 5.74605 10.1776C5.78783 10.2051 5.82369 10.2406 5.85152 10.2822C5.87935 10.3238 5.89858 10.3705 5.90809 10.4196C6.07112 11.2035 6.33967 11.9616 6.70642 12.6733C6.73674 12.7305 6.75176 12.7945 6.75003 12.8591C6.74831 12.9238 6.72989 12.9869 6.69657 13.0423C6.66326 13.0977 6.61617 13.1436 6.55989 13.1754C6.50361 13.2073 6.44005 13.2242 6.37537 13.2242Z" fill="#4890B2"/>
<path d="M5.25 9.375C5.45711 9.375 5.625 9.20711 5.625 9C5.625 8.79289 5.45711 8.625 5.25 8.625C5.04289 8.625 4.875 8.79289 4.875 9C4.875 9.20711 5.04289 9.375 5.25 9.375Z" fill="#4890B2"/>
<path d="M11.25 7.875C11.4571 7.875 11.625 7.70711 11.625 7.5C11.625 7.29289 11.4571 7.125 11.25 7.125C11.0429 7.125 10.875 7.29289 10.875 7.5C10.875 7.70711 11.0429 7.875 11.25 7.875Z" fill="#4890B2"/>
<path d="M22.7952 15.5189C21.9183 14.4569 20.8768 13.5423 19.7103 12.81C20.3636 11.1111 20.6718 9.29902 20.6169 7.47965C20.612 7.38749 20.5732 7.3004 20.508 7.23511C20.4427 7.16981 20.3557 7.13093 20.2635 7.12592C18.5576 7.07892 16.8577 7.34899 15.2503 7.92242C14.4872 6.50618 13.4644 5.24621 12.2353 4.2083C12.1686 4.15463 12.0855 4.12537 11.9998 4.12537C11.9142 4.12537 11.8311 4.15463 11.7644 4.2083C10.5353 5.24621 9.51246 6.50618 8.74939 7.92242C7.14211 7.34893 5.44234 7.0788 3.73646 7.12577C3.6443 7.13078 3.55725 7.16966 3.49202 7.23496C3.42679 7.30025 3.38798 7.38734 3.38306 7.4795C3.32822 9.29893 3.63645 11.111 4.28974 12.81C3.12321 13.5423 2.08168 14.457 1.20484 15.5191C1.15306 15.585 1.12491 15.6664 1.12491 15.7502C1.12491 15.834 1.15306 15.9154 1.20484 15.9813C1.32934 16.14 4.29675 19.875 8.0625 19.875C9.58252 19.875 10.9454 19.1403 12 18.4484C13.0546 19.1403 14.4175 19.875 15.9375 19.875C19.7032 19.875 22.6707 16.14 22.7952 15.9811C22.8469 15.9152 22.8751 15.8338 22.8751 15.75C22.8751 15.6662 22.8469 15.5848 22.7952 15.5189ZM19.8735 7.86894C19.8684 9.02582 19.6655 12.7945 17.3599 15.1064C16.1977 16.2027 14.7724 16.9808 13.2218 17.3656C14.3757 16.1596 16.125 13.8955 16.125 11.25C16.1146 10.3395 15.9245 9.43995 15.5656 8.60304C16.9515 8.12313 18.407 7.8752 19.8735 7.86894ZM12 4.99697C12.802 5.72169 15.375 8.27968 15.375 11.25C15.375 14.2204 12.802 16.7783 12 17.5031C11.198 16.7783 8.625 14.2204 8.625 11.25C8.625 8.27968 11.198 5.72169 12 4.99697ZM8.43439 8.60304C8.07551 9.43995 7.88542 10.3395 7.875 11.25C7.875 13.8955 9.62437 16.1596 10.7782 17.3654C9.22774 16.9807 7.80261 16.2027 6.6405 15.1066C4.33447 12.7947 4.13175 9.02567 4.12646 7.86879C5.59304 7.87505 7.04854 8.12313 8.43439 8.60304ZM1.99035 15.7496C2.75281 14.8835 3.63166 14.1272 4.60181 13.5023C4.98598 14.2905 5.49526 15.0112 6.10987 15.6365C7.46923 16.9241 9.15906 17.8094 10.9915 18.194C10.1135 18.7554 9.1035 19.0765 8.0625 19.125C5.175 19.125 2.68875 16.5458 1.99035 15.7496ZM15.9375 19.125C14.8965 19.0765 13.8865 18.7555 13.0085 18.1941C14.8411 17.8093 16.5311 16.9239 17.8905 15.6361C18.505 15.0109 19.0142 14.2904 19.3983 13.5024C20.3682 14.1277 21.2469 14.884 22.0096 15.75C21.3124 16.5465 18.8305 19.125 15.9375 19.125Z" fill="#4890B2"/>
</svg>
