<svg width="24" height="24" viewBox="0 0 24 24" fill="none" xmlns="http://www.w3.org/2000/svg">
<g clip-path="url(#clip0_440_1619)">
<path d="M23.845 15.3305C23.6846 15.2216 23.4657 15.2636 23.3562 15.4237C23.3267 15.4669 22.6185 16.4808 21.3179 16.4808C20.0173 16.4808 19.3091 15.4669 19.2803 15.4249C19.1507 15.2197 18.8249 15.2199 18.6954 15.4252C18.6884 15.4358 17.9721 16.4808 16.6598 16.4808C15.5599 16.4808 14.8838 15.7559 14.6838 15.5066V10.0482H23.6477C23.8423 10.0482 24 9.89048 24 9.69591C24 9.50133 23.8423 9.34364 23.6477 9.34364H20.815V6.7763C20.815 4.44717 18.9426 2.5342 16.6411 2.51194C15.5089 2.50055 14.4411 2.9347 13.6349 3.73312C13.2446 4.1197 12.94 4.56867 12.7287 5.05706C12.0776 3.57427 10.6133 2.52839 8.91512 2.51194C8.90115 2.5118 8.88718 2.51175 8.87321 2.51175C7.75641 2.51175 6.7051 2.94455 5.90884 3.73312C5.10249 4.53173 4.65835 5.595 4.65835 6.72703V9.34369H0.378945C0.184367 9.34369 0.0266793 9.50137 0.0266793 9.69595C0.0266793 9.89053 0.184367 10.0482 0.378945 10.0482H4.65835V11.4393C4.65835 11.6339 4.81604 11.7915 5.01062 11.7915C5.20519 11.7915 5.36288 11.6339 5.36288 11.4393V6.72703C5.36288 5.78442 5.73282 4.89895 6.40463 4.23366C7.07621 3.56859 7.96463 3.20522 8.90837 3.21642C10.825 3.23494 12.3844 4.83192 12.3844 6.7763V9.34364H11.494V6.72703C11.494 5.30672 10.3389 4.13137 8.9192 4.10705C8.9042 4.10681 8.88938 4.10667 8.87443 4.10667C8.19455 4.10667 7.55035 4.37259 7.0562 4.85836C6.54591 5.35997 6.25327 6.05573 6.25327 6.76725V16.2216C5.78368 15.9857 5.48269 15.6528 5.36284 15.5026V12.8482C5.36284 12.6537 5.20515 12.496 5.01057 12.496C4.81599 12.496 4.6583 12.6537 4.6583 12.8482V15.5062C4.45768 15.7563 3.78165 16.4808 2.68215 16.4808C1.38151 16.4808 0.67332 15.4669 0.644539 15.4249C0.535976 15.2635 0.317117 15.2206 0.155679 15.3292C-0.00575823 15.4377 -0.0486489 15.6565 0.0599136 15.818C0.0974136 15.8738 0.998539 17.1853 2.6821 17.1853C3.83312 17.1853 4.61837 16.5724 5.01198 16.1667C5.40559 16.5724 6.19088 17.1853 7.34185 17.1853C8.49259 17.1853 9.27695 16.5727 9.67023 16.1669C10.0639 16.5726 10.8491 17.1853 11.9999 17.1853C13.1509 17.1853 13.9361 16.5724 14.3297 16.1667C14.7234 16.5724 15.5086 17.1853 16.6596 17.1853C17.8104 17.1853 18.5947 16.5727 18.988 16.1669C19.3817 16.5726 20.1669 17.1853 21.3176 17.1853C23.0012 17.1853 23.9023 15.8738 23.9398 15.818C24.0483 15.657 24.0056 15.4394 23.845 15.3305ZM6.9578 12.496H12.3844V13.4823H6.9578V12.496ZM12.3844 11.7915H6.9578V10.0482H12.3844V11.7915ZM7.55012 5.36081C7.9193 4.99791 8.40109 4.80286 8.9071 4.81148C9.9451 4.8293 10.7896 5.68861 10.7896 6.72708V9.34373H6.95785V6.7673C6.9578 6.24342 7.17371 5.7308 7.55012 5.36081ZM9.96245 15.4249C9.83302 15.2208 9.50874 15.2206 9.37838 15.4241C9.34895 15.4672 8.64235 16.4808 7.34199 16.4808C7.20741 16.4808 7.07959 16.4694 6.9578 16.4499V14.1868H12.3844V16.4499C12.2626 16.4694 12.1347 16.4808 12 16.4808C10.6994 16.4808 9.99118 15.4669 9.96245 15.4249ZM13.0889 16.2214V6.72703C13.0889 5.78442 13.4589 4.89895 14.1307 4.23366C14.8022 3.56859 15.6908 3.20522 16.6344 3.21642C18.5511 3.23494 20.1105 4.83192 20.1105 6.7763V9.34364H19.2201V8.56059C19.2201 8.36602 19.0624 8.20833 18.8678 8.20833C18.6732 8.20833 18.5155 8.36602 18.5155 8.56059V9.34364H14.6838V6.7672C14.6838 6.24338 14.8997 5.73075 15.2761 5.36072C15.6453 4.99781 16.1262 4.80277 16.6331 4.81139C17.6711 4.8292 18.5155 5.68852 18.5155 6.72698V7.15158C18.5155 7.34616 18.6732 7.50384 18.8678 7.50384C19.0624 7.50384 19.2201 7.34616 19.2201 7.15158V6.72698C19.2201 5.30667 18.065 4.13133 16.6452 4.107C16.6302 4.10677 16.6154 4.10662 16.6005 4.10662C15.9206 4.10662 15.2764 4.37255 14.7822 4.85831C14.272 5.35992 13.9793 6.05569 13.9793 6.7672V15.5021C13.8591 15.6529 13.5581 15.9857 13.0889 16.2214Z" fill="#4890B2"/>
<path d="M9.67187 20.7838C8.37123 20.7838 7.66304 19.7699 7.63426 19.7279C7.50493 19.5239 7.18089 19.5237 7.05039 19.7268C7.0209 19.77 6.31267 20.7838 5.01207 20.7838C3.71148 20.7838 3.00325 19.77 2.97446 19.728C2.8659 19.5665 2.64704 19.5236 2.4856 19.6322C2.32417 19.7407 2.28128 19.9596 2.38984 20.121C2.42734 20.1768 3.32842 21.4883 5.01203 21.4883C6.16304 21.4883 6.94829 20.8754 7.3419 20.4697C7.73551 20.8754 8.52081 21.4883 9.67182 21.4883C9.8664 21.4883 10.0241 21.3306 10.0241 21.136C10.0241 20.9415 9.86645 20.7838 9.67187 20.7838Z" fill="#4890B2"/>
<path d="M21.5148 19.6333C21.3542 19.5246 21.1355 19.5669 21.0261 19.7271C20.9966 19.7702 20.2901 20.7838 18.9897 20.7838C17.689 20.7838 16.9808 19.7699 16.9521 19.7279C16.8226 19.5228 16.4969 19.5228 16.3674 19.7279C16.3603 19.7385 15.6423 20.7838 14.3298 20.7838C13.0292 20.7838 12.321 19.7699 12.2922 19.7279C12.1628 19.5238 11.8385 19.5236 11.7082 19.7271C11.7053 19.7311 11.4211 20.1424 10.8967 20.4484C10.7287 20.5465 10.672 20.7623 10.7701 20.9303C10.8682 21.0982 11.0838 21.1549 11.2519 21.0569C11.5755 20.868 11.8257 20.6484 11.9997 20.4694C12.3932 20.875 13.1785 21.4883 14.3298 21.4883C15.4808 21.4883 16.2661 20.8754 16.6597 20.4697C17.0533 20.8754 17.8386 21.4883 18.9896 21.4883C20.6734 21.4883 21.5728 20.1766 21.6103 20.1207C21.7185 19.9595 21.6755 19.742 21.5148 19.6333Z" fill="#4890B2"/>
</g>
<defs>
<clipPath id="clip0_440_1619">
<rect width="24" height="24" fill="white"/>
</clipPath>
</defs>
</svg>
