<svg width="24" height="24" viewBox="0 0 24 24" fill="none" xmlns="http://www.w3.org/2000/svg">
<g clip-path="url(#clip0_440_1616)">
<path d="M23.25 22.875H22.7599L21.75 20.1818V18.7931L22.8656 13.9594C22.8911 13.848 22.8649 13.7314 22.7936 13.6417C22.7227 13.5521 22.6144 13.5 22.5004 13.5H18.3754C18.2006 13.5 18.0491 13.6204 18.0097 13.7906L16.9519 18.375H15.7504C15.1301 18.375 14.6254 18.8797 14.6254 19.5V20.2046L13.9579 22.875H13.5004V22.125C13.5004 21.8209 13.3485 21.5659 13.1254 21.4474V17.625H15.7504C16.3706 17.625 16.8754 17.1203 16.8754 16.5C16.8754 15.8797 16.3706 15.375 15.7504 15.375H12.3754V7.12725C16.14 7.149 17.9089 7.48913 17.9272 7.49288C17.9512 7.49775 17.976 7.50037 18 7.50037H18.0011C18.0435 7.50037 18.0847 7.49062 18.1241 7.47675C18.1294 7.47487 18.1346 7.47563 18.1399 7.47375C19.5945 6.8925 23.1517 7.48875 23.1877 7.49512C23.3389 7.521 23.4945 7.45013 23.5736 7.31588C23.6527 7.18163 23.6407 7.0125 23.5436 6.891C20.787 3.4455 13.9316 1.88325 12.3757 1.56675V0.75C12.3757 0.542625 12.2081 0.375 12.0007 0.375C11.7934 0.375 11.6257 0.542625 11.6257 0.75V1.56638C10.0699 1.88288 3.2145 3.44513 0.457874 6.89062C0.360749 7.01213 0.348749 7.18125 0.427874 7.3155C0.506999 7.44975 0.662249 7.52138 0.813749 7.49475C0.849749 7.48838 4.40662 6.89213 5.86162 7.47338C5.86462 7.4745 5.868 7.47413 5.871 7.47525C5.90737 7.48875 5.946 7.4955 5.98537 7.49738C5.99062 7.49738 5.9955 7.50037 6.00075 7.50037C6.0135 7.50037 6.0255 7.49625 6.03787 7.49475C6.04987 7.49363 6.06187 7.4955 6.07387 7.49288C6.09187 7.4895 7.86075 7.14938 11.6257 7.12725V15.375H8.25075C7.6305 15.375 7.12575 15.8797 7.12575 16.5C7.12575 17.1203 7.6305 17.625 8.25075 17.625H10.8757V21.4474C10.6526 21.5659 10.5007 21.8205 10.5007 22.125V22.875H10.0432L9.37575 20.2046V19.5C9.37575 18.8797 8.871 18.375 8.25075 18.375H7.04925L5.99137 13.7906C5.95237 13.6204 5.8005 13.5 5.62575 13.5H1.5C1.38562 13.5 1.27762 13.5521 1.20675 13.6417C1.1355 13.731 1.10887 13.848 1.13475 13.9594L2.25037 18.7931V20.1818L1.2405 22.875H0.750374C0.542999 22.875 0.375374 23.0426 0.375374 23.25C0.375374 23.4574 0.542999 23.625 0.750374 23.625H23.25C23.4574 23.625 23.625 23.4574 23.625 23.25C23.625 23.0426 23.4574 22.875 23.25 22.875ZM18.1579 6.67875C17.0512 4.9335 15.6544 3.68625 14.4814 2.85938C16.8217 3.51863 20.2241 4.73063 22.2536 6.609C21.1117 6.4785 19.3102 6.35437 18.1579 6.67875ZM1.746 6.609C3.7755 4.731 7.17787 3.51863 9.51825 2.85938C8.34525 3.68625 6.94837 4.93387 5.84175 6.67875C4.689 6.35437 2.88787 6.4785 1.746 6.60862V6.609ZM12 2.28413C12.6375 2.57325 15.3202 3.90712 17.2331 6.63337C16.3084 6.52162 14.6002 6.37537 12 6.37537C9.39975 6.37537 7.69162 6.522 6.76687 6.63337C8.68012 3.90712 11.3625 2.57363 12 2.28413ZM20.5099 22.875L19.6661 20.625H21.1147L21.9585 22.875H20.5099ZM18.8647 20.625L19.7085 22.875H16.98L17.5425 20.625H18.8647ZM18.6731 14.25H22.0282L21.0761 18.375H17.721L18.6731 14.25ZM15.3746 19.5C15.3746 19.293 15.5426 19.125 15.7496 19.125H20.9996V19.875H15.3746V19.5ZM15.2921 20.625H16.7692L16.2067 22.875H14.7296L15.2921 20.625ZM7.87462 16.5C7.87462 16.293 8.04262 16.125 8.24962 16.125H15.7496C15.9566 16.125 16.1246 16.293 16.1246 16.5C16.1246 16.707 15.9566 16.875 15.7496 16.875H8.25C8.043 16.875 7.87462 16.707 7.87462 16.5ZM12.3746 17.625V21.375H11.6246V17.625H12.3746ZM11.2496 22.125H12.7496V22.875H11.2496V22.125ZM7.79212 22.875L7.22962 20.625H8.70675L9.26925 22.875H7.79212ZM6.45675 20.625L7.01925 22.875H4.29075L5.1345 20.625H6.45675ZM8.62425 19.5V19.875H3V19.125H8.25C8.457 19.125 8.625 19.293 8.625 19.5H8.62425ZM5.32575 14.25L6.27787 18.375H2.9235L1.97137 14.25H5.3265H5.32575ZM2.88412 20.625H4.33275L3.489 22.875H2.04037L2.88412 20.625Z" fill="#4890B2"/>
</g>
<defs>
<clipPath id="clip0_440_1616">
<rect width="24" height="24" fill="white"/>
</clipPath>
</defs>
</svg>
