<svg id="Layer_1" data-name="Layer 1" xmlns="http://www.w3.org/2000/svg" viewBox="0 0 139.12988 30.62451"><defs><style>.cls-1{fill:#fff;}</style></defs><path class="cls-1" d="M1.6084.38086,5.31152,13.26807h.043L9.09961.38086H10.919L14.665,13.26807h.042L18.36816.38086h1.6084L15.55371,15.36279H13.77637L10.00977,2.49707h-.043L6.2002,15.36279H4.42285L0,.38086Z"/><path class="cls-1" d="M22.0498,15.36279V.38086h1.52344V6.87744h8.168V.38086h1.52344V15.36279H31.74121V8.27393h-8.168v7.08886Z"/><path class="cls-1" d="M38.55469.38086V15.36279H37.03125V.38086Z"/><path class="cls-1" d="M47.125,1.73535V15.36279H45.60059V1.73535H40.58594V.38086H52.13965V1.73535Z"/><path class="cls-1" d="M55.69434,8.23145V14.0083h8.01953v1.35449h-9.543V.38086H63.46V1.73535H55.69434V6.89844h7.25781v1.333Z"/><path class="cls-1" d="M84.53613.38086,78.75879,15.36279H75.14062L69.46973.38086h4.0625l3.4707,10.623h.085L80.53711.38086Z"/><path class="cls-1" d="M89.14941,15.36279H85.50977V.38086h3.63964Z"/><path class="cls-1" d="M101.42285,15.36279h-9.4375V.38086H95.625V12.21h5.79785Z"/><path class="cls-1" d="M112.29883,15.36279h-9.4375V.38086H106.501V12.21h5.79785Z"/><path class="cls-1" d="M127.915,15.36279h-4.02051l-1.16406-2.9414h-5.79785l-1.10059,2.9414h-3.93555L118.18066.38086h3.5127Zm-6.17871-5.84033L119.874,4.38037l-1.90429,5.14209Z"/><path class="cls-1" d="M139.12988,1.84131l-2.30664,2.4331a3.28589,3.28589,0,0,0-1.19531-.93115,3.39882,3.39882,0,0,0-1.4707-.35937,2.96246,2.96246,0,0,0-1.47071.34912,1.2167,1.2167,0,0,0-.625,1.15332,1.25782,1.25782,0,0,0,.14844.624,1.279,1.279,0,0,0,.49707.46582,5.66182,5.66182,0,0,0,.68848.33838c.22461.0918.5498.20117.97265.32813q.82619.27465,1.291.44433a9.65034,9.65034,0,0,1,1.19531.56055,4.47515,4.47515,0,0,1,1.13281.81494,4.0115,4.0115,0,0,1,.71875,1.13184,3.75962,3.75962,0,0,1,.31739,1.55517,4.40493,4.40493,0,0,1-1.66114,3.71387,6.46959,6.46959,0,0,1-4.07324,1.28027,8.74071,8.74071,0,0,1-3.13183-.57129,6.62677,6.62677,0,0,1-2.47559-1.58691l2.37012-2.4126a4.13258,4.13258,0,0,0,1.44922,1.14258,4.00709,4.00709,0,0,0,1.78808.44482,2.62173,2.62173,0,0,0,1.49219-.3916,1.38547,1.38547,0,0,0,.582-1.23779,1.14646,1.14646,0,0,0-.15918-.60352,2.0803,2.0803,0,0,0-.34863-.44433,2.49024,2.49024,0,0,0-.67774-.39112q-.48631-.21167-.82519-.32812-.33839-.11646-1.10059-.37012a10.88848,10.88848,0,0,1-1.417-.57177,6.30549,6.30549,0,0,1-1.18555-.78272,3.18594,3.18594,0,0,1-.91015-1.22754,4.33077,4.33077,0,0,1-.31738-1.71387,4.41507,4.41507,0,0,1,.50781-2.12646,3.93055,3.93055,0,0,1,1.35449-1.48145,6.715,6.715,0,0,1,1.85156-.81445A7.85468,7.85468,0,0,1,134.2207,0a7.73546,7.73546,0,0,1,2.63379.47607A6.52685,6.52685,0,0,1,139.12988,1.84131Z"/><path class="cls-1" d="M34.24121,22.39551h2.5v2.831h2.73242v-2.831h2.51075v8.09082H39.47363V27.21338H36.74121v3.27295h-2.5Z"/><path class="cls-1" d="M50.85938,26.44629a3.83008,3.83008,0,0,1,4.17773-4.189,4.23028,4.23028,0,0,1,3.1123,1.08448,4.09,4.09,0,0,1,1.09278,3.03857,4.98068,4.98068,0,0,1-.47754,2.32617,3.404,3.404,0,0,1-1.37988,1.4126,4.55006,4.55006,0,0,1-2.249.50537,5.17336,5.17336,0,0,1-2.26465-.436A3.41527,3.41527,0,0,1,51.416,28.80859,4.587,4.587,0,0,1,50.85938,26.44629Zm2.5.01123a2.71222,2.71222,0,0,0,.45507,1.76074,1.72345,1.72345,0,0,0,2.48633.01074,2.99569,2.99569,0,0,0,.44141-1.88183,2.49709,2.49709,0,0,0-.46094-1.66944,1.57521,1.57521,0,0,0-1.25-.52734,1.51752,1.51752,0,0,0-1.21387.53565A2.71968,2.71968,0,0,0,53.35938,26.45752Z"/><path class="cls-1" d="M67.25586,22.39551h7.59961v1.998H72.30566v6.09278h-2.5V24.39355h-2.5498Z"/><path class="cls-1" d="M83.50879,22.39551H90.209v1.72754H86.01465v1.28564h3.89062v1.65039H86.01465v1.59473h4.31543v1.83252H83.50879Z"/><path class="cls-1" d="M99.20508,22.39551h2.5v6.09863h3.90137v1.99219H99.20508Z"/></svg>