<svg width="187" height="79" viewBox="0 0 187 79" fill="none" xmlns="http://www.w3.org/2000/svg">
<g clip-path="url(#clip0_583_1588)">
<path d="M4.32796 30.12V16.64C4.52796 16.64 5.12796 16.68 6.12796 16.72C7.08796 16.76 7.84796 16.84 8.32796 16.84C8.80796 16.76 9.40796 16.68 10.128 16.56C13.288 15.96 15.608 15 17.088 13.68C18.568 12.32 19.328 10.4 19.288 7.88001C19.328 6.04001 18.928 4.64001 18.248 3.64001C17.568 2.64001 16.408 1.92001 14.808 1.48001C13.248 1.04001 11.048 0.800005 8.20796 0.800005H0.567963V30.12C0.887963 30.08 1.16796 30.04 1.40796 30C1.68796 30 2.00796 30 2.44796 30C2.84796 30 3.16796 30 3.44796 30.04C3.72796 30.08 4.00796 30.12 4.32796 30.12ZM4.32796 15.04V2.48001C6.56796 2.36001 8.64796 2.36001 10.528 2.52001C12.088 2.68001 13.288 3.28001 14.128 4.28001C14.968 5.28001 15.368 6.56001 15.368 8.12001C15.368 9.96001 14.768 11.52 13.568 12.76C12.368 14.04 10.688 14.8 8.56796 15.04C6.92796 15.16 5.52796 15.16 4.32796 15.04ZM48.9561 30.12L36.0361 0.160004H35.0761L21.6761 30.12C21.9161 30.08 22.1561 30.04 22.3561 30C22.5561 30 22.8361 30 23.1961 30C23.5161 30 23.8361 30 24.0761 30.04C24.2761 30.08 24.5161 30.12 24.7961 30.16C25.5161 27.68 26.9161 23.84 29.0361 18.6L39.9161 18.56C41.1961 21.48 42.7161 25.32 44.4361 30.12C44.7961 30.08 45.1561 30.04 45.4761 30C45.7561 30 46.1561 30 46.6761 30C46.9961 30 47.2361 30 47.3961 30C47.5561 30.04 47.7961 30.04 48.0761 30.04C48.3561 30.08 48.6361 30.12 48.9561 30.12ZM34.4761 5.80001L39.2361 16.76H29.7961L34.4761 5.80001ZM57.2289 28V0.800005C56.9889 0.800005 56.6689 0.800005 56.3089 0.840005C55.9489 0.880004 55.5889 0.920004 55.2689 0.960006C55.0289 0.880004 54.7089 0.840005 54.3489 0.800005C53.9489 0.800005 53.6689 0.800005 53.4689 0.800005V30H69.0689C69.0689 29.84 69.0689 29.64 69.0289 29.4C68.9889 29.16 68.9489 28.92 68.9089 28.72C68.9889 28.52 69.0289 28.28 69.0689 28.04C69.0689 27.8 69.0689 27.6 69.0689 27.4C67.2689 27.68 65.9089 27.84 64.9889 27.88C60.7089 27.96 58.1089 28 57.2289 28ZM99.0342 30.12L86.1142 0.160004H85.1542L71.7542 30.12C71.9942 30.08 72.2342 30.04 72.4342 30C72.6342 30 72.9142 30 73.2742 30C73.5942 30 73.9142 30 74.1542 30.04C74.3542 30.08 74.5942 30.12 74.8742 30.16C75.5942 27.68 76.9942 23.84 79.1142 18.6L89.9942 18.56C91.2742 21.48 92.7942 25.32 94.5142 30.12C94.8742 30.08 95.2342 30.04 95.5542 30C95.8342 30 96.2342 30 96.7542 30C97.0742 30 97.3142 30 97.4742 30C97.6342 30.04 97.8742 30.04 98.1542 30.04C98.4342 30.08 98.7142 30.12 99.0342 30.12ZM84.5542 5.80001L89.3142 16.76H79.8742L84.5542 5.80001ZM112.947 11.64L100.427 29.08V30H124.587C124.587 29.84 124.587 29.64 124.547 29.4C124.507 29.16 124.467 28.92 124.427 28.72C124.507 28.52 124.547 28.28 124.587 28.04C124.587 27.8 124.587 27.6 124.587 27.4C120.347 27.8 116.347 28.12 112.587 28.12H106.027V28.04C111.987 18.92 118.227 10.12 124.747 1.60001V0.800005H102.227C102.267 1 102.307 1.20001 102.347 1.36001C102.347 1.56001 102.347 1.80001 102.347 2.08001C102.347 2.12001 102.307 2.56001 102.227 3.36001C104.787 3.16001 106.947 3.00001 108.707 2.88001C110.507 2.76001 112.307 2.76001 114.107 2.72001L119.027 2.64001V2.72001C118.187 3.96001 116.267 7.00001 112.947 11.64ZM139.158 11.64L126.638 29.08V30H150.798C150.798 29.84 150.798 29.64 150.758 29.4C150.718 29.16 150.678 28.92 150.638 28.72C150.718 28.52 150.758 28.28 150.798 28.04C150.798 27.8 150.798 27.6 150.798 27.4C146.558 27.8 142.558 28.12 138.798 28.12H132.238V28.04C138.198 18.92 144.438 10.12 150.958 1.60001V0.800005H128.438C128.478 1 128.518 1.20001 128.558 1.36001C128.558 1.56001 128.558 1.80001 128.558 2.08001C128.558 2.12001 128.518 2.56001 128.438 3.36001C130.998 3.16001 133.158 3.00001 134.918 2.88001C136.718 2.76001 138.518 2.76001 140.318 2.72001L145.238 2.64001V2.72001C144.398 3.96001 142.478 7.00001 139.158 11.64ZM153.929 15.44C153.929 18.48 154.609 21.16 155.929 23.48C157.209 25.76 159.089 27.52 161.489 28.76C163.889 30.04 166.649 30.72 169.729 30.72C174.529 30.64 178.449 29.2 181.489 26.32C184.529 23.4 186.049 19.56 186.049 14.8C186.049 11.6 185.329 8.88001 183.769 6.64001C182.249 4.44001 180.209 2.84001 177.729 1.80001C175.249 0.680004 172.609 0.160004 169.809 0.160004C166.849 0.160004 164.169 0.800005 161.769 2.04001C159.329 3.28001 157.409 5.08001 156.009 7.40001C154.609 9.72001 153.889 12.4 153.929 15.44ZM179.089 5.72001C180.169 7.08001 180.969 8.48001 181.329 9.96001C181.609 11.44 181.689 13.16 181.769 15.16C181.889 16.88 181.649 18.84 180.849 21.08C179.969 23.32 178.569 25.24 176.689 26.84C174.889 28.44 172.569 29.24 169.809 29.24C166.489 29.24 163.689 28.08 161.449 25.76C159.209 23.4 158.089 20.12 158.089 15.92C158.089 13.16 158.569 10.64 159.529 8.44001C160.489 6.24001 161.889 4.48001 163.729 3.32001C165.609 2.12001 167.769 1.56001 170.209 1.56001C171.969 1.56001 173.649 1.92001 175.209 2.64001C176.769 3.36001 178.049 4.40001 179.089 5.72001ZM13.3816 48.8V78H21.7816C24.7016 78 27.1816 77.8 29.2216 77.4C31.3016 77 33.1016 76.08 34.7016 74.72C38.3016 71.6 40.1016 67.4 40.1016 62.08C40.1016 57.44 38.5416 53.88 35.5016 51.36C33.9416 50.04 32.4216 49.2 30.8616 49.04C29.2616 48.84 26.7016 48.8 23.1416 48.8H13.3816ZM17.1816 76.08V50.48C18.4216 50.44 19.4616 50.4 20.3416 50.36C21.2216 50.32 21.9816 50.32 22.5816 50.32C25.8216 50.32 28.4216 50.72 30.3416 51.52C32.3016 52.36 33.7016 53.68 34.5816 55.48C35.4616 57.24 35.9016 59.68 35.9016 62.76C35.9016 68.88 33.8616 72.96 29.7416 75.04C28.7016 75.56 27.4616 75.88 26.0616 76.04C24.6616 76.28 23.2216 76.4 21.7416 76.36C20.2216 76.24 18.7016 76.16 17.1816 76.08ZM50.1 61.6V50.84H53.38L57.7 50.92C59.18 50.96 60.46 51.16 61.54 51.36C61.46 50.56 61.42 50.12 61.42 50.04C61.46 49.84 61.5 49.6 61.54 49.36C61.54 49.16 61.54 48.96 61.54 48.8H46.34V78H61.82C61.82 77.84 61.82 77.64 61.78 77.4C61.74 77.16 61.7 76.92 61.66 76.72C61.74 76.52 61.78 76.28 61.82 76.04C61.82 75.8 61.82 75.6 61.82 75.4C60.42 75.68 59.1 75.8 57.86 75.84C53.58 75.96 50.98 76.04 50.1 76V63.44H56.74C57.38 63.44 58.02 63.48 58.66 63.52C59.3 63.56 59.94 63.6 60.58 63.64C60.58 63.48 60.58 63.28 60.54 63.04C60.5 62.84 60.46 62.64 60.42 62.48C60.46 62.44 60.5 62.08 60.58 61.36C60.26 61.36 59.9 61.4 59.5 61.44C59.06 61.48 58.62 61.52 58.14 61.52C57.62 61.6 57.18 61.6 56.74 61.6H50.1ZM71.5453 76V48.8C71.3053 48.8 70.9853 48.8 70.6253 48.84C70.2653 48.88 69.9053 48.92 69.5853 48.96C69.3453 48.88 69.0253 48.84 68.6653 48.8C68.2653 48.8 67.9853 48.8 67.7853 48.8V78H83.3853C83.3853 77.84 83.3853 77.64 83.3453 77.4C83.3053 77.16 83.2653 76.92 83.2253 76.72C83.3053 76.52 83.3453 76.28 83.3853 76.04C83.3853 75.8 83.3853 75.6 83.3853 75.4C81.5853 75.68 80.2253 75.84 79.3053 75.88C75.0253 75.96 72.4253 76 71.5453 76ZM100.505 72.36H100.065C99.8647 73.8 99.5847 75.08 99.2247 76.16C99.9047 76.88 100.985 77.48 102.425 77.96C103.825 78.4 105.105 78.64 106.225 78.64C108.185 78.64 109.985 78.24 111.585 77.48C113.185 76.72 114.465 75.56 115.425 74.04C116.345 72.56 116.825 70.8 116.825 68.84C116.825 66.8 116.225 65.24 115.065 64.2C113.905 63.2 112.185 62.24 109.945 61.36C107.705 60.52 106.025 59.68 104.945 58.84C103.865 58 103.305 56.72 103.305 55C103.305 53.52 103.825 52.28 104.865 51.36C105.945 50.4 107.225 49.96 108.705 49.96C109.985 49.96 111.065 50.28 111.985 50.92C112.905 51.56 113.585 52.48 114.025 53.72H114.465C115.065 51.8 115.465 50.64 115.665 50.2C114.065 48.84 112.025 48.16 109.465 48.16C106.745 48.16 104.465 48.88 102.665 50.28C100.865 51.68 99.9047 53.72 99.9447 56.4C99.9447 58.52 100.545 60.12 101.665 61.16C102.825 62.24 104.505 63.2 106.705 64.08C108.905 64.96 110.585 65.84 111.705 66.68C112.825 67.52 113.385 68.8 113.385 70.56C113.385 72.28 112.825 73.76 111.705 74.96C110.585 76.2 109.145 76.8 107.425 76.8C106.345 76.8 105.385 76.64 104.545 76.28C103.705 75.92 102.945 75.4 102.305 74.72C101.665 74.08 101.065 73.28 100.505 72.36ZM120.55 63.44C120.55 66.48 121.23 69.16 122.55 71.48C123.83 73.76 125.71 75.52 128.11 76.76C130.51 78.04 133.27 78.72 136.35 78.72C141.15 78.64 145.07 77.2 148.11 74.32C151.15 71.4 152.67 67.56 152.67 62.8C152.67 59.6 151.95 56.88 150.39 54.64C148.87 52.44 146.83 50.84 144.35 49.8C141.87 48.68 139.23 48.16 136.43 48.16C133.47 48.16 130.79 48.8 128.39 50.04C125.95 51.28 124.03 53.08 122.63 55.4C121.23 57.72 120.51 60.4 120.55 63.44ZM145.71 53.72C146.79 55.08 147.59 56.48 147.95 57.96C148.23 59.44 148.31 61.16 148.39 63.16C148.51 64.88 148.27 66.84 147.47 69.08C146.59 71.32 145.19 73.24 143.31 74.84C141.51 76.44 139.19 77.24 136.43 77.24C133.11 77.24 130.31 76.08 128.07 73.76C125.83 71.4 124.71 68.12 124.71 63.92C124.71 61.16 125.19 58.64 126.15 56.44C127.11 54.24 128.51 52.48 130.35 51.32C132.23 50.12 134.39 49.56 136.83 49.56C138.59 49.56 140.27 49.92 141.83 50.64C143.39 51.36 144.67 52.4 145.71 53.72ZM162.053 76V48.8C161.813 48.8 161.493 48.8 161.133 48.84C160.773 48.88 160.413 48.92 160.093 48.96C159.853 48.88 159.533 48.84 159.173 48.8C158.773 48.8 158.493 48.8 158.293 48.8V78H173.893C173.893 77.84 173.893 77.64 173.853 77.4C173.813 77.16 173.773 76.92 173.733 76.72C173.813 76.52 173.853 76.28 173.893 76.04C173.893 75.8 173.893 75.6 173.893 75.4C172.093 75.68 170.733 75.84 169.813 75.88C165.533 75.96 162.933 76 162.053 76Z" fill="white"/>
</g>
<defs>
<clipPath id="clip0_583_1588">
<rect width="187" height="79" fill="white"/>
</clipPath>
</defs>
</svg>
