<svg width="225" height="41" viewBox="0 0 225 41" fill="none" xmlns="http://www.w3.org/2000/svg">
<path d="M37.2294 12.0345H18.949V29.9513H37.2294V12.0345Z" fill="white"/>
<path fill-rule="evenodd" clip-rule="evenodd" d="M81.1239 23.4985V12.1006H76.6813V23.4985C76.2844 27.2498 70.5165 27.6698 69.9465 23.4985V12.1006H65.5038V23.4985C65.8117 27.6037 68.1473 30.0527 73.0132 30.4325C78.0115 30.2721 80.8329 27.7807 81.1239 23.4985Z" fill="white"/>
<path fill-rule="evenodd" clip-rule="evenodd" d="M88.9292 19.1219H91.373C91.373 19.1219 93.8023 19.1549 93.6989 17.1424C93.6772 16.7036 93.5113 16.2813 93.1481 16.0477C92.4505 15.6018 91.2767 15.5711 90.3435 15.5806C89.5401 15.59 88.9147 15.6136 88.9147 15.6136L88.9292 19.1219ZM88.9292 26.4004H91.6929C91.6929 26.4004 94.4397 26.4382 94.3219 24.1638C94.2954 23.6683 94.1102 23.1894 93.6989 22.9275C92.9099 22.4226 91.5846 22.3872 90.5287 22.399C89.6195 22.4085 88.9147 22.4368 88.9147 22.4368L88.9292 26.4004ZM84.489 29.8875H87.3368H92.198H92.5756C96.5684 29.8875 98.8992 27.6414 98.8992 25.1288C98.8992 22.7506 97.3766 20.7145 95.0435 20.5517C96.9004 20.1577 98.0645 18.4778 98.0645 16.4582C98.0645 14.1272 95.9022 12.0439 92.198 12.0439H87.3368H84.489V29.8875Z" fill="white"/>
<path fill-rule="evenodd" clip-rule="evenodd" d="M101.6 29.9017H105.959H114.361V26.1952H105.959V22.6185H113.478V19.0064H105.959V15.7835H113.923V12.077H105.959H101.6V15.7835V19.0064V22.6185V26.1952V29.9017Z" fill="white"/>
<path fill-rule="evenodd" clip-rule="evenodd" d="M123.549 29.9017H128.049V22.4887H135.017V29.9017H139.518V12.077H135.017V18.7822H128.049V12.077H123.549V29.9017Z" fill="white"/>
<path fill-rule="evenodd" clip-rule="evenodd" d="M152.155 15.5547C154.965 15.5547 157.245 17.9871 157.245 20.9858C157.245 23.9845 154.967 26.417 152.155 26.417C149.346 26.417 147.066 23.9845 147.066 20.9858C147.066 17.9871 149.343 15.5547 152.155 15.5547ZM152.155 11.4801C157.661 11.4801 162.123 15.734 162.123 20.9835C162.123 26.233 157.661 30.4868 152.155 30.4868C146.649 30.4868 142.188 26.233 142.188 20.9835C142.188 15.734 146.649 11.4801 152.155 11.4801Z" fill="white"/>
<path fill-rule="evenodd" clip-rule="evenodd" d="M179.03 29.9017H183.388H191.79V26.1952H183.388V22.6185H190.907V19.0064H183.388V15.7835H191.355V12.077H183.388H179.03V15.7835V19.0064V22.6185V26.1952V29.9017Z" fill="white"/>
<path fill-rule="evenodd" clip-rule="evenodd" d="M167.6 29.9017H171.958V15.8401H177.166V12.077H162.392V15.8401H167.6V29.9017Z" fill="white"/>
<path fill-rule="evenodd" clip-rule="evenodd" d="M194.676 12.077H199.035V26.1386H206.046V29.9017H194.676V26.1386V12.077Z" fill="white"/>
<path fill-rule="evenodd" clip-rule="evenodd" d="M59.137 23.1422C58.9349 24.0222 58.6006 24.9447 58.0113 25.6289C57.3859 26.3556 56.4936 26.601 55.5603 26.601C54.5116 26.601 53.6144 26.2447 52.965 25.4095C52.1568 24.3691 52.0558 22.4203 52.0558 21.1604C52.0558 19.9996 52.176 18.4991 52.8134 17.4916C53.4917 16.4181 54.4755 15.8708 55.7503 15.8708C56.2915 15.8708 56.8087 15.984 57.2873 16.2412C57.7563 16.4936 58.1412 16.8523 58.4467 17.2864C58.6607 17.5884 58.8171 17.9965 58.9349 18.3646L63.2068 17.3642C62.7017 15.8425 61.8983 14.3938 60.5922 13.4147C59.1875 12.3625 57.333 12.0723 55.618 12.0723C53.2632 12.0723 51.007 12.6645 49.357 14.4222C47.6444 16.2459 47.1489 18.7704 47.1489 21.1934C47.1489 23.0478 47.4448 25.0037 48.4093 26.6199C49.1309 27.8302 50.0906 28.9391 51.3799 29.5619C52.7389 30.2178 54.3721 30.3971 55.8658 30.3971C57.1021 30.3971 58.4443 30.2438 59.5748 29.7129C60.5585 29.2505 61.3571 28.5639 61.9945 27.6886C62.6848 26.7425 63.1226 25.6289 63.3944 24.4965L59.137 23.1422Z" fill="white"/>
</svg>
