<svg width="99" height="12" viewBox="0 0 99 12" fill="none" xmlns="http://www.w3.org/2000/svg">
<path d="M3.41477 11H0.118608V0.818182H3.51918C4.51681 0.818182 5.37358 1.02202 6.08949 1.42969C6.8054 1.83404 7.35393 2.41572 7.73509 3.17472C8.11956 3.9304 8.31179 4.83688 8.31179 5.89418C8.31179 6.95478 8.1179 7.86624 7.73011 8.62855C7.34564 9.39086 6.78883 9.97751 6.05966 10.3885C5.33049 10.7962 4.44886 11 3.41477 11ZM1.65483 9.65767H3.33026C4.10582 9.65767 4.75047 9.51184 5.2642 9.22017C5.77794 8.92519 6.16241 8.49929 6.41761 7.94247C6.67282 7.38234 6.80043 6.69957 6.80043 5.89418C6.80043 5.09541 6.67282 4.41761 6.41761 3.8608C6.16572 3.30398 5.78954 2.88139 5.28906 2.59304C4.78859 2.30469 4.16714 2.16051 3.42472 2.16051H1.65483V9.65767ZM10.2221 11V0.818182H13.8514C14.6402 0.818182 15.2948 0.954072 15.8152 1.22585C16.3388 1.49763 16.7299 1.87382 16.9885 2.3544C17.247 2.83168 17.3762 3.38352 17.3762 4.00994C17.3762 4.63305 17.2453 5.18158 16.9835 5.65554C16.725 6.12618 16.3339 6.49242 15.8102 6.75426C15.2898 7.0161 14.6352 7.14702 13.8464 7.14702H11.0971V5.82457H13.7072C14.2044 5.82457 14.6087 5.75331 14.9203 5.6108C15.2351 5.46828 15.4655 5.26113 15.6113 4.98935C15.7572 4.71757 15.8301 4.3911 15.8301 4.00994C15.8301 3.62547 15.7555 3.29238 15.6064 3.01065C15.4605 2.72893 15.2302 2.51349 14.9153 2.36435C14.6038 2.21188 14.1944 2.13565 13.6873 2.13565H11.7583V11H10.2221ZM15.2484 6.40625L17.764 11H16.014L13.5481 6.40625H15.2484ZM19.2456 11V0.818182H25.6291V2.14062H20.7818V5.2429H25.296V6.56037H20.7818V9.67756H25.6887V11H19.2456ZM28.5412 11H26.9105L30.5746 0.818182H32.3494L36.0135 11H34.3828L31.5043 2.66761H31.4247L28.5412 11ZM28.8146 7.01278H34.1044V8.3054H28.8146V7.01278ZM37.4838 0.818182H39.3482L42.5897 8.73295H42.709L45.9505 0.818182H47.8148V11H46.3532V3.6321H46.2587L43.2559 10.9851H42.0428L39.04 3.62713H38.9455V11H37.4838V0.818182ZM53.7534 11V0.818182H55.2896V5.2429H60.3656V0.818182H61.9068V11H60.3656V6.56037H55.2896V11H53.7534ZM72.9885 5.90909C72.9885 6.99621 72.7896 7.93087 72.3919 8.71307C71.9941 9.49195 71.4489 10.0919 70.7562 10.5128C70.0668 10.9304 69.283 11.1392 68.4047 11.1392C67.523 11.1392 66.7359 10.9304 66.0431 10.5128C65.3538 10.0919 64.8102 9.49029 64.4125 8.7081C64.0147 7.9259 63.8159 6.9929 63.8159 5.90909C63.8159 4.82197 64.0147 3.88897 64.4125 3.11008C64.8102 2.32789 65.3538 1.72798 66.0431 1.31037C66.7359 0.889441 67.523 0.678977 68.4047 0.678977C69.283 0.678977 70.0668 0.889441 70.7562 1.31037C71.4489 1.72798 71.9941 2.32789 72.3919 3.11008C72.7896 3.88897 72.9885 4.82197 72.9885 5.90909ZM71.4672 5.90909C71.4672 5.08049 71.3329 4.38281 71.0645 3.81605C70.7993 3.24598 70.4347 2.8151 69.9707 2.52344C69.51 2.22846 68.988 2.08097 68.4047 2.08097C67.818 2.08097 67.2943 2.22846 66.8336 2.52344C66.3729 2.8151 66.0083 3.24598 65.7399 3.81605C65.4747 4.38281 65.3422 5.08049 65.3422 5.90909C65.3422 6.73769 65.4747 7.43703 65.7399 8.0071C66.0083 8.57386 66.3729 9.00473 66.8336 9.29972C67.2943 9.59138 67.818 9.73722 68.4047 9.73722C68.988 9.73722 69.51 9.59138 69.9707 9.29972C70.4347 9.00473 70.7993 8.57386 71.0645 8.0071C71.3329 7.43703 71.4672 6.73769 71.4672 5.90909ZM73.9641 2.14062V0.818182H81.8441V2.14062H78.6673V11H77.136V2.14062H73.9641ZM83.5854 11V0.818182H89.9689V2.14062H85.1216V5.2429H89.6358V6.56037H85.1216V9.67756H90.0286V11H83.5854ZM92.021 11V0.818182H93.5572V9.67756H98.1708V11H92.021Z" fill="#4B90B3"/>
</svg>
