<svg width="197" height="43" viewBox="0 0 197 43" fill="none" xmlns="http://www.w3.org/2000/svg">
<path d="M43.4883 14.2018H49.7009L46.6948 5.72018L43.4883 14.2018ZM49.9013 14.9908H43.2879L41.0834 20.711H45.0916V21.6972H37.4761V20.9083H40.2818L47.8973 0H48.2981L55.7131 20.9083H58.5188V21.6972H48.4985V20.9083H51.9054L49.9013 14.9908ZM23.648 1.38073V10.4541H25.4517C26.0529 10.4541 26.6541 10.4541 27.2553 10.2569C27.8566 10.0596 28.2574 9.66514 28.4578 9.27064C28.8586 8.6789 29.059 7.69266 29.059 6.50917H29.8606V15.3853H29.059C29.059 13.6101 28.6582 12.6239 28.057 12.0321C27.4557 11.4404 26.6541 11.2431 25.4517 11.2431H23.648V20.9083H27.8566C30.2614 20.9083 32.0651 20.3165 32.8667 19.3303C33.8688 18.344 34.2696 16.7661 34.47 14.5963H35.2716L35.0712 21.6972H16.4334V20.9083H19.8403V1.38073H16.4334V0.591743H34.2696L34.6704 6.31193H34.0692C33.8688 4.5367 33.2675 3.35321 32.4659 2.56422C31.4639 1.77523 30.061 1.38073 28.057 1.38073H23.648ZM12.6256 0.197248L12.826 5.72018H12.0244C10.822 2.36697 9.01831 0.788991 6.41302 0.788991C5.01017 0.788991 3.80773 1.18349 3.0061 1.97248C2.20448 2.76147 1.80366 3.55046 1.80366 4.5367C1.80366 5.32569 2.20448 6.11468 2.8057 6.70642C3.40692 7.29817 4.80977 7.69266 6.61343 8.08716C8.01628 8.2844 9.41912 8.6789 10.6216 9.27064C11.6236 9.86239 12.4252 10.4541 13.0264 11.4404C13.6277 12.4266 14.0285 13.6101 13.8281 14.9908C13.8281 16.9633 13.2269 18.7385 11.824 20.1193C10.4212 21.5 8.6175 22.289 6.81384 22.289C5.21058 22.289 3.60732 21.6972 2.00407 20.5138L0.601221 21.6972H0V15.7798H0.601221C1.20244 17.555 2.00407 19.133 3.20651 19.922C4.20855 20.9083 5.41099 21.3028 6.81384 21.3028C8.21668 21.3028 9.41912 20.9083 10.4212 19.922C11.4232 19.133 12.0244 17.9495 12.0244 16.5688C12.0244 15.5826 11.6236 14.3991 10.822 13.8073C10.0203 13.0183 8.8179 12.4266 7.21465 12.2294C6.01221 12.2294 4.60936 11.8349 3.40692 11.4404C2.40488 11.0459 1.60326 10.2569 1.00203 9.46789C0.400814 8.48165 0 7.29817 0 6.11468C0 4.5367 0.801628 2.95872 1.80366 1.97248C3.0061 0.788991 4.40895 0 6.41302 0C8.01628 0 9.61953 0.591743 11.0224 1.57798C11.4232 1.18349 11.6236 0.788991 12.0244 0.197248H12.6256ZM184.976 0.788991V9.46789H186.98C187.581 9.46789 188.182 9.46789 188.783 9.27064C189.385 9.07339 189.785 8.6789 189.986 8.2844C190.186 7.88991 190.387 6.90367 190.587 5.72018H191.389V14.3991H190.587C190.587 12.8211 190.186 11.6376 189.585 11.0459C188.984 10.4541 188.182 10.2569 186.98 10.2569H184.976V19.7248H189.385C191.789 19.7248 193.593 19.133 194.395 18.1468C195.397 17.1606 195.998 15.5826 195.998 13.6101H196.8L196.599 20.5138H177.761V19.7248H181.168V0.788991H177.761V0H195.798L196.198 5.52294H195.397C195.196 3.94495 194.595 2.76147 193.793 1.97248C192.992 1.18349 191.589 0.986239 189.585 0.986239L184.976 0.788991ZM174.955 20.5138H158.722V19.7248L170.947 0.788991H165.937C164.133 0.788991 162.931 1.18349 162.129 1.77523C161.328 2.56422 160.927 3.74771 160.526 5.32569H159.724L159.925 0H175.156V0.591743L162.931 19.7248H168.141C169.344 19.7248 170.346 19.7248 171.548 19.3303C172.35 19.133 172.951 18.344 173.552 17.1606C173.953 16.1743 174.354 14.9908 174.554 13.8073H175.356L174.955 20.5138ZM144.493 0.788991V9.46789H146.497C147.099 9.46789 147.7 9.46789 148.301 9.27064C148.902 9.07339 149.303 8.6789 149.504 8.2844C149.904 7.69266 150.105 6.90367 150.105 5.72018H150.906V14.3991H150.105C150.105 12.8211 149.704 11.6376 149.103 11.0459C148.301 10.6514 147.499 10.2569 146.297 10.2569H144.293V19.7248H148.702C151.107 19.7248 152.91 19.133 153.712 18.1468C154.714 17.1606 155.315 15.5826 155.315 13.6101H156.317L156.117 20.5138H137.279V19.7248H140.686V0.788991H137.279V0H155.315L155.716 5.52294H154.915C154.714 3.94495 154.113 2.76147 153.311 1.97248C152.51 1.18349 151.107 0.986239 149.103 0.986239C148.902 0.788991 144.493 0.788991 144.493 0.788991ZM122.449 0.788991V9.46789H124.453C125.054 9.46789 125.655 9.46789 126.256 9.27064C126.858 9.07339 127.258 8.6789 127.459 8.2844C127.86 7.69266 128.06 6.90367 128.06 5.72018H128.862V14.3991H128.06C128.06 12.8211 127.659 11.6376 127.058 11.0459C126.457 10.4541 125.655 10.2569 124.453 10.2569H122.449V19.7248H126.858C129.262 19.7248 131.066 19.133 131.868 18.1468C132.87 17.1606 133.471 15.5826 133.471 13.6101H134.273L134.072 20.5138H115.234V19.7248H118.641V0.788991H115.234V0H133.271L133.671 5.52294H132.87C132.669 3.94495 132.068 2.76147 131.267 1.97248C130.465 1.18349 129.062 0.986239 127.058 0.986239C127.058 0.788991 122.449 0.788991 122.449 0.788991ZM98.8006 0.788991V9.27064H101.606C102.608 9.27064 103.41 9.27064 104.412 9.07339C105.013 8.87615 105.614 8.48165 106.015 7.88991C106.416 7.29817 106.616 6.11468 106.616 4.73395C106.616 3.55046 106.416 2.76147 106.015 2.16972C105.614 1.57798 105.214 1.38073 104.612 1.18349C103.811 0.986239 103.21 0.986239 102.408 0.986239L98.8006 0.788991ZM94.9929 19.7248V0.788991H91.586V0H103.21C104.412 0 105.815 0.197248 107.017 0.394495C108.22 0.591743 109.021 1.18349 109.623 1.97248C110.224 2.76147 110.625 3.74771 110.625 4.73395C110.825 5.91743 110.224 7.10092 109.222 7.88991C108.22 8.6789 106.416 9.27064 104.011 9.66514C105.614 9.86239 107.218 10.6514 108.42 11.6376C109.623 12.6239 110.224 14.2018 110.224 16.5688C110.224 17.9495 110.424 18.7385 110.625 19.133C111.025 19.5275 111.426 19.7248 112.027 19.7248C112.428 19.7248 112.829 19.7248 113.43 19.5275V20.3165C112.629 20.711 111.627 20.711 110.825 20.711C109.021 20.711 107.819 20.3165 107.218 19.3303C106.616 18.5413 106.216 17.555 106.216 16.5688V14.0046C106.216 13.0183 105.815 12.0321 105.414 11.2431C104.813 10.4541 103.41 9.86239 101.406 9.86239H99.4018V19.7248H102.208V20.5138H91.7864V19.7248H94.9929ZM79.1607 10.2569H76.1546V19.7248H79.1607C79.9624 19.7248 80.9644 19.7248 81.766 19.5275C82.5676 19.3303 83.1689 18.9358 83.3693 18.1468C83.9705 17.3578 84.1709 16.3716 84.1709 14.7936C84.1709 13.2156 83.7701 12.0321 83.1689 11.2431C82.3672 10.4541 81.1648 10.2569 79.1607 10.2569ZM79.3611 0.788991H76.1546V9.27064H79.1607C81.1648 9.27064 82.3672 8.87615 82.9685 8.08716C83.5697 7.29817 83.7701 6.11468 83.7701 4.5367C83.7701 3.35321 83.5697 2.36697 83.1689 1.77523C82.9685 1.18349 82.3672 0.788991 81.766 0.788991C80.9644 0.788991 80.1628 0.788991 79.3611 0.788991ZM72.3469 19.7248V0.788991H69.1404V0H80.1628C81.1648 0 82.1668 0 83.1689 0.197248C83.9705 0.394495 84.7721 0.591743 85.5738 1.18349C86.3754 1.57798 86.7762 2.16972 87.177 2.95872C87.5778 3.55046 87.5778 4.33945 87.5778 4.93119C87.5778 7.29817 85.5737 8.87615 81.766 9.66514C86.175 10.2569 88.3794 12.0321 88.3794 14.9908C88.3794 15.7798 88.179 16.5688 87.7782 17.1606C87.3774 17.9495 86.7762 18.7385 85.9746 19.133C85.1729 19.7248 84.3713 19.922 83.3693 20.1193C82.1668 20.3165 81.1648 20.3165 79.9624 20.3165H69.1404V19.7248H72.3469ZM68.7396 35.5046C70.5432 35.5046 71.7457 36.0963 71.7457 37.6743C71.7457 38.8578 70.944 39.4495 69.942 39.6468L72.1465 42.8028H70.5432L68.5392 39.844H67.5371V42.8028H66.1343V35.5046H68.7396ZM70.3428 37.6743C70.3428 36.6881 69.7416 36.4908 68.94 36.4908H67.7375V38.8578H68.94C69.7416 38.8578 70.3428 38.4633 70.3428 37.6743ZM82.5676 35.5046V36.4908H79.5615V38.4633H81.9664V39.4495H79.5615V41.6193H82.7681V42.6055H78.1587V35.5046H82.5676ZM88.5799 40.633H90.1831C90.1831 41.422 90.5839 42.0138 91.9868 42.0138C92.7884 42.0138 93.3896 41.6193 93.3896 40.8303C93.3896 40.2385 92.9888 39.844 91.7864 39.6468C89.9827 39.4495 88.9807 38.8578 88.9807 37.4771C88.9807 36.2936 89.9827 35.5046 91.7864 35.5046C93.3896 35.5046 94.3917 36.2936 94.5921 37.6743H93.1892C92.9888 36.8853 92.588 36.6881 91.586 36.6881C90.5839 36.6881 90.1831 36.8853 90.1831 37.4771C90.1831 38.0688 90.3835 38.2661 91.7864 38.4633C93.59 38.6606 94.5921 39.2523 94.5921 40.633C94.5921 41.8165 93.3896 42.8028 91.7864 42.8028C89.5819 43 88.7803 42.0138 88.5799 40.633ZM100.805 39.2523C100.805 38.2661 101.205 37.2798 101.807 36.4908C102.608 35.7018 103.41 35.5046 104.412 35.5046C105.414 35.5046 106.416 35.8991 107.017 36.4908C107.819 37.2798 108.019 38.0688 108.019 39.055C108.019 41.2248 106.616 42.8028 104.212 42.8028C103.21 42.8028 102.208 42.4083 101.406 41.8165C100.604 41.2248 100.604 40.2385 100.805 39.2523ZM106.817 39.2523C106.817 37.6743 106.015 36.4908 104.412 36.4908C103.009 36.4908 102.007 37.4771 102.007 39.055C102.007 40.633 103.009 41.6193 104.412 41.6193C105.815 41.6193 106.817 40.8303 106.817 39.2523ZM116.837 35.5046C118.641 35.5046 119.843 36.0963 119.843 37.6743C119.843 38.8578 119.042 39.4495 118.04 39.6468L120.244 42.8028H118.641L116.637 39.844H115.635V42.8028H114.232V35.5046H116.837ZM118.24 37.6743C118.24 36.6881 117.639 36.4908 116.837 36.4908H115.635V38.8578H116.837C117.839 38.8578 118.24 38.4633 118.24 37.6743ZM124.653 36.6881V35.5046H130.665V36.4908H128.461V42.8028H126.858V36.4908H124.653V36.6881Z" fill="white"/>
</svg>
