<svg width="735" height="77" viewBox="0 0 735 77" fill="none" xmlns="http://www.w3.org/2000/svg">
<path d="M9.62569 37.1124C12.0499 37.6828 14.5811 37.968 17.2193 37.968C19.4296 37.968 21.7113 37.7184 24.0642 37.2193C26.4172 36.7202 28.5562 35.8289 30.4813 34.5455C32.4778 33.1908 34.0821 31.3726 35.2942 29.091C36.5776 26.738 37.2193 23.7434 37.2193 20.107C37.2193 17.041 36.7915 14.5455 35.9359 12.6203C35.0803 10.6952 33.8682 9.19787 32.2995 8.12836C30.8022 7.05884 28.9484 6.34582 26.738 5.98932C24.5277 5.56151 22.0321 5.34761 19.2514 5.34761H9.62569V37.1124ZM0.855617 29.091C0.855617 24.3851 0.748665 19.7861 0.534761 15.2941C0.392158 10.7309 0.213904 6.09627 0 1.39037C1.71123 1.53298 3.42247 1.67558 5.1337 1.81818C6.91623 1.88949 8.66312 1.92514 10.3744 1.92514C11.23 1.92514 12.2638 1.88949 13.476 1.81818C14.6881 1.74688 15.9002 1.71123 17.1123 1.71123C18.3958 1.63993 19.6079 1.56863 20.7487 1.49733C21.8895 1.42602 22.8521 1.39037 23.6364 1.39037C24.7059 1.39037 26.025 1.42602 27.5936 1.49733C29.1623 1.56863 30.8022 1.78253 32.5134 2.13904C34.296 2.49555 36.0429 3.03031 37.7541 3.74332C39.4653 4.45633 40.9983 5.4902 42.353 6.84493C43.7791 8.19966 44.9199 9.91089 45.7755 11.9786C46.6311 13.9751 47.0589 16.4706 47.0589 19.4653C47.0589 24.1712 46.025 27.9858 43.9573 30.9092C41.9609 33.8325 39.4653 36.1141 36.4707 37.7541C33.5473 39.394 30.41 40.4992 27.0589 41.0696C23.779 41.64 20.8557 41.9252 18.2888 41.9252C16.6489 41.9252 15.1515 41.9252 13.7968 41.9252C12.4421 41.8539 11.0517 41.747 9.62569 41.6044V47.4867C9.62569 52.1926 9.69699 56.8272 9.83959 61.3905C10.0535 65.9538 10.2674 70.4458 10.4813 74.8665C8.84137 74.7239 7.09449 74.6525 5.24065 74.6525C3.38682 74.6525 1.63993 74.7239 0 74.8665C0.213904 70.4458 0.392158 65.9538 0.534761 61.3905C0.748665 56.8272 0.855617 52.1926 0.855617 47.4867V29.091Z" fill="white"/>
<path d="M60.285 29.091C60.285 24.3851 60.1781 19.7861 59.9642 15.2941C59.8216 10.7309 59.6433 6.09627 59.4294 1.39037C61.4972 1.53298 63.5293 1.67558 65.5257 1.81818C67.5221 1.88949 69.5542 1.92514 71.622 1.92514C73.6897 1.92514 75.7218 1.85384 77.7182 1.71123C79.7147 1.49732 81.7468 1.39037 83.8145 1.39037C86.8092 1.39037 89.6612 1.67558 92.3707 2.24599C95.0801 2.8164 97.4331 3.77897 99.4295 5.1337C101.497 6.41712 103.102 8.12836 104.242 10.2674C105.454 12.4064 106.061 15.0802 106.061 18.2888C106.061 21.7113 105.276 24.6703 103.708 27.1658C102.21 29.5901 100.356 31.6222 98.1461 33.2621C95.9357 34.8307 93.5471 36.0785 90.9803 37.0054C88.4847 37.861 86.2031 38.4314 84.1354 38.7167C84.991 39.7862 86.1675 41.2835 87.6648 43.2086C89.1621 45.1338 90.8377 47.2728 92.6915 49.6258C94.5454 51.9074 96.4705 54.3317 98.4669 56.8985C100.463 59.3941 102.389 61.8183 104.242 64.1712C106.096 66.4529 107.843 68.5563 109.483 70.4814C111.123 72.4066 112.442 73.8682 113.44 74.8665C112.371 74.7239 111.301 74.6525 110.232 74.6525C109.162 74.6525 108.093 74.6525 107.023 74.6525C106.025 74.6525 104.991 74.6525 103.922 74.6525C102.852 74.6525 101.818 74.7239 100.82 74.8665C99.7504 73.3691 98.1104 71.1231 95.9001 68.1285C93.7611 65.1338 91.3725 61.9253 88.7343 58.5028C86.0961 55.0803 83.3867 51.6935 80.6059 48.3423C77.8965 44.9199 75.4009 42.0322 73.1193 39.6792H69.0551V47.4867C69.0551 52.1926 69.1264 56.8272 69.269 61.3905C69.4829 65.9538 69.6968 70.4458 69.9107 74.8665C68.2708 74.7239 66.5239 74.6525 64.6701 74.6525C62.8162 74.6525 61.0694 74.7239 59.4294 74.8665C59.6433 70.4458 59.8216 65.9538 59.9642 61.3905C60.1781 56.8272 60.285 52.1926 60.285 47.4867V29.091ZM69.0551 35.1872C70.0533 35.4011 71.1229 35.5437 72.2637 35.615C73.4758 35.6863 74.7949 35.722 76.2209 35.722C78.4312 35.722 80.7129 35.4724 83.0658 34.9733C85.4901 34.4742 87.7004 33.6186 89.6969 32.4065C91.6933 31.1231 93.3332 29.4475 94.6167 27.3797C95.9714 25.2407 96.6488 22.5669 96.6488 19.3583C96.6488 16.5776 96.114 14.2959 95.0445 12.5134C94.0463 10.6596 92.7272 9.19787 91.0872 8.12836C89.4473 7.05884 87.6648 6.34582 85.7396 5.98932C83.8145 5.56151 81.925 5.34761 80.0712 5.34761C77.5756 5.34761 75.5079 5.41891 73.868 5.56151C72.228 5.63281 70.8377 5.73976 69.6968 5.88237C69.5542 9.80394 69.4116 13.6899 69.269 17.5401C69.1264 21.3904 69.0551 25.2407 69.0551 29.091V35.1872Z" fill="white"/>
<path d="M125.668 29.091C125.668 24.3851 125.561 19.7861 125.347 15.2941C125.204 10.7309 125.026 6.09627 124.812 1.39037C125.739 1.53298 126.63 1.67558 127.486 1.81818C128.342 1.88949 129.197 1.92514 130.053 1.92514C130.909 1.92514 131.764 1.88949 132.62 1.81818C133.475 1.67558 134.367 1.53298 135.294 1.39037C135.08 6.09627 134.866 10.7309 134.652 15.2941C134.509 19.7861 134.438 24.3851 134.438 29.091V47.4867C134.438 52.1926 134.509 56.8272 134.652 61.3905C134.866 65.9538 135.08 70.4458 135.294 74.8665C133.654 74.7239 131.907 74.6525 130.053 74.6525C128.199 74.6525 126.452 74.7239 124.812 74.8665C125.026 70.4458 125.204 65.9538 125.347 61.3905C125.561 56.8272 125.668 52.1926 125.668 47.4867V29.091Z" fill="white"/>
<path d="M176.611 74.8665C174.971 70.6597 172.975 65.5973 170.622 59.6793C168.269 53.7612 165.738 47.5224 163.028 40.9626C160.39 34.4029 157.645 27.7006 154.793 20.8557C152.012 14.0107 149.339 7.52229 146.772 1.39037C147.77 1.53298 148.732 1.67558 149.659 1.81818C150.586 1.88949 151.478 1.92514 152.333 1.92514C153.189 1.92514 154.08 1.88949 155.007 1.81818C155.934 1.67558 156.896 1.53298 157.895 1.39037C159.463 6.09627 161.175 11.0517 163.028 16.2567C164.954 21.3904 166.95 26.6311 169.018 31.9787C171.157 37.3263 173.331 42.7452 175.542 48.2354C177.752 53.7256 179.998 59.1802 182.28 64.5991C183.563 61.6757 184.954 58.4315 186.451 54.8664C187.948 51.23 189.446 47.4867 190.943 43.6364C192.512 39.7149 194.044 35.7576 195.542 31.7648C197.039 27.7006 198.465 23.8147 199.82 20.107C201.246 16.3993 202.529 12.9412 203.67 9.73264C204.811 6.52408 205.774 3.74332 206.558 1.39037C208.127 1.74688 209.446 1.92514 210.515 1.92514C211.585 1.92514 212.904 1.74688 214.472 1.39037C208.911 13.7968 203.563 26.0963 198.43 38.2888C193.296 50.4814 188.376 62.6739 183.67 74.8665C182.529 74.7239 181.353 74.6525 180.141 74.6525C178.715 74.6525 177.538 74.7239 176.611 74.8665Z" fill="white"/>
<path d="M232.58 41.6044C234.434 41.6044 236.359 41.64 238.355 41.7113C240.352 41.7826 242.277 41.8183 244.131 41.8183C246.127 41.8183 248.124 41.8183 250.12 41.8183C252.116 41.747 254.113 41.6757 256.109 41.6044L244.238 14.4385L232.58 41.6044ZM279.96 74.8665C278.961 74.7239 277.999 74.6525 277.072 74.6525C276.216 74.6525 275.289 74.6525 274.291 74.6525C273.293 74.6525 272.33 74.6525 271.403 74.6525C270.548 74.6525 269.621 74.7239 268.623 74.8665C268.124 73.2265 267.446 71.2657 266.591 68.9841C265.735 66.6311 264.772 64.2069 263.703 61.7113C262.705 59.1445 261.671 56.5777 260.601 54.0108C259.532 51.3727 258.534 48.8771 257.607 46.5242C255.325 46.4529 253.008 46.4172 250.655 46.4172C248.302 46.3459 245.949 46.3102 243.596 46.3102C241.386 46.3102 239.211 46.3459 237.072 46.4172C234.933 46.4172 232.758 46.4529 230.548 46.5242C228.266 52.0857 226.198 57.3976 224.345 62.46C222.491 67.4511 221.1 71.5866 220.173 74.8665C218.961 74.7239 217.642 74.6525 216.216 74.6525C214.79 74.6525 213.471 74.7239 212.259 74.8665C218.034 62.3887 223.667 49.9823 229.157 37.6471C234.648 25.312 240.173 12.7629 245.735 0H247.767C249.478 4.13548 251.332 8.62747 253.329 13.476C255.325 18.2532 257.357 23.1017 259.425 28.0214C261.493 32.9412 263.56 37.8254 265.628 42.6739C267.696 47.5224 269.621 52.05 271.403 56.2568C273.257 60.3923 274.897 64.1 276.323 67.3798C277.821 70.6597 279.033 73.1552 279.96 74.8665Z" fill="white"/>
<path d="M299.187 29.091C299.187 21.6756 299.08 14.2959 298.866 6.95188C297.012 6.95188 295.051 6.98754 292.984 7.05884C290.987 7.05884 288.955 7.13014 286.887 7.27274C284.891 7.34404 282.93 7.45099 281.005 7.5936C279.151 7.7362 277.475 7.91445 275.978 8.12836C276.335 6.84493 276.513 5.70411 276.513 4.70589C276.513 3.92157 276.335 2.8164 275.978 1.39037C280.684 1.53298 285.283 1.67558 289.775 1.81818C294.267 1.88949 298.866 1.92514 303.572 1.92514C308.278 1.92514 312.877 1.88949 317.369 1.81818C321.861 1.67558 326.46 1.53298 331.165 1.39037C330.809 2.8164 330.631 3.95722 330.631 4.81284C330.631 5.73976 330.809 6.84493 331.165 8.12836C329.668 7.91445 327.957 7.7362 326.032 7.5936C324.178 7.45099 322.217 7.34404 320.149 7.27274C318.153 7.13014 316.121 7.05884 314.053 7.05884C312.057 6.98754 310.132 6.95188 308.278 6.95188C308.064 14.2959 307.957 21.6756 307.957 29.091V47.4867C307.957 52.1926 308.028 56.8272 308.171 61.3905C308.385 65.9538 308.599 70.4458 308.812 74.8665C307.173 74.7239 305.426 74.6525 303.572 74.6525C301.718 74.6525 299.971 74.7239 298.331 74.8665C298.545 70.4458 298.723 65.9538 298.866 61.3905C299.08 56.8272 299.187 52.1926 299.187 47.4867V29.091Z" fill="white"/>
<path d="M343.75 28.984C343.75 24.2781 343.643 19.6435 343.429 15.0802C343.286 10.517 343.108 5.95366 342.894 1.39037C346.103 1.53298 349.276 1.67558 352.413 1.81818C355.621 1.88949 358.83 1.92514 362.039 1.92514C365.247 1.92514 368.42 1.88949 371.557 1.81818C374.695 1.67558 377.868 1.53298 381.076 1.39037C380.862 2.4599 380.755 3.52942 380.755 4.59894C380.755 5.66846 380.862 6.73798 381.076 7.8075C378.794 7.6649 376.691 7.52229 374.766 7.37969C372.912 7.23709 370.916 7.09449 368.777 6.95188C366.709 6.80928 364.427 6.70233 361.932 6.63103C359.436 6.48843 356.441 6.41713 352.948 6.41713C352.876 8.69877 352.769 10.8735 352.627 12.9412C352.556 15.0089 352.52 17.3619 352.52 20C352.52 22.7808 352.52 25.4902 352.52 28.1284C352.591 30.7665 352.627 32.763 352.627 34.1177C355.764 34.1177 358.581 34.0821 361.076 34.0108C363.572 33.9395 365.853 33.8682 367.921 33.7969C369.989 33.6543 371.878 33.5473 373.589 33.476C375.372 33.3334 377.048 33.1908 378.616 33.0482C378.402 34.1177 378.295 35.2229 378.295 36.3637C378.295 37.4332 378.402 38.5027 378.616 39.5723C376.762 39.3584 374.588 39.1801 372.092 39.0375C369.668 38.8949 367.208 38.8236 364.712 38.8236C362.288 38.7523 359.971 38.7167 357.761 38.7167C355.621 38.6454 353.91 38.6097 352.627 38.6097C352.627 39.2514 352.591 39.9644 352.52 40.7487C352.52 41.4618 352.52 42.3887 352.52 43.5295V54.1178C352.52 58.1819 352.52 61.5331 352.52 64.1712C352.591 66.8094 352.662 68.8058 352.734 70.1606C355.087 70.1606 357.582 70.1606 360.22 70.1606C362.93 70.1606 365.568 70.1249 368.135 70.0536C370.773 69.911 373.233 69.7684 375.515 69.6258C377.868 69.4119 379.9 69.1267 381.611 68.7702C381.468 69.2693 381.361 69.8397 381.29 70.4814C381.29 71.0518 381.29 71.5866 381.29 72.0857C381.29 73.2265 381.397 74.1534 381.611 74.8665C378.402 74.7239 375.194 74.6525 371.985 74.6525C368.848 74.6525 365.639 74.6525 362.359 74.6525C359.08 74.6525 355.835 74.6525 352.627 74.6525C349.418 74.6525 346.174 74.7239 342.894 74.8665C343.108 70.3032 343.286 65.7755 343.429 61.2835C343.643 56.7203 343.75 52.0857 343.75 47.3798V28.984Z" fill="white"/>
<path d="M438.351 74.8665C436.712 70.6597 434.715 65.5973 432.362 59.6793C430.009 53.7612 427.478 47.5224 424.769 40.9626C422.13 34.4029 419.385 27.7006 416.533 20.8557C413.752 14.0107 411.079 7.52229 408.512 1.39037C409.51 1.53298 410.473 1.67558 411.4 1.81818C412.326 1.88949 413.218 1.92514 414.073 1.92514C414.929 1.92514 415.82 1.88949 416.747 1.81818C417.674 1.67558 418.637 1.53298 419.635 1.39037C421.203 6.09627 422.915 11.0517 424.769 16.2567C426.694 21.3904 428.69 26.6311 430.758 31.9787C432.897 37.3263 435.072 42.7452 437.282 48.2354C439.492 53.7256 441.738 59.1802 444.02 64.5991C445.303 61.6757 446.694 58.4315 448.191 54.8664C449.688 51.23 451.186 47.4867 452.683 43.6364C454.252 39.7149 455.785 35.7576 457.282 31.7648C458.779 27.7006 460.205 23.8147 461.56 20.107C462.986 16.3993 464.269 12.9412 465.41 9.73264C466.551 6.52408 467.514 3.74332 468.298 1.39037C469.867 1.74688 471.186 1.92514 472.255 1.92514C473.325 1.92514 474.644 1.74688 476.212 1.39037C470.651 13.7968 465.303 26.0963 460.17 38.2888C455.036 50.4814 450.116 62.6739 445.41 74.8665C444.269 74.7239 443.093 74.6525 441.881 74.6525C440.455 74.6525 439.278 74.7239 438.351 74.8665Z" fill="white"/>
<path d="M488.511 29.091C488.511 24.3851 488.404 19.7861 488.19 15.2941C488.048 10.7309 487.869 6.09627 487.656 1.39037C488.582 1.53298 489.474 1.67558 490.329 1.81818C491.185 1.88949 492.041 1.92514 492.896 1.92514C493.752 1.92514 494.607 1.88949 495.463 1.81818C496.319 1.67558 497.21 1.53298 498.137 1.39037C497.923 6.09627 497.709 10.7309 497.495 15.2941C497.353 19.7861 497.281 24.3851 497.281 29.091V47.4867C497.281 52.1926 497.353 56.8272 497.495 61.3905C497.709 65.9538 497.923 70.4458 498.137 74.8665C496.497 74.7239 494.75 74.6525 492.896 74.6525C491.042 74.6525 489.295 74.7239 487.656 74.8665C487.869 70.4458 488.048 65.9538 488.19 61.3905C488.404 56.8272 488.511 52.1926 488.511 47.4867V29.091Z" fill="white"/>
<path d="M518.278 29.091C518.278 24.3851 518.171 19.7861 517.957 15.2941C517.815 10.7309 517.636 6.09627 517.422 1.39037C518.349 1.53298 519.241 1.67558 520.096 1.81818C520.952 1.88949 521.808 1.92514 522.663 1.92514C523.519 1.92514 524.374 1.88949 525.23 1.81818C526.086 1.67558 526.977 1.53298 527.904 1.39037C527.69 6.09627 527.476 10.7309 527.262 15.2941C527.119 19.7861 527.048 24.3851 527.048 29.091C527.048 38.0749 527.084 45.8824 527.155 52.5135C527.226 59.0732 527.298 64.9556 527.369 70.1606C532.431 70.1606 537.28 70.1249 541.914 70.0536C546.549 69.911 551.54 69.4832 556.888 68.7702C556.531 70.0536 556.353 71.1231 556.353 71.9788C556.353 72.7631 556.531 73.7256 556.888 74.8665C553.608 74.7239 550.328 74.6525 547.048 74.6525C543.768 74.6525 540.488 74.6525 537.209 74.6525C533.786 74.6525 530.471 74.6525 527.262 74.6525C524.125 74.6525 520.845 74.7239 517.422 74.8665C517.636 70.4458 517.815 65.9538 517.957 61.3905C518.171 56.8272 518.278 52.1926 518.278 47.4867V29.091Z" fill="white"/>
<path d="M571.754 29.091C571.754 24.3851 571.647 19.7861 571.433 15.2941C571.291 10.7309 571.112 6.09627 570.898 1.39037C571.825 1.53298 572.717 1.67558 573.572 1.81818C574.428 1.88949 575.284 1.92514 576.139 1.92514C576.995 1.92514 577.85 1.88949 578.706 1.81818C579.562 1.67558 580.453 1.53298 581.38 1.39037C581.166 6.09627 580.952 10.7309 580.738 15.2941C580.595 19.7861 580.524 24.3851 580.524 29.091C580.524 38.0749 580.56 45.8824 580.631 52.5135C580.702 59.0732 580.774 64.9556 580.845 70.1606C585.907 70.1606 590.756 70.1249 595.391 70.0536C600.025 69.911 605.016 69.4832 610.364 68.7702C610.007 70.0536 609.829 71.1231 609.829 71.9788C609.829 72.7631 610.007 73.7256 610.364 74.8665C607.084 74.7239 603.804 74.6525 600.524 74.6525C597.244 74.6525 593.964 74.6525 590.685 74.6525C587.262 74.6525 583.947 74.6525 580.738 74.6525C577.601 74.6525 574.321 74.7239 570.898 74.8665C571.112 70.4458 571.291 65.9538 571.433 61.3905C571.647 56.8272 571.754 52.1926 571.754 47.4867V29.091Z" fill="white"/>
<path d="M636.888 41.6044C638.742 41.6044 640.667 41.64 642.663 41.7113C644.66 41.7826 646.585 41.8183 648.439 41.8183C650.435 41.8183 652.432 41.8183 654.428 41.8183C656.424 41.747 658.421 41.6757 660.417 41.6044L648.546 14.4385L636.888 41.6044ZM684.268 74.8665C683.269 74.7239 682.307 74.6525 681.38 74.6525C680.524 74.6525 679.597 74.6525 678.599 74.6525C677.601 74.6525 676.638 74.6525 675.711 74.6525C674.856 74.6525 673.929 74.7239 672.931 74.8665C672.432 73.2265 671.754 71.2657 670.899 68.9841C670.043 66.6311 669.081 64.2069 668.011 61.7113C667.013 59.1445 665.979 56.5777 664.909 54.0108C663.84 51.3727 662.842 48.8771 661.915 46.5242C659.633 46.4529 657.316 46.4172 654.963 46.4172C652.61 46.3459 650.257 46.3102 647.904 46.3102C645.694 46.3102 643.519 46.3459 641.38 46.4172C639.241 46.4172 637.066 46.4529 634.856 46.5242C632.574 52.0857 630.506 57.3976 628.653 62.46C626.799 67.4511 625.408 71.5866 624.481 74.8665C623.269 74.7239 621.95 74.6525 620.524 74.6525C619.098 74.6525 617.779 74.7239 616.567 74.8665C622.342 62.3887 627.975 49.9823 633.465 37.6471C638.956 25.312 644.482 12.7629 650.043 0H652.075C653.786 4.13548 655.64 8.62747 657.637 13.476C659.633 18.2532 661.665 23.1017 663.733 28.0214C665.801 32.9412 667.868 37.8254 669.936 42.6739C672.004 47.5224 673.929 52.05 675.711 56.2568C677.565 60.3923 679.205 64.1 680.631 67.3798C682.129 70.6597 683.341 73.1552 684.268 74.8665Z" fill="white"/>
<path d="M694.213 60.9627C694.784 62.2461 695.532 63.5652 696.459 64.9199C697.458 66.2033 698.634 67.3798 699.989 68.4493C701.415 69.5189 703.055 70.4101 704.909 71.1231C706.762 71.7648 708.83 72.0857 711.112 72.0857C713.465 72.0857 715.568 71.6935 717.422 70.9092C719.347 70.0536 720.951 68.9484 722.235 67.5937C723.59 66.1677 724.623 64.5278 725.336 62.6739C726.049 60.7488 726.406 58.7167 726.406 56.5777C726.406 53.2978 725.55 50.6953 723.839 48.7701C722.199 46.845 720.131 45.2407 717.636 43.9573C715.14 42.6739 712.431 41.4974 709.508 40.4279C706.656 39.3584 703.982 38.0393 701.486 36.4707C698.991 34.8307 696.887 32.763 695.176 30.2674C693.536 27.7719 692.716 24.4207 692.716 20.2139C692.716 17.2193 693.251 14.5098 694.32 12.0856C695.39 9.59004 696.923 7.45099 698.919 5.66846C700.987 3.88592 703.447 2.49555 706.299 1.49733C709.151 0.49911 712.36 0 715.925 0C719.347 0 722.306 0.427807 724.802 1.28342C727.297 2.06774 729.615 3.31551 731.754 5.02675C731.112 6.23887 730.577 7.5223 730.149 8.87702C729.722 10.2317 729.294 11.943 728.866 14.0107H727.582C727.226 13.0125 726.727 11.943 726.085 10.8022C725.515 9.59004 724.695 8.48486 723.625 7.48664C722.627 6.48843 721.415 5.66846 719.989 5.02675C718.563 4.31373 716.852 3.95723 714.855 3.95723C712.859 3.95723 711.005 4.27808 709.294 4.9198C707.654 5.56151 706.192 6.48843 704.909 7.70055C703.697 8.84137 702.734 10.2317 702.021 11.8717C701.379 13.5116 701.058 15.2941 701.058 17.2193C701.058 20.5705 701.878 23.2086 703.518 25.1337C705.229 27.0589 707.333 28.6988 709.828 30.0535C712.324 31.337 714.998 32.5134 717.85 33.583C720.773 34.5812 723.483 35.8289 725.978 37.3263C728.474 38.8236 730.541 40.7487 732.181 43.1017C733.893 45.4546 734.748 48.5919 734.748 52.5135C734.748 55.7933 734.142 58.8949 732.93 61.8183C731.789 64.7417 730.078 67.3085 727.796 69.5189C725.586 71.6579 722.841 73.3335 719.561 74.5456C716.353 75.6864 712.68 76.2568 708.545 76.2568C704.124 76.2568 700.524 75.6864 697.743 74.5456C695.033 73.3335 692.752 71.9788 690.898 70.4814C691.54 68.8415 691.967 67.3798 692.181 66.0964C692.467 64.7417 692.716 63.0304 692.93 60.9627H694.213Z" fill="white"/>
</svg>
