<svg id="Layer_1" data-name="Layer 1" xmlns="http://www.w3.org/2000/svg" viewBox="0 0 697.95691 280.91119"><defs><style>.cls-1{fill:#fff;}</style></defs><path class="cls-1" d="M191.82147,62.92291l-8.87579-4.11548,8.87579-4.11462L195.9361,45.817l4.11462,8.87579,8.87579,4.11462-8.87579,4.11548-4.11462,8.8758ZM140.4552,46.90112l3.08594-6.65722,6.65814-3.086L143.54114,34.072l-3.08594-6.65729-3.086,6.65729-6.65643,3.08594,6.65643,3.086ZM80.10388,75.24463l2.57251-5.54755,5.5459-2.57165-5.5459-2.57166-2.57251-5.54754-2.57251,5.54754-5.54584,2.57166,5.54584,2.57165Zm22.64325,200.53863a139.49913,139.49913,0,0,1-26.30151-10.2738c-1.35193-.69342-2.686-1.415-4.01142-2.15027a140.8295,140.8295,0,0,1-24.13507-16.91058q-4.69417-4.08518-9.01226-8.573-1.699-1.763-3.335-3.58575a140.33419,140.33419,0,0,1-28.67956-49.118q-.44394-1.32423-.86322-2.65949c-.20978-.67041-.40857-1.3468-.609-2.02148a140.45757,140.45757,0,1,1,262.55487,18.08422c-.16547.36249-.33777.72162-.50494,1.0824-.12964.27808-.25843.55615-.389.83331-.06653.13819-.12879.27808-.19531.41626-.267.56037-.54248,1.11567-.81629,1.6709l-.093.186c-.25416.51263-.50324,1.02777-.76337,1.537-.27295.534-.557,1.0611-.83673,1.59076q-.137.261-.27466.52118-.8649,1.62232-1.769,3.21985-2.01765,3.55683-4.23059,6.984a141.19962,141.19962,0,0,1-40.66266,41.07379,139.70712,139.70712,0,0,1-72.09473,23.11237c-1.74939.064-3.50391.10748-5.26947.10833-.12885,0-.25763-.00512-.38641-.00512a140.763,140.763,0,0,1-32.78479-3.9466Q105.0015,276.40677,102.74713,275.78326Zm145.69739-52.517a93.975,93.975,0,0,1-9.86524,5.00683c-10.62432,4.61872-20.17138,6.44916-29.73461,9.00543a106.00345,106.00345,0,0,0-19.69379,7.07349,99.03355,99.03355,0,0,0-16.63507,10.3335A150.42365,150.42365,0,0,0,157.91418,267.45c-3.04162,2.99811-5.79235,5.92029-8.31536,8.78113a135.24593,135.24593,0,0,0,60.81866-19.03186,136.26982,136.26982,0,0,0,38.027-33.93292Zm7.08374-10.14069a100.068,100.068,0,0,1-21.96515,7.1264c-11.3681,2.23047-21.08575,1.96943-30.97571,2.41382a106.06826,106.06826,0,0,0-20.75226,2.68256c-9.93853,2.39422-21.26995,6.925-35.46563,15.85632a163.43956,163.43956,0,0,0-15.16968,10.74115,127.43992,127.43992,0,0,0-19.17261,18.88519c-.63629.77533-1.253,1.54981-1.86029,2.32514a136.59647,136.59647,0,0,0,30.28827,3.38788c1.0542,0,2.10333-.01618,3.15161-.0401,3.29663-3.94745,7.00867-7.99384,11.24274-12.16474,3.88775-3.83313,7.59979-7.15881,11.17364-10.08355a104.42857,104.42857,0,0,1,24.79694-15.4776c10.62433-4.61878,20.17139-6.44916,29.73468-9.00635a106.03749,106.03749,0,0,0,19.69373-7.07263,97.45627,97.45627,0,0,0,14.994-9.11548C255.33978,213.43268,255.43274,213.27826,255.52826,213.12561ZM10.58685,181.23724c3.01429.40943,6.19324.7378,9.58033.963,3.25653.21667,6.34594.31732,9.2843.31817a104.41133,104.41133,0,0,0,20.37866-1.88757A223.48953,223.48953,0,0,0,40.57825,151.326a19.41347,19.41347,0,0,0-8.09278,8.863c-1.87481,3.84167-1.67694,7.81128-.83081,11.87561-.54077-.84613-1.09173-1.68457-1.61718-2.53925a14.35972,14.35972,0,0,1-2.38483-9.50354,19.72486,19.72486,0,0,1,5.55609-11.52679,3.874,3.874,0,0,1,.568-.40772l-.145-.203c-.64826.20044-1.30335.377-1.94306.60394a22.28346,22.28346,0,0,0-8.43738,4.98718,11.97394,11.97394,0,0,0-3.63183,6.88587c-.058.40686-.07678.81964-.11432,1.22992l-.16718.03326c-.17743-.82477-.42645-1.641-.52026-2.47436-.592-5.25934,1.52332-9.34577,5.58508-12.5213a25.47174,25.47174,0,0,1,9.15387-4.4806c.1399-.03747.27637-.08184.41449-.12536l.04267-.10492a6.64842,6.64842,0,0,0-2.77887-.71137,16.091,16.091,0,0,0-6.12763,1.26239c-1.13269.42048-2.2381.91437-3.43738,1.30158.74036-.68915,1.44831-1.41675,2.2262-2.05988a18.68206,18.68206,0,0,1,8.8468-4.26043,12.62666,12.62666,0,0,1,6.68884.5365.47111.47111,0,0,0,.63971-.15528A19.018,19.018,0,0,1,52.946,131.14777a10.59281,10.59281,0,0,1,7.45136,1.96435A29.49818,29.49818,0,0,1,62.83,135.04578c-6.28791-1.93109-11.45.02728-15.899,4.52746.72333-.162,1.44324-.348,2.17163-.48193a22.16086,22.16086,0,0,1,9.32959-.14758,13.133,13.133,0,0,1,9.5462,8.46044c.0307.08014.04944.16462.09723.32154-.60565-.48529-1.12933-.94422-1.69226-1.34937a14.53487,14.53487,0,0,0-7.71069-2.62622,28.18361,28.18361,0,0,0-10.22345,1.27173c.17059.06311.33948.13306.51349.18854a25.26862,25.26862,0,0,1,6.96179,3.48169,15.55908,15.55908,0,0,1,5.50665,7.50085c.31385.84186.60559,1.69226.8512,2.57593a19.99471,19.99471,0,0,0-7.7345-6.31525,27.216,27.216,0,0,0-9.814-2.51361,200.16792,200.16792,0,0,1,10.72753,29.38837c2.83094-.75147,5.51343-1.60614,8.08167-2.54523A135.43225,135.43225,0,0,0,77.9613,170.392L71.40552,140.9303l-.00171-.01453a2.09171,2.09171,0,0,1,0-.91949l.00171-.01447L78.02441,110.236l.00171-.00769.00684-.029.02643-.07843.02984-.09723.058-.18426.029-.05884.06994-.13135.09894-.18256.058-.07421.03668-.0597L97.00763,85.4502l.04694-.0478.209-.21405.12366-.11346a2.23384,2.23384,0,0,1,.26782-.17145l.11005-.0708,26.83209-13.25482a2.30637,2.30637,0,0,1,.39233-.13989l.07508-.02643a2.19854,2.19854,0,0,1,.49981-.05884h29.78156a2.19854,2.19854,0,0,1,.49981.05884l.07764.02728a2.209,2.209,0,0,1,.38983.139l26.83289,13.25482.10919.0708a2.13748,2.13748,0,0,1,.26868.17145l.12365.11346.209.21405.04608.0478,18.56873,23.88256.03662.0597.0589.07507.09893.18256.07.12963.029.0597.058.18426.02985.09809.02643.07757.00684.029.0017.00769,6.61805,29.74579.00171.01361a2.132,2.132,0,0,1,0,.92121l-.00171.01367-6.4278,28.88849c5.17651,3.35553,9.965,6.85858,14.90613,10.20385,1.87817,1.27259,3.78454,2.52045,5.74036,3.73676,3.79046-15.83246,8.31024-31.42352,14.88647-46.42944a22.58122,22.58122,0,0,0-13.38959,3.71032c-4.22717,2.6109-6.525,6.63935-8.07226,11.20777l-.1297-.04267c0-1.1455-.02216-2.29272.00342-3.43823a17.80725,17.80725,0,0,1,2.84375-9.92663,21.4341,21.4341,0,0,1,6.22143-5.83246,22.24294,22.24294,0,0,1,8.37421-3.31794c-.406-.145-.66187-.25164-.92627-.32843a28.28125,28.28125,0,0,0-11.16681-1.13354c-4.35687.49982-8.07575,2.20062-10.67212,5.90582a1.65367,1.65367,0,0,1-.21326.15436c.17914-.62262.28833-1.13867.47425-1.62482a15.05856,15.05856,0,0,1,10.8717-9.64007,23.94,23.94,0,0,1,9.97778-.2721c1.77759.28748,3.51929.80347,5.27808,1.21546.08533.0205.1723.03668.3736.07849a8.61625,8.61625,0,0,0-2.25348-2.4812,16.09112,16.09112,0,0,0-5.82056-2.43946c-1.59839-.38128-3.231-.615-4.84985-.91522-.174-.03241-.34632-.06653-.66016-.12622a22.28722,22.28722,0,0,1,5.20636-.89307,20.66782,20.66782,0,0,1,11.73151,2.46674,13.52566,13.52566,0,0,1,4.41143,3.88007c.23371.32922.44013.25842.73011.168a22.19936,22.19936,0,0,1,16.8219,1.52935,13.22305,13.22305,0,0,1,6.8031,8.3512c.19787.61584.38214,1.23682.61584,1.99762-4.99829-6.14893-11.38177-7.44025-18.62329-5.97406l-.05634.15015c.18427.06567.36847.13391.55445.197a27.8708,27.8708,0,0,1,10.82049,6.0329c4.17438,4.0285,5.57319,9.008,4.51551,14.69372a2.31994,2.31994,0,0,1-.07331.261c-.01709.05029-.041.09808-.09216.21832-.116-.40088-.21149-.74121-.31384-1.08069a16.99129,16.99129,0,0,0-6.8526-9.11377,35.08118,35.08118,0,0,0-9.91638-4.82257,1.9972,1.9972,0,0,0-.55616-.09039c5.64826,6.60437,8.02454,13.91077,4.9386,22.32678-.52374-8.57129-5.244-14.7492-11.83557-19.99139a282.4358,282.4358,0,0,0-13.23859,49.26123c2.0044,1.0636,4.07966,2.08887,6.27088,3.051a98.75334,98.75334,0,0,0,27.04785,7.33966A136.07567,136.07567,0,1,0,10.58685,181.23724Zm187.114-68.94391-20.58936-4.09753,11.1532,26.61115Zm-6.1532,25.97913h13.10388l-4.54364-20.42212Zm-18.1499-27.63983L160.421,138.27246h24.56152Zm22.03-3.24457L182.642,90.94318l-5.96893,12.71234ZM179.29254,87.8009l-18.4928-9.13507,12.5196,21.85852ZM155.5379,78.265l-11.64532,24.80463h25.85119Zm-3.62933-2.54522h-22.9068l11.45343,24.39434ZM125.3725,78.265l-14.205,24.80463h25.85028Zm-5.26184.4-18.4928,9.13507,5.97406,12.7243Zm-12.59723,31.96765L95.92865,138.27246h24.56152ZM98.26917,90.94318,85.48425,107.38806l18.753-3.73254ZM83.21033,112.29333l9.43536,22.51276,11.15314-26.61029Zm-2.40619,5.55616-4.54535,20.423H89.36353Zm-4.54535,24.7901,4.54535,20.42132,8.55939-20.42132ZM83.694,167.46381c1.78863-.92292,3.5824-1.84919,5.40515-2.767,3.05182-1.53443,6.1864-3.03479,9.478-4.44043l-5.9314-14.15216Zm18.93121-8.84937c1.52082-.58166,3.0791-1.13953,4.6861-1.66492q3.55811-1.16427,7.44623-2.10083l5.73266-12.2091H95.9295Zm17.4812-4.88312q3.43269-.61413,7.1673-1.01159l-3.34613-7.12641Zm16.91138-46.29467H110.83734l13.09021,27.88122Zm16.5285,30.83581-13.09106-27.882-13.09021,27.882ZM127.365,142.63959l4.54877,9.68866c2.465-.15613,5.02557-.2414,7.70636-.2414q4.45239,0,9.34234.31391l4.5838-9.76117Zm29.61865-7.32172,13.09021-27.88122H143.89343Zm-3.37341,17.45984q3.72564.357,7.15539.87177l-3.782-8.05616Zm12.40442,1.775a104.112,104.112,0,0,1,12.60657,3.26337l6.36132-15.17651H160.421Zm16.73059,4.72193c2.80536,1.06872,5.447,2.22278,7.94867,3.44763,2.02746.9928,3.96362,2.02832,5.83331,3.09363l-8.26251-19.71082Zm17.36182,3.78625,4.54449-20.42132H191.54767ZM40.58588,232.88757a99.85731,99.85731,0,0,0,19.12994-8.51922c10.05884-5.8086,17.958-12.63477,26.66834-19.327,3.81781-2.93072,7.79937-5.82733,12.16729-8.57379.09387-.0589.18939-.11688.28235-.17487.59113-.36932,1.18305-.73864,1.79035-1.10205.78216-.46911,1.57452-.93481,2.38482-1.39282q1.32807-.751,2.7107-1.48071,3.24591-1.71323,6.827-3.27875,1.978-.86361,4.07367-1.67523a119.24164,119.24164,0,0,1,18.47315-5.423q2.57427-.54372,5.30365-1.01928l.10748-.0196q1.4739-.2546,2.9964-.48791c.5058-.07758.99884-.1441,1.4978-.21576a129.41132,129.41132,0,0,1,18.39471-1.404c1.97028-.00171,3.87067.05548,5.71473.15783,1.25128.07,2.4693.16633,3.66772.27973.38123.03583.76764.06653,1.14295.10663,1.36041.14587,2.67907.3233,3.97558.51947a91.08479,91.08479,0,0,1,10.80689,2.31744q2.29266.63722,4.47625,1.35706c2.19892.72162,4.32618,1.49353,6.39795,2.29956,9.99744,3.88946,18.7973,8.4331,29.36792,11.41668a87.94735,87.94735,0,0,0,24.06684,3.312,96.6062,96.6062,0,0,1-21.63593-7.53241c-.568-.27887-1.12591-.56122-1.6803-.84607-2.45648-1.26068-4.78338-2.58106-7.02148-3.93982-6.63934-4.0293-12.49829-8.39215-18.58746-12.51447q-1.5814-1.07217-3.19349-2.117c-.46228-.30023-.92456-.60132-1.392-.89813q-1.14644-.72931-2.32093-1.44239-1.5954-.96972-3.25311-1.90118a95.78776,95.78776,0,0,0-8.59344-4.32105q-2.06763-.90709-4.27674-1.74176-1.9997-.75741-4.12738-1.45c-2.68683-.87341-5.53992-1.66321-8.59009-2.35412q-2.56648-.58082-5.3258-1.067c-3.52692-.61585-7.30127-1.10968-11.37494-1.45514-.89642-.07593-1.80481-.14587-2.73029-.20728-.65588-.04351-1.30078-.07934-1.943-.11346q-3.823-.2047-7.34393-.20471c-1.96942.00085-3.86469.05121-5.70368.13818q-2.40527.11517-4.67413.32074a95.41263,95.41263,0,0,0-11.43976,1.72553q-2.82622.60644-5.45715,1.34936c-2.3678.66529-4.63324,1.40308-6.81677,2.20056-.41114.15015-.80518.31305-1.21033.46747q-2.06506.78552-4.04981,1.63507c-3.95343,1.6897-7.71582,3.53717-11.44232,5.44355q-2.24414,1.1476-4.49078,2.31146-.87387.45034-1.7511.8999-1.09909.563-2.20746,1.12329c-.13562.06824-.26868.13733-.4043.20557A129.6327,129.6327,0,0,1,61.76038,182.022q-2.47056.8086-5.09552,1.51056-2.8071.74716-5.81885,1.35108a108.4372,108.4372,0,0,1-21.39453,2.001q-4.5585.00129-9.57349-.32672c-2.69958-.17822-5.27124-.4256-7.75073-.72241A136.032,136.032,0,0,0,40.58588,232.88757Zm45.11248,16.04059q1.49315-1.66965,3.01264-3.34357A150.28848,150.28848,0,0,1,106.06256,228.935c8.74274-7.00525,19.60333-13.60456,34.45831-19.37641.41449-.16125.81965-.32415,1.241-.48364,3.61139-1.37323,7.03766-2.53155,10.31812-3.51929.40173-.12109.80859-.249,1.20605-.36419,1.18732-.34632,2.34906-.66187,3.49628-.96131q1.70416-.44522,3.352-.8222a102.55931,102.55931,0,0,1,12.42065-2.09827,89.91131,89.91131,0,0,1,9.33893-.493c9.79956,0,18.13629,1.60864,26.29474,3.17468,8.16614,1.57026,16.1557,3.097,25.47076,3.097a90.68235,90.68235,0,0,0,19.36963-2.15881,95.00783,95.00783,0,0,1-35.75732-7.0326c-9.22211-3.58831-17.44367-7.71746-26.95831-10.6806-.7992-.24908-1.58991-.50494-2.40876-.73608-.69427-.19623-1.40307-.38044-2.11358-.563q-2.72516-.70111-5.638-1.25043-2.51276-.46949-5.20044-.8-1.67349-.20856-3.42285-.3565c-1.57459-.13392-3.18665-.23883-4.86438-.29346-1.06964-.03412-2.15625-.05628-3.27192-.05628a123.29869,123.29869,0,0,0-16.45428,1.17023q-1.369.18558-2.77716.39917c-.58685.09046-1.15149.18854-1.72638.2832-1.47559.24311-2.92224.49811-4.32275.77192-1.85431.36248-3.63953.75317-5.37189,1.166a112.43954,112.43954,0,0,0-13.92694,4.24256q-2.10718.80089-4.08478,1.65472c-2.43774,1.05084-4.73816,2.15967-6.93195,3.31457q-1.78344.94035-3.48,1.91657c-.38385.2226-.76.44861-1.13787.673-9.51978,5.66016-17.15278,12.21851-25.53046,18.65485a133.7022,133.7022,0,0,1-19.33551,12.7243,103.90363,103.90363,0,0,1-14.39093,6.24189c.10235.10235.20129.20813.3045.31134a137.43168,137.43168,0,0,0,31.3501,23.42877C79.05475,256.43237,82.33862,252.68964,85.69836,248.92816Zm-6.0943,13.27612a135.07021,135.07021,0,0,0,25.92627,9.80811c1.85517-2.43262,3.82972-4.87207,5.97577-7.31836A130.77964,130.77964,0,0,1,124.859,251.52539a161.679,161.679,0,0,1,19.18451-14.01654c16.322-10.27716,29.25018-15.017,40.61743-17.24664,11.3681-2.23047,21.08575-1.97028,30.97571-2.41468a106.01115,106.01115,0,0,0,20.75226-2.68255,97.834,97.834,0,0,0,16.94983-5.84094,94.63046,94.63046,0,0,1-19.67927,2.13147c-9.80035,0-18.13623-1.6095-26.29467-3.17554-8.167-1.5694-16.15576-3.09619-25.47083-3.09619a93.49048,93.49048,0,0,0-23.58661,3.16357c-.40765.10492-.81109.20557-1.22393.31647q-1.26279.339-2.56055.71649c-.19367.05627-.395.12024-.58942.17828-3.35211.9928-6.87817,2.17756-10.62176,3.59858-17.00867,6.46447-28.49024,13.90136-37.66883,21.8031a161.27065,161.27065,0,0,0-14.402,14.33636c-3.12432,3.44934-6.16937,6.93872-9.35089,10.43243Q80.76157,260.9675,79.60406,262.20428ZM340.02783,113.42651q-2.44876-1.93834-6.73443-4.69378l-4.01313-2.38056a29.06213,29.06213,0,0,1-5.238-4.08136,8.51937,8.51937,0,0,1-2.1767-5.986c0-4.69293,3.46936-7.89062,8.29919-7.89062,7.34644,0,10.61152,6.18981,11.15571,13.06036h1.56433c0-6.5976.136-11.224.34033-13.87665H341.6604c-.27209,2.10852-.68024,2.993-1.49652,2.993a5.27734,5.27734,0,0,1-2.31274-.9527,12.433,12.433,0,0,0-8.29877-2.51623c-6.9383,0-12.78827,3.94574-12.78827,11.76727,0,4.82941,2.31274,8.2992,5.57788,10.95191a68.20385,68.20385,0,0,0,6.53015,4.28521c7.07434,4.28522,10.33948,6.93872,10.61157,12.44794,0,6.19067-4.28564,9.0481-8.84295,9.0481-8.09449,0-11.76819-6.19074-12.38013-15.44184h-1.56476c0,8.36743-.06781,13.80927-.27209,16.3255h1.56476c.27209-2.10852.68017-2.99218,1.49646-2.99218a5.27267,5.27267,0,0,1,2.3128.9519,15.67081,15.67081,0,0,0,9.31891,2.51617c8.09491,0,14.42078-4.489,14.42078-12.92382C345.53748,119.41254,343.36078,116.08,340.02783,113.42651Zm46.731,8.979h-1.56427c-1.22443,9.59057-2.44885,11.76727-11.15576,12.04022h-4.96582c-4.76117,0-5.50965-.68066-5.50965-5.64655V112.47375h4.48951q5.61153,0,6.122,5.71479l.40815,3.26507h1.56433c-.2721-4.15045-.40772-7.34729-.40772-9.65966v-3.26508c0-2.04108.06781-4.1496.20386-6.39453h-1.56433l-.34033,2.78912a12.04824,12.04824,0,0,1-1.42865,4.1496c-.74805,1.36047-2.24457,2.04114-4.55731,2.04114h-4.48951V95.05994c0-4.96582.74848-5.64478,5.50965-5.64478H374.719c7.3465.33948,8.02668,1.972,9.11506,10.6789h1.56433a34.06176,34.06176,0,0,1-.20386-4.217,70.03886,70.03886,0,0,1,.476-8.0271c-2.78876.13562-7.55035.20385-14.21655.20385-8.70691,0-15.30487-.06823-19.72656-.20385v1.36047c4.76159.13647,5.51.81628,5.51,5.84949v33.73925c0,5.03412-.74842,5.71479-5.51,5.85041v1.36047c4.42169-.13647,11.01965-.20471,19.72656-.20471,7.27862,0,12.51617.06824,15.577.20471a82.65333,82.65333,0,0,1-.476-8.70691A46.58556,46.58556,0,0,1,386.75879,122.40552ZM402.744,136.01007c-2.58533-.13647-5.16974-.20471-7.82282-.20471q-3.06106,0-5.10193.20471V134.6496c2.24494-.47681,4.08136-2.44879,5.374-5.91864l15.98559-41.22132h1.08832l16.5976,42.7865c1.08831,2.78827,2.65264,4.28607,4.69329,4.35346v1.36047c-1.83679-.13647-4.28564-.20471-7.27862-.20471-3.87708,0-6.80225.06824-8.70691.20471V134.6496c3.46936-.06739,4.82983-.67981,4.82983-2.517a9.46717,9.46717,0,0,0-.81628-3.1969L417.36859,117.78H400.97491l-2.78869,7.21a16.72529,16.72529,0,0,0-1.36048,5.57831c0,2.9256,1.90467,4.014,5.91822,4.08136Zm-1.22486-19.59058h15.37354l-7.61853-20.27117Zm56.93354,12.3797V95.05994c0-5.03321-.748-5.713-5.50965-5.84949V87.85c1.8368.13562,4.62555.20385,8.29877.20385,1.76862,0,3.741,0,5.85-.06823,2.10888-.06824,3.605-.06824,4.42126-.06824,9.31928,0,14.353,4.35345,14.353,10.6806,0,5.23712-3.19727,9.65881-10.33942,11.83557V110.57c9.99951,1.35956,13.87659,6.0542,13.87659,12.24322,0,7.755-6.25806,13.19684-16.32544,13.19684-.8841,0-2.5166,0-4.82984-.06824-2.2445-.06823-4.55731-.13647-6.87-.13647-3.74146,0-6.53021.06824-8.43482.20471V134.6496C457.70459,134.514,458.45264,133.83331,458.45264,128.79919Zm6.32629-18.36566h4.55731c7.41468,0,9.99958-4.35345,9.99958-11.08838,0-6.80139-2.78876-10.1347-9.5232-10.1347-4.14917,0-5.03369,1.02008-5.03369,5.84949Zm0,18.36566c0,4.762.81628,5.64655,5.1015,5.64655,8.50305,0,12.72046-3.94574,12.72046-11.90375,0-7.14258-3.67322-10.9519-12.108-10.9519h-5.71393Zm65.30054,8.16272c-3.74188,0-6.1225-1.90374-7.27826-7.34558l-1.49689-6.8031c-1.63257-6.80145-2.31238-9.31933-7.68677-9.65881H507.156v15.64477c0,5.03412.74762,5.71479,5.50964,5.85041v1.36047c-2.10938-.13647-4.96588-.20471-8.63867-.20471-3.87708,0-6.80231.06824-8.70691.20471V134.6496c4.7616-.13562,5.50964-.81629,5.50964-5.85041V95.05994c0-5.03321-.748-5.713-5.50964-5.84949V87.85c1.9046.13562,4.69336.20385,8.29877.20385,1.76861,0,3.741,0,5.84912-.06823,2.10931-.06824,3.6054-.06824,4.42169-.06824,10.67975,0,16.39368,5.03412,16.39368,11.83722,0,5.16888-3.40156,11.49524-13.19684,13.06036l.81714.13477c6.12158.95361,8.16272,3.19769,9.52227,8.97986l1.70081,6.93786c.81628,4.08222,1.769,5.57831,3.46979,5.57831,1.56433,0,2.17675-.68066,3.741-2.58441l1.02015.74719C535.24921,135.67059,533.5484,136.96191,530.07947,136.96191ZM523.481,100.50177c0-7.41382-3.33331-11.29132-11.29218-11.29132-4.14874,0-5.03283,1.02008-5.03283,5.84949v16.734h4.55688C521.03223,111.794,523.481,107.23663,523.481,100.50177ZM539.398,134.6496v1.36047c4.42084-.13647,11.01923-.20471,19.72613-.20471,7.2782,0,12.51618.06824,15.5774.20471a82.53785,82.53785,0,0,1-.476-8.70691,46.35359,46.35359,0,0,1,.20386-4.89764h-1.56512c-1.224,9.59057-2.448,11.76727-11.15491,12.04022h-4.96588c-4.762,0-5.51-.68066-5.51-5.64655V112.47375h4.48993q5.61155,0,6.12158,5.71479l.40857,3.26507h1.56433c-.27209-4.15045-.40857-7.34729-.40857-9.65966v-3.26508c0-2.04108.06824-4.1496.20386-6.39453h-1.56433l-.33948,2.78912a12.07607,12.07607,0,0,1-1.42865,4.1496c-.74805,1.36047-2.245,2.04114-4.55731,2.04114h-4.48993V95.05994c0-4.96582.748-5.64478,5.51-5.64478h5.64569c7.34644.33948,8.0271,1.972,9.11548,10.6789H573.069a33.866,33.866,0,0,1-.20471-4.217,69.95559,69.95559,0,0,1,.4768-8.0271c-2.78918.13562-7.5512.20385-14.217.20385-8.7069,0-15.30529-.06823-19.72613-.20385v1.36047c4.76111.13647,5.50915.81628,5.50915,5.84949v33.73925C544.9071,133.83331,544.15906,134.514,539.398,134.6496Zm76.72876,1.36047a82.55521,82.55521,0,0,1-.47681-8.70691,46.31625,46.31625,0,0,1,.20471-4.89764h-1.56433c-1.22485,9.59057-2.44964,11.76727-11.15655,12.04022h-4.965c-4.762,0-5.51007-.68066-5.51007-5.64655V112.47375h4.48908q5.61282,0,6.12249,5.71479l.40766,3.26507H605.243c-.27209-4.15045-.40857-7.34729-.40857-9.65966v-3.26508c0-2.04108.06824-4.1496.20471-6.39453h-1.56512l-.34033,2.78912a12.0552,12.0552,0,0,1-1.42786,4.1496c-.7489,1.36047-2.245,2.04114-4.55816,2.04114h-4.48908V95.05994c0-4.96582.74805-5.64478,5.51007-5.64478h5.64563c7.3465.33948,8.02631,1.972,9.11463,10.6789h1.56518a33.89444,33.89444,0,0,1-.20386-4.217,69.93916,69.93916,0,0,1,.476-8.0271c-2.78919.13562-7.5503.20385-14.217.20385-8.70691,0-15.3053-.06823-19.727-.20385v1.36047c4.762.13647,5.51007.81628,5.51007,5.84949v33.73925c0,5.03412-.74805,5.71479-5.51007,5.85041v1.36047c4.42169-.13647,11.02008-.20471,19.727-.20471C607.82745,135.80536,613.06543,135.8736,616.12671,136.01007Zm7.21-48.16009a82.76562,82.76562,0,0,1,.476,8.7069c0,2.24408-.06824,4.1496-.20471,5.57746H625.173c1.224-10.13477,2.58448-12.3797,11.15577-12.71918h14.2843L622.24829,134.6496v1.36047c3.46893-.13647,9.04639-.20471,16.80139-.20471q11.937,0,16.93787.20471c-.34033-3.46979-.47681-6.3255-.47681-8.70691,0-2.04028.06824-3.8775.20386-5.57831h-1.56427c-1.224,10.13648-2.44885,12.38056-11.15576,12.72089H628.642l28.161-45.23529V87.85q-4.99869.20343-16.5293.20385Q628.33539,88.05383,623.33667,87.85Zm74.14343,39.45318a46.31625,46.31625,0,0,1,.20471-4.89764h-1.56427c-1.22485,9.59057-2.4497,11.76727-11.15661,12.04022h-4.965c-4.762,0-5.51-.68066-5.51-5.64655V112.47375H678.978q5.61282,0,6.12243,5.71479l.40772,3.26507h1.56518c-.27209-4.15045-.40857-7.34729-.40857-9.65966v-3.26508c0-2.04108.06824-4.1496.20472-6.39453h-1.56519l-.34033,2.78912a12.05631,12.05631,0,0,1-1.4278,4.1496c-.7489,1.36047-2.245,2.04114-4.55816,2.04114h-4.48908V95.05994c0-4.96582.74805-5.64478,5.51-5.64478h5.64569c7.34644.33948,8.02625,1.972,9.11463,10.6789h1.56518a33.89444,33.89444,0,0,1-.20386-4.217,69.93916,69.93916,0,0,1,.476-8.0271c-2.78919.13562-7.55036.20385-14.217.20385-8.70691,0-15.3053-.06823-19.727-.20385v1.36047c4.762.13647,5.51.81628,5.51,5.84949v33.73925c0,5.03412-.74805,5.71479-5.51,5.85041v1.36047c4.42169-.13647,11.02008-.20471,19.727-.20471,7.27819,0,12.51617.06824,15.57739.20471A82.55521,82.55521,0,0,1,697.4801,127.30316ZM335.94049,186.30762v1.35962c5.986.40857,6.66626.88531,6.87055,6.53015v6.53021a3.66018,3.66018,0,0,1-1.97291,3.741,11.75669,11.75669,0,0,1-7.07434,2.10931c-11.15576,0-16.18939-7.34643-16.18939-23.60364,0-14.48907,5.91815-23.87579,14.965-23.87579a15.36558,15.36558,0,0,1,11.7677,5.30536c1.90466,2.245,2.58533,5.16974,3.40155,10.06738H349.273c0-7.48291.06824-12.72.27209-15.64569h-1.56433c-.27209,2.78919-.81622,4.15045-1.70074,4.15045a2.47255,2.47255,0,0,1-1.36048-.6806c-4.01312-2.85742-6.3941-4.28522-12.24407-4.42169-12.65223,0-21.90333,10.1347-21.90333,25.84863,0,15.10144,8.29877,24.21607,22.31147,24.21607a16.50553,16.50553,0,0,0,10.61151-3.6728c1.36047-1.02014,1.63257-1.15661,2.24457-1.15661,1.08838,0,1.769,1.972,1.83679,3.8775h1.36047V193.51758c0-5.16974.40814-5.57739,3.46936-5.85034v-1.35962c-1.5647.13562-3.8775.203-7.07434.203Q339.30752,186.51062,335.94049,186.30762Zm56.86615,6.39367h-1.56476c-1.22436,10.13477-2.44879,12.37976-11.1557,12.72089h-4.96545c-4.762,0-5.51007-.6806-5.51007-5.64648V166.03644c0-5.03412.748-5.71393,5.51007-5.84955v-1.36133c-2.10889.13648-4.96588.20471-8.6391.20471-3.94531,0-6.87006-.06823-8.70691-.20471v1.36133c4.7616.13562,5.50964.81543,5.50964,5.84955V199.7757c0,5.03411-.748,5.71386-5.50964,5.84948v1.36133c4.42126-.13647,11.01971-.20471,19.72662-.20471,7.2782,0,12.51618.06824,15.5774.20471a82.54207,82.54207,0,0,1-.47638-8.70691C392.60236,195.96643,392.67017,194.12915,392.80664,192.70129Zm45.36963,12.92389v1.36133c-1.83637-.13647-4.28522-.20471-7.2782-.20471-3.87665,0-6.80224.06824-8.70691.20471v-1.36133c3.46894-.06823,4.83026-.67975,4.83026-2.51617a9.46306,9.46306,0,0,0-.81714-3.19684l-4.21655-11.15662H405.59406l-2.7887,7.21088a16.71568,16.71568,0,0,0-1.36047,5.57825c0,2.92395,1.9046,4.01227,5.91815,4.0805v1.36133c-2.58527-.13647-5.16968-.20471-7.82282-.20471q-3.061,0-5.10187.20471v-1.36133c2.24494-.47589,4.08136-2.44793,5.374-5.91772l15.98553-41.22131h1.08838l16.59711,42.78558C434.57172,204.06091,436.13605,205.557,438.17627,205.62518ZM421.51178,187.396l-7.61853-20.27124-7.755,20.27124Zm60.81061-28.36573-14.6247,39.24933-14.965-39.454c-1.4961.13648-3.40155.20471-5.78217.20471q-4.08132,0-6.32629-.20471v1.36133c4.762.13562,5.51.81543,5.51,5.84955V199.095c0,5.03412-.88361,6.39453-5.51,6.53015v1.36133q2.24532-.2047,6.32629-.20471,4.48947,0,6.93878.20471v-1.36133c-5.30621-.13562-6.19073-1.496-6.19073-6.53015V163.179l17.14258,44.147h1.08838l16.39282-43.94226v36.392c0,5.03411-.748,5.71386-5.50922,5.84948v1.36133c1.90381-.13647,4.82941-.20471,8.70691-.20471,3.60455,0,6.53021.06824,8.63867.20471v-1.36133c-4.762-.13562-5.51007-.81537-5.51007-5.84948V166.03644c0-5.03412.748-5.71393,5.51007-5.84955v-1.36133c-2.10846.13648-5.03412.20471-8.63867.20471Zm52.51269,13.26422c0,7.27826-4.55731,15.23713-17.88977,15.23713h-5.238V199.7757c0,5.03411.88452,5.71386,6.87048,5.84948v1.36133q-3.57083-.2047-9.99908-.20471c-3.87751,0-6.80317.06824-8.70691.20471v-1.36133c4.76117-.13562,5.50915-.81537,5.50915-5.84948V166.03644c0-5.03412-.748-5.71393-5.50915-5.84955v-1.36133c1.83636.13648,4.62469.20471,8.29834.20471,1.76812,0,3.741,0,5.85034-.06823,2.10852-.06824,3.60461-.06824,4.42084-.06824C529.25763,158.8938,534.83508,164.2674,534.83508,172.29449Zm-6.8023.74805c0-8.63867-3.12861-12.85565-11.29132-12.85565-4.1496,0-5.03412,1.02014-5.03412,5.84955v20.1347h4.55731c4.42169,0,7.48291-1.15661,9.18371-3.53717C527.14825,180.25336,528.03278,177.05652,528.03278,173.04254Z"/></svg>