<svg xmlns:xlink="http://www.w3.org/1999/xlink" width="1042" height="656" viewBox="0 0 1042 656" fill="none" xmlns="http://www.w3.org/2000/svg">
<g clip-path="url(#clip0_793_52)" fill="none">
<g clip-path="url(#clip1_793_52)" fill="none">
<path d="M520.777 2.39611e-05C635.738 -0.632956 734.535 93.0703 734.019 214.086C733.513 332.892 636.978 426.856 518.265 425.89C401.837 424.946 305.135 329.294 307.564 208.895C309.954 90.4884 406.589 -0.79953 520.777 2.39611e-05ZM692.115 196.657C698.746 199.294 704.977 202.409 709.79 207.823C714.882 213.548 716.243 220.183 714.837 227.656C710.329 215.691 700.464 210.494 689.175 206.829C696.389 216.585 699.963 226.923 695.689 238.833C694.272 227.495 688.286 218.9 679.837 211.66C677.925 210.022 677.325 210.333 676.519 212.565C668.398 235.074 662.395 258.139 658.015 281.648C657.621 283.769 658.138 284.752 660.039 285.724C674.201 292.981 689.253 297.301 704.905 299.799C707.183 300.16 708.395 299.516 709.368 297.317C722.419 267.806 728.521 237.012 727.26 204.719C726.226 178.228 720.501 152.859 709.601 128.717C690.109 85.5578 659.461 52.5873 617.629 30.3997C574.142 7.34037 527.775 0.42201 479.708 10.7274C410.597 25.5413 361.129 65.8855 331.503 129.944C317.458 160.316 312.344 192.554 314.512 225.957C315.534 241.726 318.308 257.145 322.805 272.281C323.327 274.036 324.116 274.919 326.006 275.052C330.342 275.363 334.66 275.957 338.996 276.235C352.897 277.123 366.754 276.834 380.516 274.391C382.267 274.08 383.261 273.525 382.617 271.487C378.404 258.178 374.218 244.858 370.055 231.537C369.399 229.433 368.343 229.505 366.815 230.66C360.851 235.163 356.387 240.771 355.109 248.245C354.509 251.765 355.003 255.469 355.003 259.838C345.699 246.707 349.101 235.463 357.844 224.569C347.933 227.501 339.657 232.215 336.578 243.048C334.338 226.324 345.566 220.122 359.011 215.074C352.324 212.193 347.072 215.73 340.802 217.468C348.378 210.516 356.121 206.818 365.892 208.717C367.037 208.939 368.771 208.273 369.638 207.418C374.374 202.754 380.021 200.038 386.513 199.028C392.321 198.123 397.374 199.672 401.987 204.269C393.211 202.531 385.996 204.258 380.249 210.238C386.035 210.505 391.877 210.127 397.44 211.199C403.894 212.443 408.857 217.745 409.819 222.881C401.053 216.329 391.699 216.79 381.944 219.794C390.976 223.442 398.502 228.439 401.287 239.178C400.303 238.311 399.808 237.934 399.38 237.495C393.722 231.66 386.652 228.739 378.759 227.54C375.541 227.051 375.502 227.229 376.614 230.249C381.338 243.092 386.085 255.924 390.615 268.833C391.532 271.443 392.688 271.965 395.05 271.015C404.488 267.223 413.932 263.453 423.392 259.716C425.376 258.933 425.893 257.795 425.393 255.641C422.297 242.209 419.323 228.756 416.394 215.285C416.072 213.808 416.033 212.143 416.35 210.666C419.368 196.651 422.464 182.654 425.637 168.673C425.993 167.107 426.743 165.502 427.722 164.231C436.281 153.065 444.908 141.954 453.601 130.888C454.59 129.628 455.957 128.489 457.386 127.773C469.542 121.654 481.725 115.58 493.981 109.661C495.899 108.734 498.217 108.234 500.351 108.217C514.058 108.101 527.77 108.129 541.476 108.245C543.344 108.262 545.361 108.706 547.04 109.517C559.374 115.486 571.657 121.566 583.902 127.712C585.414 128.473 586.87 129.644 587.915 130.971C596.564 141.949 605.146 152.981 613.65 164.075C614.734 165.485 615.573 167.262 615.973 168.995C619.113 182.604 622.187 196.229 625.105 209.888C625.55 211.971 625.455 214.314 625.011 216.407C622.304 229.072 619.43 241.698 616.607 254.336C616.245 255.963 615.823 257.356 617.746 258.633C626.623 264.514 635.366 270.588 644.187 276.557C647.099 278.528 647.155 278.478 647.977 275.097C653.341 253.037 659.866 231.354 668.765 210.433C669.01 209.861 669.121 209.233 669.454 208.062C654.008 208.7 642.969 215.069 637.339 229.716C635.632 211.154 646.076 201.743 661.99 196.229C649.973 193.348 638.462 192.248 629.052 202.57C630.775 196.429 634.21 191.743 639.823 188.772C647.166 184.886 654.92 184.836 662.829 186.39C664.752 186.768 666.664 187.207 668.576 187.618C664.235 181.071 657.087 180.666 650.573 178.55C655.036 177.934 659.455 177.507 663.802 177.884C670.149 178.439 675.868 180.877 680.176 185.769C681.527 187.301 682.727 187.429 684.517 186.985C692.076 185.097 699.374 186.085 706.5 189.1C712.453 191.615 716.193 196.035 718.178 202.065C718.344 202.576 718.333 203.148 718.494 204.38C710.835 196.474 702.159 194.219 692.11 196.663L692.115 196.657ZM687.596 304.114L687.719 303.325C687.04 303.114 686.351 302.937 685.684 302.687C676.424 299.216 666.647 296.701 658.038 292.032C645.059 284.991 632.709 276.729 620.436 268.467C605.301 258.278 589.71 249.172 572.019 244.125C558.329 240.222 544.35 238.273 530.154 237.473C510.928 236.39 492.053 238.001 473.633 243.82C458.542 248.584 444.574 255.868 430.668 263.242C404.883 276.923 377.603 284.33 348.25 283.209C341.869 282.964 335.5 282.537 329.13 282.082C326.779 281.909 325.995 282.537 327.046 284.83C327.657 286.174 328.107 287.59 328.657 288.967C337.74 311.82 350.618 332.315 366.92 350.715C368.51 352.509 369.944 353.047 372.173 352.059C375.13 350.749 378.22 349.733 381.222 348.511C399.264 341.137 414.76 329.744 429.889 317.756C442.384 307.862 455.118 298.306 469.342 290.954C488.662 280.965 509.355 275.563 530.81 272.748C547.701 270.532 564.571 270.255 581.423 273.248C596.03 275.841 609.781 281.027 623.304 286.918C638.69 293.62 654.18 300.038 670.966 302.381C676.485 303.153 682.055 303.547 687.602 304.108L687.596 304.114ZM374.802 358.583C375.269 359.205 375.58 359.766 376.025 360.193C389.414 373.114 404.11 384.28 420.39 393.353C421.824 394.152 422.68 393.919 423.703 392.764C427.883 388.061 432.152 383.436 436.354 378.75C448.048 365.713 460.104 353.053 474.372 342.725C494.937 327.839 517.748 317.645 542.038 310.621C562.386 304.741 583.085 302.698 604.128 305.957C619.858 308.389 635.51 311.393 651.29 313.353C663.435 314.863 675.652 313.908 687.685 311.099C684.423 310.599 681.138 310.399 677.869 310.105C659.461 308.45 642.375 302.281 625.439 295.291C613.227 290.249 600.877 285.274 588.182 281.721C566.566 275.663 544.555 276.907 522.628 280.632C503.875 283.819 485.894 289.272 469.103 298.389C455.763 305.629 443.874 314.913 432.107 324.369C415.066 338.067 397.179 350.316 376.369 357.712C375.875 357.889 375.435 358.228 374.802 358.583ZM688.58 319.078C688.497 318.978 688.413 318.878 688.33 318.778C679.954 319.372 671.583 320.232 663.196 320.51C647.149 321.038 631.547 317.606 615.917 314.586C599.009 311.315 582.057 309.827 564.876 312.426C546.134 315.257 528.409 321.271 511.151 328.894C490.224 338.134 471.793 350.999 455.952 367.434C447.225 376.49 439.044 386.068 430.501 395.302C428.817 397.128 428.767 398.028 431.157 398.922C442.406 403.142 453.651 407.389 464.884 411.659C466.818 412.398 468.135 411.937 469.414 410.277C479.53 397.162 491.235 385.624 504.358 375.54C523.162 361.093 543.216 348.811 565.471 340.293C584.986 332.825 605.379 330.938 626.006 330.56C641.424 330.277 656.715 329.155 671.583 324.78C677.314 323.097 682.916 320.988 688.58 319.078ZM693.471 324.819C692.904 324.663 692.715 324.547 692.576 324.591C692.048 324.758 691.526 324.952 691.015 325.169C672 333.303 652.024 336.462 631.469 337.134C619.086 337.539 606.657 338.117 594.379 339.655C576.243 341.931 559.546 348.828 543.577 357.539C520.216 370.282 499.123 385.907 481.553 406.029C479.391 408.505 477.34 411.087 475.089 413.802C476.034 414.236 476.501 414.558 477.012 414.669C492.464 417.972 508.077 419.688 523.89 419.255C524.852 419.227 526.008 418.589 526.702 417.878C533.083 411.309 539.208 404.491 545.734 398.078C560.152 383.902 576.115 371.826 594.574 363.27C608.014 357.034 622.265 353.331 636.588 349.888C655.931 345.235 674.284 338.333 690.692 326.834C691.559 326.224 692.41 325.591 693.471 324.819ZM682.65 340.088C682.249 340.21 681.81 340.266 681.449 340.471C666.503 348.811 650.256 353.497 633.748 357.462C620.409 360.665 607.236 364.363 594.841 370.393C574.753 380.166 557.984 394.313 542.527 410.166C540.059 412.698 537.769 415.407 535.234 418.217C546.406 420.932 589.694 409.394 613.005 397.695C640.596 383.847 663.879 364.774 682.644 340.094L682.65 340.088ZM495.237 204.092C495.521 204.081 495.81 204.069 496.093 204.058C502.452 190.488 508.811 176.918 515.286 163.087H475.961C482.52 177.046 488.879 190.571 495.232 204.092H495.237ZM545.873 204.514C546.562 203.242 546.99 202.537 547.34 201.804C552.965 189.844 558.584 177.884 564.204 165.919C565.604 162.937 565.521 162.798 562.064 162.798C551.236 162.787 540.409 162.793 529.587 162.798C526.219 162.798 526.124 162.937 527.558 165.991C533.167 177.962 538.786 189.922 544.411 201.882C544.756 202.609 545.189 203.292 545.878 204.514H545.873ZM540.381 209.194C533.789 195.191 527.425 181.665 520.883 167.762C520.299 168.639 520.06 168.922 519.905 169.244C513.991 181.771 508.11 194.314 502.168 206.823C501.107 209.061 501.963 209.511 504.064 209.5C515.253 209.45 526.436 209.472 537.624 209.45C538.347 209.45 539.064 209.317 540.387 209.189L540.381 209.194ZM470.909 168.273C470.314 169.095 470.103 169.289 470.003 169.533C464.751 181.96 459.537 194.403 454.245 206.812C453.284 209.067 454.145 209.539 456.23 209.528C466.59 209.478 476.951 209.444 487.311 209.528C489.851 209.55 490.096 208.817 489.068 206.662C484.165 196.407 479.38 186.102 474.539 175.819C473.416 173.431 472.254 171.06 470.915 168.273H470.909ZM571.152 168.745L570.34 168.789C564.07 182.132 557.801 195.474 551.364 209.161H588.099C582.335 195.413 576.743 182.076 571.157 168.739L571.152 168.745ZM564.949 155.863C557.812 143.398 550.925 131.366 543.661 118.678C537.702 131.388 532.055 143.431 526.23 155.863H564.949ZM497.828 118.762C490.568 131.41 483.648 143.464 476.567 155.796H515.264C509.416 143.37 503.764 131.366 497.828 118.762ZM520.627 150.944C521.133 150.25 521.455 149.927 521.639 149.544C526.775 138.678 531.872 127.79 537.046 116.94C538.236 114.453 536.674 114.575 535.079 114.575C525.541 114.575 516.008 114.636 506.471 114.564C503.958 114.542 503.658 115.241 504.709 117.434C509.578 127.612 514.319 137.851 519.116 148.062C519.532 148.945 520.016 149.794 520.622 150.955L520.627 150.944ZM490.035 216.94C489.285 216.651 488.595 216.163 487.901 216.157C477.262 216.102 466.618 216.118 455.98 216.085C453.929 216.079 453.312 216.757 454.168 218.761C456.963 225.302 459.715 231.871 462.394 238.461C463.033 240.027 463.811 240.249 465.362 239.727C470.092 238.139 474.922 236.829 479.624 235.169C480.842 234.741 482.137 233.62 482.726 232.476C485.038 227.956 487.089 223.298 489.234 218.689C489.429 218.273 489.618 217.851 490.035 216.946V216.94ZM569.856 216.202V216.179C564.671 216.179 559.485 216.235 554.305 216.152C552.042 216.118 551.203 216.612 552.381 218.961C554.571 223.342 556.489 227.867 558.746 232.209C559.296 233.264 560.597 234.269 561.758 234.608C566.549 236.002 571.457 237.018 576.248 238.417C578.272 239.006 579.066 238.373 579.778 236.612C582.129 230.782 584.53 224.969 587.07 219.217C588.076 216.946 587.81 216.096 585.136 216.163C580.05 216.296 574.953 216.202 569.862 216.202H569.856ZM464.801 164.497C464.045 164.419 463.672 164.297 463.339 164.358C454.173 166.157 445.019 168.001 435.853 169.772C433.719 170.183 434.33 171.349 434.858 172.609C438.894 182.243 442.918 191.876 446.964 201.504C447.231 202.143 447.653 202.72 448.326 203.881C453.934 190.472 459.326 177.584 464.801 164.492V164.497ZM593.151 203.564C593.646 203.003 593.807 202.887 593.874 202.726C598.187 192.526 602.472 182.315 606.824 172.132C607.652 170.194 606.535 169.972 605.118 169.694C596.597 168.023 588.087 166.307 579.567 164.641C578.883 164.508 578.144 164.669 577.432 164.691C577.549 165.469 577.516 166.302 577.805 167.007C579.689 171.621 581.64 176.207 583.574 180.805C586.715 188.273 589.855 195.741 593.151 203.57V203.564ZM520.839 216.157V216.129C515.191 216.129 509.539 216.174 503.892 216.107C501.563 216.079 501.14 216.873 502.168 218.917C503.836 222.22 505.242 225.657 506.982 228.917C507.443 229.777 508.716 230.716 509.633 230.738C516.842 230.916 524.057 230.821 531.271 230.96C533.033 230.993 533.995 230.394 534.684 228.833C536.146 225.535 537.663 222.259 539.286 219.039C540.353 216.929 540.048 216.074 537.502 216.118C531.949 216.218 526.386 216.152 520.833 216.152L520.839 216.157ZM470.87 152.11C477.156 141.127 483.054 130.827 488.951 120.522C488.745 120.338 488.545 120.15 488.34 119.966C479.924 124.12 471.498 128.245 463.128 132.493C462.7 132.709 462.461 134.109 462.711 134.725C463.744 137.29 464.99 139.766 466.173 142.271C467.613 145.313 469.069 148.356 470.865 152.11H470.87ZM570.462 151.838C571.14 150.755 571.58 150.183 571.885 149.539C574.064 144.952 576.104 140.288 578.416 135.774C579.572 133.526 578.916 132.565 576.827 131.571C569.734 128.201 562.72 124.658 555.666 121.199C554.816 120.783 553.91 120.461 553.032 120.094C552.882 120.272 552.732 120.449 552.582 120.627C558.434 130.838 564.282 141.049 570.462 151.838ZM429.806 245.968L430.684 246.113C434.608 236.701 438.555 227.29 442.39 217.84C442.534 217.479 441.639 216.185 441.206 216.174C435.948 216.052 430.679 216.024 425.421 216.185C424.815 216.202 423.636 217.629 423.753 218.184C425.671 227.462 427.755 236.712 429.806 245.963V245.968ZM430.606 179.866L429.823 180.044C427.799 189.122 425.787 198.206 423.742 207.279C423.32 209.161 424.32 209.533 425.854 209.528C430.656 209.516 435.459 209.45 440.261 209.555C442.684 209.605 442.868 208.717 442.017 206.74C439.172 200.133 436.443 193.475 433.647 186.84C432.663 184.503 431.618 182.187 430.601 179.866H430.606ZM610.854 245.813H611.56C613.639 236.479 615.74 227.151 617.702 217.79C617.785 217.401 616.546 216.279 615.912 216.274C610.837 216.218 605.757 216.302 600.688 216.507C600.216 216.524 599.254 217.89 599.41 218.267C603.15 227.479 607.013 236.646 610.859 245.818L610.854 245.813ZM611.61 180.094L610.821 179.983C606.947 189.25 603.056 198.517 599.276 207.823C599.148 208.134 600.082 209.35 600.543 209.361C605.724 209.478 610.904 209.422 616.084 209.45C617.624 209.461 618.018 208.772 617.668 207.362C617.207 205.48 616.846 203.57 616.423 201.676C614.823 194.48 613.216 187.29 611.61 180.094ZM456.686 137.901C450.11 146.318 444.007 154.131 437.904 161.943C446.814 160.788 455.385 159.089 463.928 157.273C464.367 157.179 465.04 155.952 464.873 155.58C462.316 149.872 459.637 144.22 456.68 137.901H456.686ZM584.858 137.901C582.012 143.909 579.567 149.261 576.949 154.525C575.921 156.585 576.554 157.223 578.594 157.612C586.12 159.039 593.623 160.594 601.138 162.071C601.794 162.198 602.494 162.087 603.656 162.087C597.359 153.986 591.328 146.235 584.853 137.906L584.858 137.901ZM448.065 221.593C443.418 232.631 439.138 242.809 434.542 253.731C442.223 250.038 449.06 246.807 455.807 243.392C456.296 243.148 456.485 241.443 456.185 240.66C454.407 236.096 452.456 231.604 450.538 227.096C449.871 225.53 449.149 223.992 448.07 221.593H448.065ZM605.507 250.588C601.438 240.921 597.575 231.743 593.362 221.726C590.55 228.423 588.087 234.175 585.759 239.983C585.57 240.455 586.075 241.649 586.559 241.876C592.64 244.752 598.77 247.517 605.507 250.588ZM489.924 232.953C493.62 232.387 496.494 231.987 499.35 231.465C499.645 231.41 500.112 230.538 499.995 230.26C498.711 227.301 497.327 224.386 495.632 220.732C493.609 225.058 491.991 228.528 489.924 232.953ZM546.295 221.804C546.006 221.798 545.717 221.793 545.428 221.787L540.854 231.46C544.533 231.915 547.651 232.298 551.448 232.765C549.536 228.689 547.913 225.247 546.295 221.804Z" fill="#FFFFFF"></path>
<path d="M613.133 591.264C610.721 597.728 608.303 604.191 605.891 610.659C600.56 624.962 595.241 639.271 589.861 653.558C589.51 654.485 588.655 655.223 588.032 656.045C587.387 655.245 586.492 654.54 586.137 653.63C578.388 633.813 570.701 613.974 562.998 594.141C562.681 593.319 562.303 592.519 561.508 591.786C561.464 592.658 561.386 593.524 561.386 594.396C561.386 611.142 561.386 627.894 561.408 644.64C561.414 650.865 562.531 652.097 568.706 653.197C569.39 653.319 569.951 654.146 570.568 654.646C569.89 654.929 569.212 655.445 568.523 655.451C563.153 655.523 557.79 655.523 552.42 655.462C551.742 655.456 551.07 654.94 550.392 654.657C551.009 654.152 551.559 653.33 552.254 653.185C557.234 652.119 558.568 650.67 558.579 645.423C558.635 627.378 558.635 609.338 558.601 591.292C558.59 586.645 557.267 585.362 552.565 584.69C551.815 584.585 551.148 583.924 550.442 583.519C551.17 583.175 551.892 582.547 552.626 582.53C557.345 582.442 562.075 582.619 566.794 582.436C569.345 582.336 569.568 584.163 570.162 585.723C576.821 603.186 583.452 620.654 590.089 638.122C590.439 639.038 590.839 639.937 591.5 641.536C592.195 639.887 592.64 638.932 593.007 637.944C599.499 620.615 606.024 603.302 612.41 585.94C613.305 583.502 614.417 582.364 617.174 582.525C621.142 582.758 625.139 582.497 629.118 582.58C629.852 582.597 630.575 583.241 631.303 583.597C630.647 583.957 630.03 584.54 629.33 584.651C624.8 585.39 623.86 586.09 623.577 590.587C623.266 595.473 623.293 600.382 623.304 605.284C623.338 618.422 623.438 631.559 623.527 644.696C623.538 646.084 623.582 647.478 623.738 648.849C624.016 651.275 625.417 652.68 627.862 652.991C628.596 653.086 629.385 653.019 630.058 653.263C630.658 653.48 631.13 654.029 631.658 654.435C631.042 654.807 630.419 655.501 629.796 655.501C623.41 655.518 617.024 655.406 610.637 655.362C609.437 655.357 608.225 655.606 607.041 655.506C606.474 655.456 605.952 654.862 605.413 654.518C605.813 654.102 606.135 653.452 606.619 653.297C611.295 651.79 613.637 648.581 613.644 643.669C613.655 627.106 613.667 610.543 613.672 593.98C613.672 593.108 613.672 592.231 613.672 591.359L613.116 591.27L613.133 591.264Z" fill="#FFFFFF"></path>
<path d="M474.867 508.688C478.29 509.849 481.642 510.671 484.727 512.075C498.294 518.272 496.644 535.251 487.962 542.081C483.665 545.462 478.73 547.356 473.36 547.472C462.633 547.705 451.894 547.567 441.161 547.511C440.522 547.511 439.889 546.873 439.255 546.528C439.85 546.112 440.4 545.434 441.05 545.323C446.314 544.402 447.359 543.474 447.387 538.139C447.476 520.015 447.481 501.898 447.398 483.774C447.376 478.666 446.275 477.706 441.167 476.795C440.467 476.673 439.889 475.879 439.249 475.396C439.828 475.09 440.406 474.524 440.984 474.53C450.966 474.552 460.949 474.591 470.931 474.768C472.938 474.802 474.978 475.263 476.918 475.818C483.365 477.656 488.056 481.409 489.023 488.405C490.035 495.701 487.2 501.442 481.036 505.446C479.124 506.684 476.995 507.589 474.872 508.688H474.867ZM457.353 526.295H457.447C457.447 530.726 457.336 535.168 457.48 539.593C457.597 543.225 458.714 544.702 462.238 544.785C466.057 544.874 470.009 544.602 473.699 543.674C479.085 542.325 482.42 538.388 483.36 532.969C483.932 529.665 483.988 526.156 483.582 522.825C482.837 516.728 479.024 512.592 472.993 511.553C468.752 510.826 464.356 511.009 460.032 510.732C457.947 510.598 457.291 511.587 457.325 513.552C457.408 517.8 457.353 522.053 457.353 526.301V526.295ZM457.425 494.296H457.341C457.341 496.878 457.341 499.466 457.341 502.048C457.341 506.441 459.541 508.633 463.939 508.622C473.099 508.594 477.762 504.535 478.957 495.457C479.152 494.002 479.157 492.508 479.135 491.037C478.957 480.593 472.949 475.446 462.588 476.828C458.842 477.328 457.603 478.527 457.453 482.392C457.303 486.351 457.419 490.326 457.419 494.291L457.425 494.296Z" fill="#FFFFFF"></path>
<path d="M538.897 512.57C538.764 512.497 538.986 512.708 539.231 512.742C547.207 513.88 550.903 519.038 552.437 526.445C553.41 531.148 554.549 535.834 555.9 540.437C557.495 545.879 560.308 546.512 564.498 542.697C564.999 542.242 565.838 542.17 566.522 541.914C566.416 542.642 566.544 543.536 566.166 544.074C563.331 548.077 559.368 549.621 554.56 549.01C550.064 548.438 547.374 545.623 546.229 541.498C544.772 536.251 543.672 530.898 542.438 525.59C539.87 514.524 537.969 512.991 526.591 513.019C521.028 513.036 521.478 512.475 521.506 518.066C521.539 525.274 521.472 532.492 521.806 539.688C522 543.852 523.195 544.657 527.275 545.301C528.109 545.434 528.854 546.112 529.643 546.534C528.804 546.861 527.97 547.472 527.125 547.483C520.183 547.567 513.24 547.567 506.298 547.5C505.437 547.489 504.581 546.923 503.719 546.612C504.475 546.162 505.192 545.429 505.998 545.301C510.239 544.635 511.123 543.852 511.634 539.51C511.84 537.772 511.856 536.006 511.862 534.252C511.89 518.161 511.907 502.07 511.895 485.979C511.895 484.507 511.74 483.03 511.59 481.559C511.29 478.633 509.628 477.095 506.698 476.862C506.054 476.812 505.392 476.717 504.798 476.495C504.431 476.362 504.175 475.94 503.869 475.646C504.253 475.335 504.625 475.013 505.014 474.713C505.075 474.663 505.192 474.68 505.287 474.68C516.748 474.891 528.214 475.052 539.675 475.379C541.382 475.429 543.116 476.106 544.744 476.734C550.808 479.072 555.344 482.958 556.317 489.727C557.356 496.989 555.061 503.203 548.958 507.433C545.845 509.593 542.165 510.932 538.897 512.558V512.57ZM521.483 495.979C521.483 500.038 521.539 504.102 521.461 508.161C521.428 509.999 522.006 510.92 523.99 510.82C526.108 510.715 528.248 510.932 530.36 510.765C535.229 510.376 540.242 509.666 543.138 505.257C547.54 498.55 547.374 491.17 544.261 484.069C541.482 477.722 535.39 476.778 529.32 476.534C523.695 476.306 521.745 478.166 521.517 483.797C521.35 487.85 521.483 491.92 521.489 495.979H521.483Z" fill="#FFFFFF"></path>
<path d="M312.211 547.483C304.246 547.483 296.281 547.517 288.316 547.439C287.393 547.428 286.476 546.817 285.553 546.484C286.393 546.101 287.199 545.496 288.071 545.373C292.084 544.824 293.563 543.58 293.58 539.471C293.652 520.421 293.624 501.37 293.524 482.32C293.502 478.566 292.051 477.4 288.255 476.856C287.271 476.717 286.382 475.934 285.448 475.451C286.493 475.107 287.538 474.457 288.583 474.457C302.006 474.48 315.429 474.602 328.858 474.668C330.703 474.68 332.554 474.546 334.399 474.419C336.055 474.302 337.012 474.691 336.917 476.678C336.684 481.659 336.634 486.651 336.428 491.637C336.411 492.114 335.861 492.575 335.555 493.041C335.044 492.647 334.199 492.331 334.077 491.842C333.554 489.693 333.315 487.472 332.832 485.307C331.67 480.115 329.758 477.978 324.511 477.478C319.186 476.973 313.795 477.084 308.431 477.15C305.502 477.184 303.718 479.01 303.673 481.92C303.54 490.615 303.54 499.31 303.629 508.005C303.634 508.594 304.785 509.599 305.474 509.671C307.486 509.877 309.554 509.843 311.572 509.66C315.718 509.282 317.797 507.034 318.931 501.875C319.247 500.432 319.297 498.922 319.692 497.506C319.837 496.984 320.626 496.639 321.121 496.217C321.499 496.745 322.193 497.272 322.193 497.8C322.199 500.754 321.926 503.713 321.965 506.667C322.038 512.214 322.299 517.755 322.371 523.302C322.382 524.008 321.704 524.718 321.348 525.429C320.832 524.774 320.059 524.191 319.848 523.452C319.464 522.136 319.486 520.709 319.225 519.349C318.252 514.346 315.496 512.081 310.343 511.981C305.793 511.892 303.516 514.091 303.512 518.577C303.512 525.146 303.473 531.714 303.512 538.283C303.54 543.319 304.857 544.974 309.793 545.112C314.868 545.257 319.976 545.074 325.034 544.607C329.791 544.163 333.11 541.492 334.299 536.7C334.944 534.107 335.277 531.431 335.944 528.844C336.122 528.161 337 527.656 337.556 527.072C337.879 527.739 338.462 528.394 338.49 529.071C338.701 534.613 338.762 540.16 338.979 545.701C339.062 547.844 337.64 547.511 336.383 547.517C328.324 547.528 320.27 547.522 312.211 547.522V547.494V547.483Z" fill="#FFFFFF"></path>
<path d="M657.154 582.219C663.696 582.614 670.327 582.464 676.758 583.519C687.152 585.223 692.36 591.331 693.46 601.692C694.405 610.62 688.969 619.693 680.565 623.391C674.885 625.895 668.893 626.001 662.857 625.956C658.288 625.923 658.254 625.962 658.299 630.498C658.349 635.767 658.399 641.037 658.56 646.306C658.71 651.281 660.128 652.619 664.997 653.158C666.231 653.296 667.392 654.135 668.587 654.651C667.348 654.885 666.114 655.295 664.869 655.312C657.56 655.406 650.251 655.434 642.942 655.39C642.113 655.39 641.291 654.823 640.463 654.518C641.141 654.068 641.769 653.335 642.503 653.219C647.549 652.386 648.65 651.248 648.672 645.884C648.733 629.704 648.717 613.519 648.728 597.339C648.728 595.212 648.778 593.08 648.689 590.959C648.5 586.589 647.177 585.257 642.914 584.646C642.097 584.529 641.363 583.824 640.59 583.391C641.385 583.108 642.175 582.597 642.975 582.58C647.694 582.503 652.413 582.542 657.137 582.542L657.16 582.219H657.154ZM658.588 606.878C658.488 606.878 658.388 606.878 658.288 606.878C658.288 611.686 658.327 616.5 658.271 621.309C658.249 623.136 658.866 624.124 660.828 624.002C663.968 623.813 667.131 623.857 670.244 623.463C676.602 622.658 680.265 618.682 681.977 612.752C683.6 607.122 683.656 601.414 682.266 595.745C680.56 588.794 675.98 585.079 668.804 584.674C667.326 584.59 665.841 584.568 664.363 584.635C660.472 584.818 658.844 586.078 658.66 589.971C658.393 595.595 658.594 601.242 658.594 606.878H658.588Z" fill="#FFFFFF"></path>
<path d="M570.612 475.202C571.496 475.046 572.386 474.757 573.269 474.757C588.543 474.757 603.817 474.818 619.097 474.802C620.931 474.802 621.681 475.163 621.548 477.3C621.265 481.709 621.42 486.145 621.281 490.565C621.259 491.32 620.664 492.053 620.336 492.803C619.919 492.175 619.297 491.592 619.13 490.904C618.669 489.022 618.48 487.078 618.035 485.19C616.735 479.705 614.5 477.467 608.959 477.089C603.801 476.74 598.593 476.851 593.418 477.023C590.172 477.128 588.677 478.7 588.627 481.976C588.499 490.482 588.577 498.994 588.538 507.5C588.532 509.127 589.182 509.921 590.844 509.81C591.306 509.782 591.767 509.81 592.234 509.816C601.205 509.871 602.9 508.439 604.473 499.505C604.568 498.96 604.579 498.355 604.834 497.889C605.101 497.411 605.624 497.073 606.029 496.673C606.335 497.173 606.874 497.661 606.908 498.178C607.013 499.927 606.897 501.692 606.935 503.447C607.08 509.916 607.28 516.379 607.369 522.847C607.38 523.613 606.819 524.391 606.524 525.163C605.968 524.474 605.401 523.797 604.868 523.091C604.773 522.969 604.834 522.731 604.812 522.547C603.751 513.464 599.098 510.088 590.15 512.059C589.499 512.203 588.632 513.408 588.621 514.124C588.538 522.725 588.566 531.326 588.643 539.927C588.671 542.98 590.322 544.968 593.39 544.979C599.293 544.996 605.224 544.963 611.093 544.418C615.317 544.024 618.124 541.209 619.28 537.1C620.031 534.441 620.364 531.664 621.064 528.988C621.248 528.294 622.093 527.772 622.637 527.173C622.932 527.855 623.466 528.527 623.482 529.216C623.632 534.563 623.593 539.921 623.816 545.262C623.888 547.034 623.366 547.495 621.681 547.495C605.296 547.467 588.91 547.517 572.525 547.483C571.852 547.483 571.185 546.895 570.512 546.584C571.202 546.162 571.852 545.473 572.586 545.362C577.449 544.657 578.644 543.547 578.672 538.544C578.766 520.51 578.794 502.475 578.761 484.441C578.75 478.355 578.161 477.8 572.269 476.529C571.696 476.406 571.163 476.112 570.612 475.896C570.612 475.662 570.612 475.429 570.618 475.196L570.612 475.202Z" fill="#FFFFFF"></path>
<path d="M784.054 547.433C776.183 547.433 768.307 547.461 760.437 547.389C759.603 547.383 758.775 546.756 757.941 546.417C758.708 546.073 759.442 545.518 760.242 545.412C764.333 544.885 765.934 543.502 765.951 539.355C766.034 520.571 766.017 501.792 765.923 483.008C765.901 478.811 764.539 477.567 760.392 476.706C759.536 476.529 758.769 475.901 757.963 475.479C758.875 475.213 759.787 474.724 760.704 474.718C775.983 474.657 791.268 474.674 806.548 474.635C808.187 474.635 809.077 474.896 808.966 476.945C808.71 481.548 808.788 486.173 808.616 490.782C808.588 491.509 807.954 492.22 807.604 492.936C807.093 492.281 806.314 491.698 806.125 490.959C805.458 488.372 805.136 485.69 804.408 483.119C803.491 479.866 801.134 477.794 797.816 477.578C792.013 477.195 786.177 477.1 780.357 477.128C777.717 477.139 775.994 478.783 775.9 481.52C775.689 487.8 775.622 494.085 775.505 500.371C775.488 501.387 775.294 502.459 775.539 503.414C776.078 505.529 773.832 508.738 777.095 509.671C782.536 511.231 787.878 509.571 789.501 506.084C790.574 503.78 790.913 501.148 791.746 498.722C792.019 497.917 792.808 497.289 793.358 496.578C793.664 497.356 794.225 498.128 794.242 498.91C794.414 507.139 794.525 515.368 794.57 523.597C794.57 524.135 793.914 524.679 793.564 525.224C793.102 524.757 792.369 524.363 792.23 523.819C791.869 522.392 791.791 520.898 791.557 519.438C790.779 514.641 787.894 511.953 783.064 511.97C774.11 511.998 775.633 510.621 775.505 519.277C775.422 525.107 775.45 530.937 775.483 536.762C775.522 543.824 776.967 545.329 783.931 545.29C788.089 545.268 792.263 545.174 796.404 544.779C802.485 544.202 805.314 541.687 806.876 535.762C807.487 533.441 807.726 531.026 808.299 528.699C808.449 528.083 809.232 527.622 809.727 527.095C810.038 527.65 810.6 528.2 810.616 528.766C810.778 533.935 810.739 539.116 810.989 544.28C811.106 546.662 810.477 547.561 807.948 547.517C799.984 547.378 792.019 547.467 784.054 547.467V547.444V547.433Z" fill="#FFFFFF"></path>
<path d="M634.115 475.113C635.155 475.013 636.194 474.824 637.233 474.824C652.051 474.796 666.87 474.835 681.688 474.741C684.211 474.724 684.812 475.524 684.589 478C684.217 482.136 684.345 486.312 684.15 490.465C684.111 491.254 683.572 492.02 683.266 492.797C682.816 492.109 682.149 491.481 681.96 490.726C681.327 488.222 680.988 485.64 680.298 483.158C679.398 479.91 677.125 477.745 673.79 477.528C667.804 477.139 661.784 477.045 655.787 477.078C653.241 477.089 651.568 478.822 651.523 481.365C651.379 490.243 651.373 499.127 651.485 508.005C651.49 508.638 652.791 509.693 653.58 509.793C655.587 510.038 657.654 509.976 659.677 509.815C663.652 509.505 665.997 506.956 667.042 501.992C667.309 500.726 667.392 499.421 667.709 498.166C667.842 497.639 668.354 497.211 668.693 496.734C669.054 497.278 669.56 497.783 669.743 498.383C669.921 498.977 669.76 499.666 669.771 500.315C669.91 507.8 670.082 515.29 670.149 522.775C670.155 523.519 669.56 524.269 669.243 525.018C668.81 524.391 668.154 523.819 667.987 523.125C667.598 521.515 667.587 519.81 667.159 518.216C666.047 514.041 663.451 511.909 659.133 511.903C649.773 511.903 651.507 510.687 651.385 519.299C651.296 525.773 651.351 532.253 651.401 538.727C651.435 543.347 652.863 545.096 657.46 545.207C662.629 545.329 667.826 545.14 672.978 544.729C677.908 544.335 681.188 541.526 682.472 536.695C683.133 534.202 683.461 531.614 684.084 529.11C684.25 528.433 684.951 527.889 685.406 527.284C685.712 527.955 686.262 528.616 686.279 529.294C686.418 534.552 686.335 539.815 686.579 545.068C686.668 547.011 686.079 547.439 684.3 547.433C668.104 547.411 651.907 547.461 635.705 547.428C634.982 547.428 634.265 546.778 633.543 546.428C634.215 546.079 634.86 545.512 635.571 545.412C640.429 544.713 641.569 543.524 641.613 538.572C641.758 521.087 641.869 503.602 641.98 486.123C641.986 485.107 641.958 484.085 641.841 483.075C641.285 478.311 640.507 477.484 635.849 476.484C635.26 476.356 634.688 476.134 634.11 475.957C634.11 475.673 634.11 475.396 634.115 475.113Z" fill="#FFFFFF"></path>
<path d="M411.836 594.174C411.836 597.317 411.931 600.47 411.775 603.608C411.731 604.49 410.953 605.34 410.508 606.201C409.935 605.395 409.107 604.663 408.835 603.769C408.212 601.742 407.99 599.593 407.373 597.566C404.722 588.816 398.174 584.64 389.659 583.23C381.533 581.886 375.146 585.068 370.516 591.753C366.175 598.027 364.458 605.207 363.852 612.664C363.046 622.603 363.285 632.491 367.176 641.881C372.045 653.63 386.913 658.644 397.707 652.414C400.548 650.776 402.059 648.594 401.898 645.223C401.709 641.164 401.926 637.072 401.565 633.03C401.159 628.494 399.853 627.355 395.373 626.6C394.734 626.495 394.044 626.556 393.455 626.339C392.777 626.09 392.182 625.617 391.549 625.245C392.182 624.89 392.788 624.329 393.455 624.229C394.539 624.074 395.673 624.229 396.779 624.229C402.604 624.229 408.429 624.179 414.249 624.241C415.043 624.246 415.833 624.757 416.627 625.029C415.994 625.529 415.305 625.967 414.749 626.539C413.732 627.594 412.37 628.583 411.936 629.865C411.364 631.559 411.436 633.513 411.419 635.351C411.358 641.181 411.419 647.006 411.331 652.836C411.319 653.591 410.686 654.335 410.341 655.084C409.919 654.468 409.485 653.863 409.079 653.235C408.985 653.091 408.985 652.88 408.935 652.702C407.934 649.482 406.684 649.038 403.916 650.926C382.594 665.434 355.843 652.569 353.564 626.8C352.725 617.322 353.447 608.133 357.544 599.427C363.986 585.74 377.742 578.505 392.538 581.642C396.812 582.547 400.753 585.235 404.7 587.389C407.512 588.927 408.335 588.777 409.107 585.651C409.263 585.024 409.246 584.296 409.569 583.78C409.896 583.252 410.547 582.925 411.053 582.508C411.369 583.069 411.947 583.619 411.964 584.185C412.053 587.511 412.009 590.842 412.009 594.174H411.842H411.836Z" fill="#FFFFFF"></path>
<path d="M271.991 479.699C271.991 484.041 272.058 488.389 271.93 492.725C271.908 493.513 271.124 494.285 270.691 495.063C270.235 494.357 269.646 493.702 269.346 492.936C267.845 489.105 266.956 484.907 264.838 481.465C261.481 476.018 254.149 474.047 248.085 476.134C239.754 478.999 237.152 490.049 243.639 496.351C246.852 499.466 250.815 501.831 254.527 504.407C258.779 507.361 263.315 509.943 267.406 513.103C277.227 520.693 279.073 533.713 271.569 542.159C266.244 548.144 259.057 549.682 251.543 548.766C247.446 548.266 243.439 546.489 239.57 544.857C236.224 543.447 235.946 543.33 234.418 546.562C234.157 547.111 233.44 547.45 232.934 547.889C232.606 547.317 231.989 546.739 231.994 546.167C232.061 539.327 232.195 532.486 232.389 525.651C232.406 525.057 233.006 524.479 233.334 523.896C233.784 524.468 234.462 524.974 234.651 525.623C235.807 529.599 236.385 533.813 238.042 537.556C241.021 544.274 247.469 547.594 254.783 546.956C264.31 546.123 269.924 536.162 265.266 527.4C263.448 523.974 260.236 521.037 257.084 518.627C252.393 515.04 247.113 512.242 242.233 508.888C236.096 504.668 232.339 499.005 232.35 491.265C232.361 482.17 237.492 475.685 246.418 473.919C252.582 472.703 258.524 473.125 263.988 476.834C267.617 479.299 267.745 479.11 269.996 475.285C270.257 474.841 271.024 474.352 271.441 474.435C271.836 474.513 272.292 475.307 272.347 475.823C272.475 477.106 272.392 478.411 272.392 479.704C272.253 479.704 272.119 479.704 271.98 479.704L271.991 479.699Z" fill="#FFFFFF"></path>
<path d="M372.679 520.165C369.249 520.165 365.814 520.038 362.401 520.237C361.445 520.293 360.028 521.098 359.7 521.914C357.799 526.623 355.882 531.365 354.498 536.245C352.925 541.814 354.92 544.402 360.601 545.323C361.395 545.451 362.096 546.206 362.835 546.673C362.046 546.956 361.256 547.472 360.462 547.483C355.459 547.55 350.457 547.539 345.46 547.461C344.765 547.45 344.082 546.928 343.392 546.639C343.793 546.095 344.076 545.335 344.615 545.051C348.217 543.13 350.04 539.893 351.441 536.279C359.122 516.434 366.804 496.59 374.541 476.767C374.941 475.746 375.813 474.902 376.464 473.98C377.192 474.935 378.181 475.79 378.604 476.867C386.457 496.939 394.245 517.039 402.037 537.139C403.393 540.632 404.716 544.107 408.807 545.379C409.174 545.49 409.357 546.19 409.624 546.617C409.046 546.923 408.468 547.489 407.884 547.5C403.532 547.556 399.18 547.483 394.823 547.478C392.227 547.478 389.631 547.572 387.047 547.478C386.513 547.456 386.002 546.789 385.479 546.417C385.941 546.062 386.352 545.507 386.869 545.385C393.216 543.852 393.672 543.069 391.426 536.967C389.631 532.109 387.714 527.295 385.963 522.42C385.368 520.765 384.434 520.104 382.683 520.149C379.354 520.243 376.014 520.176 372.679 520.171V520.165ZM372.84 487.517C369.027 497.434 365.531 506.562 362.007 515.679C361.418 517.2 362.023 517.683 363.491 517.678C369.688 517.656 375.886 517.7 382.078 517.578C382.556 517.567 383.55 516.234 383.406 515.845C380.065 506.656 376.603 497.517 372.845 487.517H372.84Z" fill="#FFFFFF"></path>
<path d="M706.189 544.835C706.906 545.124 707.156 545.312 707.406 545.307C715.821 545.162 724.242 545.168 732.646 544.779C738.165 544.524 741.722 541.381 743.017 535.957C743.618 533.447 743.879 530.854 744.479 528.344C744.674 527.528 745.474 526.856 745.997 526.118C746.319 526.878 746.903 527.628 746.925 528.394C747.086 534.113 747.197 539.832 747.136 545.551C747.13 546.179 745.969 547.289 745.296 547.334C742.439 547.511 739.56 547.339 736.692 547.345C724.575 547.35 712.458 547.4 700.341 547.361C699.146 547.361 697.951 546.862 696.751 546.595C697.151 545.412 697.345 544.102 697.99 543.069C711.091 522.025 724.242 501.009 737.376 479.988C737.859 479.21 738.304 478.416 738.988 477.25C737.926 477.128 737.165 476.962 736.409 476.962C729.833 476.939 723.263 476.895 716.688 476.956C707.222 477.045 703.654 479.988 701.742 489.177C701.386 490.893 701.242 492.658 700.814 494.358C700.647 495.007 699.952 495.518 699.496 496.095C699.213 495.518 698.707 494.946 698.691 494.358C698.496 488.822 698.474 483.275 698.207 477.739C698.09 475.363 699.002 474.713 701.247 474.724C716.06 474.78 730.873 474.718 745.685 474.752C746.619 474.752 747.547 475.218 748.481 475.463C748.175 476.479 748.075 477.622 747.536 478.489C734.391 499.616 721.196 520.709 708.017 541.814C707.439 542.736 706.894 543.68 706.2 544.84L706.189 544.835Z" fill="#FFFFFF"></path>
<path d="M534.44 655.495C531.199 655.495 527.964 655.556 524.729 655.451C523.996 655.429 523.279 654.829 522.556 654.496C523.145 654.057 523.684 653.352 524.335 653.219C529.849 652.08 530.566 651.003 528.681 645.751C526.814 640.526 524.885 635.318 522.745 630.204C522.339 629.232 520.839 628.133 519.816 628.105C513.063 627.916 506.298 627.95 499.545 628.061C498.628 628.077 497.172 628.677 496.905 629.371C494.882 634.624 492.814 639.887 491.319 645.301C490.091 649.754 492.253 652.391 496.799 653.041C497.439 653.135 498.144 653.069 498.711 653.324C499.2 653.546 499.534 654.124 499.934 654.54C499.467 654.884 499.006 655.529 498.539 655.534C492.897 655.567 487.256 655.523 481.62 655.434C481.186 655.429 480.391 654.912 480.414 654.69C480.458 654.146 480.758 653.341 481.181 653.152C485.583 651.17 487.273 647.189 488.862 643.08C496.432 623.502 504.014 603.93 511.651 584.374C512.007 583.458 512.896 582.752 513.535 581.947C514.18 582.752 515.069 583.458 515.425 584.374C523.306 604.524 531.127 624.701 538.97 644.868C540.348 648.41 541.582 652.08 545.878 653.302C546.245 653.408 546.384 654.307 546.629 654.834C545.99 655.073 545.356 655.512 544.711 655.523C541.293 655.595 537.869 655.556 534.445 655.556V655.501L534.44 655.495ZM510.189 596.467C509.939 596.45 509.689 596.439 509.444 596.423C505.959 605.534 502.452 614.635 499.073 623.785C498.923 624.196 499.89 625.579 500.357 625.584C506.637 625.701 512.924 625.695 519.204 625.568C519.616 625.556 520.488 624.141 520.322 623.68C517.02 614.585 513.591 605.529 510.195 596.467H510.189Z" fill="#FFFFFF"></path>
<path d="M451.361 655.379C443.863 655.379 436.359 655.379 428.861 655.379C427.938 655.379 426.994 655.429 426.093 655.273C425.671 655.201 425.326 654.679 424.948 654.363C425.254 654.074 425.548 653.763 425.882 653.502C426.015 653.402 426.238 653.424 426.415 653.374C432.357 651.797 432.963 651.048 432.963 644.857C432.963 627.833 432.946 610.809 432.924 593.791C432.924 592.686 432.852 591.57 432.713 590.476C432.157 586.156 431.323 585.379 427.032 584.718C426.249 584.596 425.543 584.002 424.804 583.63C425.593 583.252 426.382 582.553 427.177 582.542C434.214 582.453 441.25 582.447 448.287 582.525C449.11 582.536 449.921 583.186 450.738 583.535C450.032 583.941 449.36 584.596 448.604 584.713C444.085 585.418 443.324 586.095 442.79 590.637C442.595 592.286 442.595 593.957 442.595 595.618C442.573 611.436 442.562 627.255 442.551 643.08C442.551 643.73 442.545 644.374 442.551 645.023C442.64 651.708 443.946 653.08 450.538 653.002C455.068 652.947 459.609 652.858 464.111 652.452C469.097 652.003 472.226 649.054 473.432 644.24C474.172 641.287 474.544 638.244 475.239 635.279C475.378 634.685 476.212 634.252 476.728 633.746C477.073 634.379 477.701 635.001 477.723 635.645C477.896 641.37 477.862 647.1 478.096 652.819C478.19 655.084 477.384 655.667 475.239 655.64C467.28 655.54 459.32 655.601 451.361 655.601V655.395V655.379Z" fill="#FFFFFF"></path>
<path d="M605.007 69.4946C606.919 73.5423 608.331 76.9571 610.131 80.1608C610.965 81.6489 612.344 83.0703 613.822 83.9087C617.001 85.7077 620.409 87.107 624.477 89.0226C620.503 90.8993 617.118 92.2763 613.972 94.0753C612.416 94.9637 610.948 96.4295 610.065 97.9898C608.264 101.16 606.891 104.569 604.996 108.612C603.161 104.653 601.85 101.316 600.093 98.2285C599.159 96.5906 597.675 95.0137 596.058 94.0808C592.873 92.2541 589.416 90.8993 585.358 89.017C588.638 87.4956 591.267 86.0631 594.046 85.0414C597.386 83.8144 599.654 81.7988 600.91 78.4118C601.961 75.5801 603.417 72.9038 605.007 69.4946Z" fill="#FFFFFF"></path>
<path d="M535.095 56.1853C527.536 58.3508 523.012 62.976 520.816 70.5273C518.487 63.1536 514.102 58.2952 506.387 56.2686C513.802 53.9199 518.632 49.4946 520.677 41.8044C523.067 49.1559 527.381 54.0976 535.095 56.1853Z" fill="#FFFFFF"></path>
<path d="M429.056 89.6944C431.201 95.5522 434.38 99.9276 440.956 101.449C434.986 103.709 430.862 107.24 429.189 113.581C427.127 107.684 423.798 103.464 417.395 101.793C423.292 99.5389 427.36 95.9465 429.061 89.6944H429.056Z" fill="#FFFFFF"></path>
</g>
</g>
<defs>
<clipPath id="clip0_793_52">
<rect width="1042" height="656" fill="white"></rect>
</clipPath>
<clipPath id="clip1_793_52">
<rect width="579" height="657" fill="white" transform="translate(232)"></rect>
</clipPath>
</defs>
</svg>