<svg width="516" height="77" viewBox="0 0 516 77" fill="none" xmlns="http://www.w3.org/2000/svg">
<path d="M62.223 70.8291C61.5813 71.3995 60.5474 72.0412 59.1214 72.7542C57.7667 73.3959 56.0911 74.002 54.0946 74.5724C52.1695 75.0715 49.9948 75.535 47.5706 75.9628C45.1463 76.3906 42.6151 76.6045 39.977 76.6045C34.3442 76.6045 29.1392 75.8202 24.362 74.2515C19.5848 72.6116 15.4493 70.1517 11.9555 66.8718C8.53305 63.592 5.8236 59.5991 3.82716 54.8932C1.90202 50.116 0.939453 44.6971 0.939453 38.6365C0.939453 32.5759 1.90202 27.1926 3.82716 22.4867C5.8236 17.7095 8.5687 13.681 12.0625 10.4011C15.6275 7.12129 19.87 4.62574 24.7898 2.91451C29.7096 1.20327 35.1285 0.347656 41.0465 0.347656C45.7524 0.347656 50.0305 0.846766 53.8807 1.84499C57.8023 2.7719 61.2604 3.91273 64.2551 5.26745C63.6847 6.26567 63.2212 7.6204 62.8647 9.33163C62.5082 11.0429 62.223 12.4689 62.0091 13.6097L61.3674 13.8236C60.6544 12.968 59.6561 12.0054 58.3727 10.9359C57.0893 9.86639 55.592 8.83252 53.8807 7.8343C52.1695 6.83608 50.2444 6.01612 48.1053 5.3744C45.9663 4.66139 43.6133 4.30488 41.0465 4.30488C36.8397 4.30488 32.9181 4.98225 29.2818 6.33697C25.7167 7.6917 22.5794 9.79509 19.87 12.6471C17.2318 15.4279 15.1641 18.993 13.6668 23.3424C12.1694 27.6204 11.4208 32.7185 11.4208 38.6365C11.4208 44.5545 12.1694 49.6882 13.6668 54.0376C15.1641 58.3157 17.2318 61.8808 19.87 64.7328C22.5794 67.5136 25.7167 69.5813 29.2818 70.936C32.9181 72.2908 36.8397 72.9681 41.0465 72.9681C43.6133 72.9681 45.9663 72.6473 48.1053 72.0056C50.3157 71.3638 52.3121 70.6152 54.0946 69.7596C55.9485 68.8326 57.5884 67.8701 59.0144 66.8718C60.5118 65.8023 61.7595 64.8754 62.7578 64.0911L63.1856 64.5189L62.223 70.8291Z" fill="white"/>
<path d="M72.2757 38.6365C72.2757 32.5759 73.2382 27.1926 75.1634 22.4867C77.1598 17.7095 79.9049 13.681 83.3987 10.4011C86.9637 7.12129 91.2062 4.62574 96.126 2.91451C101.046 1.20327 106.429 0.347656 112.276 0.347656C118.194 0.347656 123.613 1.20327 128.532 2.91451C133.452 4.62574 137.659 7.12129 141.153 10.4011C144.718 13.681 147.463 17.7095 149.388 22.4867C151.385 27.1926 152.383 32.5759 152.383 38.6365C152.383 44.6971 151.385 50.116 149.388 54.8932C147.463 59.5991 144.718 63.592 141.153 66.8718C137.659 70.1517 133.452 72.6116 128.532 74.2515C123.613 75.8202 118.194 76.6045 112.276 76.6045C106.429 76.6045 101.046 75.8202 96.126 74.2515C91.2062 72.6116 86.9637 70.1517 83.3987 66.8718C79.9049 63.592 77.1598 59.5991 75.1634 54.8932C73.2382 50.116 72.2757 44.6971 72.2757 38.6365ZM141.901 38.6365C141.901 32.7185 141.153 27.6204 139.655 23.3424C138.158 18.993 136.055 15.4279 133.345 12.6471C130.707 9.79509 127.57 7.6917 123.934 6.33697C120.368 4.98225 116.483 4.30488 112.276 4.30488C108.14 4.30488 104.254 4.98225 100.618 6.33697C97.0529 7.6917 93.9156 9.79509 91.2062 12.6471C88.568 15.4279 86.5003 18.993 85.003 23.3424C83.5056 27.6204 82.757 32.7185 82.757 38.6365C82.757 44.5545 83.5056 49.6882 85.003 54.0376C86.5003 58.3157 88.568 61.8808 91.2062 64.7328C93.9156 67.5136 97.0529 69.5813 100.618 70.936C104.254 72.2908 108.14 72.9681 112.276 72.9681C116.483 72.9681 120.368 72.2908 123.934 70.936C127.57 69.5813 130.707 67.5136 133.345 64.7328C136.055 61.8808 138.158 58.3157 139.655 54.0376C141.153 49.6882 141.901 44.5545 141.901 38.6365Z" fill="white"/>
<path d="M178.254 29.4386C178.254 22.0233 178.147 14.6436 177.933 7.29954C176.08 7.29954 174.119 7.33519 172.051 7.40649C170.055 7.40649 168.023 7.47779 165.955 7.62039C163.958 7.6917 161.998 7.79865 160.072 7.94125C158.219 8.08386 156.543 8.26211 155.046 8.47601C155.402 7.19259 155.58 6.05176 155.58 5.05354C155.58 4.26923 155.402 3.16406 155.046 1.73803C159.752 1.88063 164.351 2.02324 168.843 2.16584C173.335 2.23714 177.933 2.27279 182.639 2.27279C187.345 2.27279 191.944 2.23714 196.436 2.16584C200.928 2.02324 205.527 1.88063 210.233 1.73803C209.876 3.16406 209.698 4.30488 209.698 5.1605C209.698 6.08741 209.876 7.19259 210.233 8.47601C208.736 8.26211 207.024 8.08386 205.099 7.94125C203.245 7.79865 201.285 7.6917 199.217 7.62039C197.22 7.47779 195.188 7.40649 193.121 7.40649C191.124 7.33519 189.199 7.29954 187.345 7.29954C187.131 14.6436 187.024 22.0233 187.024 29.4386V47.8344C187.024 52.5403 187.096 57.1749 187.238 61.7382C187.452 66.3014 187.666 70.7934 187.88 75.2141C186.24 75.0715 184.493 75.0002 182.639 75.0002C180.786 75.0002 179.039 75.0715 177.399 75.2141C177.613 70.7934 177.791 66.3014 177.933 61.7382C178.147 57.1749 178.254 52.5403 178.254 47.8344V29.4386Z" fill="white"/>
<path d="M237.684 29.4386C237.684 22.0233 237.577 14.6436 237.363 7.29954C235.509 7.29954 233.548 7.33519 231.481 7.40649C229.484 7.40649 227.452 7.47779 225.384 7.62039C223.388 7.6917 221.427 7.79865 219.502 7.94125C217.648 8.08386 215.972 8.26211 214.475 8.47601C214.832 7.19259 215.01 6.05176 215.01 5.05354C215.01 4.26923 214.832 3.16406 214.475 1.73803C219.181 1.88063 223.78 2.02324 228.272 2.16584C232.764 2.23714 237.363 2.27279 242.069 2.27279C246.775 2.27279 251.374 2.23714 255.866 2.16584C260.358 2.02324 264.957 1.88063 269.662 1.73803C269.306 3.16406 269.128 4.30488 269.128 5.1605C269.128 6.08741 269.306 7.19259 269.662 8.47601C268.165 8.26211 266.454 8.08386 264.529 7.94125C262.675 7.79865 260.714 7.6917 258.646 7.62039C256.65 7.47779 254.618 7.40649 252.55 7.40649C250.554 7.33519 248.628 7.29954 246.775 7.29954C246.561 14.6436 246.454 22.0233 246.454 29.4386V47.8344C246.454 52.5403 246.525 57.1749 246.668 61.7382C246.882 66.3014 247.096 70.7934 247.309 75.2141C245.669 75.0715 243.923 75.0002 242.069 75.0002C240.215 75.0002 238.468 75.0715 236.828 75.2141C237.042 70.7934 237.22 66.3014 237.363 61.7382C237.577 57.1749 237.684 52.5403 237.684 47.8344V29.4386Z" fill="white"/>
<path d="M285.967 41.952C287.821 41.952 289.746 41.9877 291.742 42.059C293.739 42.1303 295.664 42.1659 297.518 42.1659C299.514 42.1659 301.51 42.1659 303.507 42.1659C305.503 42.0946 307.5 42.0233 309.496 41.952L297.625 14.7862L285.967 41.952ZM333.346 75.2141C332.348 75.0715 331.386 75.0002 330.459 75.0002C329.603 75.0002 328.676 75.0002 327.678 75.0002C326.68 75.0002 325.717 75.0002 324.79 75.0002C323.935 75.0002 323.008 75.0715 322.01 75.2141C321.51 73.5742 320.833 71.6134 319.978 69.3317C319.122 66.9788 318.159 64.5546 317.09 62.059C316.092 59.4922 315.058 56.9253 313.988 54.3585C312.919 51.7203 311.92 49.2248 310.994 46.8718C308.712 46.8005 306.395 46.7649 304.042 46.7649C301.689 46.6936 299.336 46.6579 296.983 46.6579C294.772 46.6579 292.598 46.6936 290.459 46.7649C288.32 46.7649 286.145 46.8005 283.935 46.8718C281.653 52.4333 279.585 57.7453 277.731 62.8077C275.878 67.7988 274.487 71.9342 273.56 75.2141C272.348 75.0715 271.029 75.0002 269.603 75.0002C268.177 75.0002 266.858 75.0715 265.646 75.2141C271.421 62.7364 277.054 50.3299 282.544 37.9948C288.034 25.6596 293.56 13.1106 299.122 0.347656H301.154C302.865 4.48313 304.719 8.97512 306.715 13.8236C308.712 18.6008 310.744 23.4493 312.812 28.3691C314.879 33.2889 316.947 38.173 319.015 43.0215C321.083 47.87 323.008 52.3977 324.79 56.6045C326.644 60.7399 328.284 64.4476 329.71 67.7275C331.207 71.0073 332.42 73.5029 333.346 75.2141Z" fill="white"/>
<path d="M402.124 14.7862C401.055 13.5028 399.7 12.2193 398.06 10.9359C396.491 9.65248 394.709 8.54731 392.712 7.62039C390.787 6.62217 388.613 5.83786 386.188 5.26745C383.835 4.62574 381.304 4.30488 378.595 4.30488C374.174 4.30488 370.039 4.98225 366.188 6.33697C362.409 7.6917 359.094 9.79509 356.242 12.6471C353.461 15.4279 351.251 18.993 349.611 23.3424C348.042 27.6204 347.258 32.7185 347.258 38.6365C347.258 43.8415 347.971 48.5474 349.397 52.7542C350.823 56.961 352.891 60.526 355.6 63.4494C358.381 66.3014 361.732 68.5118 365.654 70.0804C369.646 71.649 374.138 72.4334 379.13 72.4334C380.627 72.4334 382.195 72.3621 383.835 72.2195C385.475 72.0768 387.044 71.8629 388.541 71.5777C390.11 71.2925 391.536 70.936 392.819 70.5082C394.174 70.0804 395.315 69.5813 396.242 69.0109C396.313 66.8719 396.349 64.7328 396.349 62.5938C396.42 60.4547 396.456 58.28 396.456 56.0697C396.456 53.5741 396.384 51.0786 396.242 48.583C396.171 46.0875 396.064 43.6989 395.921 41.4173C397.704 41.7738 399.415 41.952 401.055 41.952C401.839 41.952 402.623 41.9164 403.408 41.8451C404.192 41.7738 404.941 41.6312 405.654 41.4173C405.511 43.0572 405.404 45.6597 405.333 49.2248C405.261 52.7185 405.226 57.3531 405.226 63.1285C405.226 64.5546 405.226 66.0162 405.226 67.5136C405.297 68.9396 405.333 70.3656 405.333 71.7916C403.835 72.3621 401.946 72.9681 399.664 73.6098C397.454 74.1802 395.065 74.6437 392.499 75.0002C390.003 75.428 387.472 75.7845 384.905 76.0697C382.409 76.4262 380.128 76.6045 378.06 76.6045C371.714 76.6045 365.974 75.8558 360.841 74.3585C355.778 72.7899 351.465 70.4013 347.9 67.1927C344.334 63.9841 341.589 59.9913 339.664 55.2141C337.739 50.4369 336.777 44.911 336.777 38.6365C336.777 32.5759 337.775 27.1926 339.771 22.4867C341.768 17.7095 344.584 13.681 348.22 10.4011C351.857 7.12129 356.242 4.62574 361.375 2.91451C366.58 1.20327 372.32 0.347656 378.595 0.347656C382.231 0.347656 385.44 0.56156 388.22 0.989367C391.073 1.34587 393.568 1.84498 395.707 2.4867C397.917 3.12841 399.843 3.80577 401.483 4.51878C403.122 5.2318 404.584 5.90916 405.868 6.55087C405.297 7.54909 404.762 8.83252 404.263 10.4011C403.835 11.9698 403.55 13.4315 403.408 14.7862H402.124Z" fill="white"/>
<path d="M424.084 29.3317C424.084 24.6258 423.977 19.9912 423.763 15.4279C423.62 10.8646 423.442 6.30132 423.228 1.73803C426.437 1.88063 429.61 2.02324 432.747 2.16584C435.955 2.23714 439.164 2.27279 442.372 2.27279C445.581 2.27279 448.754 2.23714 451.891 2.16584C455.028 2.02324 458.201 1.88063 461.41 1.73803C461.196 2.80755 461.089 3.87707 461.089 4.94659C461.089 6.01611 461.196 7.08564 461.41 8.15516C459.128 8.01255 457.025 7.86995 455.1 7.72735C453.246 7.58475 451.249 7.44214 449.11 7.29954C447.043 7.15694 444.761 7.04998 442.266 6.97868C439.77 6.83608 436.775 6.76478 433.282 6.76478C433.21 9.04643 433.103 11.2211 432.961 13.2889C432.889 15.3566 432.854 17.7095 432.854 20.3477C432.854 23.1284 432.854 25.8379 432.854 28.4761C432.925 31.1142 432.961 33.1106 432.961 34.4654C436.098 34.4654 438.914 34.4297 441.41 34.3584C443.905 34.2871 446.187 34.2158 448.255 34.1445C450.323 34.0019 452.212 33.895 453.923 33.8237C455.706 33.6811 457.381 33.5385 458.95 33.3958C458.736 34.4654 458.629 35.5705 458.629 36.7114C458.629 37.7809 458.736 38.8504 458.95 39.9199C457.096 39.706 454.921 39.5278 452.426 39.3852C450.002 39.2426 447.542 39.1713 445.046 39.1713C442.622 39.1 440.305 39.0643 438.094 39.0643C435.955 38.993 434.244 38.9574 432.961 38.9574C432.961 39.5991 432.925 40.3121 432.854 41.0964C432.854 41.8094 432.854 42.7363 432.854 43.8772V54.4654C432.854 58.5296 432.854 61.8808 432.854 64.5189C432.925 67.1571 432.996 69.1535 433.068 70.5082C435.421 70.5082 437.916 70.5082 440.554 70.5082C443.264 70.5082 445.902 70.4726 448.469 70.4013C451.107 70.2587 453.567 70.1161 455.848 69.9735C458.201 69.7596 460.233 69.4744 461.945 69.1178C461.802 69.617 461.695 70.1874 461.624 70.8291C461.624 71.3995 461.624 71.9342 461.624 72.4334C461.624 73.5742 461.731 74.5011 461.945 75.2141C458.736 75.0715 455.528 75.0002 452.319 75.0002C449.182 75.0002 445.973 75.0002 442.693 75.0002C439.413 75.0002 436.169 75.0002 432.961 75.0002C429.752 75.0002 426.508 75.0715 423.228 75.2141C423.442 70.6508 423.62 66.1232 423.763 61.6312C423.977 57.0679 424.084 52.4333 424.084 47.7274V29.3317Z" fill="white"/>
<path d="M475.207 61.3103C475.777 62.5938 476.526 63.9128 477.453 65.2676C478.451 66.551 479.627 67.7275 480.982 68.797C482.408 69.8665 484.048 70.7578 485.902 71.4708C487.756 72.1125 489.824 72.4334 492.105 72.4334C494.458 72.4334 496.562 72.0412 498.415 71.2569C500.34 70.4013 501.945 69.2961 503.228 67.9414C504.583 66.5153 505.617 64.8754 506.33 63.0216C507.043 61.0964 507.399 59.0643 507.399 56.9253C507.399 53.6454 506.544 51.0429 504.832 49.1178C503.193 47.1927 501.125 45.5884 498.629 44.305C496.134 43.0215 493.424 41.8451 490.501 40.7755C487.649 39.706 484.975 38.3869 482.479 36.8183C479.984 35.1784 477.881 33.1106 476.169 30.6151C474.529 28.1195 473.709 24.7684 473.709 20.5616C473.709 17.5669 474.244 14.8575 475.314 12.4332C476.383 9.93769 477.916 7.79865 479.913 6.01611C481.98 4.23358 484.44 2.8432 487.292 1.84499C490.144 0.846766 493.353 0.347656 496.918 0.347656C500.34 0.347656 503.299 0.775463 505.795 1.63108C508.291 2.4154 510.608 3.66317 512.747 5.3744C512.105 6.58653 511.57 7.86995 511.143 9.22468C510.715 10.5794 510.287 12.2906 509.859 14.3584H508.576C508.219 13.3602 507.72 12.2906 507.078 11.1498C506.508 9.93769 505.688 8.83252 504.619 7.8343C503.62 6.83608 502.408 6.01612 500.982 5.3744C499.556 4.66139 497.845 4.30488 495.849 4.30488C493.852 4.30488 491.998 4.62574 490.287 5.26745C488.647 5.90916 487.185 6.83608 485.902 8.0482C484.69 9.18903 483.727 10.5794 483.014 12.2193C482.373 13.8593 482.052 15.6418 482.052 17.5669C482.052 20.9181 482.872 23.5563 484.512 25.4814C486.223 27.4065 488.326 29.0465 490.822 30.4012C493.317 31.6846 495.991 32.8611 498.843 33.9306C501.767 34.9288 504.476 36.1766 506.972 37.6739C509.467 39.1713 511.535 41.0964 513.175 43.4493C514.886 45.8023 515.742 48.9395 515.742 52.8611C515.742 56.141 515.136 59.2426 513.923 62.166C512.783 65.0893 511.071 67.6562 508.79 69.8665C506.579 72.0056 503.834 73.6811 500.554 74.8933C497.346 76.0341 493.674 76.6045 489.538 76.6045C485.118 76.6045 481.517 76.0341 478.736 74.8933C476.027 73.6811 473.745 72.3264 471.891 70.8291C472.533 69.1891 472.961 67.7275 473.175 66.444C473.46 65.0893 473.709 63.3781 473.923 61.3103H475.207Z" fill="white"/>
</svg>
