<?xml version="1.0" encoding="UTF-8"?>
<svg id="Layer_1" data-name="Layer 1" xmlns="http://www.w3.org/2000/svg" viewBox="0 0 131.92 61.82">
  <defs>
    <style>
      .cls-1 {
        letter-spacing: .01em;
      }

      .cls-2, .cls-3 {
        fill: #fff;
      }

      .cls-4 {
        letter-spacing: -.02em;
      }

      .cls-5 {
        letter-spacing: -.05em;
      }

      .cls-3 {
        font-family: OptimalC, OptimalC;
        font-size: 31.35px;
      }

      .cls-6 {
        letter-spacing: -.1em;
      }

      .cls-7 {
        letter-spacing: -.04em;
      }

      .cls-8 {
        letter-spacing: -.05em;
      }
    </style>
  </defs>
  <text class="cls-3" transform="translate(0 26.24)"><tspan class="cls-5" x="0" y="0">C</tspan><tspan class="cls-8" x="16.74" y="0">O</tspan><tspan class="cls-1" x="36.77" y="0">T</tspan><tspan class="cls-6" x="52.76" y="0">T</tspan><tspan class="cls-7" x="65.21" y="0">A</tspan><tspan class="cls-4" x="83.14" y="0">GES</tspan></text>
  <path class="cls-2" d="M44.27,44.95h2.61l-1.27-3.6h-.02l-1.32,3.6Zm2.73,.34h-2.85l-.92,2.46h1.66v.34h-3.26v-.34h1.24l3.28-8.85h.21l3.14,8.85h1.21v.34h-4.28v-.34h1.45l-.88-2.46Zm-11.23-5.84v3.85h.81c.29,0,.53-.03,.73-.08,.2-.06,.38-.21,.54-.45,.16-.24,.25-.63,.27-1.15h.35v3.81h-.35c-.04-.72-.18-1.2-.42-1.43-.24-.23-.61-.35-1.12-.35h-.81v4.11h1.83c1.04,0,1.75-.22,2.15-.65,.4-.44,.64-1.11,.71-2.01h.34l-.09,3.01h-7.97v-.34h1.43v-8.3h-1.43v-.34h7.64l.15,2.4h-.34c-.12-.73-.35-1.25-.72-1.57-.36-.32-.97-.48-1.81-.48h-1.91Zm-4.68-.44l.04,2.33h-.32c-.45-1.4-1.24-2.1-2.36-2.1-.63,0-1.11,.17-1.46,.52-.35,.35-.52,.71-.52,1.08,0,.35,.14,.64,.43,.88,.29,.24,.81,.43,1.58,.56,.76,.13,1.34,.29,1.74,.48,.4,.19,.74,.51,1.01,.95,.27,.44,.41,.95,.41,1.52,0,.88-.29,1.61-.86,2.2-.57,.59-1.29,.88-2.13,.88-.69,0-1.38-.26-2.07-.77l-.63,.56h-.23v-2.51h.29c.26,.79,.63,1.39,1.11,1.78,.47,.4,.99,.59,1.56,.59s1.07-.18,1.54-.55c.47-.37,.7-.84,.7-1.4,0-.47-.16-.87-.48-1.2-.33-.32-.85-.54-1.58-.67-.72-.12-1.28-.27-1.67-.43-.39-.16-.72-.45-1-.85-.28-.4-.42-.85-.42-1.34,0-.68,.24-1.28,.72-1.82,.48-.54,1.14-.8,1.96-.8,.69,0,1.34,.22,1.94,.66,.16-.16,.31-.34,.43-.55h.27Z"/>
  <path class="cls-2" d="M103.92,39.52v3.86h.81c.29,0,.53-.03,.73-.08,.2-.06,.38-.21,.54-.45,.16-.25,.25-.63,.27-1.16h.35v3.82h-.35c-.04-.72-.18-1.2-.42-1.43-.24-.23-.61-.35-1.12-.35h-.81v4.12h1.83c1.04,0,1.75-.22,2.16-.66,.4-.43,.64-1.11,.72-2.02h.34l-.09,3.02h-7.97v-.34h1.43v-8.33h-1.43v-.34h7.64l.15,2.41h-.34c-.12-.73-.35-1.26-.72-1.58-.36-.32-.97-.48-1.81-.48h-1.91Zm-4.26,8.67h-6.89v-.34l5.16-8.33h-2.12c-.77,0-1.31,.16-1.62,.47-.3,.32-.52,.85-.66,1.6h-.32l.14-2.42h6.45v.24l-5.24,8.43h2.2c.63,0,1.11-.06,1.42-.19,.32-.12,.6-.43,.84-.92,.24-.49,.39-.99,.45-1.51h.33l-.15,2.96Zm-12.88-8.67v3.86h.81c.29,0,.53-.03,.73-.08,.2-.06,.38-.21,.54-.45,.16-.25,.25-.63,.27-1.16h.35v3.82h-.35c-.04-.72-.18-1.2-.42-1.43-.24-.23-.62-.35-1.12-.35h-.81v4.12h1.83c1.04,0,1.76-.22,2.16-.66,.4-.43,.64-1.11,.71-2.02h.34l-.09,3.02h-7.97v-.34h1.43v-8.33h-1.43v-.34h7.64l.15,2.41h-.34c-.12-.73-.35-1.26-.72-1.58-.36-.32-.97-.48-1.81-.48h-1.91Zm-9.28,0v3.86h.81c.29,0,.53-.03,.73-.08,.2-.06,.38-.21,.54-.45,.16-.25,.25-.63,.27-1.16h.35v3.82h-.35c-.04-.72-.18-1.2-.42-1.43-.25-.23-.62-.35-1.12-.35h-.81v4.12h1.83c1.04,0,1.75-.22,2.15-.66,.4-.43,.64-1.11,.71-2.02h.34l-.09,3.02h-7.97v-.34h1.43v-8.33h-1.43v-.34h7.64l.15,2.41h-.34c-.12-.73-.35-1.26-.72-1.58-.36-.32-.96-.48-1.81-.48h-1.91Zm-9.98,0v3.73h1.21c.52,0,.91-.03,1.19-.11,.27-.07,.49-.25,.65-.54,.16-.29,.25-.76,.25-1.4,0-.52-.08-.91-.25-1.15-.16-.24-.37-.39-.6-.45-.24-.06-.54-.08-.92-.08h-1.52Zm-1.59,8.33v-8.33h-1.41v-.34h4.92c.64,0,1.17,.06,1.59,.17,.41,.11,.77,.34,1.07,.69,.3,.35,.45,.76,.45,1.21,0,.57-.22,1.03-.66,1.38-.44,.35-1.18,.62-2.22,.8v.03c.75,.15,1.37,.44,1.85,.86,.48,.43,.72,1.15,.72,2.17,0,.58,.07,.95,.2,1.12,.14,.16,.33,.24,.57,.24,.15,0,.34-.03,.56-.09v.33c-.39,.14-.76,.2-1.13,.2-.74,0-1.26-.21-1.56-.62-.31-.41-.45-.81-.45-1.21l.03-1.14c0-.4-.13-.79-.38-1.18-.25-.39-.83-.58-1.72-.58h-.84v4.28h1.41v.34h-4.42v-.34h1.41Zm-6.74-4.2h-1.22v4.2h1.26c.47,0,.84-.04,1.12-.11,.28-.07,.52-.26,.71-.58,.2-.31,.29-.8,.29-1.47,0-.71-.15-1.23-.45-1.56-.3-.32-.87-.49-1.72-.49m.15-4.13h-1.37v3.78h1.23c.84,0,1.37-.16,1.6-.49,.23-.33,.35-.84,.35-1.55,0-.55-.08-.95-.23-1.2-.15-.25-.35-.4-.58-.46-.23-.06-.57-.08-1-.08m-2.97,8.33v-8.33h-1.39v-.34h4.64c.51,0,.94,.03,1.29,.08,.35,.05,.68,.19,1,.4,.32,.21,.55,.48,.7,.8,.14,.31,.21,.62,.21,.9,0,1.07-.82,1.77-2.46,2.1v.03c1.85,.3,2.78,1.07,2.78,2.31,0,.31-.09,.63-.25,.96-.17,.34-.43,.63-.79,.88-.36,.25-.73,.4-1.11,.46-.38,.06-.85,.09-1.42,.09h-4.59v-.34h1.39Z"/>
</svg>