<svg id="Layer_1" data-name="Layer 1" xmlns="http://www.w3.org/2000/svg" viewBox="0 0 291.6377 45.08394"><defs><style>.cls-1{fill:#ffcb05;}.cls-2{fill:#fff;}</style></defs><polygon class="cls-1" points="28.92 41.839 62.564 40.749 62.564 40.645 28.379 39.522 28.92 41.839"/><polygon class="cls-1" points="262.717 42.475 229.074 41.384 229.074 41.28 263.258 40.158 262.717 42.475"/><path class="cls-2" d="M18.8916,24.80811H0v-.23536c1.21-1.10937,1.21-5.81543,1.21-7.16015V5.24414c0-1.34473,0-3.56348-1.21-4.67236V.33643H5.31055V.57178C3.9668,1.68066,3.9668,3.89941,3.9668,5.24414V22.3877H7.62988c1.31153,0,9.61426-.0337,13.24512-1.44532l.13379.13428Z"/><path class="cls-2" d="M31.501,17.4126c0,1.34472,0,6.05078,1.5459,7.16015v.23536H27.19824v-.23536c1.5459-1.10937,1.5459-5.81543,1.5459-7.16015V5.24414c0-1.34473,0-3.56348-1.5459-4.67236V.33643h5.84864V.57178C31.501,1.68066,31.501,3.89941,31.501,5.24414Z"/><path class="cls-2" d="M55.97363,0A20.63957,20.63957,0,0,1,66.46191,2.82373L65.45312,6.35352h-.30175C63,3.76514,59.13379,2.52148,55.53711,2.52148c-5.9502,0-11.46289,3.395-11.46289,10.01709,0,6.58838,5.44629,9.91651,11.76562,9.91651,2.958,0,6.52149-.73975,8.67286-2.21875V15.32861c-1.27735,0-5.58008,0-8.57227,1.14307l-.13477-.13477,1.9502-3.42871H68.042v.23535a8.62624,8.62624,0,0,0-.80664,3.93311,9.1676,9.1676,0,0,0,.90723,4.23535v.23535A23.67357,23.67357,0,0,1,55.80566,25.144c-7.73144,0-14.58886-4.13427-14.58886-12.40381C41.2168,4.60547,47.87305,0,55.97363,0Z"/><path class="cls-2" d="M97.62695,11.4292V5.24414c0-1.34473,0-3.56348-1.34472-4.67236V.33643h5.3789V.57178c-1.27734,1.10888-1.27734,3.32763-1.27734,4.67236V17.4126c0,1.34472,0,6.05078,1.27734,7.16015v.23536h-5.3789v-.23536c1.34472-1.10937,1.34472-5.81543,1.34472-7.16015v-3.563H80.11328v3.563c0,1.34472,0,6.05078,1.31152,7.16015v.23536H76.0127v-.23536c1.34472-1.10937,1.34472-5.81543,1.34472-7.16015V5.24414c0-1.34473,0-3.56348-1.34472-4.67236V.33643h5.4121V.57178c-1.31152,1.10888-1.31152,3.32763-1.31152,4.67236V11.4292Z"/><path class="cls-2" d="M110.47168,0h.33594l2.68945.33643h16.10156L132.28809,0l.168.13477-2.31933,4.06738h-.23535c-.33692-.874-1.27735-1.44531-2.99219-1.44531h-5.5459V17.4126c0,1.34472,0,6.05078,1.37793,7.16015v.23536h-5.54687v-.23536c1.41211-1.10937,1.41211-5.81543,1.41211-7.16015V2.75684h-4.50489a10.64794,10.64794,0,0,0-5.34472,1.44531l-.168-.13477Z"/><path class="cls-2" d="M160.25879,11.4292V5.24414c0-1.34473,0-3.56348-1.34473-4.67236V.33643H164.293V.57178c-1.27735,1.10888-1.27735,3.32763-1.27735,4.67236V17.4126c0,1.34472,0,6.05078,1.27735,7.16015v.23536h-5.37891v-.23536c1.34473-1.10937,1.34473-5.81543,1.34473-7.16015v-3.563H142.74512v3.563c0,1.34472,0,6.05078,1.31152,7.16015v.23536h-5.41211v-.23536c1.34473-1.10937,1.34473-5.81543,1.34473-7.16015V5.24414c0-1.34473,0-3.56348-1.34473-4.67236V.33643h5.41211V.57178c-1.31152,1.10888-1.31152,3.32763-1.31152,4.67236V11.4292Z"/><path class="cls-2" d="M199.47852,12.57227c0,7.79882-6.75684,12.57177-14.01758,12.57177s-14.05176-4.773-14.05176-12.57177S178.2002,0,185.46094,0,199.47852,4.77344,199.47852,12.57227Zm-25.21192,0c0,6.353,5.07617,10.05078,11.19434,10.05078,6.11718,0,11.16015-3.69776,11.16015-10.05078,0-6.35352-5.043-10.05079-11.16015-10.05079C179.34277,2.52148,174.2666,6.21875,174.2666,12.57227Z"/><path class="cls-2" d="M209.98047,14.45459c0,4.77344,2.084,8.16846,8.60547,8.16846s8.80664-3.395,8.80664-8.16846V5.24414c0-1.34473,0-3.56348-1.31055-4.67236V.33643h5.34473V.57178c-1.27735,1.10888-1.27735,3.32763-1.27735,4.67236v9.68115c0,6.4541-4.26953,10.21875-11.3955,10.21875-7.32813,0-11.53028-3.76465-11.53028-10.21875V5.24414c0-1.34473,0-3.56348-1.27734-4.67236V.33643H211.291V.57178c-1.31055,1.10888-1.31055,3.32763-1.31055,4.67236Z"/><path class="cls-2" d="M259.56641,5.21045h-.23536c-1.27734-1.78174-5.47949-2.72266-9.00878-2.72266-4.77344,0-8.50489,1.748-8.50489,4.73975,0,2.958,3.66407,3.395,8.13477,3.79834,5.51269.50439,11.76562.90771,11.76562,6.52148,0,4.90772-4.74023,7.59668-12.001,7.59668a20.19208,20.19208,0,0,1-11.39551-3.09228L239.7666,19.127h.23535c1.78223,2.18506,6.15235,3.42871,10.48828,3.42871,5.58008,0,8.47071-2.084,8.47071-4.77295,0-2.82373-3.26074-3.4624-7.09278-3.86572-5.71386-.60547-12.80664-.63867-12.80664-6.28613C239.06152,3.05908,243.666,0,250.55762,0a23.411,23.411,0,0,1,10.4209,2.42041Z"/><path class="cls-2" d="M289.419,24.80811H269.28418v-.23536c1.21-1.10937,1.21-5.81543,1.21-7.16015V5.24414c0-1.34473,0-3.56348-1.21-4.67236V.33643H289.419l1.14355,3.832-.23535.13427c-1.61328-1.14257-5.10938-1.54589-8.53809-1.54589H273.251v8.63867h15.49609l.13477.23535-1.9502,3.16016h-.26855c-.90821-.70606-3.19336-.9751-5.07618-.9751H273.251V22.3877h6.21875c2.79,0,8.9414-.26856,11.96679-1.44532l.20118.13428Z"/><path class="cls-2" d="M74.89518,43.02144l.96-.55176a2.14339,2.14339,0,0,0,2.24218,1.523c1.1875,0,1.77539-.53955,1.77539-1.29541,0-.86328-.74414-1.15137-1.97949-1.53515-1.34277-.43164-2.63769-.85157-2.63769-2.41065a2.4232,2.4232,0,0,1,2.63769-2.37451,3.017,3.017,0,0,1,2.84278,1.835l-.93555.53955a1.95446,1.95446,0,0,0-1.90723-1.29492c-.89941,0-1.52246.47949-1.52246,1.24707,0,.77978.58691,1.06738,1.7627,1.43945,1.46289.47949,2.84277.91114,2.84277,2.53028,0,1.47509-1.1875,2.41064-2.90234,2.41064A3.15218,3.15218,0,0,1,74.89518,43.02144Z"/><path class="cls-2" d="M89.51726,43.873v1.05518H84.50358V36.53267h4.95313v1.05567H85.61882V40.167H89.1569v1.04346H85.61882V43.873Z"/><path class="cls-2" d="M98.03679,43.04537H94.25847l-.6836,1.88281h-1.1875l3.13086-8.39551H96.777l3.13086,8.39551h-1.1875ZM97.653,42.00191l-1.51172-4.1377-1.499,4.1377Z"/><path class="cls-2" d="M114.28386,42.55367a2.37816,2.37816,0,0,1-2.43457,2.37451h-3.62207V36.53267h3.35839a2.29643,2.29643,0,0,1,2.35059,2.291,2.08731,2.08731,0,0,1-.91113,1.751A2.13954,2.13954,0,0,1,114.28386,42.55367Zm-4.94141-4.97754V40.143h2.24316a1.284,1.284,0,0,0,0-2.56689Zm3.83789,4.9414a1.33375,1.33375,0,0,0-1.33105-1.35546h-2.50684v2.72265h2.50684A1.33655,1.33655,0,0,0,113.18034,42.51753Z"/><path class="cls-2" d="M120.93522,41.71382h-1.97949v3.21436H117.8405V36.53267h3.3584a2.59082,2.59082,0,0,1,.875,5.0376l1.97949,3.35791H122.818Zm-1.97949-1.00732h2.24317a1.56664,1.56664,0,0,0,0-3.13037h-2.24317Z"/><path class="cls-2" d="M132.17741,43.873v1.05518h-5.01367V36.53267h4.95312v1.05567H128.279V40.167h3.53809v1.04346H128.279V43.873Z"/><path class="cls-2" d="M140.652,43.873v1.05518h-5.01367V36.53267h4.95312v1.05567h-3.83789V40.167h3.53809v1.04346h-3.53809V43.873Z"/><path class="cls-2" d="M149.4362,43.873v1.05518h-5.48144V43.9565l4.05371-6.36816h-3.94532V36.53267h5.27637v.95947L145.27409,43.873Z"/><path class="cls-2" d="M157.944,43.873v1.05518h-5.01367V36.53267h4.95313v1.05567h-3.83789V40.167h3.53808v1.04346h-3.53808V43.873Z"/><path class="cls-2" d="M169.70476,41.71382h-1.9795v3.21436H166.61V36.53267h3.3584a2.59082,2.59082,0,0,1,.875,5.0376l1.97949,3.35791h-1.23535Zm-1.9795-1.00732h2.24317a1.56664,1.56664,0,0,0,0-3.13037h-2.24317Z"/><path class="cls-2" d="M181.18815,43.873v1.05518h-5.01367V36.53267h4.95313v1.05567h-3.83789V40.167h3.53808v1.04346h-3.53808V43.873Z"/><path class="cls-2" d="M184.04753,43.02144l.96-.55176a2.14339,2.14339,0,0,0,2.24219,1.523c1.1875,0,1.77539-.53955,1.77539-1.29541,0-.86328-.74414-1.15137-1.97949-1.53515-1.34278-.43164-2.6377-.85157-2.6377-2.41065a2.4232,2.4232,0,0,1,2.6377-2.37451,3.017,3.017,0,0,1,2.84277,1.835l-.93555.53955a1.95443,1.95443,0,0,0-1.90722-1.29492c-.89942,0-1.52247.47949-1.52247,1.24707,0,.77978.58692,1.06738,1.7627,1.43945,1.46289.47949,2.84277.91114,2.84277,2.53028,0,1.47509-1.1875,2.41064-2.90234,2.41064A3.15217,3.15217,0,0,1,184.04753,43.02144Z"/><path class="cls-2" d="M192.59147,40.73043a4.34766,4.34766,0,1,1,4.34082,4.35351A4.312,4.312,0,0,1,192.59147,40.73043Zm7.57911,0a3.23789,3.23789,0,1,0-3.23829,3.2622A3.20272,3.20272,0,0,0,200.17058,40.73043Z"/><path class="cls-2" d="M206.95378,41.71382h-1.97949v3.21436h-1.11524V36.53267h3.3584a2.59082,2.59082,0,0,1,.875,5.0376l1.97949,3.35791h-1.23535Zm-1.97949-1.00732h2.24316a1.56664,1.56664,0,0,0,0-3.13037h-2.24316Z"/><path class="cls-2" d="M218.15983,37.58834h-2.48242v7.33984H214.5739V37.58834h-2.47071V36.53267h6.05664Z"/></svg>