<?xml version="1.0" encoding="UTF-8"?>
<svg id="Layer_1" data-name="Layer 1" xmlns="http://www.w3.org/2000/svg" viewBox="0 0 301.04 148.86">
  <defs>
    <style>
      .cls-1 {
        fill: #fff;
      }
    </style>
  </defs>
  <g>
    <path class="cls-1" d="M102.08,147.37l.61-.9c.59,.46,1.21,.81,1.85,1.06,.64,.24,1.28,.37,1.9,.37,.78,0,1.41-.16,1.89-.49,.48-.33,.73-.75,.73-1.27,0-.41-.17-.75-.52-1.02-.35-.27-.83-.42-1.44-.48-.15-.02-.36-.03-.64-.05-1.38-.1-2.32-.26-2.82-.49-.39-.19-.69-.43-.89-.73s-.3-.63-.3-1c0-.67,.3-1.23,.9-1.66s1.39-.65,2.35-.65c.7,0,1.39,.12,2.07,.35,.68,.23,1.33,.57,1.94,1.02l-.61,.87c-.52-.42-1.06-.73-1.63-.94-.57-.21-1.16-.32-1.76-.32-.63,0-1.16,.12-1.57,.37-.41,.25-.62,.55-.62,.92,0,.15,.03,.28,.1,.4,.07,.12,.17,.24,.3,.34,.34,.26,1.09,.42,2.24,.49,.53,.03,.94,.06,1.22,.1,.85,.1,1.53,.37,2.02,.82,.5,.45,.74,1.01,.74,1.66,0,.79-.34,1.43-1.02,1.94-.68,.51-1.58,.76-2.68,.76-.84,0-1.61-.12-2.33-.36-.72-.24-1.4-.62-2.05-1.12Z"/>
    <path class="cls-1" d="M113.58,148.64v-8.39h6.6v.97h-5.56v2.46h3.36v.97h-3.36v3.03h5.9v.97h-6.94Z"/>
    <path class="cls-1" d="M122.22,148.64l4.11-8.39h.87l4.16,8.39h-1.13l-1.14-2.26h-4.64l-1.11,2.26h-1.12Zm2.71-3.24h3.69l-1.86-3.72-1.84,3.72Z"/>
    <path class="cls-1" d="M140.62,148.64v-8.39h4.96c.83,0,1.45,.18,1.87,.53s.63,.87,.63,1.56c0,.33-.07,.63-.2,.9-.13,.26-.32,.48-.56,.64,.45,.26,.78,.58,1.01,.95s.34,.81,.34,1.29c0,.78-.25,1.39-.76,1.84-.51,.45-1.2,.68-2.07,.68h-5.23Zm1.04-5.08h4.01c.44,0,.78-.1,1.01-.3,.23-.2,.35-.49,.35-.86,0-.4-.11-.69-.34-.89-.23-.2-.57-.3-1.02-.3h-4.01v2.35Zm0,4.11h4.39c.48,0,.85-.14,1.13-.42,.27-.28,.41-.67,.41-1.15s-.14-.86-.41-1.15c-.27-.28-.65-.43-1.13-.43h-4.39v3.15Z"/>
    <path class="cls-1" d="M152.14,148.64v-8.39h4.81c.82,0,1.46,.21,1.93,.62,.47,.41,.7,.98,.7,1.71,0,.61-.18,1.13-.55,1.56-.37,.43-.85,.7-1.44,.81l2.1,3.69h-1.16l-2.1-3.67h-3.25v3.67h-1.04Zm1.04-4.65h3.7c.53,0,.93-.12,1.2-.35,.27-.23,.41-.58,.41-1.03s-.14-.78-.41-1.03c-.27-.25-.65-.37-1.14-.37h-3.76v2.78Z"/>
    <path class="cls-1" d="M162.89,148.64v-8.39h6.6v.97h-5.56v2.46h3.36v.97h-3.36v3.03h5.9v.97h-6.94Z"/>
    <path class="cls-1" d="M172.79,148.64v-8.39h6.6v.97h-5.56v2.46h3.36v.97h-3.36v3.03h5.9v.97h-6.94Z"/>
    <path class="cls-1" d="M181.4,148.64l5.66-7.43h-5.19v-.97h7.09l-5.54,7.43h5.51v.97h-7.53Z"/>
    <path class="cls-1" d="M192.01,148.64v-8.39h6.6v.97h-5.56v2.46h3.36v.97h-3.36v3.03h5.9v.97h-6.94Z"/>
  </g>
  <g>
    <path class="cls-1" d="M32.13,119.88c-.28,0-.41-.05-.41-.15s.09-.35,.28-.75c.19-.4,.23-1.11,.13-2.14l-4.74-32.18-10.93,30.07h-.72l-10.32-28.93-3.51,31.31c-.07,.83,0,1.45,.23,1.88,.22,.43,.34,.68,.34,.75s-.06,.11-.18,.13c-.12,.02-.24,.03-.36,.03H.41c-.28,0-.41-.05-.41-.15,0-.07,.15-.27,.46-.62,.31-.34,.53-.82,.67-1.44l3.51-31.82c.07-.86,0-1.46-.23-1.8-.22-.34-.34-.55-.34-.62s.06-.11,.18-.13c.12-.02,.24-.03,.36-.03h3.43l9.75,25.79,9.39-25.79h4.02c.28,0,.41,.05,.41,.15,0,.07-.1,.27-.31,.59-.21,.33-.28,.92-.21,1.78l4.64,31.25c.17,.86,.43,1.51,.77,1.93,.34,.43,.52,.68,.52,.75s-.06,.11-.18,.13c-.12,.02-.24,.03-.36,.03h-4.36Z"/>
    <path class="cls-1" d="M49.25,93.03c1.75-.7,3.64-1.06,5.67-1.06,2.78,0,4.91,.57,6.37,1.7,1.46,1.13,2.42,2.55,2.86,4.25,.45,1.7,.67,3.72,.67,6.06v6.86l-.05,6.39c.03,.65,.19,1.21,.46,1.68,.28,.46,.41,.73,.41,.8s-.06,.11-.18,.13c-.12,.02-.24,.03-.36,.03h-4.36c-.28,0-.41-.05-.41-.15,0-.07,.11-.29,.34-.67,.22-.38,.39-.79,.49-1.24-2.27,1.79-4.95,2.68-8.05,2.68-3.85,0-6.98-.81-9.39-2.42-2.41-1.62-3.61-3.92-3.61-6.91,0-2.48,.81-4.53,2.42-6.16,1.62-1.63,3.82-2.69,6.6-3.17l-4.02-6.5c1-.83,2.37-1.59,4.13-2.29Zm-3.51,24.32c1.31,1.72,3.76,2.58,7.38,2.58,2.13,0,3.85-.4,5.16-1.21,1.31-.81,2.29-2.02,2.94-3.64,.03-1.31,.05-3.61,.05-6.91-.48-2.2-1.38-3.77-2.68-4.69-1.31-.93-3.3-1.39-5.98-1.39-3.34,0-5.64,.83-6.91,2.48-1.27,1.65-1.91,3.85-1.91,6.6,0,2.41,.65,4.47,1.96,6.19Zm2.32-18.72c.34,.96,.72,2.01,1.13,3.15,1.2-.17,2.34-.26,3.4-.26,1.75,0,3.35,.16,4.8,.49,1.44,.33,2.73,.95,3.87,1.88-.03-2.54-.22-4.61-.54-6.19-.33-1.58-.97-2.84-1.93-3.76-.96-.93-2.39-1.39-4.28-1.39-1.44,0-2.83,.52-4.15,1.57-1.32,1.05-2.19,2.23-2.6,3.53l.31,.98Z"/>
    <path class="cls-1" d="M78.06,90.58c1.91-1.51,3.87-2.65,5.88-3.4,2.01-.76,3.77-1.13,5.29-1.13,.65,0,1.17,.19,1.55,.57,.38,.38,.57,.88,.57,1.5,0,.65-.19,1.17-.57,1.55-.38,.38-.88,.57-1.5,.57-.24,0-.5-.03-.77-.1-1.34-.21-2.6-.31-3.76-.31-4.16,0-7.08,1.33-8.77,4-1.69,2.67-2.53,6.76-2.53,12.3v10.93c0,.76,.15,1.38,.44,1.86,.29,.48,.44,.76,.44,.83s-.06,.11-.18,.13c-.12,.02-.24,.03-.36,.03h-4.36c-.28,0-.41-.05-.41-.15,0-.07,.15-.34,.44-.83,.29-.48,.44-1.1,.44-1.86v-20.27c0-.76-.15-1.37-.44-1.86-.29-.48-.44-.76-.44-.82s.06-.11,.18-.13c.12-.02,.24-.03,.36-.03h.34c.45,0,.85-.09,1.21-.26,.36-.17,.58-.28,.64-.31,.62-.38,1.19-.57,1.7-.57v3.3c1.17-2.17,2.71-4,4.62-5.52Zm9.28,28.31c.29-.48,.44-1.1,.44-1.86v-20.27c0-.76-.15-1.37-.44-1.86-.29-.48-.44-.76-.44-.82s.06-.11,.18-.13c.12-.02,.24-.03,.36-.03h.34c.45,0,.85-.09,1.21-.26s.58-.28,.64-.31c.62-.38,1.19-.57,1.7-.57v24.24c0,.76,.15,1.38,.44,1.86,.29,.48,.44,.76,.44,.83s-.06,.11-.18,.13c-.12,.02-.24,.03-.36,.03h-4.36c-.28,0-.41-.05-.41-.15,0-.07,.15-.34,.44-.83Z"/>
    <path class="cls-1" d="M108.98,91.97c2.79,0,4.91,.57,6.37,1.7,1.46,1.13,2.42,2.55,2.86,4.25,.45,1.7,.67,3.72,.67,6.06l-.05,13.25c.03,.65,.19,1.21,.46,1.68,.28,.46,.41,.73,.41,.8s-.06,.11-.18,.13c-.12,.02-.24,.03-.36,.03h-3.89v-6.19c.03-1.14,.05-3.66,.05-7.58,0-3.23-.12-5.74-.36-7.53-.24-1.79-.84-3.24-1.8-4.36-.96-1.12-2.49-1.68-4.59-1.68-1.41,0-2.71,.51-3.89,1.52-1.19,1.01-2.13,2.26-2.84,3.74-.71,1.48-1.06,2.85-1.06,4.13v15.11c0,.76,.15,1.38,.44,1.86,.29,.48,.44,.76,.44,.83s-.06,.11-.18,.13c-.12,.02-.24,.03-.36,.03h-4.36c-.28,0-.41-.05-.41-.15,0-.07,.15-.34,.44-.83,.29-.48,.44-1.1,.44-1.86v-20.27c0-.76-.15-1.37-.44-1.86-.29-.48-.44-.76-.44-.82s.06-.11,.18-.13c.12-.02,.24-.03,.36-.03h.34c.45,0,.85-.09,1.21-.26,.36-.17,.58-.28,.64-.31,.62-.38,1.19-.57,1.7-.57v4.23c2.1-3.37,4.83-5.05,8.2-5.05Zm5.85,26.92c.29-.48,.44-1.1,.44-1.86v2.84h-.46c-.28,0-.41-.05-.41-.15,0-.07,.15-.34,.44-.83Z"/>
    <path class="cls-1" d="M131.93,93.03c1.75-.7,3.64-1.06,5.67-1.06,2.78,0,4.91,.57,6.37,1.7,1.46,1.13,2.42,2.55,2.86,4.25,.45,1.7,.67,3.72,.67,6.06v6.86l-.05,6.39c.03,.65,.19,1.21,.46,1.68,.28,.46,.41,.73,.41,.8s-.06,.11-.18,.13c-.12,.02-.24,.03-.36,.03h-4.36c-.28,0-.41-.05-.41-.15,0-.07,.11-.29,.34-.67,.22-.38,.39-.79,.49-1.24-2.27,1.79-4.95,2.68-8.05,2.68-3.85,0-6.98-.81-9.39-2.42-2.41-1.62-3.61-3.92-3.61-6.91,0-2.48,.81-4.53,2.42-6.16,1.62-1.63,3.82-2.69,6.6-3.17l-4.02-6.5c1-.83,2.37-1.59,4.13-2.29Zm-3.51,24.32c1.31,1.72,3.76,2.58,7.38,2.58,2.13,0,3.85-.4,5.16-1.21,1.31-.81,2.29-2.02,2.94-3.64,.03-1.31,.05-3.61,.05-6.91-.48-2.2-1.38-3.77-2.68-4.69-1.31-.93-3.3-1.39-5.98-1.39-3.34,0-5.64,.83-6.91,2.48-1.27,1.65-1.91,3.85-1.91,6.6,0,2.41,.65,4.47,1.96,6.19Zm2.32-18.72c.34,.96,.72,2.01,1.13,3.15,1.2-.17,2.34-.26,3.4-.26,1.75,0,3.35,.16,4.8,.49,1.44,.33,2.73,.95,3.87,1.88-.03-2.54-.22-4.61-.54-6.19-.33-1.58-.97-2.84-1.93-3.76-.96-.93-2.39-1.39-4.28-1.39-1.44,0-2.83,.52-4.15,1.57-1.32,1.05-2.19,2.23-2.6,3.53l.31,.98Z"/>
    <path class="cls-1" d="M165.4,83.26c.28,0,.41,.05,.41,.15,0,.07-.02,.19-.05,.36-.03,.17-.05,.36-.05,.57,0,.58,.15,1.29,.46,2.11l10.78,27.85,9.7-28.47c.14-.45,.21-.86,.21-1.24,0-.27-.04-.52-.1-.75-.07-.22-.1-.37-.1-.44s.06-.11,.18-.13c.12-.02,.24-.03,.36-.03h1.78c.27,0,.41,.05,.41,.15,0,.07-.22,.29-.67,.67-.45,.38-.84,1.07-1.19,2.06l-11.5,33.73h-.98l-12.53-33.52c-.38-.96-.81-1.68-1.29-2.14-.48-.46-.72-.73-.72-.8s.06-.11,.18-.13c.12-.02,.24-.03,.36-.03h4.36Z"/>
    <path class="cls-1" d="M191.21,118.9c.29-.48,.44-1.1,.44-1.86v-20.27c0-.76-.15-1.37-.44-1.86-.29-.48-.44-.76-.44-.82s.06-.11,.18-.13c.12-.02,.24-.03,.36-.03h.34c.45,0,.85-.09,1.21-.26,.36-.17,.58-.28,.64-.31,.62-.38,1.19-.57,1.7-.57v24.24c0,.76,.15,1.38,.44,1.86,.29,.48,.44,.76,.44,.83s-.06,.11-.18,.13c-.12,.02-.24,.03-.36,.03h-4.36c-.28,0-.41-.05-.41-.15,0-.07,.15-.34,.44-.83Zm.39-32.28c.38-.38,.89-.57,1.55-.57,.62,0,1.12,.19,1.5,.57,.38,.38,.57,.88,.57,1.5,0,.24-.02,.43-.05,.57,.38-.55,.76-1.39,1.13-2.53,.48-1.37,1-2.42,1.55-3.15,.55-.72,1.41-1.1,2.58-1.13h.67c.45,0,.85-.09,1.21-.26s.58-.28,.64-.31c.62-.38,1.19-.57,1.7-.57v36.31c0,.76,.15,1.38,.44,1.86,.29,.48,.44,.76,.44,.83s-.06,.11-.18,.13c-.12,.02-.24,.03-.36,.03h-4.36c-.28,0-.41-.05-.41-.15,0-.07,.15-.34,.44-.83,.29-.48,.44-1.1,.44-1.86v-32.34c0-.79-.22-1.55-.67-2.27-.93,.04-1.63,.39-2.11,1.06-.48,.67-.95,1.62-1.39,2.86-.48,1.27-.97,2.24-1.47,2.89s-1.25,.98-2.24,.98c-.65,0-1.18-.19-1.57-.57-.4-.38-.59-.89-.59-1.55,0-.62,.19-1.12,.57-1.5Z"/>
    <path class="cls-1" d="M213.91,118.9c.29,.48,.44,.76,.44,.83s-.06,.11-.18,.13c-.12,.02-.24,.03-.36,.03h-4.36c-.28,0-.41-.05-.41-.15,0-.07,.15-.34,.44-.83,.29-.48,.44-1.1,.44-1.86v-32.34c0-.76-.15-1.37-.44-1.86-.29-.48-.44-.76-.44-.82s.06-.11,.18-.13c.12-.02,.24-.03,.36-.03h.34c.45,0,.85-.09,1.21-.26s.58-.28,.64-.31c.62-.38,1.19-.57,1.7-.57v36.31c0,.76,.15,1.38,.44,1.86Z"/>
    <path class="cls-1" d="M227.08,93.03c1.75-.7,3.64-1.06,5.67-1.06,2.78,0,4.91,.57,6.37,1.7,1.46,1.13,2.42,2.55,2.86,4.25,.45,1.7,.67,3.72,.67,6.06v6.86l-.05,6.39c.03,.65,.19,1.21,.46,1.68,.28,.46,.41,.73,.41,.8s-.06,.11-.18,.13c-.12,.02-.24,.03-.36,.03h-4.36c-.28,0-.41-.05-.41-.15,0-.07,.11-.29,.34-.67,.22-.38,.39-.79,.49-1.24-2.27,1.79-4.95,2.68-8.05,2.68-3.85,0-6.98-.81-9.39-2.42-2.41-1.62-3.61-3.92-3.61-6.91,0-2.48,.81-4.53,2.42-6.16,1.62-1.63,3.82-2.69,6.6-3.17l-4.02-6.5c1-.83,2.37-1.59,4.13-2.29Zm-3.51,24.32c1.31,1.72,3.76,2.58,7.38,2.58,2.13,0,3.85-.4,5.16-1.21,1.31-.81,2.29-2.02,2.94-3.64,.03-1.31,.05-3.61,.05-6.91-.48-2.2-1.38-3.77-2.68-4.69-1.31-.93-3.3-1.39-5.98-1.39-3.34,0-5.64,.83-6.91,2.48-1.27,1.65-1.91,3.85-1.91,6.6,0,2.41,.65,4.47,1.96,6.19Zm2.32-18.72c.34,.96,.72,2.01,1.13,3.15,1.2-.17,2.34-.26,3.4-.26,1.75,0,3.35,.16,4.8,.49,1.44,.33,2.73,.95,3.87,1.88-.03-2.54-.22-4.61-.54-6.19-.33-1.58-.97-2.84-1.93-3.76-.96-.93-2.39-1.39-4.28-1.39-1.44,0-2.83,.52-4.15,1.57-1.32,1.05-2.19,2.23-2.6,3.53l.31,.98Z"/>
    <path class="cls-1" d="M248.3,97.13c1.22-1.79,2.82-3.09,4.8-3.92,1.98-.83,4.1-1.24,6.37-1.24,1.2,0,2.49,.14,3.87,.41,1.62-1.96,3.42-2.94,5.41-2.94,.52,0,1.12,.09,1.81,.26l1.08,3.46c-.28-.55-.77-.97-1.5-1.26-.72-.29-1.51-.44-2.37-.44-.72,0-1.42,.09-2.09,.28-.67,.19-1.21,.47-1.62,.85,2.51,.69,4.55,1.97,6.11,3.84,1.56,1.87,2.35,4.34,2.35,7.4,0,2.72-.62,4.96-1.86,6.73-1.24,1.77-2.85,3.06-4.82,3.87-1.98,.81-4.1,1.21-6.37,1.21s-4.5-.41-6.4-1.24c-1.41,2.06-2.85,3.56-4.33,4.49,3.99-.89,7.7-1.34,11.14-1.34s6.38,.58,8.61,1.73c2.23,1.15,3.35,3.1,3.35,5.85s-1,4.68-2.99,5.78c-1.99,1.1-4.13,1.65-6.39,1.65-.96,0-1.81-.13-2.55-.39-.74-.26-1.57-.63-2.5-1.11-1-.55-1.72-.81-2.17-.77v-.46c.31-.04,.68,.03,1.11,.18,.43,.15,.87,.35,1.31,.59,.83,.38,1.56,.68,2.19,.9,.64,.22,1.32,.33,2.04,.33,.89,0,1.82-.21,2.79-.62,.96-.41,1.79-1.11,2.48-2.09,.69-.98,1.03-2.3,1.03-3.95,0-2.24-1.27-3.85-3.82-4.85-2.54-1-5.59-1.5-9.13-1.5-1.86,0-3.59,.12-5.21,.36-1.62,.24-2.79,.53-3.51,.88l-.21,.05v-.52c2.27-1,4.3-2.84,6.09-5.52-1.82-.93-3.27-2.24-4.33-3.95-1.07-1.7-1.6-3.81-1.6-6.32,0-2.68,.61-4.92,1.83-6.71Zm4.82,15.83c1.31-2.17,2.84-5.42,4.59-9.75,1.17-2.75,2.11-4.86,2.81-6.32,.7-1.46,1.49-2.76,2.35-3.89-.96-.31-2.1-.46-3.4-.46-6.22,0-9.33,3.77-9.33,11.3,0,4.26,1,7.31,2.99,9.13Zm6.34,2.11c3.47,0,5.91-1.03,7.3-3.09s2.09-4.78,2.09-8.15c0-5.74-1.79-9.28-5.36-10.62-.86,1-1.62,2.22-2.29,3.66-.67,1.44-1.56,3.54-2.66,6.29-.93,2.3-1.75,4.26-2.45,5.85-.71,1.6-1.49,3.09-2.35,4.46,1.44,1.07,3.35,1.6,5.72,1.6Z"/>
    <path class="cls-1" d="M295.16,118.82c-1.93,1.12-4.11,1.68-6.55,1.68s-4.74-.59-6.7-1.78c-1.96-1.19-3.5-2.86-4.62-5.03-1.12-2.17-1.68-4.66-1.68-7.48s.56-5.26,1.68-7.43c1.12-2.17,2.66-3.84,4.64-5.03,1.98-1.19,4.2-1.78,6.68-1.78,2.85,0,5.47,.8,7.84,2.4s3.9,4.31,4.59,8.12l-3.2-.1c-3.44,0-6.69,.77-9.75,2.3-3.06,1.53-5.83,3.38-8.3,5.54,.52,1.79,1.32,3.3,2.42,4.54,1.1,1.24,2.33,2.16,3.69,2.76,1.36,.6,2.66,.9,3.89,.9,2.2,0,4.01-.34,5.44-1.01,1.43-.67,2.79-1.9,4.1-3.69l.41,.41c-1.13,1.99-2.66,3.55-4.59,4.67Zm-15.52-9.26c2.23-2.1,4.87-3.92,7.92-5.47,3.04-1.55,6.45-2.32,10.24-2.32-.34-3.06-1.22-5.36-2.63-6.91-1.41-1.55-3.59-2.32-6.55-2.32s-5.25,1.2-6.88,3.61c-1.63,2.41-2.45,5.76-2.45,10.06,0,1.03,.12,2.15,.36,3.35Z"/>
  </g>
  <g>
    <path class="cls-1" d="M146.17,1.4s9.53,21.36,3.18,66.54c0,0,23.24-10.68,37.68-10.83,0,0,5.2-46.77-40.85-55.72Z"/>
    <path class="cls-1" d="M142.78,.24s-3.68,5.05,.43,9.96c0,0-4.4,3.32-10.47,3.32s-9.67-4.76-9.67-4.76c0,0,4.67,.58,7.46-2.45,2.79-3.03,6.29-7,12.35-6.2"/>
    <path class="cls-1" d="M145.75,15.09c-.24-.73-1.24-2.45-1.24-2.45l-.92,2.85s-.01,.03-.02,.06c0,0-.04,.14-.13,.4h0c-1.27,3.94-12.02,36.03-29.61,54.16,0,0,12.39,5.48,27.38,1.93,1.49-.35,2.67-1.48,3.1-2.94,.92-3.13,2.4-9.17,2.81-16.42l.04,.17c1.02-24.28-.22-34.6-1.41-37.76Z"/>
  </g>
</svg>