<?xml version="1.0" encoding="UTF-8"?>
<svg id="Layer_1" data-name="Layer 1" xmlns="http://www.w3.org/2000/svg" viewBox="0 0 168.6 47.72">
  <defs>
    <style>
      .cls-1 {
        fill: #fff;
      }
    </style>
  </defs>
  <g>
    <path class="cls-1" d="M18.89,.22c2.37,0,6.97,.3,6.97,4.65,0,2.55-1.82,5.05-5.95,5.05-.67,0-1.25-.12-2.72-.48v6.17c0,.53-.05,1.77,2.1,1.77h.42v.33h-7.82v-.33h.42c2.15,0,2.1-1.25,2.1-1.77V2.32c0-.52,.05-1.77-2.1-1.77h-.42V.22h7Zm-1.7,8.32c1,.33,1.83,.33,2.05,.33,2.45,0,3.57-1.77,3.57-3.7,0-3.55-2.8-3.9-4.07-3.9-.55,0-.92-.02-1.55,.1v7.17Z"/>
    <path class="cls-1" d="M29.61,17.4c1.15-.17,1.7-1.1,2.27-2.37L38.54,0h.22l6.67,15.02c.75,1.67,1.02,2.17,2.57,2.37v.33h-7v-.33c1.55-.27,1.75-.62,1.75-1.1,0-.3-.08-.7-.17-.95l-1.45-3.35h-6.6l-1.42,3.32c-.15,.33-.3,.62-.3,.95,0,.82,1.02,1.1,1.8,1.12v.33h-5v-.33Zm5.4-6.47h5.67l-2.85-6.52-2.82,6.52Z"/>
    <path class="cls-1" d="M63.46,16.55c2.45,0,3.62-.77,4.57-3.27l.3,.08-1.27,4.37h-13.72v-.33h.42c2.15,0,2.1-1.25,2.1-1.77V2.32c0-.52,.05-1.77-2.1-1.77h-.42V.22h7.82v.33h-.42c-2.15,0-2.1,1.25-2.1,1.77v14.22h4.82Z"/>
    <path class="cls-1" d="M72.66,17.4c1.15-.17,1.7-1.1,2.27-2.37L81.59,0h.22l6.67,15.02c.75,1.67,1.02,2.17,2.57,2.37v.33h-7v-.33c1.55-.27,1.75-.62,1.75-1.1,0-.3-.08-.7-.17-.95l-1.45-3.35h-6.6l-1.42,3.32c-.15,.33-.3,.62-.3,.95,0,.82,1.02,1.1,1.8,1.12v.33h-5v-.33Zm5.4-6.47h5.67l-2.85-6.52-2.82,6.52Z"/>
    <path class="cls-1" d="M111.23,.22l-11.27,16.32h7.1c2.3,0,3.5-.85,4.17-3.35h.33l-.9,4.52h-14.77L107.28,1.4h-5.65c-2.5,0-3.27,.58-3.7,3.02h-.32l.32-4.2h13.3Z"/>
    <path class="cls-1" d="M133.21,.22l-11.27,16.32h7.1c2.3,0,3.5-.85,4.17-3.35h.33l-.9,4.52h-14.77L129.26,1.4h-5.65c-2.5,0-3.27,.58-3.7,3.02h-.32l.32-4.2h13.3Z"/>
    <path class="cls-1" d="M139.94,8.9c0-5.47,4.1-8.9,8.62-8.9,4.8,0,8.15,3.97,8.15,9.05s-3.52,8.9-8.62,8.9c-4.82,0-8.15-4.07-8.15-9.05Zm13.72,.18c0-6.17-3.05-8.07-5.22-8.07-1.82,0-5.45,1.52-5.45,7.87,0,5.77,2.7,8.07,5.22,8.07,2.77,0,5.45-2.5,5.45-7.87Z"/>
  </g>
  <g>
    <path class="cls-1" d="M7.8,30.22c8.57,0,10.62,5.07,10.62,8.72,0,5.45-4.3,8.77-9.65,8.77H0v-.33H.42c2.15,0,2.1-1.25,2.1-1.77v-13.3c0-.52,.05-1.77-2.1-1.77h-.42v-.33H7.8Zm-2.5,16.2c1.05,.33,1.8,.35,2.45,.35,5.5,0,7.62-3.75,7.62-7.92,0-5.05-3.25-7.67-7.55-7.67-.85,0-1.67,.1-2.52,.33v14.92Z"/>
    <path class="cls-1" d="M39.12,33.85l-.38,.05c-.45-2.35-1.92-2.5-3.05-2.5h-4.82v6.55h4.5c.83,0,1.88-.12,1.95-2.5h.32v6.07h-.32c-.08-2.38-1.12-2.5-1.95-2.5h-4.5v7.52h4.82c2.45,0,3.62-.77,4.57-3.27l.3,.08-1.27,4.37h-13.72v-.33h.42c2.15,0,2.1-1.25,2.1-1.77v-13.3c0-.52,.05-1.77-2.1-1.77h-.42v-.33h13.32l.22,3.62Z"/>
    <path class="cls-1" d="M57.35,46.55c2.45,0,3.62-.77,4.57-3.27l.3,.08-1.27,4.37h-13.72v-.33h.42c2.15,0,2.1-1.25,2.1-1.77v-13.3c0-.52,.05-1.77-2.1-1.77h-.42v-.33h7.82v.33h-.42c-2.15,0-2.1,1.25-2.1,1.77v14.22h4.82Z"/>
    <path class="cls-1" d="M90.22,43.35l5.9-13.12h5.27v.33h-.42c-2.15,0-2.1,1.25-2.1,1.77v13.3c0,.53-.05,1.77,2.1,1.77h.42v.33h-7.82v-.33h.42c2.15,0,2.1-1.25,2.1-1.77v-12.65l-6.62,14.75h-.23l-6.57-14.8v12.7c0,.53-.05,1.77,2.1,1.77h.42v.33h-6.17v-.33h.42c2.15,0,2.1-1.25,2.1-1.77v-13.3c0-.52,.05-1.77-2.1-1.77h-.42v-.33h5.27l5.92,13.12Z"/>
    <path class="cls-1" d="M106.72,47.4c1.15-.17,1.7-1.1,2.27-2.37l6.65-15.02h.22l6.67,15.02c.75,1.67,1.02,2.17,2.57,2.37v.33h-7v-.33c1.55-.27,1.75-.62,1.75-1.1,0-.3-.08-.7-.17-.95l-1.45-3.35h-6.6l-1.42,3.32c-.15,.33-.3,.62-.3,.95,0,.82,1.02,1.1,1.8,1.12v.33h-5v-.33Zm5.4-6.47h5.67l-2.85-6.52-2.82,6.52Z"/>
    <path class="cls-1" d="M138.4,30.22c1.92,0,5.92,.18,5.92,4.42,0,2.7-2.12,4.22-4.17,4.55l4.77,6.17c.92,1.17,1.67,1.95,3.17,2.02v.33h-4.8l-6.02-8.25h-1.52v6.15c0,.53-.05,1.77,2.1,1.77h.42v.33h-7.82v-.33h.42c2.15,0,2.1-1.25,2.1-1.77v-13.3c0-.52,.05-1.77-2.1-1.77h-.42v-.33h7.95Zm-2.65,8.22c.38,.02,.72,.02,1.1,.02,3.35,0,4.62-1.92,4.62-3.77,0-1.95-1.4-3.62-3.97-3.62-.55,0-1.12,.07-1.75,.25v7.12Z"/>
    <path class="cls-1" d="M167.15,33.85l-.38,.05c-.45-2.35-1.92-2.5-3.05-2.5h-4.82v6.55h4.5c.83,0,1.88-.12,1.95-2.5h.32v6.07h-.32c-.08-2.38-1.12-2.5-1.95-2.5h-4.5v7.52h4.82c2.45,0,3.62-.77,4.57-3.27l.3,.08-1.27,4.37h-13.72v-.33h.42c2.15,0,2.1-1.25,2.1-1.77v-13.3c0-.52,.05-1.77-2.1-1.77h-.42v-.33h13.32l.22,3.62Z"/>
  </g>
</svg>