<svg width="251" height="79" viewBox="0 0 251 79" fill="none" xmlns="http://www.w3.org/2000/svg">
<g clip-path="url(#clip0_583_1590)">
<path d="M35.828 30.12V16.64C36.028 16.64 36.628 16.68 37.628 16.72C38.588 16.76 39.348 16.84 39.828 16.84C40.308 16.76 40.908 16.68 41.628 16.56C44.788 15.96 47.108 15 48.588 13.68C50.068 12.32 50.828 10.4 50.788 7.88001C50.828 6.04001 50.428 4.64001 49.748 3.64001C49.068 2.64001 47.908 1.92001 46.308 1.48001C44.748 1.04001 42.548 0.800005 39.708 0.800005H32.068V30.12C32.388 30.08 32.668 30.04 32.908 30C33.188 30 33.508 30 33.948 30C34.348 30 34.668 30 34.948 30.04C35.228 30.08 35.508 30.12 35.828 30.12ZM35.828 15.04V2.48001C38.068 2.36001 40.148 2.36001 42.028 2.52001C43.588 2.68001 44.788 3.28001 45.628 4.28001C46.468 5.28001 46.868 6.56001 46.868 8.12001C46.868 9.96001 46.268 11.52 45.068 12.76C43.868 14.04 42.188 14.8 40.068 15.04C38.428 15.16 37.028 15.16 35.828 15.04ZM80.4561 30.12L67.5361 0.160004H66.5761L53.1761 30.12C53.4161 30.08 53.6561 30.04 53.8561 30C54.0561 30 54.3361 30 54.6961 30C55.0161 30 55.3361 30 55.5761 30.04C55.7761 30.08 56.0161 30.12 56.2961 30.16C57.0161 27.68 58.4161 23.84 60.5361 18.6L71.4161 18.56C72.6961 21.48 74.2161 25.32 75.9361 30.12C76.2961 30.08 76.6561 30.04 76.9761 30C77.2561 30 77.6561 30 78.1761 30C78.4961 30 78.7361 30 78.8961 30C79.0561 30.04 79.2961 30.04 79.5761 30.04C79.8561 30.08 80.1361 30.12 80.4561 30.12ZM65.9761 5.80001L70.7361 16.76H61.2961L65.9761 5.80001ZM88.7289 28V0.800005C88.4889 0.800005 88.1689 0.800005 87.8089 0.840005C87.4489 0.880004 87.0889 0.920004 86.7689 0.960006C86.5289 0.880004 86.2089 0.840005 85.8489 0.800005C85.4489 0.800005 85.1689 0.800005 84.9689 0.800005V30H100.569C100.569 29.84 100.569 29.64 100.529 29.4C100.489 29.16 100.449 28.92 100.409 28.72C100.489 28.52 100.529 28.28 100.569 28.04C100.569 27.8 100.569 27.6 100.569 27.4C98.7689 27.68 97.4089 27.84 96.4889 27.88C92.2089 27.96 89.6089 28 88.7289 28ZM130.534 30.12L117.614 0.160004H116.654L103.254 30.12C103.494 30.08 103.734 30.04 103.934 30C104.134 30 104.414 30 104.774 30C105.094 30 105.414 30 105.654 30.04C105.854 30.08 106.094 30.12 106.374 30.16C107.094 27.68 108.494 23.84 110.614 18.6L121.494 18.56C122.774 21.48 124.294 25.32 126.014 30.12C126.374 30.08 126.734 30.04 127.054 30C127.334 30 127.734 30 128.254 30C128.574 30 128.814 30 128.974 30C129.134 30.04 129.374 30.04 129.654 30.04C129.934 30.08 130.214 30.12 130.534 30.12ZM116.054 5.80001L120.814 16.76H111.374L116.054 5.80001ZM144.447 11.64L131.927 29.08V30H156.087C156.087 29.84 156.087 29.64 156.047 29.4C156.007 29.16 155.967 28.92 155.927 28.72C156.007 28.52 156.047 28.28 156.087 28.04C156.087 27.8 156.087 27.6 156.087 27.4C151.847 27.8 147.847 28.12 144.087 28.12H137.527V28.04C143.487 18.92 149.727 10.12 156.247 1.60001V0.800005H133.727C133.767 1 133.807 1.20001 133.847 1.36001C133.847 1.56001 133.847 1.80001 133.847 2.08001C133.847 2.12001 133.807 2.56001 133.727 3.36001C136.287 3.16001 138.447 3.00001 140.207 2.88001C142.007 2.76001 143.807 2.76001 145.607 2.72001L150.527 2.64001V2.72001C149.687 3.96001 147.767 7.00001 144.447 11.64ZM170.658 11.64L158.138 29.08V30H182.298C182.298 29.84 182.298 29.64 182.258 29.4C182.218 29.16 182.178 28.92 182.138 28.72C182.218 28.52 182.258 28.28 182.298 28.04C182.298 27.8 182.298 27.6 182.298 27.4C178.058 27.8 174.058 28.12 170.298 28.12H163.738V28.04C169.698 18.92 175.938 10.12 182.458 1.60001V0.800005H159.938C159.978 1 160.018 1.20001 160.058 1.36001C160.058 1.56001 160.058 1.80001 160.058 2.08001C160.058 2.12001 160.018 2.56001 159.938 3.36001C162.498 3.16001 164.658 3.00001 166.418 2.88001C168.218 2.76001 170.018 2.76001 171.818 2.72001L176.738 2.64001V2.72001C175.898 3.96001 173.978 7.00001 170.658 11.64ZM185.429 15.44C185.429 18.48 186.109 21.16 187.429 23.48C188.709 25.76 190.589 27.52 192.989 28.76C195.389 30.04 198.149 30.72 201.229 30.72C206.029 30.64 209.949 29.2 212.989 26.32C216.029 23.4 217.549 19.56 217.549 14.8C217.549 11.6 216.829 8.88001 215.269 6.64001C213.749 4.44001 211.709 2.84001 209.229 1.80001C206.749 0.680004 204.109 0.160004 201.309 0.160004C198.349 0.160004 195.669 0.800005 193.269 2.04001C190.829 3.28001 188.909 5.08001 187.509 7.40001C186.109 9.72001 185.389 12.4 185.429 15.44ZM210.589 5.72001C211.669 7.08001 212.469 8.48001 212.829 9.96001C213.109 11.44 213.189 13.16 213.269 15.16C213.389 16.88 213.149 18.84 212.349 21.08C211.469 23.32 210.069 25.24 208.189 26.84C206.389 28.44 204.069 29.24 201.309 29.24C197.989 29.24 195.189 28.08 192.949 25.76C190.709 23.4 189.589 20.12 189.589 15.92C189.589 13.16 190.069 10.64 191.029 8.44001C191.989 6.24001 193.389 4.48001 195.229 3.32001C197.109 2.12001 199.269 1.56001 201.709 1.56001C203.469 1.56001 205.149 1.92001 206.709 2.64001C208.269 3.36001 209.549 4.40001 210.589 5.72001ZM0.701874 48.8V78H9.10188C12.0219 78 14.5019 77.8 16.5419 77.4C18.6219 77 20.4219 76.08 22.0219 74.72C25.6219 71.6 27.4219 67.4 27.4219 62.08C27.4219 57.44 25.8619 53.88 22.8219 51.36C21.2619 50.04 19.7419 49.2 18.1819 49.04C16.5819 48.84 14.0219 48.8 10.4619 48.8H0.701874ZM4.50188 76.08V50.48C5.74188 50.44 6.78188 50.4 7.66188 50.36C8.54188 50.32 9.30188 50.32 9.90188 50.32C13.1419 50.32 15.7419 50.72 17.6619 51.52C19.6219 52.36 21.0219 53.68 21.9019 55.48C22.7819 57.24 23.2219 59.68 23.2219 62.76C23.2219 68.88 21.1819 72.96 17.0619 75.04C16.0219 75.56 14.7819 75.88 13.3819 76.04C11.9819 76.28 10.5419 76.4 9.06188 76.36C7.54188 76.24 6.02188 76.16 4.50188 76.08ZM37.4203 61.6V50.84H40.7003L45.0203 50.92C46.5003 50.96 47.7803 51.16 48.8603 51.36C48.7803 50.56 48.7403 50.12 48.7403 50.04C48.7803 49.84 48.8203 49.6 48.8603 49.36C48.8603 49.16 48.8603 48.96 48.8603 48.8H33.6603V78H49.1403C49.1403 77.84 49.1403 77.64 49.1003 77.4C49.0603 77.16 49.0203 76.92 48.9803 76.72C49.0603 76.52 49.1003 76.28 49.1403 76.04C49.1403 75.8 49.1403 75.6 49.1403 75.4C47.7403 75.68 46.4203 75.8 45.1803 75.84C40.9003 75.96 38.3003 76.04 37.4203 76V63.44H44.0603C44.7003 63.44 45.3403 63.48 45.9803 63.52C46.6203 63.56 47.2603 63.6 47.9003 63.64C47.9003 63.48 47.9003 63.28 47.8603 63.04C47.8203 62.84 47.7803 62.64 47.7403 62.48C47.7803 62.44 47.8203 62.08 47.9003 61.36C47.5803 61.36 47.2203 61.4 46.8203 61.44C46.3803 61.48 45.9403 61.52 45.4603 61.52C44.9403 61.6 44.5003 61.6 44.0603 61.6H37.4203ZM58.8656 76V48.8C58.6256 48.8 58.3056 48.8 57.9456 48.84C57.5856 48.88 57.2256 48.92 56.9056 48.96C56.6656 48.88 56.3456 48.84 55.9856 48.8C55.5856 48.8 55.3056 48.8 55.1056 48.8V78H70.7056C70.7056 77.84 70.7056 77.64 70.6656 77.4C70.6256 77.16 70.5856 76.92 70.5456 76.72C70.6256 76.52 70.6656 76.28 70.7056 76.04C70.7056 75.8 70.7056 75.6 70.7056 75.4C68.9056 75.68 67.5456 75.84 66.6256 75.88C62.3456 75.96 59.7456 76 58.8656 76ZM80.3109 76V48.8C80.0709 48.8 79.7509 48.8 79.3909 48.84C79.0309 48.88 78.6709 48.92 78.3509 48.96C78.1109 48.88 77.7909 48.84 77.4309 48.8C77.0309 48.8 76.7509 48.8 76.5509 48.8V78H92.1509C92.1509 77.84 92.1509 77.64 92.1109 77.4C92.0709 77.16 92.0309 76.92 91.9909 76.72C92.0709 76.52 92.1109 76.28 92.1509 76.04C92.1509 75.8 92.1509 75.6 92.1509 75.4C90.3509 75.68 88.9909 75.84 88.0709 75.88C83.7909 75.96 81.1909 76 80.3109 76ZM122.116 78.12L109.196 48.16H108.236L94.8363 78.12C95.0763 78.08 95.3163 78.04 95.5163 78C95.7163 78 95.9963 78 96.3563 78C96.6763 78 96.9963 78 97.2363 78.04C97.4363 78.08 97.6763 78.12 97.9563 78.16C98.6763 75.68 100.076 71.84 102.196 66.6L113.076 66.56C114.356 69.48 115.876 73.32 117.596 78.12C117.956 78.08 118.316 78.04 118.636 78C118.916 78 119.316 78 119.836 78C120.156 78 120.396 78 120.556 78C120.716 78.04 120.956 78.04 121.236 78.04C121.516 78.08 121.796 78.12 122.116 78.12ZM107.636 53.8L112.396 64.76H102.956L107.636 53.8ZM142.303 76V48.8C142.063 48.8 141.743 48.8 141.383 48.84C141.023 48.88 140.663 48.92 140.343 48.96C140.103 48.88 139.783 48.84 139.423 48.8C139.023 48.8 138.743 48.8 138.543 48.8V78H154.143C154.143 77.84 154.143 77.64 154.103 77.4C154.063 77.16 154.023 76.92 153.983 76.72C154.063 76.52 154.103 76.28 154.143 76.04C154.143 75.8 154.143 75.6 154.143 75.4C152.343 75.68 150.983 75.84 150.063 75.88C145.783 75.96 143.183 76 142.303 76ZM163.988 65.2V48.8C163.748 48.8 163.428 48.8 163.068 48.84C162.708 48.88 162.348 48.92 162.028 48.96C161.748 48.88 161.388 48.84 161.028 48.8C160.668 48.8 160.388 48.8 160.188 48.8V65.96C160.188 68.2 160.468 70.08 160.868 71.64C161.268 73.2 162.068 74.56 163.268 75.68C164.388 76.68 165.708 77.44 167.188 77.92C168.668 78.4 170.468 78.64 172.588 78.64C175.068 78.64 177.268 78.16 179.148 77.2C181.068 76.24 182.548 74.8 183.588 72.88C184.588 70.96 185.108 68.64 185.108 65.88V48.8C184.988 48.8 184.788 48.8 184.548 48.84C184.348 48.88 184.108 48.92 183.908 48.96C183.828 48.92 183.428 48.88 182.708 48.8V64.76C182.708 68.52 181.988 71.44 180.548 73.52C179.068 75.64 176.708 76.68 173.428 76.68C169.948 76.68 167.508 75.76 166.108 73.92C164.668 72.08 163.948 69.16 163.988 65.2ZM218.707 78.12V48.8C218.587 48.8 218.387 48.8 218.147 48.84C217.947 48.88 217.747 48.92 217.547 48.96C217.427 48.92 217.027 48.88 216.307 48.8V70.88H215.867L195.507 48.8H193.827V78.12C194.027 78.08 194.227 78.04 194.387 78C194.547 78 194.747 78 195.027 78C195.307 78 195.547 78 195.707 78.04C195.867 78.08 196.067 78.12 196.267 78.16L196.227 55H196.667L215.187 75.48C216.107 76.48 216.827 77.36 217.427 78.12H218.707ZM250.905 78.12L237.985 48.16H237.025L223.625 78.12C223.865 78.08 224.105 78.04 224.305 78C224.505 78 224.785 78 225.145 78C225.465 78 225.785 78 226.025 78.04C226.225 78.08 226.465 78.12 226.745 78.16C227.465 75.68 228.865 71.84 230.985 66.6L241.865 66.56C243.145 69.48 244.665 73.32 246.385 78.12C246.745 78.08 247.105 78.04 247.425 78C247.705 78 248.105 78 248.625 78C248.945 78 249.185 78 249.345 78C249.505 78.04 249.745 78.04 250.025 78.04C250.305 78.08 250.585 78.12 250.905 78.12ZM236.425 53.8L241.185 64.76H231.745L236.425 53.8Z" fill="white"/>
</g>
<defs>
<clipPath id="clip0_583_1590">
<rect width="251" height="79" fill="white"/>
</clipPath>
</defs>
</svg>
