<svg width="243" height="79" viewBox="0 0 243 79" fill="none" xmlns="http://www.w3.org/2000/svg">
<g clip-path="url(#clip0_581_1584)">
<path d="M8.72639 30.12V16.64C8.92639 16.64 9.52639 16.68 10.5264 16.72C11.4864 16.76 12.2464 16.84 12.7264 16.84C13.2064 16.76 13.8064 16.68 14.5264 16.56C17.6864 15.96 20.0064 15 21.4864 13.68C22.9664 12.32 23.7264 10.4 23.6864 7.88001C23.7264 6.04001 23.3264 4.64001 22.6464 3.64001C21.9664 2.64001 20.8064 1.92001 19.2064 1.48001C17.6464 1.04001 15.4464 0.800005 12.6064 0.800005H4.9664V30.12C5.2864 30.08 5.5664 30.04 5.8064 30C6.08639 30 6.40639 30 6.84639 30C7.24639 30 7.56639 30 7.84639 30.04C8.12639 30.08 8.40639 30.12 8.72639 30.12ZM8.72639 15.04V2.48001C10.9664 2.36001 13.0464 2.36001 14.9264 2.52001C16.4864 2.68001 17.6864 3.28001 18.5264 4.28001C19.3664 5.28001 19.7664 6.56001 19.7664 8.12001C19.7664 9.96001 19.1664 11.52 17.9664 12.76C16.7664 14.04 15.0864 14.8 12.9664 15.04C11.3264 15.16 9.92639 15.16 8.72639 15.04ZM49.1545 30.12L36.2345 0.160004H35.2745L21.8745 30.12C22.1145 30.08 22.3545 30.04 22.5545 30C22.7545 30 23.0345 30 23.3945 30C23.7145 30 24.0345 30 24.2745 30.04C24.4745 30.08 24.7145 30.12 24.9945 30.16C25.7145 27.68 27.1145 23.84 29.2345 18.6L40.1145 18.56C41.3945 21.48 42.9145 25.32 44.6345 30.12C44.9945 30.08 45.3545 30.04 45.6745 30C45.9545 30 46.3545 30 46.8745 30C47.1945 30 47.4345 30 47.5945 30C47.7545 30.04 47.9945 30.04 48.2745 30.04C48.5545 30.08 48.8345 30.12 49.1545 30.12ZM34.6745 5.80001L39.4345 16.76H29.9945L34.6745 5.80001ZM53.2273 28V0.800005C52.9873 0.800005 52.6673 0.800005 52.3073 0.840005C51.9473 0.880004 51.5873 0.920004 51.2673 0.960006C51.0273 0.880004 50.7073 0.840005 50.3473 0.800005C49.9473 0.800005 49.6673 0.800005 49.4673 0.800005V30H65.0673C65.0673 29.84 65.0673 29.64 65.0273 29.4C64.9873 29.16 64.9473 28.92 64.9073 28.72C64.9873 28.52 65.0273 28.28 65.0673 28.04C65.0673 27.8 65.0673 27.6 65.0673 27.4C63.2673 27.68 61.9073 27.84 60.9873 27.88C56.7073 27.96 54.1073 28 53.2273 28ZM90.8327 30.12L77.9127 0.160004H76.9527L63.5527 30.12C63.7927 30.08 64.0327 30.04 64.2327 30C64.4327 30 64.7127 30 65.0727 30C65.3927 30 65.7127 30 65.9527 30.04C66.1527 30.08 66.3927 30.12 66.6727 30.16C67.3927 27.68 68.7927 23.84 70.9127 18.6L81.7927 18.56C83.0727 21.48 84.5927 25.32 86.3127 30.12C86.6727 30.08 87.0327 30.04 87.3527 30C87.6327 30 88.0327 30 88.5527 30C88.8727 30 89.1127 30 89.2727 30C89.4327 30.04 89.6727 30.04 89.9527 30.04C90.2327 30.08 90.5127 30.12 90.8327 30.12ZM76.3527 5.80001L81.1127 16.76H71.6727L76.3527 5.80001ZM100.545 11.64L88.0255 29.08V30H112.185C112.185 29.84 112.185 29.64 112.145 29.4C112.105 29.16 112.065 28.92 112.025 28.72C112.105 28.52 112.145 28.28 112.185 28.04C112.185 27.8 112.185 27.6 112.185 27.4C107.945 27.8 103.945 28.12 100.185 28.12H93.6255V28.04C99.585 18.92 105.825 10.12 112.345 1.60001V0.800005H89.8255C89.8655 1 89.9055 1.20001 89.9455 1.36001C89.9455 1.56001 89.9455 1.80001 89.9455 2.08001C89.9455 2.12001 89.9055 2.56001 89.8255 3.36001C92.3855 3.16001 94.5455 3.00001 96.305 2.88001C98.105 2.76001 99.905 2.76001 101.705 2.72001L106.625 2.64001V2.72001C105.785 3.96001 103.865 7.00001 100.545 11.64ZM122.556 11.64L110.036 29.08V30H134.196C134.196 29.84 134.196 29.64 134.156 29.4C134.116 29.16 134.076 28.92 134.036 28.72C134.116 28.52 134.156 28.28 134.196 28.04C134.196 27.8 134.196 27.6 134.196 27.4C129.956 27.8 125.956 28.12 122.196 28.12H115.636V28.04C121.596 18.92 127.836 10.12 134.356 1.60001V0.800005H111.836C111.876 1 111.916 1.20001 111.956 1.36001C111.956 1.56001 111.956 1.80001 111.956 2.08001C111.956 2.12001 111.916 2.56001 111.836 3.36001C114.396 3.16001 116.556 3.00001 118.316 2.88001C120.116 2.76001 121.916 2.76001 123.716 2.72001L128.636 2.64001V2.72001C127.796 3.96001 125.876 7.00001 122.556 11.64ZM133.127 15.44C133.127 18.48 133.807 21.16 135.127 23.48C136.407 25.76 138.287 27.52 140.687 28.76C143.087 30.04 145.847 30.72 148.927 30.72C153.727 30.64 157.647 29.2 160.687 26.32C163.727 23.4 165.247 19.56 165.247 14.8C165.247 11.6 164.527 8.88001 162.967 6.64001C161.447 4.44001 159.407 2.84001 156.927 1.80001C154.447 0.680004 151.807 0.160004 149.007 0.160004C146.047 0.160004 143.367 0.800005 140.967 2.04001C138.527 3.28001 136.607 5.08001 135.207 7.40001C133.807 9.72001 133.087 12.4 133.127 15.44ZM158.287 5.72001C159.367 7.08001 160.167 8.48001 160.527 9.96001C160.807 11.44 160.887 13.16 160.967 15.16C161.087 16.88 160.847 18.84 160.047 21.08C159.167 23.32 157.767 25.24 155.887 26.84C154.087 28.44 151.767 29.24 149.007 29.24C145.687 29.24 142.887 28.08 140.647 25.76C138.407 23.4 137.287 20.12 137.287 15.92C137.287 13.16 137.767 10.64 138.727 8.44001C139.687 6.24001 141.087 4.48001 142.927 3.32001C144.807 2.12001 146.967 1.56001 149.407 1.56001C151.167 1.56001 152.847 1.92001 154.407 2.64001C155.967 3.36001 157.247 4.40001 158.287 5.72001ZM174.825 0.800005V30H183.225C186.145 30 188.625 29.8 190.665 29.4C192.745 29 194.545 28.08 196.145 26.72C199.745 23.6 201.545 19.4 201.545 14.08C201.545 9.44001 199.985 5.88001 196.945 3.36001C195.385 2.04001 193.865 1.20001 192.305 1.04001C190.705 0.840005 188.145 0.800005 184.585 0.800005H174.825ZM178.625 28.08V2.48001C179.865 2.44001 180.905 2.40001 181.785 2.36001C182.665 2.32001 183.425 2.32001 184.025 2.32001C187.265 2.32001 189.865 2.72001 191.785 3.52001C193.745 4.36001 195.145 5.68001 196.025 7.48001C196.905 9.24001 197.345 11.68 197.345 14.76C197.345 20.88 195.305 24.96 191.185 27.04C190.145 27.56 188.905 27.88 187.505 28.04C186.105 28.28 184.665 28.4 183.185 28.36C181.665 28.24 180.145 28.16 178.625 28.08ZM207.343 13.6V2.84001H210.623L214.943 2.92001C216.423 2.96001 217.703 3.16001 218.783 3.36001C218.703 2.56001 218.663 2.12001 218.663 2.04001C218.703 1.84001 218.743 1.60001 218.783 1.36001C218.783 1.16001 218.783 0.960006 218.783 0.800005H203.583V30H219.063C219.063 29.84 219.063 29.64 219.023 29.4C218.983 29.16 218.943 28.92 218.903 28.72C218.983 28.52 219.023 28.28 219.063 28.04C219.063 27.8 219.063 27.6 219.063 27.4C217.663 27.68 216.343 27.8 215.103 27.84C210.823 27.96 208.223 28.04 207.343 28V15.44H213.983C214.623 15.44 215.263 15.48 215.903 15.52C216.543 15.56 217.183 15.6 217.823 15.64C217.823 15.48 217.823 15.28 217.783 15.04C217.743 14.84 217.703 14.64 217.663 14.48C217.703 14.44 217.743 14.08 217.823 13.36C217.503 13.36 217.143 13.4 216.743 13.44C216.303 13.48 215.863 13.52 215.383 13.52C214.863 13.6 214.423 13.6 213.983 13.6H207.343ZM224.588 28V0.800005C224.348 0.800005 224.028 0.800005 223.668 0.840005C223.308 0.880004 222.948 0.920004 222.628 0.960006C222.388 0.880004 222.068 0.840005 221.708 0.800005C221.308 0.800005 221.028 0.800005 220.828 0.800005V30H236.428C236.428 29.84 236.428 29.64 236.388 29.4C236.348 29.16 236.308 28.92 236.268 28.72C236.348 28.52 236.388 28.28 236.428 28.04C236.428 27.8 236.428 27.6 236.428 27.4C234.628 27.68 233.268 27.84 232.348 27.88C228.068 27.96 225.468 28 224.588 28ZM21.2437 56.64L16.7637 68.28C16.4437 69.12 16.0837 69.96 15.6437 70.84C15.2437 71.68 14.7637 72.56 14.3237 73.44H13.9637L8.68374 60.44L5.80374 52.96C5.52374 52.24 5.28374 51.52 5.00374 50.8C4.76374 50.12 4.48374 49.44 4.20374 48.8C4.00374 48.8 3.68374 48.8 3.28374 48.84C2.88374 48.88 2.52374 48.92 2.16374 48.92C1.96374 48.92 1.28374 48.88 0.0837402 48.8C0.52374 49.56 1.36374 51.32 2.52374 54.08C3.72374 56.88 4.84374 59.6 6.00374 62.24C7.16374 64.88 8.36374 67.64 9.64374 70.52C10.9237 73.4 12.0837 75.92 13.1237 78.12C13.6837 78.04 13.9637 78 14.0037 78C14.1237 78 14.2037 78 14.2437 78C14.3237 78.04 14.4037 78.08 14.5237 78.12C14.6837 78.12 14.8037 78.12 14.9237 78.12C15.4037 76.56 16.5237 73.72 18.2037 69.64C19.8837 65.52 21.7237 61.24 23.6837 56.8C25.6037 52.36 26.8037 49.68 27.2837 48.76C27.0837 48.8 26.8437 48.8 26.5237 48.84C26.2437 48.88 25.9637 48.92 25.7237 48.96C25.4437 48.88 25.1637 48.84 24.8437 48.8C24.5237 48.8 24.2837 48.8 24.1237 48.8L23.8437 49.48L21.2437 56.64ZM31.0766 61.6V50.84H34.3566L38.6766 50.92C40.1566 50.96 41.4366 51.16 42.5166 51.36C42.4366 50.56 42.3966 50.12 42.3966 50.04C42.4366 49.84 42.4766 49.6 42.5166 49.36C42.5166 49.16 42.5166 48.96 42.5166 48.8H27.3166V78H42.7966C42.7966 77.84 42.7966 77.64 42.7566 77.4C42.7166 77.16 42.6766 76.92 42.6366 76.72C42.7166 76.52 42.7566 76.28 42.7966 76.04C42.7966 75.8 42.7966 75.6 42.7966 75.4C41.3966 75.68 40.0766 75.8 38.8366 75.84C34.5566 75.96 31.9566 76.04 31.0766 76V63.44H37.7166C38.3566 63.44 38.9966 63.48 39.6366 63.52C40.2766 63.56 40.9166 63.6 41.5566 63.64C41.5566 63.48 41.5566 63.28 41.5166 63.04C41.4766 62.84 41.4366 62.64 41.3966 62.48C41.4366 62.44 41.4766 62.08 41.5566 61.36C41.2366 61.36 40.8766 61.4 40.4766 61.44C40.0366 61.48 39.5966 61.52 39.1166 61.52C38.5966 61.6 38.1566 61.6 37.7166 61.6H31.0766ZM44.6019 48.8V78.12C44.9219 78.08 45.2019 78.04 45.4419 78C45.7219 78 46.0419 78 46.4819 78C46.7219 78 46.9219 78 47.0419 78C47.1619 78.04 47.3619 78.04 47.6019 78.04C47.8819 78.08 48.1219 78.12 48.3619 78.16V63.8H50.0019L53.4419 67.84L58.4819 74.4C59.1219 75.24 60.0019 76.48 61.1619 78.12C61.4419 78.12 61.7219 78.12 62.0419 78.08C62.3619 78.04 62.6019 78 62.8019 78C63.0019 78 63.2819 78 63.6419 78C64.0019 78 64.2819 78 64.4419 78C64.6019 78.04 64.8419 78.04 65.1619 78.04C65.4819 78.08 65.8019 78.12 66.1219 78.16L65.3219 77.08L63.2819 74.64L54.4019 63.44C56.9219 63 59.0019 62.16 60.6819 60.8C62.3219 59.48 63.1619 57.6 63.1619 55.24C63.1619 50.96 60.0019 48.8 53.6819 48.8H44.6019ZM48.3619 62.16V50.36C51.4419 50.24 53.5619 50.28 54.6819 50.44C57.8419 50.96 59.4019 52.76 59.4019 55.84C59.4019 57.44 58.8419 58.76 57.8419 59.84C56.8019 60.96 55.5219 61.72 53.9219 62C52.0419 62.36 50.2019 62.4 48.3619 62.16ZM68.7269 48.8V63.4V78H77.1269C80.0469 78 82.5269 77.8 84.5669 77.4C86.6469 77 88.4469 76.08 90.0469 74.72C93.6469 71.6 95.447 67.4 95.447 62.08C95.447 57.44 93.8869 53.88 90.8469 51.36C89.2869 50.04 87.7669 49.2 86.2069 49.04C84.6069 48.84 82.0469 48.8 78.4869 48.8H68.7269ZM72.5269 76.08V50.48C73.7669 50.44 74.8069 50.4 75.6869 50.36C76.5669 50.32 77.3269 50.32 77.9269 50.32C81.1669 50.32 83.7669 50.72 85.6869 51.52C87.6469 52.36 89.0469 53.68 89.9269 55.48C90.8069 57.24 91.2469 59.68 91.2469 62.76C91.2469 68.88 89.2069 72.96 85.0869 75.04C84.0469 75.56 82.8069 75.88 81.4069 76.04C80.0069 76.28 78.5669 76.4 77.0869 76.36C75.5669 76.24 74.0469 76.16 72.5269 76.08ZM97.725 48.8V63.46V78.12C98.045 78.08 98.325 78.04 98.565 78C98.845 78 99.205 78 99.645 78C99.885 78 100.085 78 100.205 78C100.325 78.04 100.525 78.04 100.765 78.04C101.045 78.08 101.285 78.12 101.525 78.16V48.8C101.285 48.8 100.965 48.8 100.605 48.84C100.245 48.88 99.885 48.92 99.565 48.96C99.285 48.88 98.925 48.84 98.565 48.8C98.205 48.8 97.925 48.8 97.725 48.8ZM137.353 78.08L131.993 71.92C133.873 69.64 135.793 67 137.753 64.04C137.033 63.48 136.473 62.92 136.113 62.32C134.473 65.4 132.793 68.2 131.033 70.76L128.753 68.16C127.873 67.12 126.873 65.84 125.753 64.4C124.633 62.96 123.873 61.96 123.473 61.44C125.233 60.32 126.633 59.12 127.713 57.92C128.793 56.72 129.313 55.32 129.313 53.72C129.313 52.32 128.793 51.2 127.753 50.4C126.713 49.6 125.353 49.2 123.673 49.2C121.713 49.2 120.113 49.8 118.913 50.96C117.673 52.12 117.073 53.68 117.073 55.64C117.073 56.72 117.313 57.72 117.753 58.6C118.193 59.52 118.913 60.76 119.913 62.32L119.673 62.4C114.673 64.88 112.193 67.88 112.193 71.44C112.193 72.92 112.553 74.2 113.233 75.28C113.913 76.32 114.873 77.16 116.073 77.76C117.273 78.32 118.673 78.6 120.313 78.6C122.153 78.6 123.833 78.24 125.393 77.52C126.993 76.8 128.393 75.76 129.633 74.44C129.913 74.8 130.833 76 132.313 78.04C132.713 78 133.073 77.96 133.393 77.92C133.753 77.92 134.193 77.92 134.713 77.92C135.313 77.92 136.193 77.96 137.353 78.08ZM127.153 53.96C127.153 55.36 126.753 56.56 125.993 57.56C125.233 58.56 124.153 59.56 122.753 60.56C122.233 59.92 121.753 59.24 121.353 58.56C120.953 57.84 120.633 57.16 120.393 56.44C120.153 55.76 120.033 55.08 120.033 54.4C120.033 53.24 120.353 52.28 120.993 51.52C121.673 50.76 122.593 50.36 123.753 50.36C124.713 50.36 125.553 50.72 126.193 51.4C126.833 52.08 127.153 52.92 127.153 53.96ZM120.313 63.44C120.353 63.4 120.393 63.36 120.433 63.32C120.513 63.28 120.553 63.24 120.593 63.2C122.593 65.92 125.273 69.32 128.673 73.48C128.073 74.12 127.153 74.8 125.953 75.56C124.713 76.32 123.393 76.68 121.953 76.68C120.233 76.68 118.753 76.08 117.513 74.88C116.233 73.64 115.593 72.16 115.593 70.4C115.633 67.76 117.193 65.44 120.313 63.44ZM147.444 48.8V78.12C147.764 78.08 148.044 78.04 148.284 78C148.564 78 148.884 78 149.324 78C149.564 78 149.764 78 149.884 78C150.004 78.04 150.204 78.04 150.444 78.04C150.724 78.08 150.964 78.12 151.204 78.16V63.8H152.844L156.284 67.84L161.324 74.4C161.964 75.24 162.844 76.48 164.004 78.12C164.284 78.12 164.564 78.12 164.884 78.08C165.204 78.04 165.444 78 165.644 78C165.844 78 166.124 78 166.484 78C166.844 78 167.124 78 167.284 78C167.444 78.04 167.684 78.04 168.004 78.04C168.324 78.08 168.644 78.12 168.964 78.16L168.164 77.08L166.124 74.64L157.244 63.44C159.764 63 161.844 62.16 163.524 60.8C165.164 59.48 166.004 57.6 166.004 55.24C166.004 50.96 162.844 48.8 156.524 48.8H147.444ZM151.204 62.16V50.36C154.284 50.24 156.404 50.28 157.524 50.44C160.684 50.96 162.244 52.76 162.244 55.84C162.244 57.44 161.684 58.76 160.684 59.84C159.644 60.96 158.364 61.72 156.764 62C154.884 62.36 153.044 62.4 151.204 62.16ZM167.375 63.44C167.375 66.48 168.055 69.16 169.375 71.48C170.655 73.76 172.535 75.52 174.935 76.76C177.335 78.04 180.095 78.72 183.175 78.72C187.975 78.64 191.895 77.2 194.935 74.32C197.975 71.4 199.495 67.56 199.495 62.8C199.495 59.6 198.775 56.88 197.215 54.64C195.695 52.44 193.655 50.84 191.175 49.8C188.695 48.68 186.055 48.16 183.255 48.16C180.295 48.16 177.615 48.8 175.215 50.04C172.775 51.28 170.855 53.08 169.455 55.4C168.055 57.72 167.335 60.4 167.375 63.44ZM192.535 53.72C193.615 55.08 194.415 56.48 194.775 57.96C195.055 59.44 195.135 61.16 195.215 63.16C195.335 64.88 195.095 66.84 194.295 69.08C193.415 71.32 192.015 73.24 190.135 74.84C188.335 76.44 186.015 77.24 183.255 77.24C179.935 77.24 177.135 76.08 174.895 73.76C172.655 71.4 171.535 68.12 171.535 63.92C171.535 61.16 172.015 58.64 172.975 56.44C173.935 54.24 175.335 52.48 177.175 51.32C179.055 50.12 181.215 49.56 183.655 49.56C185.415 49.56 187.095 49.92 188.655 50.64C190.215 51.36 191.495 52.4 192.535 53.72ZM200.278 72.36H199.838C199.638 73.8 199.358 75.08 198.998 76.16C199.678 76.88 200.758 77.48 202.198 77.96C203.598 78.4 204.878 78.64 205.998 78.64C207.958 78.64 209.758 78.24 211.358 77.48C212.958 76.72 214.238 75.56 215.198 74.04C216.118 72.56 216.598 70.8 216.598 68.84C216.598 66.8 215.998 65.24 214.838 64.2C213.678 63.2 211.958 62.24 209.718 61.36C207.478 60.52 205.798 59.68 204.718 58.84C203.638 58 203.078 56.72 203.078 55C203.078 53.52 203.598 52.28 204.638 51.36C205.718 50.4 206.998 49.96 208.478 49.96C209.758 49.96 210.838 50.28 211.758 50.92C212.678 51.56 213.358 52.48 213.798 53.72H214.238C214.838 51.8 215.238 50.64 215.438 50.2C213.838 48.84 211.798 48.16 209.238 48.16C206.518 48.16 204.238 48.88 202.438 50.28C200.638 51.68 199.678 53.72 199.718 56.4C199.718 58.52 200.318 60.12 201.438 61.16C202.598 62.24 204.278 63.2 206.478 64.08C208.678 64.96 210.358 65.84 211.478 66.68C212.598 67.52 213.158 68.8 213.158 70.56C213.158 72.28 212.598 73.76 211.478 74.96C210.358 76.2 208.918 76.8 207.198 76.8C206.118 76.8 205.158 76.64 204.318 76.28C203.478 75.92 202.718 75.4 202.078 74.72C201.438 74.08 200.838 73.28 200.278 72.36ZM242.283 78.12L229.363 48.16H228.403L215.003 78.12C215.243 78.08 215.483 78.04 215.683 78C215.883 78 216.163 78 216.523 78C216.843 78 217.163 78 217.403 78.04C217.603 78.08 217.843 78.12 218.123 78.16C218.843 75.68 220.243 71.84 222.363 66.6L233.243 66.56C234.523 69.48 236.043 73.32 237.763 78.12C238.123 78.08 238.483 78.04 238.803 78C239.083 78 239.483 78 240.003 78C240.323 78 240.563 78 240.723 78C240.883 78.04 241.123 78.04 241.403 78.04C241.683 78.08 241.963 78.12 242.283 78.12ZM227.803 53.8L232.563 64.76H223.123L227.803 53.8Z" fill="white"/>
</g>
<defs>
<clipPath id="clip0_581_1584">
<rect width="243" height="79" fill="white"/>
</clipPath>
</defs>
</svg>
