<svg id="Layer_1" data-name="Layer 1" xmlns="http://www.w3.org/2000/svg" viewBox="0 0 191.84893 165.21908"><defs><style>.cls-1,.cls-2{fill:#fff;}.cls-2{stroke:#fff;stroke-miterlimit:10;stroke-width:0.71126px;}</style></defs><path class="cls-1" d="M59.22476,111.36982a6.05321,6.05321,0,0,0-.79709-.03112h-.82994c-.19019.03112-.41324.064-.66913.0951V88.06757h6.08967a20.23862,20.23862,0,0,1,5.25973.54119,4.66875,4.66875,0,0,1,2.74226,1.72212,5.70812,5.70812,0,0,1,.82821,3.37854,5.835,5.835,0,0,1-1.75325,4.62345,11.5585,11.5585,0,0,1-5.54675,2.29443c-.574.0951-1.053.15908-1.4351.22305-.38212,0-.98728-.064-1.75325-.0951-.79709-.03285-1.2743-.064-1.4351-.064V111.4338A4.6393,4.6393,0,0,1,59.22476,111.36982Zm4.08053-11.95457A6.21412,6.21412,0,0,0,67.289,97.598a5.11412,5.11412,0,0,0,1.43511-3.69669,4.58068,4.58068,0,0,0-.989-3.06039,4.134,4.134,0,0,0-2.86848-1.404,36.45489,36.45489,0,0,0-4.94159-.03113V99.41525A19.58665,19.58665,0,0,0,63.30529,99.41525Z"/><path class="cls-1" d="M92.53642,111.36982a2.63529,2.63529,0,0,1-.54119-.03112H90.465c-.2559.03112-.54292.064-.82994.0951-1.3694-3.82464-2.58146-6.885-3.60159-9.21232l-8.67113.03112c-1.68927,4.17736-2.80623,7.23776-3.37854,9.21405-.22477-.03285-.415-.064-.574-.09683a4.83656,4.83656,0,0,0-.702-.03112h-.66914c-.15907.03112-.351.064-.54291.0951L82.176,87.5575h.76423l10.29816,23.8763A4.64189,4.64189,0,0,1,92.53642,111.36982ZM77.96754,100.78638h7.52477l-3.79524-8.73511Z"/><path class="cls-1" d="M104.40454,88.06757c5.03669,0,7.55417,1.72039,7.55417,5.13178a5.40721,5.40721,0,0,1-1.97629,4.43153,10.65676,10.65676,0,0,1-5.00384,2.10424l7.077,8.9253,1.6253,1.94517.638.86106c-.25589-.03285-.51006-.064-.766-.09683a2.83716,2.83716,0,0,1-.574-.03112h-1.30542a5.39344,5.39344,0,0,0-.6069.064,5.51014,5.51014,0,0,1-.70026.03113c-.925-1.30716-1.627-2.29444-2.13709-2.96358l-4.01656-5.22861-2.74052-3.21947h-1.30716v11.44451c-.19192-.03285-.38384-.064-.60689-.09683a1.73445,1.73445,0,0,1-.44609-.03112h-1.2743c-.19192.03112-.415.064-.67087.0951V88.06757Zm.19019,10.51947a5.42837,5.42837,0,0,0,3.12437-1.72212,4.53107,4.53107,0,0,0,1.24318-3.18662c0-2.45524-1.24318-3.89034-3.76066-4.30358a32.7745,32.7745,0,0,0-5.03669-.064V98.715A13.83839,13.83839,0,0,0,104.59473,98.587Z"/><path class="cls-1" d="M124.36975,98.45909c.925,1.053,2.39126,2.67828,4.43152,4.91047,2.00742,2.23046,3.31457,3.69668,3.92146,4.46265l2.77338,3.44251v.19193c-.31987-.03285-.60689-.064-.86106-.09683a9.53347,9.53347,0,0,0-1.02014-.03112h-1.053c-.25417.03112-.54119.064-.82821.0951-1.05125-1.46623-1.84834-2.51748-2.39126-3.12438l-7.42795-8.67113a.97357.97357,0,0,0-.41324-.19019c-.12795-.03285-.19192,0-.19192.064v11.95458c-.19193-.03285-.38212-.064-.574-.09683a1.72742,1.72742,0,0,1-.4461-.03112h-1.30715c-.19192.03112-.415.064-.66914.0951V88.06757h.66914a6.55162,6.55162,0,0,1,.82821.12622c.22478-.03112.47894-.06225.766-.0951a6.57376,6.57376,0,0,1,.73312-.03112l.03112,10.55059c.03285.2559.31987.19193.82994-.19019a16.77337,16.77337,0,0,0,1.78437-1.68927l8.3841-8.67113h.67087a4.85406,4.85406,0,0,1,.76424.12622c.223-.03112.44609-.06225.66913-.0951a5.09516,5.09516,0,0,1,.638-.03112l-7.74609,7.42795Z"/><path class="cls-1" d="M7.236,119.93721c5.03669,0,7.5559,1.72039,7.5559,5.13178a5.40719,5.40719,0,0,1-1.9763,4.43153,10.67089,10.67089,0,0,1-5.00556,2.10424l7.077,8.9253,1.6253,1.94517.638.86106c-.25416-.03286-.51006-.064-.76423-.09683a2.819,2.819,0,0,1-.574-.03112H14.5049a5.43407,5.43407,0,0,0-.60689.064,5.5119,5.5119,0,0,1-.70026.03112c-.925-1.30715-1.62529-2.29443-2.13536-2.96357L7.0441,135.11125l-2.74052-3.21947H2.99642v11.44451c-.19192-.03286-.38211-.064-.60516-.09683a1.74927,1.74927,0,0,1-.44782-.03112H.66914c-.19193.03112-.415.064-.66914.09509V119.93721ZM7.428,130.45668a5.43913,5.43913,0,0,0,3.12437-1.72212,4.53862,4.53862,0,0,0,1.24318-3.18662c0-2.45524-1.24318-3.89034-3.76239-4.30358a32.76039,32.76039,0,0,0-5.03669-.064v9.40424A13.85048,13.85048,0,0,0,7.428,130.45668Z"/><path class="cls-1" d="M29.72044,130.13854a6.92592,6.92592,0,0,0,1.117-.064c.38212,0,.73312-.03285,1.08238-.064.31987-.03286.60689-.064.86106-.064a4.67525,4.67525,0,0,1-.12795.89219c.03286.12794.064.287.09683.44609a2.82865,2.82865,0,0,1,.03112.47894q-.76509-.04928-1.5302-.0951c-.51006-.03285-1.02013-.064-1.5302-.064H24.42959v10.0094c.70026.03286,2.77337-.03112,6.183-.12794a19.04542,19.04542,0,0,0,3.15722-.34927v.51007a2.7568,2.7568,0,0,1-.12795.54119c.03113.15907.064.351.0951.54118a2.68215,2.68215,0,0,1,.03285.47895H21.43143V119.93721H33.54681v.44609c-.03286.19019-.064.38212-.09683.54119q0,.096.09683,1.053a19.08855,19.08855,0,0,0-3.0604-.351l-3.44252-.064h-2.6143v8.576Z"/><path class="cls-1" d="M40.25548,140.594a5.29552,5.29552,0,0,0,1.78436,1.24318,5.78113,5.78113,0,0,0,2.29617.415A4.40021,4.40021,0,0,0,47.7474,140.786a4.97007,4.97007,0,0,0,1.33828-3.50649,3.60222,3.60222,0,0,0-1.33828-3.09325,18.00489,18.00489,0,0,0-3.98543-2.07138,12.94031,12.94031,0,0,1-4.01656-2.32729,4.96173,4.96173,0,0,1-1.37113-3.79351,5.72568,5.72568,0,0,1,2.16822-4.87762,8.58946,8.58946,0,0,1,5.4188-1.68927,7.32752,7.32752,0,0,1,4.9416,1.6253c-.15908.351-.479,1.2743-.95616,2.8045h-.351a4.58427,4.58427,0,0,0-7.3-1.87947,3.70962,3.70962,0,0,0-1.24318,2.8996,3.64326,3.64326,0,0,0,1.30716,3.0604,15.6467,15.6467,0,0,0,3.9837,2.00914,14.37669,14.37669,0,0,1,4.08053,2.26331,4.7345,4.7345,0,0,1,1.404,3.69842,7.756,7.756,0,0,1-1.117,4.1445,7.24908,7.24908,0,0,1-3.0604,2.74053,9.85,9.85,0,0,1-4.27072.925,10.36241,10.36241,0,0,1-3.02928-.54118,6.17271,6.17271,0,0,1-2.55033-1.43511,17.14084,17.14084,0,0,0,.66914-3.02927h.351A10.04081,10.04081,0,0,0,40.25548,140.594Z"/><path class="cls-1" d="M57.76718,119.93721a5.31926,5.31926,0,0,1,.79709.12622c.25416-.03113.54119-.06225.82821-.0951a6.589,6.589,0,0,1,.73311-.03112v23.39908c-.1902-.03286-.38212-.064-.60517-.09683a1.72738,1.72738,0,0,1-.44609-.03112H57.76718c-.19192.03112-.415.064-.66914.09509V119.93721Z"/><path class="cls-1" d="M74.85181,119.93721a58.80362,58.80362,0,0,1,6.15192.19019,7.00835,7.00835,0,0,1,3.69841,1.85007,10.47959,10.47959,0,0,1,3.66556,8.54318A12.63533,12.63533,0,0,1,84.06413,140.594a9.36465,9.36465,0,0,1-4.36755,2.13536,31.26366,31.26366,0,0,1-5.92888.47895H67.07286V119.93721Zm-1.117,21.964a17.68726,17.68726,0,0,0,3.44425-.25416,8.83587,8.83587,0,0,0,2.93244-.79709c3.28345-1.65815,4.90875-4.91047,4.90875-9.78809a13.20952,13.20952,0,0,0-1.05126-5.80092,6.43469,6.43469,0,0,0-3.38027-3.15723,16.47265,16.47265,0,0,0-6.18477-.95616c-.47722,0-1.08238,0-1.78437.03286-.702.03112-1.5302.064-2.51921.09509v20.40266C71.31247,141.74211,72.52452,141.80609,73.73485,141.90118Z"/><path class="cls-1" d="M102.26572,130.13854a6.90529,6.90529,0,0,0,1.11523-.064c.38211,0,.73311-.03285,1.0841-.064.31815-.03286.60517-.064.86106-.064a4.8545,4.8545,0,0,1-.12794.89219c.03112.12794.064.287.09509.44609a2.682,2.682,0,0,1,.03285.47894q-.76509-.04928-1.53019-.0951c-.51007-.03285-1.02014-.064-1.5302-.064H96.97313v10.0094c.702.03286,2.77338-.03112,6.18477-.12794a19.006,19.006,0,0,0,3.1555-.34927v.51007a2.75943,2.75943,0,0,1-.12622.54119c.03112.15907.06224.351.09509.54118a2.82792,2.82792,0,0,1,.03113.47895H93.97671V119.93721h12.11364v.44609c-.03112.19019-.064.38212-.0951.54119q0,.096.0951,1.053a19.08841,19.08841,0,0,0-3.0604-.351l-3.44251-.064H96.97313v8.576Z"/><path class="cls-1" d="M130.08422,143.30343c-.47895-.60516-1.05126-1.30715-1.7861-2.10423l-14.75907-16.32213h-.351l.03113,18.45922c-.15908-.03286-.31815-.064-.4461-.09683a2.63529,2.63529,0,0,0-.54119-.03112h-.51006c-.12795.03112-.287.064-.44609.09509V119.93721H112.614l16.227,17.59642h.351V119.93721c.574.064.89219.09509.98729.12622.15907-.03113.31987-.06225.47894-.0951a2.66131,2.66131,0,0,1,.44609-.03112v23.36622Z"/><path class="cls-1" d="M148.66447,143.78238a13.05627,13.05627,0,0,1-6.40782-1.5302,10.16013,10.16013,0,0,1-4.20848-4.30358,13.93474,13.93474,0,0,1-1.4351-6.47179,12.63424,12.63424,0,0,1,1.65815-6.50291,11.06067,11.06067,0,0,1,4.68742-4.11339,14.66658,14.66658,0,0,1,6.534-1.43337,17.8459,17.8459,0,0,1,7.33285,1.56132,14.86969,14.86969,0,0,0-.66914,2.61431l-.2559.03112a7.61381,7.61381,0,0,0-2.39126-1.87946,7.85141,7.85141,0,0,0-4.08053-1.053,8.36252,8.36252,0,0,0-6.98013,3.12438,12.32111,12.32111,0,0,0-2.45523,7.77894,13.39933,13.39933,0,0,0,1.14808,5.70583,8.57089,8.57089,0,0,0,8.00026,5.06954,9.67915,9.67915,0,0,0,4.36755-.95616,13.3,13.3,0,0,0,2.87021-1.81722l-.15907,2.16649A13.8261,13.8261,0,0,1,148.66447,143.78238Z"/><path class="cls-1" d="M169.74145,130.13854a6.90529,6.90529,0,0,0,1.11523-.064c.38211,0,.73311-.03285,1.0841-.064.31815-.03286.60517-.064.86107-.064a4.85494,4.85494,0,0,1-.12795.89219c.03112.12794.064.287.09509.44609a2.68119,2.68119,0,0,1,.03286.47894q-.76511-.04928-1.5302-.0951c-.51007-.03285-1.02014-.064-1.5302-.064h-5.29259v10.0094c.702.03286,2.77338-.03112,6.18477-.12794a19.006,19.006,0,0,0,3.1555-.34927v.51007a2.75943,2.75943,0,0,1-.12622.54119c.03112.15907.06224.351.09509.54118a2.82792,2.82792,0,0,1,.03113.47895H161.45244V119.93721h12.11364v.44609c-.03112.19019-.064.38212-.0951.54119q0,.096.0951,1.053a19.08841,19.08841,0,0,0-3.0604-.351l-3.44251-.064h-2.61431v8.576Z"/><path class="cls-1" d="M180.27648,140.594a5.29556,5.29556,0,0,0,1.78437,1.24318,5.781,5.781,0,0,0,2.29616.415,4.40021,4.40021,0,0,0,3.41139-1.46623,4.97,4.97,0,0,0,1.33828-3.50649,3.6022,3.6022,0,0,0-1.33828-3.09325,18.00489,18.00489,0,0,0-3.98543-2.07138,12.94031,12.94031,0,0,1-4.01656-2.32729,4.96173,4.96173,0,0,1-1.37112-3.79351,5.72567,5.72567,0,0,1,2.16821-4.87762,8.58947,8.58947,0,0,1,5.41881-1.68927,7.32751,7.32751,0,0,1,4.94159,1.6253c-.15907.351-.47895,1.2743-.95616,2.8045h-.351a4.58428,4.58428,0,0,0-7.3-1.87947,3.70965,3.70965,0,0,0-1.24317,2.8996,3.64325,3.64325,0,0,0,1.30715,3.0604,15.64687,15.64687,0,0,0,3.9837,2.00914,14.37669,14.37669,0,0,1,4.08053,2.26331,4.7345,4.7345,0,0,1,1.404,3.69842,7.75611,7.75611,0,0,1-1.117,4.1445,7.24914,7.24914,0,0,1-3.0604,2.74053,9.85,9.85,0,0,1-4.27073.925,10.36235,10.36235,0,0,1-3.02927-.54118,6.17269,6.17269,0,0,1-2.55034-1.43511,17.14084,17.14084,0,0,0,.66914-3.02927h.351A10.04036,10.04036,0,0,0,180.27648,140.594Z"/><path class="cls-1" d="M72.85285,161.86788h2.60862l-1.26879-3.59863H74.169Zm2.72915.341H72.72775l-.92023,2.46085h1.66423v.341h-3.2583v-.341h1.24039l3.27657-8.85421h.20692l3.14276,8.85421h1.2083v.341H75.00586v-.341h1.45286ZM64.35,156.36615v3.85317h.81019a2.75425,2.75425,0,0,0,.727-.08374.97439.97439,0,0,0,.53526-.45408,2.34343,2.34343,0,0,0,.27292-1.15241h.347v3.80848h-.347a2.17205,2.17205,0,0,0-.41976-1.43071,1.57311,1.57311,0,0,0-1.11537-.345H64.35v4.10792h1.82874a2.86533,2.86533,0,0,0,2.154-.65284,3.32282,3.32282,0,0,0,.71277-2.01381h.3441l-.0878,3.0077H61.33376v-.341h1.42659v-8.30361H61.33376v-.34306H68.973l.15285,2.3998h-.34a2.58908,2.58908,0,0,0-.71594-1.57323,2.70935,2.70935,0,0,0-1.81-.48351Zm-4.681-.44317.04137,2.33389h-.31579q-.66969-2.09752-2.365-2.09834a1.97977,1.97977,0,0,0-1.45791.51813,1.52248,1.52248,0,0,0-.51911,1.076,1.10923,1.10923,0,0,0,.43286.87876,3.5271,3.5271,0,0,0,1.57848.56023,7.01681,7.01681,0,0,1,1.74446.47975,2.443,2.443,0,0,1,1.012.9499,2.83071,2.83071,0,0,1,.41162,1.522,3.01212,3.01212,0,0,1-.85961,2.19651,2.86693,2.86693,0,0,1-2.13492.87924,3.43425,3.43425,0,0,1-2.07137-.77234l-.629.56407h-.23359V162.497H54.59a3.84636,3.84636,0,0,0,1.10631,1.7833,2.37023,2.37023,0,0,0,1.55525.59477,2.42207,2.42207,0,0,0,1.53665-.55087,1.709,1.709,0,0,0,.70021-1.39686,1.63184,1.63184,0,0,0-.48481-1.19764,2.8864,2.8864,0,0,0-1.576-.66942,7.88006,7.88006,0,0,1-1.67237-.4308,2.26739,2.26739,0,0,1-.99679-.85007,2.31168,2.31168,0,0,1-.41671-1.34216,2.64152,2.64152,0,0,1,.724-1.81833,2.513,2.513,0,0,1,1.96389-.80334,3.21819,3.21819,0,0,1,1.93766.65808,2.42934,2.42934,0,0,0,.42732-.55065Z"/><path class="cls-1" d="M132.50472,156.34266v3.862h.80965a2.78993,2.78993,0,0,0,.72765-.082.9929.9929,0,0,0,.53543-.45319,2.36637,2.36637,0,0,0,.27189-1.1576h.34761v3.81756h-.34761a2.18927,2.18927,0,0,0-.41894-1.4348,1.57165,1.57165,0,0,0-1.116-.34594h-.80965v4.121h1.82749a2.85,2.85,0,0,0,2.15516-.65658,3.33514,3.33514,0,0,0,.71515-2.01755h.343l-.08732,3.01518h-7.97246v-.341h1.42845v-8.3271h-1.42845v-.34338h7.64244l.15308,2.40586h-.3402a2.59552,2.59552,0,0,0-.71654-1.57771,2.69952,2.69952,0,0,0-1.81056-.48477Zm-4.25636,8.66815h-6.89188v-.341l5.161-8.3271h-2.11858a2.20072,2.20072,0,0,0-1.61533.47363,3.14438,3.14438,0,0,0-.6635,1.603h-.31543l.14173-2.42H128.394v.24215l-5.24156,8.42833h2.19825a4.11646,4.11646,0,0,0,1.421-.1862,1.72862,1.72862,0,0,0,.84114-.92078,4.52739,4.52739,0,0,0,.45415-1.50864h.327Zm-12.88286-8.66815v3.862h.80895a2.792,2.792,0,0,0,.72835-.082.99253.99253,0,0,0,.53519-.45319,2.3636,2.3636,0,0,0,.27213-1.1576h.34715v3.81756h-.34715a2.1924,2.1924,0,0,0-.41826-1.4348,1.57691,1.57691,0,0,0-1.11741-.34594h-.80895v4.121h1.82678a2.85037,2.85037,0,0,0,2.15586-.65658,3.33219,3.33219,0,0,0,.71446-2.01755h.34275l-.08731,3.01518H112.347v-.341h1.428v-8.3271h-1.428v-.34338h7.642l.15285,2.40586h-.34043a2.60061,2.60061,0,0,0-.71608-1.57771,2.69814,2.69814,0,0,0-1.8101-.48477Zm-9.28412,0v3.862h.80941a2.78579,2.78579,0,0,0,.72823-.082.99246.99246,0,0,0,.53537-.45319,2.36444,2.36444,0,0,0,.272-1.1576h.3482v3.81756h-.3482a2.18822,2.18822,0,0,0-.41831-1.4348,1.57651,1.57651,0,0,0-1.11729-.34594h-.80941v4.121h1.82926a2.84866,2.84866,0,0,0,2.15379-.65658,3.3278,3.3278,0,0,0,.714-2.01755h.34321l-.08638,3.01518h-7.97107v-.341h1.42658v-8.3271h-1.42658v-.34338h7.64169l.15383,2.40586h-.34211a2.59137,2.59137,0,0,0-.7166-1.57771,2.69273,2.69273,0,0,0-1.80807-.48477Zm-9.977,0v3.73061h1.20658a4.95952,4.95952,0,0,0,1.18637-.10633,1.02848,1.02848,0,0,0,.653-.54327,2.99756,2.99756,0,0,0,.24525-1.40092,2.08034,2.08034,0,0,0-.24826-1.14934,1.0196,1.0196,0,0,0-.599-.44717,4.10177,4.10177,0,0,0-.922-.08358Zm-1.59414,8.3271v-8.3271H93.09674v-.34338h4.9247a6.23207,6.23207,0,0,1,1.58551.1689,2.11264,2.11264,0,0,1,1.06937.69454,1.81656,1.81656,0,0,1,.44754,1.21367,1.68657,1.68657,0,0,1-.656,1.38372,4.97216,4.97216,0,0,1-2.22442.80121v.03042a3.87277,3.87277,0,0,1,1.84693.86111,2.77555,2.77555,0,0,1,.72215,2.16615,1.98665,1.98665,0,0,0,.20235,1.12.702.702,0,0,0,.56769.24192,2.05736,2.05736,0,0,0,.56218-.0931v.32782a3.36666,3.36666,0,0,1-1.12733.20431,1.8117,1.8117,0,0,1-1.56032-.62012,1.97973,1.97973,0,0,1-.44512-1.20821l.02779-1.14321a2.14066,2.14066,0,0,0-.377-1.17872c-.25382-.38957-.82556-.5839-1.72077-.5839h-.83771v4.284h1.414v.341H93.09674v-.341Zm-6.74388-4.20088H86.54613v4.20088h1.26158a4.71785,4.71785,0,0,0,1.12077-.10727,1.229,1.229,0,0,0,.71458-.5767,2.82508,2.82508,0,0,0,.29366-1.46917,2.27816,2.27816,0,0,0-.44559-1.55925,2.31937,2.31937,0,0,0-1.72481-.48849m.15342-4.12622H86.54613v3.78215h1.23379c.8357,0,1.37008-.16181,1.60075-.48965a2.69064,2.69064,0,0,0,.34969-1.546,2.42955,2.42955,0,0,0-.22707-1.20311.94183.94183,0,0,0-.58186-.45981,4.54955,4.54955,0,0,0-1.00169-.08358m-2.96822,8.3271v-8.3271H83.5628v-.34338h4.64458a9,9,0,0,1,1.28833.07778,2.41708,2.41708,0,0,1,1.00423.39979,1.8796,1.8796,0,0,1,.69586.79519,2.24034,2.24034,0,0,1,.21092.89791q0,1.6044-2.4596,2.10345v.03343q2.77275.44925,2.77549,2.31195a2.22016,2.22016,0,0,1-.24925.96419,2.28756,2.28756,0,0,1-.79232.87736,2.70392,2.70392,0,0,1-1.10763.45923,9.10245,9.10245,0,0,1-1.42457.09125h-4.586v-.341Z"/><path class="cls-2" d="M96.0025,77.88358a39.09253,39.09253,0,0,1-8.15864-.865A38.751,38.751,0,0,1,74.84,6.60683a38.75056,38.75056,0,0,1,58.9832,40.59394h0A38.78434,38.78434,0,0,1,96.0025,77.88358Zm-.152-75.4696A36.70367,36.70367,0,0,0,65.13818,59.08475a36.69323,36.69323,0,0,0,66.673-12.31331h0A36.69432,36.69432,0,0,0,103.57642,3.23279,37.05442,37.05442,0,0,0,95.85046,2.414Z"/><path class="cls-2" d="M95.51155,77.24594c-3.52977-7.11076-1.07568-14.63478.89684-20.68025.4012-1.2314.781-2.39448,1.09375-3.49761,2.73808-9.64322-.40522-14.66794-4.04549-20.48568a42.75965,42.75965,0,0,1-4.89813-9.62112C84.8814,11.68312,92.34548,1.30147,92.665.8651l1.17279.85833c-.07367.1008-7.34016,10.22827-3.89814,20.78742a41.64073,41.64073,0,0,0,4.74877,9.30062c3.66506,5.85727,7.1265,11.38968,4.21227,21.65379-.32082,1.12993-.70461,2.30607-1.11117,3.55086-1.98792,6.09571-4.24174,13.00486-.97587,19.58348Z"/><path class="cls-2" d="M89.93358,26.37885c-1.11653-6.1024.3148-10.54675,4.50564-13.98643,5.876-4.82345,4.21227-10.44026,4.1386-10.677l1.38578-.4387c.08707.27394,2.05959,6.77051-4.60276,12.239-3.73873,3.06929-5.00931,7.07359-3.99794,12.602Z"/><path class="cls-2" d="M91.888,29.985c-.04286-.09209-4.21361-9.27081,4.13726-13.17566,7.596-3.5522,9.81837-7.48349,7.92622-14.02193l1.39584-.40388c2.085,7.20521-.51842,11.91312-8.70586,15.74194-7.02938,3.2873-3.58669,10.92217-3.43666,11.24534Z"/><path class="cls-2" d="M90.45869,76.42747l-1.44807-.11453c.59477-7.517-.10315-11.35653-3.11115-17.11768-1.27259-2.43734-3.62889-4.78326-6.35692-7.49924C76.02619,48.1954,72.041,44.22726,68.97537,38.72766c-6.73-12.07553.008-26.63061.29805-27.24413l1.31412.62055c-.06765.144-6.70454,14.5015-.34226,25.91629,2.96513,5.3211,6.874,9.21255,10.32271,12.64586,2.8131,2.801,5.24307,5.22,6.62015,7.85657C90.308,64.49861,91.07222,68.68175,90.45869,76.42747Z"/><path class="cls-2" d="M87.28191,62.13494c-1.58069-3.98119-3.75615-4.41555-8.52167-5.367-1.8198-.36335-4.085-.81546-6.73869-1.579C62.44832,52.4348,58.43431,46.1616,58.2682,45.89569l1.23173-.77125c.03818.06028,3.91288,6.07561,12.92349,8.668,2.59541.74681,4.734,1.1738,6.62148,1.55055,4.81106.96047,7.71525,1.54017,9.58729,6.25545Z"/><path class="cls-2" d="M71.85812,43.18809C58.47248,39.25043,58.8134,29.32222,58.81876,29.22242l1.45142.07067c-.01607.36168-.24648,8.89875,11.99785,12.50118Z"/><path class="cls-2" d="M67.04505,34.09711c-.73006-3.10746.72806-5.09605,2.41524-7.39843a19.99338,19.99338,0,0,0,3.38643-6.153,19.04835,19.04835,0,0,0-.02143-11.28284L74.185,8.74913a20.27156,20.27156,0,0,1,.0509,12.22524,21.219,21.219,0,0,1-3.60344,6.5833c-1.59609,2.17781-2.74946,3.75113-2.17278,6.20723Z"/><path class="cls-2" d="M80.69324,52.80921a21.72109,21.72109,0,0,1-5.8941-12.76944c-.52511-5.511,2.298-10.12144,5.28661-15.00249A59.382,59.382,0,0,0,83.98858,17.959c3.16339-7.24807,1.00468-14.87524.98257-14.95126l1.39449-.4079a25.56646,25.56646,0,0,1-1.04553,15.94053,60.32592,60.32592,0,0,1-3.99526,7.25544c-2.85864,4.66839-5.55787,9.07792-5.079,14.106a20.619,20.619,0,0,0,5.45272,11.85785Z"/><path class="cls-2" d="M79.30679,29.18994l-1.3235-.59946c1.02611-2.26722.57468-3.86532-.0509-6.07728a21.18351,21.18351,0,0,1-1.00066-7.67c.23041-3.76452,2.56193-10.024,2.66106-10.28855l1.361.5097c-.02344.063-2.35429,6.32076-2.5713,9.86793A19.65649,19.65649,0,0,0,79.3309,22.118C79.98662,24.43648,80.55259,26.43914,79.30679,29.18994Z"/><path class="cls-2" d="M99.08149,52.88221l-1.37171-.47956c2.83385-8.10941,9.18006-12.06549,14.77945-15.55574a55.18071,55.18071,0,0,0,6.56255-4.52841c6.36362-5.4065,5.96309-16.38794,5.9584-16.49812l1.45209-.063c.02076.47923.43,11.807-6.47012,17.6689a56.20528,56.20528,0,0,1-6.734,4.65366C107.59847,41.60807,101.74724,45.25572,99.08149,52.88221Z"/><path class="cls-2" d="M95.30659,67.35625l-1.45343-.00938a10.83928,10.83928,0,0,1,8.73532-10.00323,47.41332,47.41332,0,0,1,6.55987-.83455c9.03405-.76087,20.27771-1.70761,23.74519-14.45662l1.40252.38111c-3.73471,13.73057-16.04066,14.76673-25.02581,15.52359a46.4668,46.4668,0,0,0-6.34286.79972A9.35617,9.35617,0,0,0,95.30659,67.35625Z"/><path class="cls-2" d="M122.03968,63.23339A21.45763,21.45763,0,0,1,112.93,60.76524c-6.34152-3.07331-9.73732-2.066-9.77215-2.05591l-.43536-1.38645c.16075-.05023,3.98522-1.18786,10.84113,2.13494,6.36429,3.08536,11.17,2.77592,12.62476.87407l1.15471.88277C126.40936,62.43434,124.59357,63.23339,122.03968,63.23339Z"/><path class="cls-2" d="M104.92938,44.107l-.97119-1.08137c.34695-.31212,8.43593-7.72127,3.4447-14.39868a15.4271,15.4271,0,0,1-3.05823-12.2373,17.84456,17.84456,0,0,1,7.92689-11.56884l.781,1.225a16.36983,16.36983,0,0,0-7.27854,10.6047,14.00771,14.00771,0,0,0,2.793,11.10636C114.35391,35.49864,105.02382,44.02164,104.92938,44.107Z"/><path class="cls-2" d="M108.39886,30.27432c-.866-4.38742,1.45544-7.43059,5.7568-11.20415a15.425,15.425,0,0,0,4.655-9.33679l1.44807.11654a16.69553,16.69553,0,0,1-5.14528,10.31267c-4.60678,4.04181-5.94166,6.52236-5.28929,9.83042Z"/><path class="cls-2" d="M106.289,42.87229l-.8667-1.1661c4.13793-3.07765,5.3134-3.2461,9.6891-3.87235,1.42195-.20362,3.19219-.4568,5.53844-.87943,11.15124-2.009,10.37094-9.00927,10.33209-9.30631l1.43937-.19759c.01205.0864,1.06094,8.66868-11.51426,10.93389-2.37171.42732-4.156.68285-5.59.88813C111.02442,39.88706,110.13092,40.01465,106.289,42.87229Z"/><path class="cls-2" d="M99.73453,50.8953l-1.32416-.59845c.04421-.09846,4.59539-9.81335,17.98973-6.32612,7.21157,1.87975,11.38365-.20763,13.22824-1.6192a7.66667,7.66667,0,0,0,3.20023-5.82176l1.45343.01406a9.124,9.124,0,0,1-3.77089,6.96174c-2.05422,1.57232-6.66837,3.90685-14.478,1.87171C103.86241,42.20485,99.89729,50.539,99.73453,50.8953Z"/><path class="cls-2" d="M107.9126,28.49638c-.12123-.31246-2.93767-7.71926.39517-13.49649a20.50321,20.50321,0,0,1,7.91015-7.96306l.63429,1.30742a19.42305,19.42305,0,0,0-7.28525,7.38169c-2.98187,5.16738-.32685,12.17433-.30006,12.24432Z"/><path class="cls-2" d="M97.34274,58.37612l-1.40789-.35968c.02076-.0854,2.27459-8.51262,12.88732-7.74739,2.862.20629,5.40649.57769,7.65094.90521,5.67977.8292,9.43257,1.37674,12.35216-1.45912L129.838,50.758c-3.436,3.33486-7.68912,2.71363-13.57518,1.8543-2.21967-.32418-4.736-.69155-7.54512-.89383C99.35879,51.0383,97.4211,58.07639,97.34274,58.37612Z"/></svg>