<svg id="Layer_1" data-name="Layer 1" xmlns="http://www.w3.org/2000/svg" xmlns:xlink="http://www.w3.org/1999/xlink" viewBox="0 0 420.94501 198.384"><defs><style>.cls-1{fill:none;}.cls-2{clip-path:url(#clip-path);}.cls-3{fill:#8793a3;}</style><clipPath id="clip-path"><rect class="cls-1" width="420.94501" height="198.384"/></clipPath></defs><g class="cls-2"><g class="cls-2"><path class="cls-3" d="M134.63789,147.659l-3.061-4.304a9.49555,9.49555,0,0,1-1.071.058h-3.596v4.246h-1.415v-13.39h5.011a6.0584,6.0584,0,0,1,4.018,1.225,4.16784,4.16784,0,0,1,1.453,3.366,4.36249,4.36249,0,0,1-.793,2.65,4.40969,4.40969,0,0,1-2.267,1.559l3.271,4.59Zm-1.129-6.331a3.45159,3.45159,0,0,0,0-4.964,4.66088,4.66088,0,0,0-3.041-.87h-3.558v6.714h3.558a4.62178,4.62178,0,0,0,3.041-.88"/><polygon class="cls-3" points="147.932 146.435 147.932 147.659 138.463 147.659 138.463 134.269 147.645 134.269 147.645 135.494 139.878 135.494 139.878 140.256 146.803 140.256 146.803 141.461 139.878 141.461 139.878 146.435 147.932 146.435"/><path class="cls-3" d="M151.2316,147.2957a5.23664,5.23664,0,0,1-2.113-1.262l.553-1.091a5.33111,5.33111,0,0,0,1.933,1.177,7.05226,7.05226,0,0,0,2.486.449,4.54693,4.54693,0,0,0,2.698-.66,2.03044,2.03044,0,0,0,.899-1.712,1.71383,1.71383,0,0,0-.487-1.281,3.304,3.304,0,0,0-1.197-.736,18.98573,18.98573,0,0,0-1.97-.565,20.79528,20.79528,0,0,1-2.409-.736,3.94175,3.94175,0,0,1-1.54-1.081,2.86892,2.86892,0,0,1-.641-1.971,3.33709,3.33709,0,0,1,.535-1.845,3.66568,3.66568,0,0,1,1.646-1.33,6.736,6.736,0,0,1,2.753-.497,8.13409,8.13409,0,0,1,2.249.316,6.51263,6.51263,0,0,1,1.903.87l-.479,1.129a6.54249,6.54249,0,0,0-1.798-.832,6.70406,6.70406,0,0,0-1.875-.278,4.33344,4.33344,0,0,0-2.649.679,2.109,2.109,0,0,0-.89,1.751,1.74871,1.74871,0,0,0,.489,1.291,3.20547,3.20547,0,0,0,1.224.746c.491.171,1.151.361,1.98.564a19.70749,19.70749,0,0,1,2.381.718,3.89793,3.89793,0,0,1,1.54,1.071,2.83049,2.83049,0,0,1,.631,1.941,3.29308,3.29308,0,0,1-.545,1.846,3.65407,3.65407,0,0,1-1.674,1.319,6.99321,6.99321,0,0,1-2.774.489,8.59675,8.59675,0,0,1-2.859-.479"/><rect class="cls-3" x="162.061" y="134.269" width="1.41499" height="13.39"/><path class="cls-3" d="M166.9767,134.2694h5.451a7.96276,7.96276,0,0,1,3.75.852,6.21645,6.21645,0,0,1,2.525,2.372,7.15212,7.15212,0,0,1,0,6.943,6.21645,6.21645,0,0,1-2.525,2.372,7.97446,7.97446,0,0,1-3.75.851h-5.451Zm5.375,12.166a6.48842,6.48842,0,0,0,3.08-.698,5.06156,5.06156,0,0,0,2.046-1.933,5.90558,5.90558,0,0,0,0-5.681,5.07019,5.07019,0,0,0-2.046-1.931,6.48842,6.48842,0,0,0-3.08-.698h-3.96v10.941Z"/><polygon class="cls-3" points="191.384 146.435 191.384 147.659 181.916 147.659 181.916 134.269 191.097 134.269 191.097 135.494 183.331 135.494 183.331 140.256 190.255 140.256 190.255 141.461 183.331 141.461 183.331 146.435 191.384 146.435"/><polygon class="cls-3" points="205.042 134.269 205.042 147.659 203.875 147.659 195.267 136.794 195.267 147.659 193.853 147.659 193.853 134.269 195.019 134.269 203.646 145.134 203.646 134.269 205.042 134.269"/><path class="cls-3" d="M210.7706,146.8944a6.44543,6.44543,0,0,1-2.507-2.439,7.165,7.165,0,0,1,0-6.982,6.44013,6.44013,0,0,1,2.516-2.438,7.36847,7.36847,0,0,1,3.596-.88,7.44744,7.44744,0,0,1,2.754.497,5.71338,5.71338,0,0,1,2.143,1.454l-.899.898a5.33458,5.33458,0,0,0-3.959-1.588,5.82651,5.82651,0,0,0-2.889.728,5.29528,5.29528,0,0,0-2.036,1.989,5.799,5.799,0,0,0,0,5.662,5.30481,5.30481,0,0,0,2.036,1.99,5.8251,5.8251,0,0,0,2.889.726,5.26512,5.26512,0,0,0,3.959-1.606l.899.899a5.79409,5.79409,0,0,1-2.151,1.463,7.40542,7.40542,0,0,1-2.765.507,7.29961,7.29961,0,0,1-3.586-.88"/><polygon class="cls-3" points="230.903 146.435 230.903 147.659 221.434 147.659 221.434 134.269 230.616 134.269 230.616 135.494 222.849 135.494 222.849 140.256 229.774 140.256 229.774 141.461 222.849 141.461 222.849 146.435 230.903 146.435"/><path class="cls-3" d="M234.2023,147.2957a5.23664,5.23664,0,0,1-2.113-1.262l.554-1.091a5.318,5.318,0,0,0,1.932,1.177,7.05371,7.05371,0,0,0,2.487.449,4.54559,4.54559,0,0,0,2.697-.66,2.03043,2.03043,0,0,0,.899-1.712,1.71,1.71,0,0,0-.487-1.281,3.30411,3.30411,0,0,0-1.197-.736,18.985,18.985,0,0,0-1.97-.565,20.7944,20.7944,0,0,1-2.409-.736,3.94168,3.94168,0,0,1-1.54-1.081,2.86887,2.86887,0,0,1-.641-1.971,3.34526,3.34526,0,0,1,.535-1.845,3.66557,3.66557,0,0,1,1.646-1.33,6.73592,6.73592,0,0,1,2.753-.497,8.13414,8.13414,0,0,1,2.249.316,6.51287,6.51287,0,0,1,1.903.87l-.479,1.129a6.54229,6.54229,0,0,0-1.798-.832,6.70417,6.70417,0,0,0-1.875-.278,4.3354,4.3354,0,0,0-2.649.679,2.109,2.109,0,0,0-.89,1.751,1.74874,1.74874,0,0,0,.489,1.291,3.20562,3.20562,0,0,0,1.224.746c.491.171,1.151.361,1.98.564a19.70637,19.70637,0,0,1,2.381.718,3.89786,3.89786,0,0,1,1.54,1.071,2.83089,2.83089,0,0,1,.632,1.941,3.294,3.294,0,0,1-.546,1.846,3.65418,3.65418,0,0,1-1.674,1.319,6.99147,6.99147,0,0,1-2.773.489,8.59836,8.59836,0,0,1-2.86-.479"/><polygon class="cls-3" points="313.541 141.397 248.098 141.397 248.098 140.259 312.403 140.259 312.403 62.182 108.542 62.182 108.542 140.259 118.775 140.259 118.775 141.397 107.404 141.397 107.404 61.044 313.541 61.044 313.541 141.397"/><path class="cls-3" d="M153.4798,81.2556a14.38794,14.38794,0,0,1,6.457,5.366,16.39268,16.39268,0,0,1,0,16.564,14.30819,14.30819,0,0,1-6.457,5.396,24.164,24.164,0,0,1-9.889,1.872h-9.857v12.603h-8.111v-43.672h17.968a24.19742,24.19742,0,0,1,9.889,1.871m-2.215,20.089a8.89407,8.89407,0,0,0,0-12.852q-2.74649-2.2455-8.048-2.245h-9.483v17.344h9.483q5.301,0,8.048-2.247"/><path class="cls-3" d="M177.30609,120.7793a21.46666,21.46666,0,0,1-8.423-8.048,23.20058,23.20058,0,0,1,0-23.022,21.48064,21.48064,0,0,1,8.423-8.048,26.43941,26.43941,0,0,1,24.082,0,21.56872,21.56872,0,0,1,8.422,8.017,23.31747,23.31747,0,0,1,0,23.084,21.5616,21.5616,0,0,1-8.422,8.017,26.43941,26.43941,0,0,1-24.082,0m19.902-6.176a14.22018,14.22018,0,0,0,5.489-5.491,16.59288,16.59288,0,0,0,0-15.784,14.22018,14.22018,0,0,0-5.489-5.491,16.71606,16.71606,0,0,0-15.723,0,14.22259,14.22259,0,0,0-5.49,5.491,16.60012,16.60012,0,0,0,0,15.784,14.22259,14.22259,0,0,0,5.49,5.491,16.70848,16.70848,0,0,0,15.723,0"/><polygon class="cls-3" points="218.67 79.385 226.78 79.385 226.78 116.195 249.614 116.195 249.614 123.057 218.67 123.057 218.67 79.385"/><path class="cls-3" d="M260.78268,120.7793a21.46657,21.46657,0,0,1-8.423-8.048,23.20052,23.20052,0,0,1,0-23.022,21.48054,21.48054,0,0,1,8.423-8.048,26.43944,26.43944,0,0,1,24.082,0,21.56478,21.56478,0,0,1,8.423,8.017,23.3241,23.3241,0,0,1,0,23.084,21.55766,21.55766,0,0,1-8.423,8.017,26.43944,26.43944,0,0,1-24.082,0m19.902-6.176a14.22926,14.22926,0,0,0,5.49-5.491,16.60012,16.60012,0,0,0,0-15.784,14.22926,14.22926,0,0,0-5.49-5.491,16.714,16.714,0,0,0-15.722,0,14.21852,14.21852,0,0,0-5.491,5.491,16.60034,16.60034,0,0,0,0,15.784,14.21852,14.21852,0,0,0,5.491,5.491,16.70646,16.70646,0,0,0,15.722,0"/></g></g></svg>