<svg id="Layer_1" data-name="Layer 1" xmlns="http://www.w3.org/2000/svg" viewBox="0 0 206.13699 86.73039"><defs><style>.cls-1{fill:#fff;}</style></defs><path class="cls-1" d="M27.23378,86.61469l-3.061-4.304a9.49555,9.49555,0,0,1-1.071.058h-3.596v4.246h-1.415v-13.39h5.011a6.05835,6.05835,0,0,1,4.018,1.225,4.16784,4.16784,0,0,1,1.453,3.366,4.36249,4.36249,0,0,1-.793,2.65,4.40969,4.40969,0,0,1-2.267,1.559l3.271,4.59Zm-1.129-6.331a3.45157,3.45157,0,0,0,0-4.964,4.66084,4.66084,0,0,0-3.041-.87h-3.558v6.714h3.558a4.62175,4.62175,0,0,0,3.041-.88"/><polygon class="cls-1" points="40.528 85.391 40.528 86.615 31.059 86.615 31.059 73.225 40.241 73.225 40.241 74.45 32.474 74.45 32.474 79.212 39.399 79.212 39.399 80.417 32.474 80.417 32.474 85.391 40.528 85.391"/><path class="cls-1" d="M43.82748,86.25139a5.23671,5.23671,0,0,1-2.113-1.262l.553-1.091a5.33087,5.33087,0,0,0,1.933,1.177,7.052,7.052,0,0,0,2.486.449,4.547,4.547,0,0,0,2.698-.66,2.03044,2.03044,0,0,0,.899-1.712,1.71385,1.71385,0,0,0-.487-1.281,3.30406,3.30406,0,0,0-1.197-.736,18.98647,18.98647,0,0,0-1.97-.565,20.794,20.794,0,0,1-2.409-.736,3.94168,3.94168,0,0,1-1.54-1.081,2.86894,2.86894,0,0,1-.641-1.971,3.337,3.337,0,0,1,.535-1.845,3.66568,3.66568,0,0,1,1.646-1.33,6.736,6.736,0,0,1,2.753-.497,8.13409,8.13409,0,0,1,2.249.316,6.513,6.513,0,0,1,1.903.87l-.479,1.129a6.54229,6.54229,0,0,0-1.798-.832,6.7037,6.7037,0,0,0-1.875-.278,4.33342,4.33342,0,0,0-2.649.679,2.109,2.109,0,0,0-.89,1.751,1.74871,1.74871,0,0,0,.489,1.291,3.20536,3.20536,0,0,0,1.224.746c.491.171,1.151.361,1.98.564a19.70648,19.70648,0,0,1,2.381.718,3.89789,3.89789,0,0,1,1.54,1.071,2.83054,2.83054,0,0,1,.631,1.941,3.29305,3.29305,0,0,1-.545,1.846,3.654,3.654,0,0,1-1.674,1.319,6.993,6.993,0,0,1-2.774.489,8.59685,8.59685,0,0,1-2.859-.479"/><rect class="cls-1" x="54.65689" y="73.22469" width="1.41499" height="13.39"/><path class="cls-1" d="M59.57259,73.22509h5.451a7.96276,7.96276,0,0,1,3.75.852,6.21648,6.21648,0,0,1,2.525,2.372,7.15205,7.15205,0,0,1,0,6.943,6.21648,6.21648,0,0,1-2.525,2.372,7.97446,7.97446,0,0,1-3.75.851h-5.451Zm5.375,12.166a6.48845,6.48845,0,0,0,3.08-.698,5.0616,5.0616,0,0,0,2.046-1.933,5.90551,5.90551,0,0,0,0-5.681,5.07022,5.07022,0,0,0-2.046-1.931,6.48845,6.48845,0,0,0-3.08-.698h-3.96v10.941Z"/><polygon class="cls-1" points="83.98 85.391 83.98 86.615 74.512 86.615 74.512 73.225 83.693 73.225 83.693 74.45 75.927 74.45 75.927 79.212 82.851 79.212 82.851 80.417 75.927 80.417 75.927 85.391 83.98 85.391"/><polygon class="cls-1" points="97.638 73.225 97.638 86.615 96.471 86.615 87.863 75.75 87.863 86.615 86.449 86.615 86.449 73.225 87.615 73.225 96.242 84.09 96.242 73.225 97.638 73.225"/><path class="cls-1" d="M103.36649,85.85009a6.44539,6.44539,0,0,1-2.507-2.439,7.165,7.165,0,0,1,0-6.982,6.44015,6.44015,0,0,1,2.516-2.438,7.36844,7.36844,0,0,1,3.596-.88,7.44753,7.44753,0,0,1,2.754.497,5.71326,5.71326,0,0,1,2.143,1.454l-.899.898a5.33456,5.33456,0,0,0-3.959-1.588,5.82648,5.82648,0,0,0-2.889.728,5.29528,5.29528,0,0,0-2.036,1.989,5.799,5.799,0,0,0,0,5.662,5.30481,5.30481,0,0,0,2.036,1.99,5.82507,5.82507,0,0,0,2.889.726,5.2651,5.2651,0,0,0,3.959-1.606l.899.899a5.794,5.794,0,0,1-2.151,1.463,7.40538,7.40538,0,0,1-2.765.507,7.2996,7.2996,0,0,1-3.586-.88"/><polygon class="cls-1" points="123.499 85.391 123.499 86.615 114.03 86.615 114.03 73.225 123.212 73.225 123.212 74.45 115.445 74.45 115.445 79.212 122.37 79.212 122.37 80.417 115.445 80.417 115.445 85.391 123.499 85.391"/><path class="cls-1" d="M126.79819,86.25139a5.23669,5.23669,0,0,1-2.113-1.262l.554-1.091a5.31784,5.31784,0,0,0,1.932,1.177,7.05345,7.05345,0,0,0,2.487.449,4.54563,4.54563,0,0,0,2.697-.66,2.03044,2.03044,0,0,0,.899-1.712,1.71,1.71,0,0,0-.487-1.281,3.30406,3.30406,0,0,0-1.197-.736,18.98647,18.98647,0,0,0-1.97-.565,20.79466,20.79466,0,0,1-2.409-.736,3.94175,3.94175,0,0,1-1.54-1.081,2.86894,2.86894,0,0,1-.641-1.971,3.34522,3.34522,0,0,1,.535-1.845,3.66568,3.66568,0,0,1,1.646-1.33,6.736,6.736,0,0,1,2.753-.497,8.13409,8.13409,0,0,1,2.249.316,6.51288,6.51288,0,0,1,1.903.87l-.479,1.129a6.54249,6.54249,0,0,0-1.798-.832,6.7037,6.7037,0,0,0-1.875-.278,4.33544,4.33544,0,0,0-2.649.679,2.109,2.109,0,0,0-.89,1.751,1.74871,1.74871,0,0,0,.489,1.291,3.20536,3.20536,0,0,0,1.224.746c.491.171,1.151.361,1.98.564a19.70728,19.70728,0,0,1,2.381.718,3.89793,3.89793,0,0,1,1.54,1.071,2.83088,2.83088,0,0,1,.632,1.941,3.29394,3.29394,0,0,1-.546,1.846,3.654,3.654,0,0,1-1.674,1.319,6.99123,6.99123,0,0,1-2.773.489,8.59832,8.59832,0,0,1-2.86-.479"/><polygon class="cls-1" points="206.137 80.353 140.694 80.353 140.694 79.215 204.999 79.215 204.999 1.138 1.138 1.138 1.138 79.215 11.371 79.215 11.371 80.353 0 80.353 0 0 206.137 0 206.137 80.353"/><path class="cls-1" d="M46.07568,20.21129a14.38789,14.38789,0,0,1,6.457,5.366,15.00934,15.00934,0,0,1,2.246,8.298,15.04327,15.04327,0,0,1-2.246,8.266,14.30819,14.30819,0,0,1-6.457,5.396,24.164,24.164,0,0,1-9.889,1.872h-9.857v12.603h-8.111v-43.672h17.968a24.19722,24.19722,0,0,1,9.889,1.871m-2.215,20.089a7.82636,7.82636,0,0,0,2.745-6.425,7.83171,7.83171,0,0,0-2.745-6.427q-2.7465-2.24552-8.048-2.245h-9.483v17.344h9.483q5.301,0,8.048-2.247"/><path class="cls-1" d="M69.902,59.735a21.46666,21.46666,0,0,1-8.423-8.048,22.11559,22.11559,0,0,1-3.057-11.511,22.113,22.113,0,0,1,3.057-11.511,21.48057,21.48057,0,0,1,8.423-8.048,26.43941,26.43941,0,0,1,24.082,0,21.56872,21.56872,0,0,1,8.422,8.017,22.069,22.069,0,0,1,3.057,11.542,22.06394,22.06394,0,0,1-3.057,11.542,21.56167,21.56167,0,0,1-8.422,8.017,26.43941,26.43941,0,0,1-24.082,0m19.902-6.176a14.22009,14.22009,0,0,0,5.489-5.491,15.72644,15.72644,0,0,0,1.997-7.892,15.73177,15.73177,0,0,0-1.997-7.892,14.22009,14.22009,0,0,0-5.489-5.491,16.716,16.716,0,0,0-15.723,0,14.2225,14.2225,0,0,0-5.49,5.491,15.72091,15.72091,0,0,0-1.996,7.892,15.71559,15.71559,0,0,0,1.996,7.892,14.2225,14.2225,0,0,0,5.49,5.491,16.7085,16.7085,0,0,0,15.723,0"/><polygon class="cls-1" points="111.266 18.34 119.376 18.34 119.376 55.15 142.21 55.15 142.21 62.012 111.266 62.012 111.266 18.34"/><path class="cls-1" d="M153.37857,59.735a21.4666,21.4666,0,0,1-8.423-8.048,22.11559,22.11559,0,0,1-3.057-11.511,22.113,22.113,0,0,1,3.057-11.511,21.4805,21.4805,0,0,1,8.423-8.048,26.43941,26.43941,0,0,1,24.082,0,21.56474,21.56474,0,0,1,8.423,8.017,22.07749,22.07749,0,0,1,3.056,11.542,22.07242,22.07242,0,0,1-3.056,11.542,21.55769,21.55769,0,0,1-8.423,8.017,26.43941,26.43941,0,0,1-24.082,0m19.902-6.176a14.22926,14.22926,0,0,0,5.49-5.491,15.736,15.736,0,0,0,1.996-7.892,15.74131,15.74131,0,0,0-1.996-7.892,14.22926,14.22926,0,0,0-5.49-5.491,16.714,16.714,0,0,0-15.722,0,14.21856,14.21856,0,0,0-5.491,5.491,15.7209,15.7209,0,0,0-1.996,7.892,15.71558,15.71558,0,0,0,1.996,7.892,14.21856,14.21856,0,0,0,5.491,5.491,16.70648,16.70648,0,0,0,15.722,0"/></svg>