<?xml version="1.0" encoding="UTF-8"?>
<svg id="Layer_1" data-name="Layer 1" xmlns="http://www.w3.org/2000/svg" viewBox="0 0 221.77 138.79">
  <defs>
    <style>
      .cls-1 {
        fill: #fff;
      }
    </style>
  </defs>
  <g>
    <path class="cls-1" d="M15.74,126.47c-1.31-.62-3.1-1.16-5.35-1.62-1.65-.35-2.92-.69-3.83-1.04-.91-.35-1.55-.75-1.93-1.21-.38-.46-.56-1.02-.56-1.69s.21-1.29,.63-1.8c.42-.5,1.01-.89,1.78-1.15,.76-.26,1.68-.39,2.75-.39,1.44,0,2.87,.19,4.27,.56,1.4,.37,2.62,.92,3.66,1.65l1.34-2.73c-1.07-.75-2.45-1.35-4.16-1.8-1.7-.45-3.33-.67-4.89-.67-1.79,0-3.33,.26-4.63,.78-1.3,.52-2.3,1.28-2.99,2.27-.69,1-1.04,2.17-1.04,3.53,0,1.21,.27,2.24,.8,3.08,.53,.84,1.44,1.55,2.71,2.12,1.27,.58,3,1.08,5.2,1.52,1.67,.32,2.99,.64,3.94,.97,.95,.33,1.64,.74,2.06,1.23,.42,.49,.63,1.11,.63,1.86,0,.84-.25,1.55-.74,2.12-.49,.58-1.2,1-2.12,1.28-.92,.27-2.04,.41-3.33,.41-1.44,0-2.91-.24-4.4-.72-1.49-.48-2.87-1.16-4.14-2.06l-1.39,2.69c1.24,.92,2.74,1.67,4.48,2.23,1.75,.56,3.51,.84,5.31,.84,1.96,0,3.65-.27,5.07-.8,1.41-.53,2.52-1.32,3.31-2.36,.79-1.04,1.19-2.28,1.19-3.72,0-1.24-.27-2.3-.82-3.16-.55-.87-1.48-1.61-2.79-2.23Z"/>
    <path class="cls-1" d="M45.65,116.12c-1.86-1.05-3.99-1.58-6.39-1.58s-4.49,.52-6.37,1.56c-1.88,1.04-3.34,2.48-4.4,4.33-1.05,1.85-1.58,3.94-1.58,6.28s.53,4.38,1.58,6.22c1.05,1.83,2.5,3.27,4.33,4.31,1.83,1.04,3.9,1.56,6.22,1.56s4.26-.53,6.19-1.6c1.25-.69,2.26-1.57,3.08-2.61v3.78h3.29v-11.43c0-2.4-.53-4.53-1.58-6.41-1.05-1.88-2.51-3.34-4.38-4.4Zm1.49,15.31c-.78,1.39-1.86,2.46-3.23,3.23-1.37,.77-2.92,1.15-4.66,1.15s-3.28-.38-4.66-1.15c-1.37-.76-2.45-1.84-3.23-3.23-.78-1.39-1.17-2.97-1.17-4.76s.38-3.38,1.15-4.76c.76-1.39,1.83-2.47,3.2-3.25s2.92-1.17,4.66-1.17,3.33,.39,4.7,1.17c1.37,.78,2.45,1.87,3.23,3.27,.78,1.4,1.17,3,1.17,4.79s-.39,3.34-1.17,4.72Z"/>
    <path class="cls-1" d="M78.14,115.88c-1.63-.89-3.46-1.34-5.48-1.34s-3.89,.45-5.52,1.34c-1.63,.9-2.92,2.22-3.85,3.98-.94,1.76-1.41,3.87-1.41,6.32v12.17h3.25v-12.6c0-1.79,.34-3.31,1.02-4.55,.68-1.24,1.59-2.17,2.73-2.79,1.14-.62,2.4-.93,3.79-.93s2.66,.31,3.81,.93c1.15,.62,2.06,1.55,2.73,2.79,.66,1.24,1,2.76,1,4.55v12.6h3.25v-12.17c0-2.45-.48-4.56-1.43-6.32-.95-1.76-2.25-3.09-3.88-3.98Z"/>
    <path class="cls-1" d="M106.83,134.13c-.09,.07-.19,.14-.3,.19-.55,.38-1.18,.69-1.91,.95-.72,.26-1.5,.39-2.34,.39-1.3,0-2.38-.45-3.23-1.36-.85-.91-1.28-2.4-1.28-4.48v-11.91h9.18v-2.99h-16.5v2.99h4.07v11.78c0,2.94,.68,5.17,2.04,6.67,1.36,1.5,3.19,2.25,5.5,2.25,1.33,0,2.53-.22,3.62-.67,1.08-.45,1.98-.99,2.71-1.62l-1.34-2.38c-.06,.06-.13,.12-.22,.2Z"/>
    <path class="cls-1" d="M133.2,116.07c-1.88-1.02-4-1.54-6.37-1.54s-4.48,.52-6.35,1.56c-1.86,1.04-3.32,2.48-4.38,4.33-1.05,1.85-1.58,3.91-1.58,6.19s.53,4.43,1.58,6.26c1.05,1.83,2.51,3.28,4.38,4.33,1.86,1.05,3.98,1.58,6.35,1.58s4.49-.53,6.37-1.58c1.88-1.05,3.35-2.5,4.42-4.35,1.07-1.85,1.6-3.94,1.6-6.28s-.53-4.35-1.6-6.19c-1.07-1.85-2.54-3.28-4.42-4.31Zm1.56,15.31c-.78,1.39-1.86,2.47-3.23,3.25-1.37,.78-2.92,1.17-4.66,1.17s-3.29-.39-4.68-1.17c-1.39-.78-2.47-1.86-3.25-3.25-.78-1.39-1.17-2.97-1.17-4.76s.39-3.38,1.17-4.76c.78-1.39,1.85-2.46,3.23-3.23,1.37-.76,2.92-1.15,4.66-1.15s3.33,.38,4.7,1.15c1.37,.77,2.45,1.85,3.23,3.25,.78,1.4,1.17,2.98,1.17,4.74s-.39,3.38-1.17,4.76Z"/>
    <path class="cls-1" d="M157.47,114.53c-1.79,0-3.37,.42-4.74,1.26-1.37,.84-2.45,2.03-3.25,3.57-.79,1.55-1.19,3.36-1.19,5.44v13.56h3.25v-13.43c0-2.45,.53-4.31,1.6-5.57,1.07-1.26,2.57-1.88,4.51-1.88,1.1,0,2.1,.21,3.01,.63,.91,.42,1.65,.87,2.23,1.36,.03,.03,.05,.05,.07,.06,.01,.01,.04,.04,.06,.06l1.82-2.3c-.81-.78-1.84-1.44-3.1-1.97-1.26-.53-2.68-.8-4.27-.8Z"/>
    <rect class="cls-1" x="172.28" y="114.92" width="3.25" height="23.43"/>
    <path class="cls-1" d="M173.93,107.82c-.38,0-.72,.09-1.04,.28-.32,.19-.57,.44-.76,.76-.19,.32-.28,.67-.28,1.04,0,.55,.21,1.02,.63,1.43,.42,.4,.9,.61,1.45,.61,.37,0,.72-.09,1.04-.26,.32-.17,.57-.43,.76-.76,.19-.33,.28-.67,.28-1.02,0-.58-.2-1.07-.61-1.47s-.89-.61-1.47-.61Z"/>
    <path class="cls-1" d="M202.25,115.88c-1.63-.89-3.46-1.34-5.48-1.34s-3.89,.45-5.52,1.34c-1.63,.9-2.92,2.22-3.85,3.98-.94,1.76-1.41,3.87-1.41,6.32v12.17h3.25v-12.6c0-1.79,.34-3.31,1.02-4.55,.68-1.24,1.59-2.17,2.73-2.79,1.14-.62,2.4-.93,3.79-.93s2.66,.31,3.81,.93c1.15,.62,2.06,1.55,2.73,2.79,.66,1.24,1,2.76,1,4.55v12.6h3.25v-12.17c0-2.45-.48-4.56-1.43-6.32-.95-1.76-2.25-3.09-3.88-3.98Z"/>
    <rect class="cls-1" x="218.05" y="114.92" width="3.25" height="23.43"/>
    <path class="cls-1" d="M221.17,108.43c-.4-.4-.89-.61-1.47-.61-.38,0-.72,.09-1.04,.28-.32,.19-.57,.44-.76,.76-.19,.32-.28,.67-.28,1.04,0,.55,.21,1.02,.63,1.43,.42,.4,.9,.61,1.45,.61,.38,0,.72-.09,1.04-.26,.32-.17,.57-.43,.76-.76,.19-.33,.28-.67,.28-1.02,0-.58-.2-1.07-.61-1.47Z"/>
  </g>
  <g>
    <g>
      <path class="cls-1" d="M121.76,71.1h-21.57V31.25c0-6.2,4.84-11.24,10.79-11.24s10.79,5.04,10.79,11.24v39.85Zm-18.31-3.26h15.05V31.25c0-4.4-3.38-7.98-7.52-7.98s-7.52,3.58-7.52,7.98v36.59Z"/>
      <path class="cls-1" d="M131.74,81.07h-41.53V31.72c0-11.97,9.31-21.71,20.76-21.71s20.76,9.74,20.76,21.71v49.34Zm-38.27-3.26h35V31.72c0-10.17-7.85-18.45-17.5-18.45s-17.5,8.28-17.5,18.45v46.08Z"/>
      <path class="cls-1" d="M141.72,91.03h-61.48V32.19C80.24,14.44,94.03,0,110.98,0s30.74,14.44,30.74,32.19v58.84Zm-58.22-3.26h54.96V32.19c0-15.95-12.33-28.93-27.48-28.93s-27.48,12.98-27.48,28.93v55.58Z"/>
    </g>
    <g>
      <rect class="cls-1" x="120.16" y="43.88" width="19.95" height="3.26"/>
      <rect class="cls-1" x="81.86" y="43.88" width="19.99" height="3.26"/>
    </g>
  </g>
</svg>