<svg width="245" height="87" viewBox="0 0 245 87" fill="none" xmlns="http://www.w3.org/2000/svg">
<path d="M20.72 15.53C18.7993 14.4834 16.6999 13.8051 14.53 13.53L8.53 12.47C7.21016 12.3015 5.93427 11.8841 4.77 11.24C4.30736 10.9753 3.9236 10.5921 3.65821 10.1299C3.39281 9.66761 3.25536 9.143 3.26 8.61C3.25209 7.90886 3.44093 7.21954 3.80506 6.62032C4.16919 6.02109 4.69403 5.53596 5.32 5.22C7.31723 4.19943 9.53782 3.69413 11.78 3.75C14.9235 3.76072 18.0311 4.41765 20.91 5.68L22 3.2C18.6964 1.73872 15.1223 0.989135 11.51 1C8.73678 0.957728 6.00147 1.64759 3.58 3C2.58347 3.53721 1.75069 4.33381 1.16978 5.30552C0.588866 6.27723 0.28143 7.38789 0.28 8.52C0.181895 10.0198 0.637325 11.5035 1.56 12.69C2.84 14.21 4.95 14.85 7.56 15.35L14.16 16.5C15.8357 16.7318 17.4534 17.2744 18.93 18.1C19.4357 18.487 19.8438 18.9871 20.1217 19.5601C20.3995 20.1331 20.5394 20.7632 20.53 21.4C20.5653 22.0916 20.4306 22.7814 20.1377 23.4089C19.8449 24.0365 19.4027 24.5828 18.85 25C16.78 26.61 13.43 26.7 10.68 26.7C7.3381 26.5504 4.03473 25.924 0.87 24.84L0 27.37C3.411 28.7505 7.05045 29.4798 10.73 29.52C15.31 29.52 18.43 28.83 20.59 27.23C21.5238 26.5336 22.2815 25.6281 22.8025 24.5862C23.3234 23.5443 23.5931 22.3949 23.59 21.23C23.6402 20.1136 23.4026 19.003 22.9001 18.0049C22.3975 17.0067 21.6468 16.1545 20.72 15.53Z" fill="white"/>
<path d="M63.23 1.5H59.61L50.85 12.92H43.29V1.5H40.12V29.02H43.29V15.63H50.9L60.66 29.02H64.29L53.56 14.07L63.23 1.5Z" fill="white"/>
<path d="M92.9 19.39H92.63L82.81 1.5H79.19L91.16 22.78V29.02H94.28V22.64L106.2 1.5H102.76L92.9 19.39Z" fill="white"/>
<path d="M125.6 1.5H122.48V29.02H143.85V26.31H125.6V1.5Z" fill="white"/>
<path d="M163.25 1.5H160.13V29.01H163.25V1.5Z" fill="white"/>
<path d="M203.23 24.66L183.97 1.5H180.67V29.02H183.74V5.82L202.95 29.02H206.21V1.5H203.23V24.66Z" fill="white"/>
<path d="M244.46 1.5H223.64V4.34H244.46V1.5Z" fill="white"/>
<path d="M226.8 26.22V15.86H244.45V13.06H226.8H223.63V29.02H244.45V26.22H226.8Z" fill="white"/>
<path d="M27.26 48.59H28.4V56.84H27.26V53.15H22.13V56.84H21V48.59H22.13V52.13H27.26V48.59Z" fill="white"/>
<path d="M34.3 52.71C34.2843 52.1394 34.3864 51.5718 34.6 51.0425C34.8136 50.5132 35.134 50.0337 35.5414 49.6339C35.9487 49.2341 36.4341 48.9226 36.9672 48.7189C37.5004 48.5152 38.0699 48.4236 38.64 48.45C39.7725 48.45 40.8586 48.8999 41.6593 49.7006C42.4601 50.5014 42.91 51.5875 42.91 52.72C42.91 53.8525 42.4601 54.9385 41.6593 55.7393C40.8586 56.5401 39.7725 56.99 38.64 56.99C38.0681 57.0165 37.4969 56.9244 36.9624 56.7195C36.4278 56.5146 35.9414 56.2013 35.5338 55.7993C35.1262 55.3973 34.8062 54.9153 34.5938 54.3837C34.3815 53.852 34.2815 53.2822 34.3 52.71ZM41.84 52.71C41.8341 52.078 41.6411 51.4619 41.2855 50.9394C40.9298 50.4169 40.4274 50.0114 39.8416 49.7741C39.2558 49.5368 38.6129 49.4783 37.9938 49.6059C37.3748 49.7336 36.8075 50.0417 36.3633 50.4914C35.9192 50.9411 35.6182 51.5122 35.4983 52.1328C35.3783 52.7534 35.4449 53.3955 35.6895 53.9783C35.934 54.5611 36.3457 55.0584 36.8726 55.4076C37.3995 55.7567 38.018 55.9419 38.65 55.94C39.0766 55.9557 39.5018 55.8827 39.8986 55.7254C40.2954 55.5681 40.6552 55.3301 40.9552 55.0264C41.2551 54.7226 41.4887 54.3599 41.641 53.9611C41.7933 53.5624 41.8611 53.1363 41.84 52.71Z" fill="white"/>
<path d="M49.15 54.55V49.64H47.83V49L49.83 46.94H50.33V48.61H53.15V49.61H50.29V54.31C50.29 55.31 50.82 55.91 51.71 55.91C52.2092 55.9108 52.7007 55.7871 53.14 55.55L53.39 56.48C52.8122 56.7919 52.1666 56.9567 51.51 56.96C51.1898 56.9832 50.8684 56.9363 50.5682 56.8227C50.2679 56.7091 49.996 56.5314 49.7714 56.302C49.5468 56.0726 49.3749 55.7971 49.2675 55.4945C49.1602 55.192 49.1201 54.8696 49.15 54.55Z" fill="white"/>
<path d="M59.37 53.15C59.3966 53.5452 59.5012 53.9312 59.6778 54.2858C59.8543 54.6404 60.0994 54.9565 60.3987 55.2159C60.6981 55.4753 61.0458 55.6728 61.422 55.7971C61.7981 55.9214 62.195 55.9699 62.59 55.94C63.0455 55.9651 63.5008 55.8883 63.9229 55.7153C64.3449 55.5423 64.7231 55.2775 65.03 54.94L65.78 55.62C65.3649 56.0672 64.8598 56.4214 64.2979 56.6593C63.736 56.8971 63.13 57.0133 62.52 57C61.9495 57.0265 61.3796 56.9347 60.8462 56.7303C60.3129 56.5259 59.8276 56.2133 59.4209 55.8122C59.0142 55.4112 58.6949 54.9303 58.4831 54.3999C58.2712 53.8694 58.1715 53.3009 58.19 52.73C58.1619 52.1674 58.2511 51.6051 58.452 51.0788C58.653 50.5525 58.9612 50.0739 59.3572 49.6732C59.7532 49.2725 60.2282 48.9586 60.752 48.7515C61.2759 48.5443 61.8371 48.4485 62.4 48.47C62.9213 48.4562 63.4398 48.5515 63.9221 48.75C64.4044 48.9484 64.8398 49.2455 65.2005 49.6221C65.5612 49.9988 65.8391 50.4468 66.0164 50.9372C66.1937 51.4277 66.2665 51.9498 66.23 52.47C66.2304 52.7013 66.2103 52.9322 66.17 53.16L59.37 53.15ZM59.37 52.15H65.11C65.1142 51.794 65.0464 51.4407 64.9105 51.1116C64.7747 50.7825 64.5737 50.4842 64.3196 50.2348C64.0655 49.9854 63.7635 49.7899 63.4319 49.6602C63.1003 49.5305 62.7459 49.4692 62.39 49.48C61.6375 49.4442 60.9008 49.7048 60.3381 50.2058C59.7755 50.7068 59.4315 51.4084 59.38 52.16L59.37 52.15Z" fill="white"/>
<path d="M72.12 56.84V45.58H73.25V56.84H72.12Z" fill="white"/>
<path d="M96.39 56.84H94.86L93.75 55.55C93.3311 56.008 92.8212 56.3735 92.253 56.6232C91.6848 56.8729 91.0707 57.0012 90.45 57C89.9707 57.0245 89.4914 56.9509 89.0414 56.7839C88.5915 56.6169 88.1803 56.3598 87.8331 56.0285C87.4858 55.6972 87.2098 55.2985 87.0219 54.8569C86.8339 54.4152 86.738 53.9399 86.74 53.46C86.7592 52.724 86.9863 52.0085 87.3951 51.3962C87.8039 50.7839 88.3776 50.2999 89.05 50C88.7393 49.5394 88.5755 48.9955 88.58 48.44C88.5821 48.0941 88.6569 47.7526 88.7994 47.4374C88.9419 47.1223 89.149 46.8406 89.4073 46.6106C89.6656 46.3805 89.9693 46.2073 90.2988 46.1022C90.6283 45.997 90.9762 45.9622 91.32 46C92.4246 46.0066 93.4897 46.4114 94.32 47.14L93.73 48.06C93.0788 47.4449 92.2252 47.0893 91.33 47.06C91.1473 47.0464 90.9638 47.0699 90.7904 47.129C90.617 47.1881 90.4573 47.2816 90.3209 47.404C90.1846 47.5263 90.0744 47.675 89.9969 47.8409C89.9194 48.0069 89.8762 48.1869 89.87 48.37C89.87 49.01 90.17 49.61 91.18 50.71L93.85 53.81C94.3215 53.0125 94.6276 52.1283 94.75 51.21H95.82C95.6359 52.4204 95.1924 53.5768 94.52 54.6L96.39 56.84ZM93.09 54.78L90.15 51.35C89.98 51.15 89.81 50.98 89.68 50.8C89.1725 51.0199 88.7389 51.3809 88.4304 51.84C88.122 52.2991 87.9518 52.837 87.94 53.39C87.9329 53.7297 87.9954 54.0674 88.1237 54.382C88.252 54.6967 88.4434 54.9818 88.686 55.2198C88.9286 55.4577 89.2174 55.6435 89.5345 55.7656C89.8517 55.8878 90.1904 55.9437 90.53 55.93C91.0134 55.9277 91.4909 55.8243 91.9318 55.6262C92.3728 55.4281 92.7673 55.1398 93.09 54.78Z" fill="white"/>
<path d="M114.49 56.84L111.73 53.91H109.73V56.84H108.6V48.59H112.17C114.23 48.59 115.59 49.59 115.59 51.23C115.582 51.9164 115.308 52.5728 114.824 53.0601C114.341 53.5473 113.686 53.8271 113 53.84L115.81 56.84H114.49ZM109.69 49.64V52.86H112.13C113.38 52.86 114.4 52.43 114.4 51.27C114.4 50.11 113.46 49.64 112.14 49.64H109.69Z" fill="white"/>
<path d="M121.63 53.15C121.657 53.5452 121.761 53.9313 121.938 54.2859C122.114 54.6404 122.359 54.9565 122.659 55.2159C122.958 55.4753 123.306 55.6728 123.682 55.7971C124.058 55.9214 124.455 55.97 124.85 55.94C125.305 55.9651 125.761 55.8883 126.183 55.7154C126.605 55.5424 126.983 55.2775 127.29 54.94L128.04 55.62C127.626 56.0665 127.123 56.4203 126.563 56.6581C126.003 56.896 125.398 57.0125 124.79 57C124.219 57.0265 123.649 56.9346 123.115 56.7303C122.581 56.526 122.095 56.2136 121.688 55.8127C121.28 55.4118 120.96 54.9311 120.747 54.4006C120.534 53.8701 120.433 53.3014 120.45 52.73C120.422 52.1665 120.511 51.6033 120.713 51.0764C120.914 50.5494 121.223 50.0702 121.621 49.6694C122.018 49.2686 122.494 48.9549 123.019 48.7484C123.544 48.5419 124.106 48.4471 124.67 48.47C125.191 48.4562 125.71 48.5516 126.192 48.75C126.674 48.9484 127.11 49.2455 127.47 49.6222C127.831 49.9988 128.109 50.4468 128.286 50.9372C128.464 51.4277 128.536 51.9498 128.5 52.47C128.495 52.7011 128.475 52.9316 128.44 53.16L121.63 53.15ZM121.63 52.15H127.36C127.366 51.7945 127.299 51.4415 127.164 51.1124C127.03 50.7833 126.829 50.4849 126.576 50.2353C126.323 49.9858 126.022 49.7902 125.69 49.6603C125.359 49.5305 125.005 49.4692 124.65 49.48C123.898 49.4444 123.163 49.7052 122.602 50.2065C122.041 50.7077 121.699 51.4092 121.65 52.16L121.63 52.15Z" fill="white"/>
<path d="M133.19 55.9L133.68 54.95C134.557 55.5769 135.602 55.9253 136.68 55.95C138.02 55.95 138.85 55.5 138.85 54.6C138.85 53.7 138.25 53.49 136.51 53.17C134.16 52.73 133.45 52.04 133.45 50.8C133.45 49.35 134.59 48.48 136.5 48.48C137.623 48.4687 138.728 48.7699 139.69 49.35L139.22 50.35C138.382 49.8239 137.409 49.5529 136.42 49.57C135.28 49.57 134.61 49.99 134.61 50.74C134.61 51.49 135.11 51.74 136.83 52.12C139.25 52.62 139.99 53.32 139.99 54.6C139.99 56.14 138.68 57.03 136.62 57.03C135.39 57.0038 134.195 56.6103 133.19 55.9Z" fill="white"/>
<path d="M145 46.56C144.986 46.3916 145.023 46.2229 145.106 46.0758C145.19 45.9288 145.315 45.8103 145.467 45.7359C145.619 45.6615 145.789 45.6345 145.957 45.6586C146.124 45.6827 146.28 45.7566 146.405 45.8708C146.529 45.985 146.616 46.1341 146.655 46.2987C146.693 46.4632 146.681 46.6356 146.62 46.7932C146.559 46.9508 146.452 47.0863 146.313 47.1821C146.174 47.2779 146.009 47.3294 145.84 47.33C145.733 47.3414 145.624 47.3298 145.522 47.2961C145.42 47.2624 145.326 47.2073 145.246 47.1345C145.167 47.0617 145.104 46.9728 145.061 46.8737C145.019 46.7747 144.998 46.6678 145 46.56ZM145.28 56.84V48.59H146.41V56.84H145.28Z" fill="white"/>
<path d="M152.33 56.84V48.59H155.83C158.65 48.59 160.5 50.2 160.5 52.71C160.5 55.22 158.65 56.84 155.83 56.84H152.33ZM153.46 55.84H155.81C157.97 55.84 159.34 54.69 159.34 52.74C159.34 50.79 157.97 49.65 155.81 49.65H153.46V55.84Z" fill="white"/>
<path d="M166.63 53.15C166.657 53.5452 166.761 53.9312 166.938 54.2858C167.114 54.6404 167.359 54.9565 167.659 55.2159C167.958 55.4753 168.306 55.6728 168.682 55.7971C169.058 55.9214 169.455 55.9699 169.85 55.94C170.305 55.9651 170.761 55.8883 171.183 55.7153C171.605 55.5423 171.983 55.2775 172.29 54.94L173.04 55.62C172.626 56.0664 172.123 56.4202 171.563 56.6581C171.003 56.8959 170.398 57.0125 169.79 57C169.219 57.0264 168.649 56.9346 168.115 56.7303C167.581 56.526 167.095 56.2136 166.688 55.8127C166.28 55.4118 165.96 54.931 165.747 54.4006C165.534 53.8701 165.433 53.3014 165.45 52.73C165.422 52.1674 165.511 51.6051 165.712 51.0788C165.913 50.5525 166.221 50.0739 166.617 49.6732C167.013 49.2725 167.488 48.9586 168.012 48.7515C168.536 48.5443 169.097 48.4485 169.66 48.47C170.182 48.4563 170.701 48.5517 171.183 48.75C171.666 48.9483 172.102 49.2452 172.464 49.6217C172.825 49.9982 173.104 50.446 173.282 50.9365C173.461 51.4269 173.535 51.9493 173.5 52.47C173.496 52.7016 173.473 52.9324 173.43 53.16L166.63 53.15ZM166.63 52.15H172.37C172.374 51.794 172.306 51.4407 172.171 51.1116C172.035 50.7825 171.834 50.4842 171.58 50.2348C171.325 49.9854 171.024 49.7899 170.692 49.6602C170.36 49.5305 170.006 49.4692 169.65 49.48C168.897 49.4442 168.161 49.7048 167.598 50.2058C167.035 50.7068 166.691 51.4084 166.64 52.16L166.63 52.15Z" fill="white"/>
<path d="M186.51 52V56.87H185.36V52.13C185.36 50.48 184.49 49.5 182.95 49.5C182.556 49.5036 182.166 49.5867 181.805 49.7444C181.443 49.9022 181.117 50.1312 180.847 50.4179C180.576 50.7045 180.366 51.0429 180.229 51.4127C180.092 51.7825 180.031 52.1761 180.05 52.57V56.84H178.92V48.59H180.05V50.07C180.399 49.5573 180.872 49.1404 181.424 48.8574C181.976 48.5744 182.59 48.4343 183.21 48.45C183.67 48.4311 184.129 48.5121 184.555 48.6874C184.981 48.8627 185.364 49.1281 185.677 49.4654C185.991 49.8027 186.227 50.2039 186.371 50.6415C186.515 51.079 186.562 51.5425 186.51 52Z" fill="white"/>
<path d="M191.8 52.72C191.786 52.1503 191.889 51.5838 192.102 51.0554C192.316 50.527 192.635 50.0479 193.041 49.6478C193.446 49.2476 193.93 48.9349 194.461 48.7289C194.993 48.5229 195.561 48.428 196.13 48.45C196.718 48.4406 197.302 48.5519 197.846 48.7773C198.389 49.0026 198.881 49.3371 199.29 49.76L198.46 50.46C198.088 50.0826 197.629 49.8028 197.123 49.6454C196.617 49.488 196.08 49.4579 195.56 49.5577C195.039 49.6576 194.552 49.8843 194.14 50.2177C193.728 50.5512 193.405 50.9811 193.199 51.4693C192.993 51.9575 192.911 52.489 192.96 53.0166C193.009 53.5442 193.187 54.0516 193.479 54.4938C193.771 54.936 194.167 55.2994 194.633 55.5516C195.099 55.8039 195.62 55.9373 196.15 55.94C196.588 55.9535 197.023 55.871 197.426 55.6983C197.828 55.5255 198.188 55.2667 198.48 54.94L199.29 55.63C198.89 56.0682 198.401 56.4168 197.856 56.653C197.312 56.8891 196.724 57.0073 196.13 57C195.559 57.0236 194.99 56.9294 194.457 56.7234C193.924 56.5173 193.44 56.2037 193.034 55.8022C192.628 55.4006 192.308 54.9198 192.096 54.3895C191.884 53.8592 191.783 53.2909 191.8 52.72Z" fill="white"/>
<path d="M205.07 53.15C205.097 53.5452 205.201 53.9312 205.378 54.2858C205.554 54.6404 205.799 54.9565 206.099 55.2159C206.398 55.4753 206.746 55.6728 207.122 55.7971C207.498 55.9214 207.895 55.9699 208.29 55.94C208.745 55.9651 209.201 55.8883 209.623 55.7153C210.045 55.5423 210.423 55.2775 210.73 54.94L211.48 55.62C211.066 56.0664 210.563 56.4202 210.003 56.6581C209.443 56.8959 208.838 57.0125 208.23 57C207.659 57.0264 207.089 56.9346 206.555 56.7303C206.021 56.526 205.535 56.2136 205.128 55.8127C204.72 55.4118 204.4 54.931 204.187 54.4006C203.974 53.8701 203.873 53.3014 203.89 52.73C203.862 52.1674 203.951 51.6051 204.152 51.0788C204.353 50.5525 204.661 50.0739 205.057 49.6732C205.453 49.2725 205.928 48.9586 206.452 48.7515C206.976 48.5443 207.537 48.4485 208.1 48.47C208.621 48.4562 209.14 48.5515 209.622 48.75C210.104 48.9484 210.54 49.2455 210.9 49.6221C211.261 49.9988 211.539 50.4468 211.716 50.9372C211.894 51.4277 211.966 51.9498 211.93 52.47C211.93 52.7013 211.91 52.9322 211.87 53.16L205.07 53.15ZM205.07 52.15H210.81C210.814 51.794 210.746 51.4407 210.611 51.1116C210.475 50.7825 210.274 50.4842 210.02 50.2348C209.765 49.9854 209.464 49.7899 209.132 49.6602C208.8 49.5305 208.446 49.4692 208.09 49.48C207.337 49.4442 206.601 49.7048 206.038 50.2058C205.475 50.7068 205.131 51.4084 205.08 52.16L205.07 52.15Z" fill="white"/>
<path d="M216.63 55.9L217.12 54.95C217.996 55.578 219.042 55.9266 220.12 55.95C221.46 55.95 222.28 55.5 222.28 54.6C222.28 53.7 221.69 53.49 219.95 53.17C217.6 52.73 216.88 52.04 216.88 50.8C216.88 49.35 218.03 48.48 219.88 48.48C221.003 48.4687 222.108 48.7699 223.07 49.35L222.6 50.35C221.767 49.8204 220.797 49.549 219.81 49.57C218.66 49.57 217.99 49.99 217.99 50.74C217.99 51.49 218.5 51.74 220.22 52.12C222.63 52.62 223.38 53.32 223.38 54.6C223.38 56.14 222.07 57.03 220.01 57.03C218.797 56.994 217.621 56.6009 216.63 55.9Z" fill="white"/>
<path d="M87.3508 72.905C87.0008 73.295 86.6008 73.6 86.1508 73.82C85.7108 74.04 85.2308 74.15 84.7108 74.15C83.8108 74.15 83.0708 73.83 82.4908 73.19C81.9108 72.55 81.6208 71.775 81.6208 70.865C81.6208 69.835 82.0008 68.97 82.7608 68.27C83.5308 67.57 84.4358 67.22 85.4758 67.22C85.8958 67.22 86.2258 67.255 86.4658 67.325C86.8958 67.445 87.1108 67.66 87.1108 67.97C87.1108 68.13 87.0358 68.285 86.8858 68.435C86.7358 68.585 86.5758 68.66 86.4058 68.66C86.2558 68.66 85.9808 68.5 85.5808 68.18C85.1908 67.85 84.8608 67.685 84.5908 67.685C84.0408 67.685 83.5958 67.96 83.2558 68.51C82.9658 68.98 82.8208 69.51 82.8208 70.1C82.8208 71.04 83.1008 71.81 83.6608 72.41C84.1908 72.98 84.8458 73.265 85.6258 73.265C85.9158 73.265 86.1758 73.22 86.4058 73.13C86.6358 73.04 86.8908 72.89 87.1708 72.68L87.3508 72.905ZM91.9173 74.15C90.8673 74.15 89.9973 73.845 89.3073 73.235C88.5873 72.595 88.2273 71.755 88.2273 70.715C88.2273 69.705 88.5873 68.87 89.3073 68.21C90.0273 67.55 90.9023 67.22 91.9323 67.22C92.9823 67.22 93.8573 67.535 94.5573 68.165C95.2573 68.785 95.6073 69.615 95.6073 70.655C95.6073 71.655 95.2423 72.49 94.5123 73.16C93.7923 73.82 92.9273 74.15 91.9173 74.15ZM91.9023 67.55C91.1623 67.55 90.5823 67.885 90.1623 68.555C89.8023 69.135 89.6223 69.82 89.6223 70.61C89.6223 71.41 89.8173 72.12 90.2073 72.74C90.6573 73.46 91.2623 73.82 92.0223 73.82C92.7223 73.82 93.2773 73.48 93.6873 72.8C94.0373 72.22 94.2123 71.555 94.2123 70.805C94.2123 69.995 94.0323 69.28 93.6723 68.66C93.2423 67.92 92.6523 67.55 91.9023 67.55ZM98.6608 72.26C98.6608 72.88 98.7108 73.27 98.8108 73.43C98.9208 73.58 99.2208 73.695 99.7108 73.775V74H96.4108V73.775C96.9108 73.695 97.2158 73.575 97.3258 73.415C97.4458 73.245 97.5058 72.86 97.5058 72.26V69.395C97.5058 69.025 97.4808 68.785 97.4308 68.675C97.3508 68.505 97.1308 68.29 96.7708 68.03V67.88L98.5558 67.22L98.7208 67.28L98.6008 68.435C99.0108 68.075 99.3908 67.8 99.7408 67.61C100.211 67.35 100.661 67.22 101.091 67.22C101.501 67.22 101.876 67.33 102.216 67.55C102.556 67.76 102.791 68.055 102.921 68.435C103.351 68.065 103.731 67.79 104.061 67.61C104.531 67.35 104.981 67.22 105.411 67.22C106.221 67.22 106.776 67.52 107.076 68.12C107.276 68.52 107.376 69.075 107.376 69.785C107.376 69.875 107.371 69.965 107.361 70.055C107.361 70.135 107.361 70.215 107.361 70.295V72.26C107.361 72.88 107.411 73.27 107.511 73.43C107.621 73.58 107.921 73.695 108.411 73.775V74H105.111V73.775C105.611 73.695 105.916 73.575 106.026 73.415C106.146 73.245 106.206 72.86 106.206 72.26V70.67C106.216 70.51 106.221 70.37 106.221 70.25C106.221 69.64 106.136 69.165 105.966 68.825C105.696 68.275 105.211 68 104.511 68C104.201 68 103.931 68.06 103.701 68.18C103.481 68.3 103.251 68.485 103.011 68.735V72.26C103.011 72.88 103.061 73.27 103.161 73.43C103.271 73.58 103.571 73.695 104.061 73.775V74H100.761V73.775C101.261 73.695 101.566 73.575 101.676 73.415C101.796 73.245 101.856 72.86 101.856 72.26V70.67V70.25C101.856 69.61 101.776 69.125 101.616 68.795C101.356 68.265 100.876 68 100.176 68C99.8758 68 99.6058 68.065 99.3658 68.195C99.1358 68.325 98.9008 68.51 98.6608 68.75V72.26ZM108.843 74V73.775C109.393 73.695 109.723 73.575 109.833 73.415C109.953 73.255 110.013 72.87 110.013 72.26V69.395C110.013 69.035 109.978 68.795 109.908 68.675C109.808 68.495 109.538 68.28 109.098 68.03V67.88L111.003 67.22L111.168 67.28V72.26C111.168 72.88 111.223 73.27 111.333 73.43C111.453 73.58 111.788 73.695 112.338 73.775V74H108.843ZM111.288 64.385C111.288 64.595 111.213 64.775 111.063 64.925C110.913 65.075 110.733 65.15 110.523 65.15C110.313 65.15 110.133 65.075 109.983 64.925C109.833 64.775 109.758 64.595 109.758 64.385C109.758 64.175 109.833 63.995 109.983 63.845C110.133 63.695 110.313 63.62 110.523 63.62C110.733 63.62 110.913 63.695 111.063 63.845C111.213 63.995 111.288 64.175 111.288 64.385ZM113.985 69.395C113.985 69.025 113.96 68.785 113.91 68.675C113.83 68.505 113.61 68.29 113.25 68.03V67.88L115.035 67.22L115.2 67.28L115.08 68.375C115.59 68.005 116.015 67.735 116.355 67.565C116.825 67.335 117.28 67.22 117.72 67.22C118.51 67.22 119.05 67.505 119.34 68.075C119.52 68.425 119.61 68.93 119.61 69.59V72.26C119.61 72.88 119.665 73.27 119.775 73.43C119.895 73.58 120.23 73.695 120.78 73.775V74H117.285V73.775C117.835 73.695 118.165 73.575 118.275 73.415C118.395 73.255 118.455 72.87 118.455 72.26V70.535C118.455 69.735 118.39 69.185 118.26 68.885C118 68.295 117.47 68 116.67 68C116.12 68 115.61 68.215 115.14 68.645V72.26C115.14 72.88 115.195 73.27 115.305 73.43C115.425 73.58 115.76 73.695 116.31 73.775V74H112.815V73.775C113.365 73.695 113.695 73.575 113.805 73.415C113.925 73.255 113.985 72.87 113.985 72.26V69.395ZM126.099 69.665C126.099 69.095 125.984 68.62 125.754 68.24C125.474 67.78 125.069 67.55 124.539 67.55C124.099 67.55 123.764 67.75 123.534 68.15C123.344 68.48 123.249 68.885 123.249 69.365C123.249 70.055 123.424 70.6 123.774 71C124.084 71.35 124.434 71.525 124.824 71.525C125.274 71.525 125.609 71.32 125.829 70.91C126.009 70.57 126.099 70.155 126.099 69.665ZM124.074 74C123.724 74.16 123.424 74.355 123.174 74.585C122.844 74.895 122.679 75.2 122.679 75.5C122.679 75.99 122.979 76.36 123.579 76.61C124.029 76.8 124.539 76.895 125.109 76.895C125.789 76.895 126.384 76.765 126.894 76.505C127.544 76.175 127.869 75.705 127.869 75.095C127.869 74.615 127.649 74.28 127.209 74.09C126.909 73.96 126.509 73.895 126.009 73.895C125.899 73.895 125.804 73.9 125.724 73.91C125.644 73.91 125.584 73.91 125.544 73.91L124.074 74ZM126.279 72.86C127.069 72.86 127.679 73.005 128.109 73.295C128.549 73.575 128.769 73.97 128.769 74.48C128.769 75.26 128.329 75.97 127.449 76.61C126.509 77.29 125.394 77.63 124.104 77.63C123.294 77.63 122.654 77.455 122.184 77.105C121.784 76.805 121.584 76.47 121.584 76.1C121.584 75.6 121.809 75.165 122.259 74.795C122.459 74.625 122.904 74.36 123.594 74C123.224 73.95 122.899 73.84 122.619 73.67C122.249 73.45 122.064 73.18 122.064 72.86C122.064 72.65 122.209 72.405 122.499 72.125C122.609 72.015 122.844 71.82 123.204 71.54C122.824 71.33 122.524 71.06 122.304 70.73C122.084 70.4 121.974 70.03 121.974 69.62C121.974 68.88 122.264 68.285 122.844 67.835C123.374 67.425 124.024 67.22 124.794 67.22C125.154 67.22 125.474 67.26 125.754 67.34C126.044 67.41 126.379 67.53 126.759 67.7H128.904V68.33L127.074 68.285C127.144 68.415 127.209 68.575 127.269 68.765C127.339 68.955 127.374 69.185 127.374 69.455C127.374 70.185 127.089 70.775 126.519 71.225C125.989 71.645 125.344 71.855 124.584 71.855C124.184 71.855 123.809 71.79 123.459 71.66C123.259 71.86 123.159 72.06 123.159 72.26C123.159 72.45 123.254 72.61 123.444 72.74C123.644 72.87 123.949 72.935 124.359 72.935L126.279 72.86ZM137.833 69.05L137.503 69.11C137.323 68.51 137.123 68.105 136.903 67.895C136.683 67.685 136.418 67.58 136.108 67.58C135.808 67.58 135.568 67.68 135.388 67.88C135.208 68.08 135.118 68.33 135.118 68.63C135.118 69.12 135.633 69.65 136.663 70.22C137.703 70.78 138.223 71.395 138.223 72.065C138.223 72.705 137.963 73.22 137.443 73.61C136.963 73.97 136.393 74.15 135.733 74.15C135.033 74.15 134.423 73.965 133.903 73.595L133.783 71.93L134.128 71.87C134.248 72.41 134.438 72.84 134.698 73.16C135.018 73.56 135.423 73.76 135.913 73.76C136.263 73.76 136.543 73.65 136.753 73.43C136.963 73.21 137.068 72.925 137.068 72.575C137.068 72.035 136.548 71.505 135.508 70.985C134.478 70.455 133.963 69.815 133.963 69.065C133.963 68.505 134.178 68.06 134.608 67.73C135.038 67.39 135.543 67.22 136.123 67.22C136.753 67.22 137.308 67.385 137.788 67.715L137.833 69.05ZM142.908 74.15C141.858 74.15 140.988 73.845 140.298 73.235C139.578 72.595 139.218 71.755 139.218 70.715C139.218 69.705 139.578 68.87 140.298 68.21C141.018 67.55 141.893 67.22 142.923 67.22C143.973 67.22 144.848 67.535 145.548 68.165C146.248 68.785 146.598 69.615 146.598 70.655C146.598 71.655 146.233 72.49 145.503 73.16C144.783 73.82 143.918 74.15 142.908 74.15ZM142.893 67.55C142.153 67.55 141.573 67.885 141.153 68.555C140.793 69.135 140.613 69.82 140.613 70.61C140.613 71.41 140.808 72.12 141.198 72.74C141.648 73.46 142.253 73.82 143.013 73.82C143.713 73.82 144.268 73.48 144.678 72.8C145.028 72.22 145.203 71.555 145.203 70.805C145.203 69.995 145.023 69.28 144.663 68.66C144.233 67.92 143.643 67.55 142.893 67.55ZM151.302 74.15C150.252 74.15 149.382 73.845 148.692 73.235C147.972 72.595 147.612 71.755 147.612 70.715C147.612 69.705 147.972 68.87 148.692 68.21C149.412 67.55 150.287 67.22 151.317 67.22C152.367 67.22 153.242 67.535 153.942 68.165C154.642 68.785 154.992 69.615 154.992 70.655C154.992 71.655 154.627 72.49 153.897 73.16C153.177 73.82 152.312 74.15 151.302 74.15ZM151.287 67.55C150.547 67.55 149.967 67.885 149.547 68.555C149.187 69.135 149.007 69.82 149.007 70.61C149.007 71.41 149.202 72.12 149.592 72.74C150.042 73.46 150.647 73.82 151.407 73.82C152.107 73.82 152.662 73.48 153.072 72.8C153.422 72.22 153.597 71.555 153.597 70.805C153.597 69.995 153.417 69.28 153.057 68.66C152.627 67.92 152.037 67.55 151.287 67.55ZM156.876 69.395C156.876 69.025 156.851 68.785 156.801 68.675C156.721 68.505 156.501 68.29 156.141 68.03V67.88L157.926 67.22L158.091 67.28L157.971 68.375C158.481 68.005 158.906 67.735 159.246 67.565C159.716 67.335 160.171 67.22 160.611 67.22C161.401 67.22 161.941 67.505 162.231 68.075C162.411 68.425 162.501 68.93 162.501 69.59V72.26C162.501 72.88 162.556 73.27 162.666 73.43C162.786 73.58 163.121 73.695 163.671 73.775V74H160.176V73.775C160.726 73.695 161.056 73.575 161.166 73.415C161.286 73.255 161.346 72.87 161.346 72.26V70.535C161.346 69.735 161.281 69.185 161.151 68.885C160.891 68.295 160.361 68 159.561 68C159.011 68 158.501 68.215 158.031 68.645V72.26C158.031 72.88 158.086 73.27 158.196 73.43C158.316 73.58 158.651 73.695 159.201 73.775V74H155.706V73.775C156.256 73.695 156.586 73.575 156.696 73.415C156.816 73.255 156.876 72.87 156.876 72.26V69.395Z" fill="white"/>
</svg>
