<svg xmlns:xlink="http://www.w3.org/1999/xlink" width="237" height="186" viewBox="0 0 237 186" fill="none" xmlns="http://www.w3.org/2000/svg">
<g clip-path="url(#clip0_17_2)" fill="none">
<path d="M82.29 118.045C82.0269 118.028 81.7631 118.028 81.5 118.045H80.67L80 118.145V94.7447H86.07C87.8394 94.6951 89.6076 94.8767 91.33 95.2847C92.4184 95.5149 93.3896 96.1245 94.07 97.0047C94.6904 98.018 94.9805 99.1992 94.9 100.385C94.963 101.236 94.8389 102.09 94.5366 102.888C94.2343 103.687 93.761 104.409 93.15 105.005C91.5367 106.25 89.6212 107.044 87.6 107.305L86.16 107.525C85.78 107.525 85.16 107.465 84.41 107.435L82.98 107.365V118.115C82.7487 118.107 82.5182 118.083 82.29 118.045ZM86.38 106.045C87.8899 105.943 89.3115 105.296 90.38 104.225C90.8529 103.734 91.2231 103.154 91.4687 102.519C91.7143 101.884 91.8303 101.206 91.81 100.525C91.857 99.4174 91.5018 98.3305 90.81 97.4647C90.0763 96.6366 89.0442 96.1331 87.94 96.0647C86.2954 95.9486 84.6446 95.9486 83 96.0647V106.065C84.124 106.165 85.2544 106.175 86.38 106.095V106.045Z" fill="#FFFFFF"></path>
<path d="M115.61 118.045C115.431 118.063 115.25 118.063 115.07 118.045H113.54L112.71 118.145C111.34 114.315 110.12 111.255 109.1 108.925H100.43C98.74 113.105 97.63 116.165 97.05 118.145L96.48 118.045C96.247 118.028 96.0131 118.028 95.78 118.045H95.07L94.53 118.145L105.25 94.2346H106.01L116.31 118.115C116.075 118.108 115.841 118.085 115.61 118.045ZM101.07 107.425H108.59L104.77 98.7246L101.07 107.425Z" fill="#FFFFFF"></path>
<path d="M127.47 94.7446C132.47 94.7446 135.03 96.4646 135.03 99.8746C135.066 100.718 134.904 101.558 134.557 102.327C134.209 103.097 133.686 103.774 133.03 104.305C131.575 105.431 129.852 106.158 128.03 106.415L135.11 115.335L136.73 117.335L137.37 118.195L136.6 118.095C136.41 118.113 136.22 118.113 136.03 118.095H134.72C134.519 118.104 134.319 118.124 134.12 118.155C133.887 118.173 133.653 118.173 133.42 118.155C132.49 116.845 131.79 115.855 131.28 115.155L127.28 109.925L124.54 106.705H123.23V118.155L122.63 118.055C122.481 118.073 122.329 118.073 122.18 118.055H120.91L120.24 118.155V94.7446H127.47ZM127.66 105.265C128.867 105.06 129.97 104.454 130.79 103.545C131.619 102.691 132.079 101.545 132.07 100.355C132.07 97.8946 130.83 96.4646 128.31 96.0546C126.647 95.9055 124.976 95.8821 123.31 95.9846V105.425C124.759 105.603 126.228 105.549 127.66 105.265Z" fill="#FFFFFF"></path>
<path d="M147.44 105.135C148.36 106.185 149.83 107.815 151.87 110.045C153.91 112.275 155.19 113.745 155.79 114.505L158.57 117.955V118.145L157.71 118.045C157.377 118.028 157.043 118.028 156.71 118.045H155.66L154.83 118.145C153.83 116.675 152.99 115.625 152.44 115.015L145.01 106.345C144.893 106.246 144.751 106.18 144.6 106.155C144.47 106.155 144.41 106.155 144.41 106.215V118.215L143.84 118.115C143.691 118.134 143.539 118.134 143.39 118.115H142.07L141.4 118.215V94.7446H142.07C142.35 94.7653 142.627 94.8088 142.9 94.8746C143.13 94.8746 143.38 94.8046 143.67 94.7746C143.913 94.7614 144.157 94.7614 144.4 94.7746V105.325C144.4 105.585 144.72 105.515 145.23 105.135C145.886 104.612 146.501 104.04 147.07 103.425L155.46 94.7546H156.07C156.327 94.7725 156.582 94.816 156.83 94.8846L157.5 94.7846C157.713 94.7718 157.927 94.7718 158.14 94.7846L150.4 102.215L147.44 105.135Z" fill="#FFFFFF"></path>
<path d="M16.24 126.615C21.24 126.615 23.79 128.335 23.79 131.745C23.8245 132.588 23.6616 133.427 23.3144 134.196C22.9672 134.965 22.4452 135.643 21.79 136.175C20.3344 137.3 18.6114 138.027 16.79 138.285L23.87 147.205L25.49 149.155L26.13 150.015L25.37 149.915C25.1771 149.933 24.9829 149.933 24.79 149.915H23.5C23.2991 149.925 23.0989 149.945 22.9 149.975C22.6669 149.989 22.4331 149.989 22.2 149.975C21.27 148.675 20.57 147.685 20.06 146.975L16.06 141.745L13.3 138.565H12V150.015L11.39 149.915C11.2406 149.933 11.0894 149.933 10.94 149.915H9.67L9 150.005V126.615H16.24ZM16.43 137.135C17.6323 136.93 18.7311 136.328 19.55 135.425C20.3673 134.565 20.816 133.42 20.8 132.235C20.8 129.775 19.55 128.345 17.03 127.935C15.3678 127.78 13.6959 127.757 12.03 127.865V137.275C13.4947 137.464 14.9803 137.417 16.43 137.135Z" fill="#FFFFFF"></path>
<path d="M38.72 136.815C39.0943 136.823 39.4687 136.803 39.84 136.755C40.22 136.755 40.57 136.755 40.92 136.685C41.27 136.615 41.53 136.625 41.78 136.625C41.7728 136.925 41.7292 137.224 41.65 137.515C41.6913 137.663 41.7246 137.813 41.75 137.965C41.7632 138.124 41.7632 138.285 41.75 138.445L40.22 138.345C39.71 138.345 39.22 138.285 38.69 138.285H33.43V148.285C34.13 148.285 36.2 148.285 39.61 148.155C40.6712 148.125 41.7281 148.008 42.77 147.805V148.315C42.7491 148.499 42.7055 148.681 42.64 148.855C42.64 149.015 42.71 149.205 42.74 149.395C42.7532 149.554 42.7532 149.715 42.74 149.875H30.43V126.615H42.55V127.055C42.55 127.245 42.48 127.445 42.45 127.605C42.42 127.765 42.45 128.015 42.55 128.605C41.5411 128.405 40.5178 128.288 39.49 128.255L36 128.235H33.43V136.815H38.72Z" fill="#FFFFFF"></path>
<path d="M49.26 147.275C49.7505 147.801 50.3424 148.223 51 148.515C51.7303 148.808 52.5133 148.948 53.3 148.925C53.9499 148.943 54.5959 148.818 55.1921 148.559C55.7884 148.3 56.3202 147.912 56.75 147.425C57.636 146.473 58.1166 145.214 58.09 143.915C58.1346 143.329 58.0359 142.742 57.8024 142.204C57.5689 141.665 57.2077 141.192 56.75 140.825C55.5086 139.97 54.1647 139.274 52.75 138.755C51.2887 138.222 49.9342 137.433 48.75 136.425C48.2694 135.923 47.8985 135.327 47.6609 134.675C47.4233 134.022 47.3242 133.328 47.37 132.635C47.3091 131.706 47.4748 130.777 47.8529 129.927C48.2309 129.077 48.8099 128.331 49.54 127.755C51.1182 126.597 53.045 126.015 55 126.105C56.7893 126.023 58.5466 126.599 59.94 127.725C59.78 128.075 59.46 129.005 58.99 130.535H58.6C58.3137 129.642 57.754 128.862 57 128.305C56.1423 127.747 55.1281 127.48 54.1072 127.543C53.0863 127.606 52.1127 127.996 51.33 128.655C50.9211 129.016 50.5971 129.464 50.381 129.965C50.165 130.466 50.0622 131.009 50.08 131.555C50.0401 132.132 50.1381 132.711 50.3659 133.243C50.5936 133.775 50.9447 134.245 51.39 134.615C52.6214 135.468 53.9683 136.142 55.39 136.615C56.8656 137.137 58.2443 137.901 59.47 138.875C59.959 139.352 60.3383 139.931 60.5817 140.57C60.8252 141.208 60.9269 141.893 60.88 142.575C60.9025 144.032 60.5143 145.467 59.76 146.715C59.0112 147.903 57.9297 148.845 56.65 149.425C55.3148 150.052 53.8552 150.37 52.38 150.355C51.3589 150.323 50.348 150.141 49.38 149.815C48.4205 149.566 47.5354 149.089 46.8 148.425C47.1139 147.447 47.3382 146.443 47.47 145.425H47.82C48.2263 146.095 48.7096 146.716 49.26 147.275Z" fill="#FFFFFF"></path>
<path d="M66.77 126.615C67.0359 126.635 67.2999 126.676 67.56 126.735L68.39 126.645C68.6365 126.632 68.8835 126.632 69.13 126.645V150.045L68.52 149.945C68.3705 149.963 68.2194 149.963 68.07 149.945H66.77L66.1 150.035V126.615H66.77Z" fill="#FFFFFF"></path>
<path d="M83.85 126.615C85.9019 126.57 87.9548 126.633 90 126.805C91.3916 127.034 92.6812 127.679 93.7 128.655C94.9274 129.7 95.8971 131.014 96.5336 132.495C97.1701 133.977 97.4564 135.585 97.37 137.195C97.4537 139.09 97.1098 140.981 96.3637 142.726C95.6176 144.471 94.4885 146.025 93.06 147.275C91.8203 148.361 90.3167 149.103 88.7 149.425C86.743 149.772 84.7574 149.933 82.77 149.905H76.07V126.615H83.85ZM82.73 148.615C83.8854 148.643 85.0408 148.559 86.18 148.365C87.1949 148.266 88.1857 147.995 89.11 147.565C92.39 145.905 94.02 142.655 94.02 137.775C94.1271 135.791 93.7853 133.808 93.02 131.975C92.3217 130.543 91.1175 129.42 89.64 128.825C87.6603 128.096 85.5585 127.756 83.45 127.825C82.98 127.825 82.37 127.825 81.67 127.825L79.15 127.925V148.325C80.31 148.425 81.52 148.485 82.73 148.575V148.615Z" fill="#FFFFFF"></path>
<path d="M111.27 136.815C111.641 136.823 112.012 136.803 112.38 136.755C112.76 136.755 113.11 136.755 113.47 136.685C113.83 136.615 114.07 136.625 114.33 136.625C114.311 136.924 114.267 137.222 114.2 137.515C114.2 137.645 114.26 137.805 114.29 137.965C114.308 138.124 114.308 138.285 114.29 138.445L112.76 138.345C112.25 138.345 111.76 138.285 111.23 138.285H106V148.285C106.71 148.285 108.78 148.285 112.19 148.155C113.248 148.126 114.302 148.008 115.34 147.805V148.315C115.318 148.498 115.277 148.679 115.22 148.855C115.22 149.015 115.28 149.205 115.31 149.395C115.323 149.554 115.323 149.715 115.31 149.875H103V126.615H115.11V127.055C115.11 127.245 115.05 127.445 115.02 127.605C114.99 127.765 115.02 128.015 115.11 128.605C114.101 128.405 113.078 128.288 112.05 128.255L108.61 128.185H106V136.765L111.27 136.815Z" fill="#FFFFFF"></path>
<path d="M139.08 149.975C138.61 149.375 138.03 148.675 137.3 147.875L122.54 131.555H122.19V150.015L121.74 149.915C121.56 149.897 121.38 149.897 121.2 149.915H120.69L120.25 150.005V126.615H121.58L137.81 144.215H138.16V126.615C138.74 126.675 139.05 126.705 139.16 126.735L139.64 126.645C139.786 126.633 139.934 126.633 140.08 126.645V150.005L139.08 149.975Z" fill="#FFFFFF"></path>
<path d="M157.66 150.425C155.431 150.472 153.227 149.945 151.26 148.895C149.455 147.919 147.987 146.42 147.05 144.595C146.055 142.586 145.561 140.366 145.61 138.125C145.567 135.848 146.141 133.602 147.27 131.625C148.406 129.83 150.034 128.4 151.96 127.505C153.998 126.533 156.232 126.044 158.49 126.075C161.019 126.07 163.521 126.602 165.83 127.635C165.528 128.482 165.304 129.356 165.16 130.245H164.9C164.243 129.458 163.429 128.818 162.51 128.365C161.273 127.643 159.862 127.276 158.43 127.305C157.098 127.23 155.768 127.475 154.55 128.02C153.332 128.564 152.262 129.392 151.43 130.435C149.748 132.672 148.88 135.417 148.97 138.215C148.934 140.176 149.327 142.121 150.12 143.915C150.808 145.452 151.933 146.753 153.356 147.655C154.779 148.557 156.436 149.019 158.12 148.985C159.63 149.01 161.126 148.685 162.49 148.035C163.52 147.552 164.484 146.94 165.36 146.215L165.2 148.375C162.938 149.773 160.319 150.485 157.66 150.425Z" fill="#FFFFFF"></path>
<path d="M178.74 136.815C179.114 136.823 179.489 136.803 179.86 136.755C180.24 136.755 180.59 136.755 180.94 136.685C181.29 136.615 181.55 136.625 181.8 136.625C181.793 136.925 181.749 137.224 181.67 137.515C181.711 137.663 181.745 137.813 181.77 137.965C181.783 138.124 181.783 138.285 181.77 138.445L180.24 138.345C179.73 138.345 179.24 138.285 178.71 138.285H173.42V148.285C174.12 148.285 176.19 148.285 179.6 148.155C180.661 148.125 181.718 148.008 182.76 147.805V148.315C182.739 148.499 182.695 148.681 182.63 148.855C182.63 149.015 182.7 149.205 182.73 149.395C182.743 149.554 182.743 149.715 182.73 149.875H170.45V126.615H182.57V127.055C182.57 127.245 182.5 127.445 182.47 127.605C182.44 127.765 182.47 128.015 182.57 128.605C181.561 128.406 180.538 128.289 179.51 128.255L176.06 128.185H173.45V136.765L178.74 136.815Z" fill="#FFFFFF"></path>
<path d="M189.28 147.275C189.782 147.805 190.388 148.227 191.06 148.515C191.791 148.807 192.573 148.946 193.36 148.925C194 148.942 194.636 148.821 195.225 148.569C195.814 148.317 196.341 147.94 196.77 147.465C197.656 146.513 198.137 145.254 198.11 143.955C198.155 143.369 198.056 142.782 197.822 142.244C197.589 141.705 197.228 141.232 196.77 140.865C195.529 140.01 194.185 139.314 192.77 138.795C191.309 138.262 189.954 137.473 188.77 136.465C188.288 135.965 187.917 135.369 187.681 134.716C187.445 134.063 187.349 133.367 187.4 132.675C187.335 131.747 187.498 130.817 187.875 129.967C188.251 129.116 188.83 128.371 189.56 127.795C191.122 126.632 193.034 126.036 194.98 126.105C196.769 126.023 198.527 126.599 199.92 127.725C199.76 128.075 199.44 129.005 198.97 130.535H198.62C198.364 129.839 197.943 129.215 197.394 128.718C196.844 128.22 196.181 127.864 195.463 127.679C194.745 127.494 193.993 127.486 193.271 127.656C192.55 127.826 191.88 128.169 191.32 128.655C190.911 129.016 190.587 129.464 190.371 129.965C190.155 130.466 190.052 131.009 190.07 131.555C190.03 132.132 190.128 132.711 190.356 133.243C190.584 133.775 190.935 134.245 191.38 134.615C192.611 135.468 193.958 136.142 195.38 136.615C196.856 137.137 198.234 137.901 199.46 138.875C199.949 139.352 200.328 139.931 200.572 140.57C200.815 141.208 200.917 141.893 200.87 142.575C200.897 144.033 200.509 145.469 199.75 146.715C199.019 147.907 197.955 148.859 196.69 149.455C195.355 150.082 193.895 150.4 192.42 150.385C191.399 150.353 190.388 150.171 189.42 149.845C188.466 149.577 187.592 149.083 186.87 148.405C187.184 147.427 187.408 146.423 187.54 145.405H187.89C188.279 146.08 188.746 146.707 189.28 147.275Z" fill="#FFFFFF"></path>
<path d="M211.34 128.343L212.641 130.171L212.887 130.066C213.133 128.906 213.696 127.956 214.539 127.218C215.348 126.48 216.332 126.058 217.493 126.058C220.446 126.128 221.922 127.921 221.922 131.472C221.922 133.265 221.606 134.847 221.008 136.253C220.411 137.66 219.743 138.82 219.004 139.699C218.231 140.578 216.93 142.019 215.031 143.988L212.746 146.344C212.078 147.012 211.481 147.609 210.988 148.137C210.461 148.664 210.004 149.086 209.617 149.437L209.652 150H225.825C225.825 149.859 225.825 149.648 225.79 149.367C225.755 149.086 225.719 148.84 225.684 148.594C225.755 148.348 225.79 148.101 225.825 147.82C225.825 147.539 225.825 147.293 225.825 147.117C222.168 147.434 218.301 147.609 214.258 147.609L214.047 147.187L214.715 146.484L217 144.094L221.5 139.312C224.067 136.57 225.368 133.933 225.368 131.367C225.368 129.152 224.665 127.499 223.293 126.409C221.922 125.319 220.094 124.757 217.809 124.757C214.996 124.757 212.817 125.952 211.34 128.343Z" fill="#FFFFFF"></path>
<path d="M118.855 78.3046C116.112 78.2985 113.377 78.0036 110.695 77.4247C105.714 76.3661 100.991 74.3362 96.7945 71.451C92.5985 68.5657 89.0123 64.8817 86.2409 60.6095C83.4696 56.3374 81.5675 51.5609 80.6434 46.5531C79.7193 41.5454 79.7913 36.4046 80.8553 31.4247C83.0035 21.3703 89.0579 12.5811 97.6864 6.99067C101.959 4.22256 106.735 2.32306 111.741 1.40065C116.748 0.478227 121.887 0.550947 126.865 1.61465C131.844 2.67836 136.564 4.71222 140.756 7.60012C144.949 10.488 148.531 14.1734 151.299 18.4458C154.067 22.7182 155.967 27.494 156.889 32.5005C157.812 37.5071 157.739 42.6462 156.675 47.6247C154.826 56.2905 150.065 64.0615 143.183 69.6437C136.302 75.2259 127.716 78.2826 118.855 78.3046ZM118.705 2.83465C112.109 2.84921 105.638 4.64141 99.9743 8.02268C94.3103 11.4039 89.6624 16.2493 86.5195 22.0489C83.3767 27.8485 81.855 34.3881 82.1147 40.9794C82.3744 47.5708 84.4058 53.9703 87.9953 59.5047C91.9431 65.5941 97.6082 70.376 104.274 73.2455C110.94 76.1151 118.307 76.9434 125.443 75.6257C132.58 74.308 139.165 70.9035 144.367 65.8427C149.568 60.782 153.152 54.2924 154.665 47.1947C155.671 42.4822 155.738 37.6177 154.864 32.8791C153.989 28.1405 152.19 23.6206 149.569 19.5775C146.947 15.5344 143.555 12.0472 139.586 9.31513C135.616 6.58307 131.148 4.65963 126.435 3.65465C123.895 3.11015 121.304 2.83529 118.705 2.83465Z" fill="#FFFFFF" stroke="#FFFFFF" stroke-width="0.71px" stroke-miterlimit="10"></path>
<path d="M118.365 77.6747C114.835 70.5647 117.295 63.0347 119.265 56.9947C119.665 55.7547 120.045 54.5947 120.355 53.4947C123.095 43.8447 119.955 38.8247 116.355 33.0047C114.311 30.0326 112.651 26.8137 111.415 23.4247C107.735 12.1047 115.205 1.72468 115.515 1.29468L116.695 2.14468C116.615 2.24468 109.355 12.3747 112.795 22.9347C113.984 26.2208 115.58 29.3451 117.545 32.2347C121.205 38.0947 124.665 43.6247 121.755 53.8947C121.435 55.0247 121.055 56.1947 120.645 57.4447C118.645 63.5347 116.405 70.4447 119.645 77.0247L118.365 77.6747Z" fill="#FFFFFF" stroke="#FFFFFF" stroke-width="0.71px" stroke-miterlimit="10"></path>
<path d="M112.785 26.8046C111.675 20.7046 113.105 16.2547 117.295 12.8047C123.175 7.99465 121.505 2.42465 121.435 2.14465L122.855 1.70465C122.945 1.97465 124.915 8.47465 118.255 13.9447C114.515 17.0047 113.255 21.0147 114.255 26.5447L112.785 26.8046Z" fill="#FFFFFF" stroke="#FFFFFF" stroke-width="0.71px" stroke-miterlimit="10"></path>
<path d="M114.745 30.4247C114.745 30.3347 110.525 21.1547 118.885 17.2547C126.475 13.7047 128.695 9.77467 126.805 3.25467L128.205 2.84467C130.285 10.0547 127.685 14.7647 119.495 18.5947C112.495 21.8747 115.905 29.5147 116.055 29.8347L114.745 30.4247Z" fill="#FFFFFF" stroke="#FFFFFF" stroke-width="0.71px" stroke-miterlimit="10"></path>
<path d="M113.315 76.8547L111.855 76.7347C112.455 69.2247 111.755 65.3847 108.745 59.6247C107.475 57.1847 105.115 54.8347 102.385 52.1247C98.8553 48.6247 94.8553 44.6547 91.8553 39.1547C85.1253 27.0747 91.8553 12.5247 92.1453 11.9047L93.4653 12.5247C93.3953 12.6747 86.7553 27.0347 93.1253 38.4447C96.1253 43.7647 99.9953 47.6547 103.445 51.0947C106.255 53.8947 108.685 56.3147 110.065 58.9447C113.165 64.9247 113.925 69.1047 113.315 76.8547Z" fill="#FFFFFF" stroke="#FFFFFF" stroke-width="0.71px" stroke-miterlimit="10"></path>
<path d="M110.135 62.5547C108.555 58.5547 106.385 58.1447 101.615 57.1947C99.7953 56.8247 97.5353 56.4247 94.8553 55.6147C85.2853 52.8547 81.2653 46.6147 81.1053 46.3247L82.3353 45.5447C82.3353 45.6047 86.2453 51.6247 95.2553 54.2147C97.8553 54.9647 100.015 55.4247 101.855 55.7647C106.675 56.7647 109.575 57.3047 111.445 62.0247L110.135 62.5547Z" fill="#FFFFFF" stroke="#FFFFFF" stroke-width="0.71px" stroke-miterlimit="10"></path>
<path d="M94.7153 43.6146C81.3253 39.6746 81.7153 29.7446 81.7153 29.6146L83.1653 29.6846C83.1653 30.0446 82.9153 38.5846 95.1653 42.1846L94.7153 43.6146Z" fill="#FFFFFF" stroke="#FFFFFF" stroke-width="0.71px" stroke-miterlimit="10"></path>
<path d="M89.9053 34.5247C89.1653 31.4147 90.6253 29.4247 92.3153 27.1247C93.7978 25.2897 94.9453 23.2079 95.7053 20.9747C96.8349 17.2961 96.8349 13.3632 95.7053 9.68468L97.0553 9.17468C98.337 13.1553 98.351 17.4357 97.0953 21.4247C96.2926 23.8182 95.0702 26.0497 93.4853 28.0147C91.8953 30.1947 90.7353 31.7647 91.3153 34.2147L89.9053 34.5247Z" fill="#FFFFFF" stroke="#FFFFFF" stroke-width="0.71px" stroke-miterlimit="10"></path>
<path d="M103.545 53.2346C100.211 49.7388 98.1388 45.231 97.6553 40.4246C97.1253 34.9146 99.9553 30.3046 102.945 25.4246C104.403 23.1808 105.709 20.8423 106.855 18.4246C110.005 11.1346 107.855 3.50465 107.855 3.42465L109.255 3.01465C110.612 8.30423 110.244 13.8887 108.205 18.9546C107.039 21.463 105.702 23.8886 104.205 26.2146C101.355 30.8746 98.6553 35.2846 99.1353 40.3146C99.6073 44.7543 101.509 48.9203 104.555 52.1846L103.545 53.2346Z" fill="#FFFFFF" stroke="#FFFFFF" stroke-width="0.71px" stroke-miterlimit="10"></path>
<path d="M102.165 29.6147L100.855 29.0147C101.855 26.7447 101.435 25.1547 100.855 22.9347C100.052 20.4616 99.7125 17.8611 99.8553 15.2647C100.085 11.5047 102.415 5.26467 102.515 4.97467L103.855 5.48467C103.855 5.55467 101.505 11.8147 101.285 15.3547C101.173 17.7925 101.512 20.23 102.285 22.5447C102.855 24.8647 103.405 26.8647 102.165 29.6147Z" fill="#FFFFFF" stroke="#FFFFFF" stroke-width="0.71px" stroke-miterlimit="10"></path>
<path d="M121.935 53.3047L120.565 52.8247C123.395 44.7147 129.745 40.7647 135.345 37.2747C137.637 35.9227 139.829 34.4089 141.905 32.7447C148.275 27.3347 147.905 16.3547 147.905 16.2447L149.355 16.1847C149.355 16.6647 149.785 27.9847 142.885 33.8547C140.758 35.5663 138.509 37.1204 136.155 38.5047C130.455 42.0347 124.605 45.6847 121.935 53.3047Z" fill="#FFFFFF" stroke="#FFFFFF" stroke-width="0.71px" stroke-miterlimit="10"></path>
<path d="M118.165 67.7846H116.705C116.847 65.3846 117.782 63.0997 119.364 61.2894C120.947 59.4791 123.086 58.2462 125.445 57.7846C127.61 57.3552 129.802 57.0778 132.005 56.9546C141.005 56.1946 152.285 55.2446 155.745 42.4946L157.155 42.8746C153.415 56.6046 141.155 57.6446 132.155 58.4046C130.026 58.5252 127.908 58.7925 125.815 59.2046C123.767 59.5787 121.902 60.6259 120.516 62.1801C119.13 63.7344 118.303 65.7068 118.165 67.7846Z" fill="#FFFFFF" stroke="#FFFFFF" stroke-width="0.71px" stroke-miterlimit="10"></path>
<path d="M144.855 63.6546C141.674 63.5203 138.562 62.68 135.745 61.1946C129.405 58.1146 126.005 59.1246 125.975 59.1346L125.535 57.7446C125.695 57.7446 129.535 56.5646 136.375 59.8846C142.745 62.9646 147.545 62.6546 149.005 60.7546L150.155 61.6346C149.265 62.8546 147.445 63.6546 144.855 63.6546Z" fill="#FFFFFF" stroke="#FFFFFF" stroke-width="0.71px" stroke-miterlimit="10"></path>
<path d="M127.785 44.5347L126.855 43.4247C127.205 43.1047 135.285 35.6947 130.295 29.0247C128.953 27.3143 127.987 25.3401 127.46 23.231C126.933 21.1219 126.856 18.9253 127.235 16.7847C127.708 14.421 128.655 12.1774 130.018 10.1891C131.38 8.20071 133.131 6.50863 135.165 5.21466L135.945 6.44466C134.081 7.63035 132.475 9.18041 131.224 11.0019C129.973 12.8233 129.103 14.8787 128.665 17.0447C128.322 18.9893 128.394 20.9844 128.877 22.8992C129.359 24.814 130.241 26.605 131.465 28.1547C137.205 35.9247 127.855 44.4247 127.785 44.5347Z" fill="#FFFFFF" stroke="#FFFFFF" stroke-width="0.71px" stroke-miterlimit="10"></path>
<path d="M131.255 30.6947C130.385 26.3147 132.705 23.2647 137.015 19.4947C139.607 17.0187 141.252 13.7149 141.665 10.1547L143.115 10.2747C142.676 14.2133 140.85 17.8674 137.965 20.5847C133.365 24.5847 132.025 27.1047 132.675 30.4147L131.255 30.6947Z" fill="#FFFFFF" stroke="#FFFFFF" stroke-width="0.71px" stroke-miterlimit="10"></path>
<path d="M129.145 43.2946L128.275 42.1346C132.415 39.0546 133.595 38.8846 137.965 38.2546C139.385 38.0546 141.155 37.8046 143.505 37.3746C154.655 35.4246 153.855 28.4246 153.855 28.0746L155.295 27.8746C155.295 27.9646 156.355 36.5446 143.785 38.8046C141.415 39.2346 139.625 39.4946 138.195 39.6946C133.855 40.3146 132.985 40.4246 129.145 43.2946Z" fill="#FFFFFF" stroke="#FFFFFF" stroke-width="0.71px" stroke-miterlimit="10"></path>
<path d="M122.585 51.3247L121.265 50.7247C121.265 50.6247 125.865 40.9047 139.265 44.3947C146.475 46.2747 150.645 44.1847 152.495 42.7747C153.431 42.1064 154.204 41.2364 154.758 40.229C155.312 39.2216 155.632 38.1026 155.695 36.9547H157.145C157.086 38.3304 156.716 39.6748 156.063 40.8872C155.41 42.0995 154.491 43.1482 153.375 43.9547C151.375 45.5247 146.705 47.8547 138.895 45.8247C126.715 42.6247 122.755 50.9647 122.585 51.3247Z" fill="#FFFFFF" stroke="#FFFFFF" stroke-width="0.71px" stroke-miterlimit="10"></path>
<path d="M130.765 28.9247C130.645 28.6047 127.825 21.2047 131.165 15.4247C133.002 12.0706 135.742 9.29895 139.075 7.42468L139.705 8.72468C136.655 10.4847 134.139 13.0386 132.425 16.1147C129.425 21.2747 132.095 28.2847 132.125 28.3547L130.765 28.9247Z" fill="#FFFFFF" stroke="#FFFFFF" stroke-width="0.71px" stroke-miterlimit="10"></path>
<path d="M120.195 58.8046L118.785 58.4246C118.785 58.3346 121.065 49.9046 131.675 50.6746C134.535 50.8846 137.085 51.2546 139.325 51.5746C145.005 52.4046 148.765 52.9546 151.685 50.1246L152.685 51.1246C149.245 54.4546 144.995 53.8346 139.105 52.9746C136.885 52.6546 134.375 52.2846 131.565 52.0846C122.215 51.4246 120.275 58.5046 120.195 58.8046Z" fill="#FFFFFF" stroke="#FFFFFF" stroke-width="0.71px" stroke-miterlimit="10"></path>
</g>
<defs>
<clipPath id="clip0_17_2">
<rect width="237" height="185.338" fill="white" transform="translate(0 0.345947)"></rect>
</clipPath>
</defs>
</svg>