<svg id="Layer_1" data-name="Layer 1" xmlns="http://www.w3.org/2000/svg" viewBox="0 0 323.62354 67.40137"><defs><style>.cls-1{fill:#fff;}</style></defs><path class="cls-1" d="M163.646,33.7007a10.42536,10.42536,0,0,1-1.06807,4.6417,11.37571,11.37571,0,0,1-3.0888,3.83245A15.40118,15.40118,0,0,1,154.54,44.79461a23.24118,23.24118,0,0,1-13.29447,0,15.40118,15.40118,0,0,1-4.94912-2.61976,11.37571,11.37571,0,0,1-3.0888-3.83245,10.631,10.631,0,0,1,0-9.2834,11.37979,11.37979,0,0,1,3.0888-3.83365,15.425,15.425,0,0,1,4.94912-2.61977A23.04718,23.04718,0,0,1,152.4865,22.105a18.61626,18.61626,0,0,1,3.83244,1.27707,13.82521,13.82521,0,0,1,3.0572,1.92473,12.15291,12.15291,0,0,1,2.23094,2.44236l-5.01353,2.55536a7.82321,7.82321,0,0,0-3.2018-2.70117,12.27907,12.27907,0,0,0-5.49835-1.08388,14.49744,14.49744,0,0,0-4.31848.582,9.75352,9.75352,0,0,0-3.12161,1.5687,6.52855,6.52855,0,0,0-1.89191,2.28075,6.30762,6.30762,0,0,0,0,5.49835A6.51765,6.51765,0,0,0,140.45331,38.73a9.70433,9.70433,0,0,0,3.12161,1.5687,14.458,14.458,0,0,0,4.31848.582,12.74512,12.74512,0,0,0,6.00019-1.24427,7.48576,7.48576,0,0,0,3.31481-3.15441H145.66125V32.0834H163.516q.06379.38823.09721.79225C163.63387,33.1454,163.646,33.42,163.646,33.7007Z"/><path class="cls-1" d="M256.27325,45.02184,239.907,29.20481v15.817h-5.694V22.37957h5.694l16.36625,15.817v-15.817H261.966V45.02184Z"/><path class="cls-1" d="M299.034,33.7007a10.29129,10.29129,0,0,1-3.73645,8.00511,13.59379,13.59379,0,0,1-4.47888,2.42657,19.11058,19.11058,0,0,1-6.0816.88946H269.08167V22.37957h15.65541a19.11058,19.11058,0,0,1,6.0816.88946,13.6142,13.6142,0,0,1,4.47888,2.42535A10.29134,10.29134,0,0,1,299.034,33.7007Zm-5.9844,0a6.66993,6.66993,0,0,0-.50062-2.57237,5.49542,5.49542,0,0,0-1.5529-2.10214,7.76155,7.76155,0,0,0-2.63678-1.40709,12.16225,12.16225,0,0,0-3.751-.51763h-9.83385V40.29872h9.83385a12.12553,12.12553,0,0,0,3.751-.51763,7.71991,7.71991,0,0,0,2.63678-1.40709,5.47719,5.47719,0,0,0,1.5529-2.10213A6.66394,6.66394,0,0,0,293.04961,33.7007Z"/><path class="cls-1" d="M80.29527,45.02123V36.46544H61.81157v8.55579h-5.694V22.379h5.694v9.66242h18.4837V22.379H85.988V45.02123Z"/><path class="cls-1" d="M42.1959,27.26247V45.02123h-5.66V27.26247H22.613V22.379H56.11759v4.88351Z"/><path class="cls-1" d="M92.82932,45.02123V22.379h27.753v4.88351H98.52208v4.23768h18.98723v4.39868H98.52208v4.23768h22.06023v4.88472Z"/><path class="cls-1" d="M193.953,34.03045a6.84336,6.84336,0,0,0,1.01826-1.95632,5.94278,5.94278,0,0,0,.38883-2.25569,7.506,7.506,0,0,0-.80926-3.70364,6.79836,6.79836,0,0,0-1.97211-2.26374,7.31913,7.31913,0,0,0-2.44237-1.14827,9.16434,9.16434,0,0,0-2.18354-.32322H167.60706V45.02184h5.69277V36.46545h11.87158l3.62222,8.55639h6.0816l-3.94666-8.74344a8.06006,8.06006,0,0,0,1.60151-.87366A6.3341,6.3341,0,0,0,193.953,34.03045Zm-6.60448-1.98912H173.29983V27.26308h14.04866a2.38913,2.38913,0,1,1,0,4.77825Z"/><path class="cls-1" d="M224.89372,45.02184h6.04879L217.93846,22.37957h-7.27727L197.65835,45.02184h6.0488l2.39656-4.15771h16.40058Zm-16.25454-8.55639,5.677-9.84881,5.66011,9.84881Z"/><path class="cls-1" d="M318.58954,5.034V62.36737H5.034V5.034H318.58954M323.62354,0H0V67.40137H323.62354V0Z"/></svg>