<svg width="389" height="44" viewBox="0 0 389 44" fill="none" xmlns="http://www.w3.org/2000/svg">
<g clip-path="url(#clip0_577_1566)">
<path d="M5.79321 1.11462L16.1314 37.0336H16.2429L26.6646 1.11462H31.7362L42.1859 37.0336H42.2973L52.524 1.11462H57.0104L44.6938 42.8854H39.7337L29.2004 7.02216H29.089L18.5836 42.8854H13.6235L1.30682 1.11462H5.79321Z" fill="white"/>
<path d="M62.8344 42.8854V1.11462H67.0699V19.2274H89.8363V1.11462H94.0718V42.8854H89.8363V23.1286H67.0699V42.8854H62.8344Z" fill="white"/>
<path d="M108.896 1.11462V42.8854H104.661V1.11462H108.896Z" fill="white"/>
<path d="M132.861 4.90436V42.8854H128.625V4.90436H114.637V1.11462H146.85V4.90436H132.861Z" fill="white"/>
<path d="M156.798 23.0171V39.1235H179.146V42.9132H152.534V1.11462H178.421V4.90436H156.77V19.2831H177V22.9892H156.77L156.798 23.0171Z" fill="white"/>
<path d="M236.382 42.8854H226.295V25.4135H210.021V42.8854H199.934V1.11462H210.021V16.9424H226.295V1.11462H236.382V42.8854Z" fill="white"/>
<path d="M287.99 21.8189C287.99 28.3952 285.844 33.7175 281.553 37.8417C277.261 41.9658 271.827 44 265.223 44C258.619 44 253.241 41.9379 248.95 37.8417C244.658 33.7454 242.513 28.3952 242.513 21.8189C242.513 15.2426 244.658 9.9202 248.922 5.96327C253.185 1.97847 258.619 0 265.223 0C271.827 0 277.317 1.97847 281.58 5.96327C285.844 9.94807 287.99 15.2147 287.99 21.8189ZM277.205 21.8189C277.205 18.1127 276.091 15.0754 273.834 12.6789C271.604 10.2825 268.706 9.08423 265.223 9.08423C261.74 9.08423 258.87 10.2825 256.641 12.6789C254.411 15.0754 253.297 18.1406 253.297 21.8189C253.297 25.4972 254.411 28.7017 256.641 31.126C258.87 33.5782 261.712 34.7764 265.223 34.7764C268.734 34.7764 271.604 33.5503 273.834 31.126C276.063 28.7017 277.205 25.5807 277.205 21.8189Z" fill="white"/>
<path d="M322.041 9.72514H310.254V42.8854H300.167V9.72514H288.38V1.11462H322.069V9.72514H322.041Z" fill="white"/>
<path d="M355.23 42.8854H326.082V1.11462H354.171V9.66941H335.835V17.5275H353.168V25.6086H335.835V34.2749H355.23V42.8854Z" fill="white"/>
<path d="M387.693 42.8854H361.388V1.11462H371.531V34.1077H387.693V42.8854Z" fill="white"/>
</g>
<defs>
<clipPath id="clip0_577_1566">
<rect width="389" height="44" fill="white"/>
</clipPath>
</defs>
</svg>
