<?xml version="1.0" encoding="UTF-8"?>
<svg id="Layer_1" data-name="Layer 1" xmlns="http://www.w3.org/2000/svg" viewBox="0 0 215.43 40.03">
  <defs>
    <style>
      .cls-1, .cls-2 {
        fill: #fff;
      }

      .cls-2 {
        fill-rule: evenodd;
      }
    </style>
  </defs>
  <path class="cls-2" d="M170.14,40.03c-.38,0-.72-.05-1.03-.15-.31-.1-.57-.24-.8-.43l.2-.45c.23,.18,.48,.31,.74,.4,.26,.09,.55,.13,.89,.13,.41,0,.72-.08,.92-.23,.2-.15,.3-.36,.3-.61,0-.2-.07-.36-.22-.48-.14-.12-.39-.21-.73-.28l-.72-.14c-.43-.09-.75-.24-.97-.45-.21-.21-.32-.49-.32-.84,0-.29,.07-.54,.22-.76,.15-.22,.36-.38,.62-.5,.27-.12,.57-.18,.92-.18,.33,0,.63,.05,.91,.15,.28,.1,.52,.25,.71,.44l-.2,.44c-.21-.19-.42-.32-.65-.41-.23-.08-.49-.13-.77-.13-.36,0-.65,.08-.87,.25-.22,.17-.32,.39-.32,.66,0,.22,.07,.39,.2,.52,.14,.13,.36,.22,.66,.28l.72,.15c.46,.1,.81,.24,1.03,.44,.22,.2,.33,.46,.33,.79,0,.27-.07,.51-.22,.72-.14,.21-.35,.37-.62,.48-.27,.11-.59,.17-.95,.17m-4.86-.06v-4.36h-1.76v-.49h4.09v.49h-1.76v4.36h-.57Zm-6.78,0v-4.85h.44l2.92,3.9v-3.9h.52v4.85h-.43l-2.93-3.91v3.91h-.53Zm-4.51,0v-4.85h3.06v.47h-2.51v1.68h2.37v.47h-2.37v1.75h2.51v.47h-3.06Zm-6.37,0v-4.85h.47l1.86,3.5,1.85-3.5h.47v4.85h-.52v-3.79l-1.62,3.04h-.37l-1.64-3.03v3.78h-.52Zm-3.47,0v-4.36h-1.76v-.49h4.09v.49h-1.76v4.36h-.57Zm-5.59-2.5h1.27c.76,0,1.14-.32,1.14-.95s-.38-.94-1.14-.94h-1.27v1.88Zm-.56,2.5v-4.85h1.92c.52,0,.92,.12,1.2,.36,.28,.24,.42,.59,.42,1.04,0,.36-.1,.65-.29,.88-.2,.23-.47,.38-.83,.45,.21,.07,.39,.25,.54,.54l.85,1.58h-.62l-.84-1.55c-.11-.19-.23-.32-.36-.39-.14-.07-.32-.1-.54-.1h-.88v2.05h-.56Zm-3.61-4.19l-1.05,2.48h2.12l-1.05-2.48h-.01Zm-2.37,4.19l2.14-4.85h.48l2.14,4.85h-.58l-.54-1.24h-2.52l-.53,1.24h-.58Zm-3.34-2.41h1.29c.75,0,1.13-.33,1.13-.98s-.38-.99-1.13-.99h-1.29v1.97Zm-.56,2.41v-4.85h1.92c.52,0,.92,.13,1.2,.38,.28,.25,.42,.61,.42,1.08s-.14,.82-.42,1.08c-.28,.25-.68,.38-1.2,.38h-1.36v1.93h-.56Zm-3.61-4.19l-1.05,2.48h2.12l-1.05-2.48h-.01Zm-2.37,4.19l2.14-4.85h.48l2.14,4.85h-.58l-.54-1.24h-2.52l-.53,1.24h-.58Zm-5.17-.4c.47,0,.86-.18,1.16-.55l-1.3-1.42-.08,.05c-.29,.19-.5,.37-.62,.53-.12,.16-.18,.35-.18,.58,0,.25,.09,.45,.26,.59,.17,.14,.43,.21,.76,.21Zm.18-4.08c-.2,0-.36,.06-.48,.17-.12,.11-.19,.27-.19,.45,0,.1,.01,.18,.04,.26,.03,.08,.08,.17,.15,.27,.07,.1,.17,.22,.29,.36,.29-.18,.49-.35,.61-.49,.12-.14,.18-.29,.18-.45,0-.18-.05-.32-.16-.42-.11-.1-.25-.15-.43-.15Zm-.21,4.54c-.49,0-.87-.11-1.14-.34-.27-.22-.41-.52-.41-.89,0-.31,.09-.58,.25-.8,.17-.22,.42-.45,.76-.67l.1-.07c-.21-.22-.35-.42-.43-.6-.08-.17-.12-.35-.12-.53,0-.32,.11-.58,.32-.78,.22-.2,.5-.3,.87-.3,.32,0,.58,.09,.78,.26,.2,.18,.31,.42,.31,.72,0,.24-.07,.46-.21,.66-.14,.2-.39,.41-.76,.64l1.13,1.27c.1-.19,.17-.42,.23-.67,.06-.26,.09-.53,.1-.81h.48c0,.36-.06,.69-.14,1.01-.08,.31-.2,.59-.33,.83l.93,1h-.68l-.54-.61c-.19,.22-.42,.38-.67,.5-.26,.12-.53,.18-.83,.18Zm-6.31,0c-.38,0-.72-.05-1.03-.15-.31-.1-.57-.24-.8-.43l.2-.45c.23,.18,.48,.31,.74,.4,.26,.09,.55,.13,.89,.13,.41,0,.72-.08,.92-.23,.2-.15,.3-.36,.3-.61,0-.2-.07-.36-.22-.48-.14-.12-.39-.21-.73-.28l-.72-.14c-.43-.09-.75-.24-.97-.45-.21-.21-.32-.49-.32-.84,0-.29,.07-.54,.22-.76,.15-.22,.36-.38,.62-.5,.27-.12,.57-.18,.92-.18,.33,0,.63,.05,.91,.15,.28,.1,.52,.25,.71,.44l-.2,.44c-.21-.19-.42-.32-.65-.41-.23-.08-.49-.13-.77-.13-.36,0-.65,.08-.87,.25-.22,.17-.32,.39-.32,.66,0,.22,.07,.39,.2,.52,.14,.13,.36,.22,.66,.28l.72,.15c.46,.1,.81,.24,1.03,.44,.22,.2,.33,.46,.33,.79,0,.27-.07,.51-.22,.72-.14,.21-.35,.37-.62,.48-.27,.11-.59,.17-.95,.17Zm-6.01-.06v-4.85h3.06v.47h-2.51v1.68h2.37v.47h-2.37v1.75h2.51v.47h-3.06Zm-3.16,.06c-.38,0-.72-.05-1.03-.15-.31-.1-.57-.24-.8-.43l.2-.45c.23,.18,.48,.31,.74,.4,.26,.09,.55,.13,.89,.13,.41,0,.72-.08,.92-.23,.2-.15,.3-.36,.3-.61,0-.2-.07-.36-.22-.48-.14-.12-.39-.21-.73-.28l-.72-.14c-.43-.09-.75-.24-.97-.45-.21-.21-.32-.49-.32-.84,0-.29,.07-.54,.22-.76,.15-.22,.36-.38,.62-.5,.27-.12,.57-.18,.92-.18,.33,0,.63,.05,.91,.15,.28,.1,.52,.25,.71,.44l-.2,.44c-.21-.19-.42-.32-.65-.41-.23-.08-.49-.13-.77-.13-.36,0-.65,.08-.87,.25-.22,.17-.32,.39-.32,.66,0,.22,.07,.39,.2,.52,.14,.13,.36,.22,.66,.28l.72,.15c.46,.1,.81,.24,1.03,.44,.22,.2,.33,.46,.33,.79,0,.27-.07,.51-.22,.72-.14,.21-.35,.37-.62,.48-.27,.11-.59,.17-.95,.17Zm-5.17,0c-.64,0-1.12-.17-1.45-.51-.33-.34-.5-.83-.5-1.48v-2.93h.56v2.9c0,1,.46,1.51,1.38,1.51s1.37-.5,1.37-1.51v-2.9h.56v2.93c0,.65-.16,1.14-.49,1.48-.33,.34-.81,.51-1.44,.51Zm-5.65-.5c.52,0,.92-.17,1.2-.52,.28-.35,.43-.84,.43-1.46s-.14-1.12-.43-1.46c-.28-.35-.69-.52-1.2-.52s-.91,.17-1.19,.52c-.28,.35-.43,.83-.43,1.46s.14,1.11,.43,1.46c.28,.35,.68,.53,1.19,.53Zm0,.5c-.45,0-.84-.1-1.17-.31-.33-.2-.59-.49-.77-.86-.18-.37-.27-.81-.27-1.32s.09-.95,.27-1.32c.18-.37,.43-.66,.77-.86,.33-.2,.73-.3,1.18-.3s.85,.1,1.19,.3c.33,.2,.59,.49,.77,.86,.18,.37,.27,.81,.27,1.32s-.09,.95-.28,1.32c-.18,.37-.44,.66-.77,.87-.33,.2-.73,.31-1.18,.31Zm-7.77-.06v-4.85h.56v2.15h2.91v-2.15h.56v4.85h-.56v-2.21h-2.91v2.21h-.56Zm-5.59,0v-4.85h.44l2.92,3.9v-3.9h.52v4.85h-.43l-2.93-3.91v3.91h-.53Zm-6.77,0l-1.7-4.85h.59l1.37,4.02,1.4-4.02h.45l1.39,4.06,1.4-4.06h.56l-1.7,4.85h-.5l-1.38-3.99-1.4,3.99h-.49Zm-4.94-.44c.52,0,.92-.17,1.2-.52,.28-.35,.43-.84,.43-1.46s-.14-1.12-.43-1.46c-.28-.35-.69-.52-1.2-.52s-.91,.17-1.19,.52c-.28,.35-.43,.83-.43,1.46s.14,1.11,.43,1.46c.28,.35,.68,.53,1.19,.53Zm0,.5c-.45,0-.84-.1-1.17-.31-.33-.2-.59-.49-.77-.86-.18-.37-.27-.81-.27-1.32s.09-.95,.27-1.32c.18-.37,.43-.66,.77-.86,.33-.2,.73-.3,1.18-.3s.85,.1,1.19,.3c.33,.2,.59,.49,.77,.86,.18,.37,.27,.81,.27,1.32s-.09,.95-.28,1.32c-.18,.37-.44,.66-.77,.87-.33,.2-.73,.31-1.18,.31Zm-5.19-.06v-4.36h-1.76v-.49h4.09v.49h-1.76v4.36h-.57Z"/>
  <path class="cls-2" d="M58.61,8.03h2.15c.23,0,.42,.06,.57,.17,.15,.12,.25,.26,.31,.44l3.95,13.34c.07,.24,.14,.5,.2,.78,.06,.28,.11,.56,.16,.87,.06-.31,.12-.6,.19-.88,.06-.28,.13-.54,.21-.77l4.5-13.34c.05-.16,.16-.29,.32-.42,.16-.13,.34-.2,.56-.2h.75c.23,0,.42,.06,.57,.17,.15,.12,.25,.26,.31,.44l4.47,13.34c.16,.47,.3,1,.43,1.6,.05-.29,.1-.58,.15-.84,.04-.27,.1-.52,.17-.75l3.96-13.34c.04-.16,.15-.31,.3-.43,.16-.12,.34-.19,.56-.19h2.01l-5.96,19.13h-2.32l-4.84-14.37c-.1-.27-.19-.59-.27-.95-.04,.18-.08,.35-.12,.51-.04,.16-.08,.31-.13,.44l-4.87,14.37h-2.32l-5.96-19.13Z"/>
  <path class="cls-2" d="M102.62,17.6c0-1.17-.16-2.23-.48-3.17-.32-.94-.77-1.72-1.36-2.37-.59-.64-1.3-1.14-2.13-1.49-.84-.35-1.77-.52-2.8-.52-1.02,0-1.95,.17-2.79,.52-.84,.35-1.55,.84-2.14,1.49-.59,.65-1.05,1.44-1.37,2.37-.32,.93-.48,1.99-.48,3.17s.16,2.23,.48,3.16c.32,.93,.78,1.72,1.37,2.37,.59,.65,1.3,1.14,2.14,1.48,.84,.34,1.77,.52,2.79,.52,1.03,0,1.97-.17,2.8-.52,.84-.34,1.55-.84,2.13-1.48,.59-.65,1.04-1.44,1.36-2.37,.32-.93,.48-1.99,.48-3.16m2.65,0c0,1.43-.23,2.75-.68,3.95-.45,1.2-1.09,2.23-1.92,3.09-.83,.86-1.82,1.53-2.98,2.01-1.16,.48-2.45,.72-3.85,.72-1.4,0-2.69-.24-3.84-.72-1.16-.48-2.15-1.15-2.97-2.01-.83-.86-1.47-1.89-1.92-3.09-.45-1.2-.68-2.52-.68-3.95s.23-2.75,.68-3.95c.45-1.2,1.09-2.23,1.92-3.1,.83-.87,1.82-1.54,2.97-2.02,1.16-.48,2.44-.72,3.84-.72,1.41,0,2.69,.24,3.85,.72,1.16,.48,2.15,1.16,2.98,2.02,.83,.87,1.47,1.9,1.92,3.1,.45,1.2,.68,2.52,.68,3.95Z"/>
  <path class="cls-2" d="M124.31,17.6c0-1.17-.16-2.23-.48-3.17-.32-.94-.77-1.72-1.36-2.37-.59-.64-1.3-1.14-2.13-1.49-.84-.35-1.77-.52-2.8-.52-1.02,0-1.95,.17-2.79,.52-.84,.35-1.55,.84-2.14,1.49-.59,.65-1.05,1.44-1.37,2.37-.32,.93-.48,1.99-.48,3.17s.16,2.23,.48,3.16c.32,.93,.78,1.72,1.37,2.37,.59,.65,1.3,1.14,2.14,1.48,.84,.34,1.77,.52,2.79,.52,1.03,0,1.97-.17,2.8-.52,.84-.34,1.55-.84,2.13-1.48,.59-.65,1.04-1.44,1.36-2.37,.32-.93,.48-1.99,.48-3.16m2.65,0c0,1.43-.23,2.75-.68,3.95-.45,1.2-1.09,2.23-1.92,3.09-.83,.86-1.82,1.53-2.98,2.01-1.16,.48-2.45,.72-3.85,.72-1.4,0-2.69-.24-3.84-.72-1.16-.48-2.15-1.15-2.97-2.01-.83-.86-1.47-1.89-1.92-3.09-.45-1.2-.68-2.52-.68-3.95s.23-2.75,.68-3.95c.45-1.2,1.09-2.23,1.92-3.1,.83-.87,1.82-1.54,2.97-2.02,1.16-.48,2.44-.72,3.84-.72,1.41,0,2.69,.24,3.85,.72,1.16,.48,2.15,1.16,2.98,2.02,.83,.87,1.47,1.9,1.92,3.1,.45,1.2,.68,2.52,.68,3.95Z"/>
  <path class="cls-2" d="M144.17,17.59c0-1.17-.16-2.22-.48-3.14-.32-.92-.77-1.71-1.36-2.34-.59-.64-1.3-1.13-2.13-1.47-.84-.34-1.77-.51-2.79-.51h-4.55v14.91h4.55c1.02,0,1.95-.17,2.79-.51,.84-.34,1.55-.82,2.13-1.46,.59-.64,1.04-1.41,1.36-2.34,.32-.92,.48-1.97,.48-3.15m2.65,0c0,1.44-.23,2.74-.68,3.91-.45,1.17-1.09,2.18-1.92,3.02-.83,.84-1.82,1.48-2.97,1.94-1.16,.46-2.44,.69-3.84,.69h-7.15s0-19.13,0-19.13h7.15c1.4,0,2.69,.23,3.84,.69,1.16,.46,2.15,1.11,2.97,1.95,.83,.84,1.47,1.85,1.92,3.02,.45,1.17,.68,2.48,.68,3.91Z"/>
  <path class="cls-2" d="M147.68,8.03h2.07c.23,0,.42,.06,.56,.17,.14,.12,.25,.26,.32,.44l5.4,13.53c.12,.3,.24,.64,.34,.99,.1,.36,.2,.72,.3,1.11,.08-.39,.17-.76,.26-1.11,.09-.36,.2-.69,.32-.99l5.38-13.53c.06-.15,.17-.29,.32-.42,.15-.13,.34-.2,.56-.2h2.08l-7.79,19.13h-2.33l-7.79-19.13Z"/>
  <rect class="cls-1" x="168.52" y="8.03" width="2.59" height="19.13"/>
  <polygon class="cls-2" points="178.82 24.96 187.09 24.96 187.09 27.15 176.23 27.15 176.23 8.03 178.82 8.03 178.82 24.96"/>
  <polygon class="cls-2" points="192.53 24.96 200.8 24.96 200.8 27.15 189.94 27.15 189.94 8.03 192.53 8.03 192.53 24.96"/>
  <polygon class="cls-2" points="215.43 8.03 215.43 10.13 206.26 10.13 206.26 16.48 213.69 16.48 213.69 18.51 206.26 18.51 206.26 25.04 215.43 25.04 215.43 27.15 203.66 27.15 203.66 8.03 215.43 8.03"/>
  <path class="cls-2" d="M23.9,13.39l-6.72-5.33v5.49l6.72,5.33v-5.49Zm0-11.59l-6.36,5.04,6.36,5.04c0-3.36,0-6.72,0-10.09Zm5.79,3.66l-4.62-3.66v7.33l4.62-3.66Zm11.17,16.48l1.96-1.56-1.96-1.56v3.11Zm0,6.98l6.36-5.05-3.45-2.74-2.91,2.31v5.48Zm0,6.98l6.72-5.33v-5.48l-6.72,5.33v5.48ZM8.12,24.63c0-3.37,0-6.73,0-10.1L1.76,19.59l6.36,5.05Zm0,6.98v-5.48L1.4,20.8v5.48s6.72,5.33,6.72,5.33Zm1.17-12.73l2.74-2.17-2.74-2.18v4.35Zm5.9,19.88h2.82v-6.59h-2.82v6.59Zm1.41-24.18l-7.3,5.79v18.39h4.71v-7.18c0-.32,.26-.59,.59-.59h4c.33,0,.59,.26,.59,.59v7.18h4.71V20.38l-7.3-5.79Zm23.09-3.96l-7.3-5.79-7.3,5.79v28.14h4.71v-7.18c0-.32,.27-.59,.59-.59h4c.33,0,.59,.26,.59,.59v7.18h4.71V10.63Zm-5.89,28.14v-6.59h-2.82v6.59h2.82ZM12.98,15.96l3.03-2.41V6.85c0-.2,.1-.38,.25-.48L24.13,.13c.22-.18,.53-.17,.74,0l5.78,4.58,1.37-1.09c.21-.17,.52-.18,.74,0l7.86,6.24c.15,.11,.25,.28,.25,.48v6.99l7.67,6.09c.15,.12,.22,.29,.22,.46v6.98c0,.2-.1,.38-.25,.48l-7.64,6.06v1.36h7.59c.32,0,.59,.26,.59,.59s-.26,.59-.59,.59H.59c-.32,0-.59-.26-.59-.59s.26-.59,.59-.59h7.53s0-5.65,0-5.65L1.3,27.7l-.85-.68c-.16-.13-.22-.3-.22-.5v-6.94c0-.19,.09-.35,.22-.46l7.89-6.26c.22-.17,.52-.17,.74,0l3.9,3.09Z"/>
</svg>